<svg xmlns="http://www.w3.org/2000/svg" viewBox="0 0 210.4 37.5"><path d="M187.1,34.5H23.9V34a8.7,8.7,0,0,0-8.6-8.6h-.5V12.5h.5a8.7,8.7,0,0,0,8.6-8.6V3.5H187.1v.4a8.7,8.7,0,0,0,8.6,8.6h.5V25.4h-.5a8.7,8.7,0,0,0-8.6,8.6h0Zm-162.3-1H186.2a9.5,9.5,0,0,1,9.1-9V13.4a9.5,9.5,0,0,1-9.1-9H24.8a9.5,9.5,0,0,1-9.1,9V24.5A9.5,9.5,0,0,1,24.8,33.5Z" style="fill:#c7a754"/><path d="M185.6,32.5H25.4c0-4.4-4.1-8.7-8.3-8.7h-.2V14.5h.2c3.5,0,8.3-4.5,8.3-9H185.6c0,4.5,4.1,8.8,8.3,8.8h.2v9.2h-.2c-4.1,0-8.3,4.5-8.3,8.9ZM25.7,32.2H185.3c0-4.5,4.2-8.9,8.5-9V14.6c-4.3-.1-8.5-4.4-8.5-8.9H25.7c-.1,4.6-4.8,9-8.5,9.1v8.6C21.5,23.5,25.6,27.8,25.7,32.2Z" style="fill:#c7a754"/><path d="M192.3.7a1.2,1.2,0,0,0,.1,1.6c-1.8.5-2.4,2.7-2.5,3.6s-1.7,1.6-1.7,1.6a1.9,1.9,0,0,0,2.5.2,4.4,4.4,0,0,0,5.2,2.4,1.4,1.4,0,0,1,1.4.2.8.8,0,0,0-.3-.9,2.7,2.7,0,0,0-.3-3.7l-.3-.2a2,2,0,0,1-.6,2.6,4.1,4.1,0,0,1-3.4-.2c1.7.1,1.5-1.4,1.5-1.4s-2.2.1-1.9-1.2a3.4,3.4,0,0,1,1.3-1.8c0,1.3,1.4,1.4,1.4,1.4s.2-2.2,1.1-2.1a3.9,3.9,0,0,1,3,3.4c.6,2.4-1.3,5.4-1.3,5.4a7.8,7.8,0,0,0,1.9-5,4.7,4.7,0,0,0-4.5-4.9h-.6A2.6,2.6,0,0,1,192.3.7Zm2.9,1.5.9.2h-2l-1.2.5a3.1,3.1,0,0,0-1.1.9,1.6,1.6,0,0,0-.4.7l-.3.7V6a2.2,2.2,0,0,0,.1.8,3.5,3.5,0,0,0,.6,1.4,3.8,3.8,0,0,0,1.3.9,3.2,3.2,0,0,0,1.4.2h.7l.5-.2.9-.7a2,2,0,0,0,.4-.8.9.9,0,0,0,.1-.5v.5a2,2,0,0,1-.4.8,2.4,2.4,0,0,1-.9.8l-.6.3h-.7a2.6,2.6,0,0,1-1.5-.2,4.2,4.2,0,0,1-1.4-.9,4.1,4.1,0,0,1-.7-1.5,2.8,2.8,0,0,1-.1-.9,2.2,2.2,0,0,1,.1-.8,1.9,1.9,0,0,1,.2-.8l.5-.7,1.2-1,1.3-.4Z" style="fill:#c7a754"/><path d="M194.3,36.3a4.8,4.8,0,0,0,5.1-4.5v-.5a7.3,7.3,0,0,0-1.9-4.9s1.9,2.9,1.3,5.3-2,3.3-3,3.4-2.1-.7-1.1-2.1a1.5,1.5,0,0,0-1.4,1.5,3.6,3.6,0,0,1-1.3-1.9,1.2,1.2,0,0,1,.9-1.4,1.2,1.2,0,0,1,1,.2s.2-1.4-1.5-1.4a3.7,3.7,0,0,1,3.4-.1,1.8,1.8,0,0,1,.6,2.5h0a2.6,2.6,0,0,0,.8-3.6c0-.1-.1-.2-.2-.3a.7.7,0,0,0,.3-.8,1.7,1.7,0,0,1-1.4.1,4.4,4.4,0,0,0-5.2,2.4,1.9,1.9,0,0,0-2.5.2s1.6.4,1.7,1.6.7,3.2,2.5,3.7a1.1,1.1,0,0,0-.2,1.4h.1A2.2,2.2,0,0,1,194.3,36.3Zm-.2-.7a2.8,2.8,0,0,1-1.3-.4,2.9,2.9,0,0,1-1.2-1l-.5-.6a2.4,2.4,0,0,1-.2-.8,2.8,2.8,0,0,1-.1-.9,2.2,2.2,0,0,1,.1-.8,4.6,4.6,0,0,1,.7-1.6,4.2,4.2,0,0,1,1.4-.9,3.9,3.9,0,0,1,1.5-.2h.7l.6.3a2.4,2.4,0,0,1,.9.8,2,2,0,0,1,.4.8v.5a.9.9,0,0,0-.1-.5,3,3,0,0,0-.4-.8l-.9-.6-.5-.3h-.7l-1.4.2a3.8,3.8,0,0,0-1.3.9,3.5,3.5,0,0,0-.6,1.4,2.2,2.2,0,0,0-.1.8v.8l.3.7a1.6,1.6,0,0,0,.4.7,3.1,3.1,0,0,0,1.1.9l1.2.5h2.5l-.5.2h-2Z" style="fill:#c7a754"/><path d="M207.7,19.5a2.1,2.1,0,0,0,2.5-.5h0a2.1,2.1,0,0,0-2.5-.6c1.2-1.7-.4-2.4-.4-2.4.7,1.9-1.8,2.9-1.9,3h0c.1,0,2.6,1,1.9,3a1.5,1.5,0,0,0,.6-2.2C207.9,19.7,207.8,19.6,207.7,19.5Z" style="fill:#c7a754"/><path d="M201.6,9.4c-2.4.2-3.8,3-3.7,5.3a4.3,4.3,0,0,0,4.5,4.3h.4c2.8-.2,3.2-1.7,3.3-2a1.4,1.4,0,0,0-.1-1.1.8.8,0,0,0-.4-.4l-.5-.2a1.1,1.1,0,0,0-.9.5,1,1,0,0,0-.1.9v.2h.1c0,.1,0,.1.1.1h.3l.5-.2.2-.3v-.2h0l-.2.3-.5.2h-.3c0-.1-.1-.1-.1-.2a.8.8,0,0,1,.2-.7.9.9,0,0,1,.7-.3h.4l.3.3a1.4,1.4,0,0,1,0,.9c0,.3-.4,1.5-2.4,1.9a2.8,2.8,0,0,1-2-.4c-.6-.4-.5-.8-.9-1.1s-.8-.2-.9-.9a.9.9,0,0,1,.6-1.1.9.9,0,0,0-1.1-.3s-.1-1.3.7-1.8,1.3-.1,1.4.3a1.2,1.2,0,0,0-.5-1.6,4.4,4.4,0,0,1,1.6-.6c1-.1,1.1.8.8,1.4s.9-.2.8-1a1.2,1.2,0,0,1,.8,1.4c-.1,1.2-1,1.7-1.6,1.5s-1.1-.4-1.1.4,2.1,1,3-1.2a3.4,3.4,0,0,0-2.1-4.2Zm-2.1,6h-.4v.2h0a.4.4,0,0,0-.1.3v-.3h0v-.2h0v-.2h.5Zm.4-3.3h.8l-.4-.2h-1.8l.2-.2.2-.2h1Zm1.9-2.1h.8l.3.2h.2a.2.2,0,0,0,.2.2v.5h.1v.2h0l-.2-.4V11h-.2l-.2-.2-.2-.2h-.9Z" style="fill:#c7a754"/><path d="M16.7,1.7a4.7,4.7,0,0,0-5.2,4.2v.7a8.5,8.5,0,0,0,2,5s-1.9-3-1.3-5.4a3.9,3.9,0,0,1,3-3.4c.9-.1,2.1.7,1.1,2.1s1.4-.1,1.4-1.4A3.4,3.4,0,0,1,19,5.3c.3,1.3-1.1,2.1-1.9,1.2S16.9,8,18.6,7.9a4.1,4.1,0,0,1-3.4.2,2,2,0,0,1-.6-2.6,2.6,2.6,0,0,0-.8,3.6l.2.3a.8.8,0,0,0-.3.9,1.4,1.4,0,0,1,1.4-.2,4.4,4.4,0,0,0,5.2-2.4,1.7,1.7,0,0,0,2.4-.2s-1.5-.4-1.6-1.6-.7-3.1-2.5-3.6A1.2,1.2,0,0,0,18.7.7,2.6,2.6,0,0,1,16.7,1.7Zm.2.6,1.3.4,1.2,1a1.6,1.6,0,0,1,.4.7,1.1,1.1,0,0,1,.3.8,2.2,2.2,0,0,1,.1.8,2.8,2.8,0,0,1-.1.9,4.1,4.1,0,0,1-.7,1.5,4.2,4.2,0,0,1-1.4.9,2.6,2.6,0,0,1-1.5.2h-.7l-.6-.3a2.4,2.4,0,0,1-.9-.8,2,2,0,0,1-.4-.8V7a.9.9,0,0,0,.1.5,2,2,0,0,0,.4.8l.9.7.5.2h.7A3.2,3.2,0,0,0,17.9,9a3.8,3.8,0,0,0,1.3-.9,3.5,3.5,0,0,0,.6-1.4,2.2,2.2,0,0,0,.1-.8V5.2l-.3-.7a1.6,1.6,0,0,0-.4-.7,3.1,3.1,0,0,0-1.1-.9l-1.2-.5h-2l.9-.2Z" style="fill:#c7a754"/><path d="M18.7,37.2a1,1,0,0,0,0-1.4h-.1c1.8-.5,2.4-2.8,2.5-3.7s1.6-1.6,1.6-1.6a1.7,1.7,0,0,0-2.4-.2,4.4,4.4,0,0,0-5.2-2.4,1.7,1.7,0,0,1-1.4-.1.7.7,0,0,0,.3.8,2.7,2.7,0,0,0,.3,3.7l.3.2a1.8,1.8,0,0,1,.6-2.5h0a3.7,3.7,0,0,1,3.4.1c-1.7,0-1.5,1.4-1.5,1.4a1.2,1.2,0,0,1,1.7.2,1.2,1.2,0,0,1,.2,1,3.6,3.6,0,0,1-1.3,1.9A1.5,1.5,0,0,0,16.3,33c1,1.4-.2,2.2-1.1,2.1s-2.5-.9-3-3.4,1.3-5.3,1.3-5.3a8,8,0,0,0-2,4.9,4.9,4.9,0,0,0,4.8,5h.4A2.2,2.2,0,0,1,18.7,37.2Zm-2.9-1.5h-.9l-.5-.2h2.5l1.2-.5a3.1,3.1,0,0,0,1.1-.9,1.6,1.6,0,0,0,.4-.7l.3-.7v-.8a2.2,2.2,0,0,0-.1-.8,3.5,3.5,0,0,0-.6-1.4,3.8,3.8,0,0,0-1.3-.9l-1.4-.2h-.7l-.5.3-.9.6a3,3,0,0,0-.4.8.9.9,0,0,0-.1.5v-.5a2,2,0,0,1,.4-.8,2.4,2.4,0,0,1,.9-.8l.6-.3h.7a3.9,3.9,0,0,1,1.5.2,4.2,4.2,0,0,1,1.4.9,4.6,4.6,0,0,1,.7,1.6,2.2,2.2,0,0,1,.1.8,2.8,2.8,0,0,1-.1.9,1.1,1.1,0,0,1-.3.8,2.1,2.1,0,0,1-.4.6,2.9,2.9,0,0,1-1.2,1,2.8,2.8,0,0,1-1.3.4Z" style="fill:#c7a754"/><path d="M9.3,28.5c2.5-.1,3.9-3,3.8-5.3a4.5,4.5,0,0,0-4.7-4.3H8.2C5.4,19.2,5,20.6,4.9,21A1.4,1.4,0,0,0,5,22.1l.4.4h.5a1.1,1.1,0,0,0,.9-.5.8.8,0,0,0,.1-.8c0-.1,0-.2-.1-.2H6.4c-.3,0-.5.1-.5.3l-.2.3h0l.2-.3.5-.2h.3c0,.1,0,.1.1.1h0a.8.8,0,0,1-.2.7.9.9,0,0,1-.7.3H5.5L5.2,22a1.4,1.4,0,0,1,0-.9c0-.3.4-1.5,2.4-1.8a2.8,2.8,0,0,1,2,.3c.5.4.5.8.9,1.1s.8.2.9.9-.3,1.1-.6,1.1a.6.6,0,0,0,.9.3h.1s.1,1.3-.6,1.8a.9.9,0,0,1-1.4-.3,1.2,1.2,0,0,0,.5,1.6,2.3,2.3,0,0,1-1.6.6c-1,.1-1.1-.8-.9-1.4a.9.9,0,0,0-.7,1.1s-1-.2-.8-1.5a1.5,1.5,0,0,1,1.5-1.5h.1c.3.2,1.1.4,1.1-.4s-2.1-1-3,1.3a3.1,3.1,0,0,0,2,4A3,3,0,0,0,9.3,28.5Zm2.2-6h.3v-.2h.1v-.2h0v.2H12v.2h-.1c0,.1,0,.1-.1.1h-.3Zm-.4,3.3h-.7c-.1,0-.1,0-.1-.1h0l.3.2h1c0-.1.2,0,.2-.1h.4l.2-.2h.1l-.2.2H11.1ZM9.2,27.9H8.1l-.2-.2-.2-.2V27c0-.1,0-.1-.1-.2s0-.1-.1-.2h0v-.2l.2.4c0,.1.1.1.1.2l.2.2H8l.2.2h1Z" style="fill:#c7a754"/><path d="M3.3,19.5A2.1,2.1,0,0,1,.8,19h0a2.1,2.1,0,0,1,2.5-.6C2,16.7,3.7,16,3.7,16c-.7,1.9,1.8,2.9,1.9,3h0c-.1,0-2.6,1-1.9,3a1.5,1.5,0,0,1-.8-2A1,1,0,0,1,3.3,19.5Z" style="fill:#c7a754"/><path d="M6,13.8c.9,2.2,3,2,3,1.2s-.8-.5-1.1-.4a1.6,1.6,0,0,1-1.6-1.5A1.1,1.1,0,0,1,7,11.7h.1a.8.8,0,0,0,.7,1c-.2-.6-.1-1.5.9-1.4a4.4,4.4,0,0,1,1.6.6,1.2,1.2,0,0,0-.5,1.6c.1-.4.6-.8,1.4-.3s.6,1.8.6,1.8a.9.9,0,0,0-1,.3,1.1,1.1,0,0,1,.6,1.1c-.1.7-.6.7-.9.9s-.4.7-.9,1.1a2.8,2.8,0,0,1-2,.4c-2-.4-2.4-1.6-2.4-1.9a1.4,1.4,0,0,1,0-.9l.3-.3h.4a.9.9,0,0,1,.7.3.8.8,0,0,1,.2.7v.2H6.4l-.5-.2-.2-.3h0v.2l.2.3c0,.1.2.2.5.2h.3c.1,0,.1,0,.1-.1h0v-.2a1,1,0,0,0-.1-.9,1.1,1.1,0,0,0-.9-.5l-.5.2A.8.8,0,0,0,5,16a1.2,1.2,0,0,0-.1,1c.1.3.5,1.8,3.3,2a4.5,4.5,0,0,0,4.9-3.9v-.4c.1-2.3-1.3-5.1-3.8-5.3a3.3,3.3,0,0,0-3.5,3.1A5.9,5.9,0,0,0,6,13.8Zm5.6,1.6H12V16c.1,0,.1,0,.1.1h0v.2h0v.3a.4.4,0,0,1-.1-.3h0c0-.1,0-.1-.1-.1h0V16h-.3Zm-.4-3.3h.9l.2.2.2.2H10.6l-.3.2h.9ZM9.3,10H8.2l-.2.2v.2H7.7v.2l-.2.4h0v-.2c.1,0,.1,0,.1-.1h0v-.3c.1-.1.1-.1.1-.2l.2-.2h.2l.3-.2h.9Z" style="fill:#c7a754"/><path d="M201.4,28.8c-2.4-.2-3.8-3-3.7-5.3a4.3,4.3,0,0,1,4.4-4.3h.5c2.8.2,3.2,1.7,3.3,2a1.4,1.4,0,0,1-.1,1.1l-.4.4-.5.2a1.1,1.1,0,0,1-.9-.5,1,1,0,0,1-.1-.9v-.2h.1a.1.1,0,0,1,.1-.1h.3l.5.2.2.3v.2h0l-.2-.3-.5-.2h-.3c0,.1-.1.1-.1.2a.6.6,0,0,0,.2.7.8.8,0,0,0,.7.3h.4l.3-.3a1.4,1.4,0,0,0,0-.9c0-.3-.4-1.5-2.4-1.9a2.8,2.8,0,0,0-2,.4c-.6.4-.5.8-.9,1.1s-.8.2-.9.9A.8.8,0,0,0,200,23a.8.8,0,0,1-1.1.3s-.1,1.3.7,1.8,1.3.1,1.4-.3a1.3,1.3,0,0,1-.5,1.6,2.3,2.3,0,0,0,1.6.6c1,.1,1.1-.8.8-1.4s.9.2.8,1a1.2,1.2,0,0,0,.8-1.4c-.1-1.2-1-1.7-1.6-1.5s-1.1.4-1.1-.4,2.1-1,3,1.2a3.4,3.4,0,0,1-2.2,4.2Zm-2.1-6h-.4c0-.1,0-.1-.1-.2h0a.4.4,0,0,1-.1-.3v.3h0v.2h0V23h.5Zm.4,3.3h.8l-.4.2h-1.8l.2.2.2.2h1Zm1.9,2.1h.8l.3-.2h.2a.2.2,0,0,1,.2-.2c0-.1,0-.1.1-.2v-.3a.1.1,0,0,1,.1-.1h0V27h0l-.2.4v-.2h-.2a.2.2,0,0,1-.2.2l-.2.2h-.9Z" style="fill:#c7a754"/></svg>