<?xml version="1.0" encoding="utf-8"?>
<!-- Generator: Adobe Illustrator 26.3.1, SVG Export Plug-In . SVG Version: 6.00 Build 0)  -->
<svg version="1.1" id="Layer_1" xmlns="http://www.w3.org/2000/svg" xmlns:xlink="http://www.w3.org/1999/xlink" x="0px" y="0px"
	 viewBox="0 0 210.4 37.5" style="enable-background:new 0 0 210.4 37.5;" xml:space="preserve">
<style type="text/css">
	.st0{fill:#C7A754;}
	.st1{display:none;fill:#C7A754;}
</style>
<path class="st0" d="M187.1,34.5H23.9V34c0-4.7-3.9-8.6-8.6-8.6h-0.5V12.5h0.5c4.7,0,8.6-3.9,8.6-8.6V3.5h163.2v0.4
	c0,4.7,3.9,8.6,8.6,8.6l0,0h0.5v12.9h-0.5c-4.7,0-8.6,3.9-8.6,8.6v0V34.5z M24.8,33.5h161.4c0.3-4.9,4.2-8.8,9.1-9V13.4
	c-4.9-0.2-8.8-4.1-9.1-9H24.8c-0.3,4.9-4.2,8.8-9.1,9v11.1C20.6,24.7,24.5,28.6,24.8,33.5z"/>
<path class="st0" d="M185.6,32.5H25.4c0-4.4-4.1-8.7-8.3-8.7h-0.2v-9.3h0.2c3.5,0,8.3-4.5,8.3-9h160.2c0,4.5,4.1,8.8,8.3,8.8h0.2
	v9.2h-0.2C189.8,23.5,185.6,28,185.6,32.5L185.6,32.5z M25.7,32.2h159.6c0-4.5,4.2-8.9,8.5-9v-8.6c-4.3-0.1-8.5-4.4-8.5-8.9H25.7
	c-0.1,4.6-4.8,9-8.5,9.1v8.6C21.5,23.5,25.6,27.8,25.7,32.2z"/>
<path class="st0" d="M192.3,0.7c-0.4,0.5-0.3,1.2,0.1,1.6c-1.8,0.5-2.4,2.7-2.5,3.6s-1.7,1.6-1.7,1.6c0.7,0.7,1.7,0.8,2.5,0.2
	c0.9,2,3.1,3,5.2,2.4c0.5-0.2,1-0.1,1.4,0.2c0.1-0.3,0-0.7-0.3-0.9c0.9-1.1,0.8-2.7-0.3-3.7c-0.1-0.1-0.2-0.2-0.3-0.2
	c0.5,0.9,0.2,2-0.6,2.6c-1.1,0.4-2.3,0.4-3.4-0.2c1.7,0.1,1.5-1.4,1.5-1.4s-2.2,0.1-1.9-1.2c0.2-0.7,0.7-1.4,1.3-1.8
	c0,1.3,1.4,1.4,1.4,1.4s0.2-2.2,1.1-2.1c1.6,0.4,2.8,1.7,3,3.4c0.6,2.4-1.3,5.4-1.3,5.4c1.2-1.4,1.9-3.2,1.9-5
	c0.1-2.6-1.9-4.8-4.5-4.9c-0.2,0-0.4,0-0.6,0C193.5,1.7,192.8,1.3,192.3,0.7z M195.2,2.2l0.9,0.2h-2l-1.2,0.5
	c-0.4,0.2-0.8,0.5-1.1,0.9c-0.2,0.2-0.3,0.4-0.4,0.7l-0.3,0.7V6c0,0.3,0,0.5,0.1,0.8c0.1,0.5,0.3,1,0.6,1.4c0.4,0.4,0.8,0.7,1.3,0.9
	c0.4,0.2,0.9,0.2,1.4,0.2h0.7l0.5-0.2c0.3-0.2,0.6-0.4,0.9-0.7c0.2-0.2,0.3-0.5,0.4-0.8c0.1-0.2,0.1-0.3,0.1-0.5v0.5
	c-0.1,0.3-0.2,0.6-0.4,0.8c-0.2,0.3-0.5,0.6-0.9,0.8l-0.6,0.3h-0.7c-0.5,0.1-1,0-1.5-0.2c-0.5-0.2-1-0.5-1.4-0.9
	c-0.3-0.4-0.6-1-0.7-1.5c-0.1-0.3-0.1-0.6-0.1-0.9c0-0.3,0-0.5,0.1-0.8c0-0.3,0.1-0.6,0.2-0.8l0.5-0.7c0.4-0.4,0.8-0.7,1.2-1
	l1.3-0.4L195.2,2.2z"/>
<path class="st0" d="M194.3,36.3c2.6,0.2,4.9-1.8,5.1-4.5c0-0.2,0-0.3,0-0.5c0-1.8-0.7-3.6-1.9-4.9c0,0,1.9,2.9,1.3,5.3
	s-2,3.3-3,3.4s-2.1-0.7-1.1-2.1c-0.8,0.1-1.4,0.7-1.4,1.5c-0.6-0.5-1.1-1.1-1.3-1.9c-0.1-0.6,0.3-1.3,0.9-1.4c0.3-0.1,0.7,0,1,0.2
	c0,0,0.2-1.4-1.5-1.4c1.1-0.6,2.3-0.6,3.4-0.1c0.9,0.5,1.1,1.6,0.6,2.5c0,0,0,0,0,0c1.2-0.8,1.6-2.4,0.8-3.6
	c-0.1-0.1-0.1-0.2-0.2-0.3c0.3-0.2,0.4-0.5,0.3-0.8c-0.4,0.2-0.9,0.3-1.4,0.1c-2.1-0.6-4.3,0.4-5.2,2.4c-0.8-0.6-1.8-0.5-2.5,0.2
	c0,0,1.6,0.4,1.7,1.6s0.7,3.2,2.5,3.7c-0.4,0.3-0.5,1-0.2,1.4c0,0,0.1,0.1,0.1,0.1C192.8,36.6,193.5,36.2,194.3,36.3z M194.1,35.6
	c-0.5,0-0.9-0.2-1.3-0.4c-0.5-0.2-0.9-0.6-1.2-1l-0.5-0.6c-0.1-0.3-0.2-0.5-0.2-0.8c-0.1-0.3-0.1-0.6-0.1-0.9c0-0.3,0-0.5,0.1-0.8
	c0.1-0.6,0.4-1.1,0.7-1.6c0.4-0.4,0.9-0.7,1.4-0.9c0.5-0.2,1-0.2,1.5-0.2h0.7l0.6,0.3c0.4,0.2,0.7,0.5,0.9,0.8
	c0.2,0.2,0.3,0.5,0.4,0.8v0.5c0-0.2,0-0.3-0.1-0.5c-0.1-0.3-0.2-0.5-0.4-0.8l-0.9-0.6l-0.5-0.3h-0.7l-1.4,0.2
	c-0.5,0.2-0.9,0.5-1.3,0.9c-0.3,0.4-0.5,0.9-0.6,1.4c-0.1,0.3-0.1,0.5-0.1,0.8v0.8l0.3,0.7c0.1,0.3,0.2,0.5,0.4,0.7
	c0.3,0.4,0.7,0.7,1.1,0.9L194.1,35.6l2.5-0.1l-0.5,0.2h-2L194.1,35.6z"/>
<path class="st1" d="M205,24.2c-0.9-2.3-3-2.1-3-1.3s0.8,0.6,1.1,0.4c0.8-0.1,1.5,0.6,1.6,1.4c0,0,0,0.1,0,0.1
	c0.1,1.3-0.8,1.5-0.8,1.5c0.1-0.5-0.3-1-0.8-1.1c0.3,0.6,0.2,1.5-0.8,1.4c-0.6,0-1.2-0.2-1.6-0.6c0.6-0.3,0.8-1,0.5-1.6
	c-0.1,0.4-0.6,0.9-1.4,0.3s-0.7-1.8-0.7-1.8c0.4,0.2,0.9,0.1,1.1-0.3c0,0,0,0,0,0c-0.4,0-0.7-0.4-0.6-1.1s0.5-0.6,0.9-0.9
	s0.3-0.7,0.9-1.1c0.6-0.3,1.3-0.5,2-0.3c2,0.3,2.4,1.5,2.4,1.8c0.1,0.3,0.1,0.6,0,0.9l-0.3,0.3h-0.4c-0.3,0-0.5-0.1-0.7-0.3
	c-0.2-0.2-0.2-0.4-0.2-0.7h0.1c0.1,0,0.1,0,0.1-0.1c0,0,0,0,0,0h0.2l0.5,0.2l0.2,0.3l0,0l-0.2-0.3c-0.1-0.2-0.3-0.3-0.5-0.3h-0.5
	v0.2c-0.1,0.3-0.1,0.6,0.1,0.8c0.2,0.3,0.5,0.5,0.9,0.5h0.5c0.2-0.1,0.3-0.3,0.4-0.4c0.2-0.3,0.2-0.7,0.1-1.1
	c-0.1-0.4-0.5-1.8-3.3-2.1c-2.5-0.2-4.7,1.6-4.9,4.1c0,0.1,0,0.1,0,0.2c-0.1,2.3,1.3,5.2,3.7,5.3c1.8,0.1,3.4-1.2,3.5-3
	C205.2,25,205.1,24.6,205,24.2z M199.4,22.5h-0.1c0-0.1,0-0.1-0.1-0.1l0,0l0,0c-0.1,0-0.1,0-0.1-0.1c0,0,0,0,0,0H199
	c0-0.1,0-0.1-0.1-0.2l0,0v-0.2l0,0v-0.2c0,0.1,0,0.1,0.1,0.2l0,0v0.2h0.1c0,0.1,0,0.1,0.1,0.1l0,0v0.2h0.2L199.4,22.5z M199.8,25.8
	h-0.3c-0.1,0-0.2,0-0.2-0.1h-0.6l-0.2-0.2h0.1l0.2,0.2h1.5l0.4-0.2c0,0-75406.3-75404.4-0.2,0.2h-0.7V25.8z M201.7,27.9h0.2
	c0-0.1,0.1-0.1,0.2-0.1h0.6c0.1-0.1,0.2-0.1,0.2-0.2h0.2l0.2-0.2c0-0.1,0.1-0.1,0.1-0.2l0.2-0.4V27l0,0c-0.1,0.1-0.1,0.1-0.1,0.2
	c-0.1,0.1-0.1,0.1-0.1,0.2v0.2l-0.2,0.2c-0.1,0.1-0.2,0.1-0.2,0.2h-1.2L201.7,27.9z"/>
<path class="st0" d="M207.7,19.5c0.9,0.4,1.9,0.2,2.5-0.5l0,0c-0.6-0.7-1.6-1-2.5-0.6c1.2-1.7-0.4-2.4-0.4-2.4
	c0.7,1.9-1.8,2.9-1.9,3l0,0c0.1,0,2.6,1,1.9,3c0.8-0.4,1.1-1.4,0.6-2.2C207.9,19.7,207.8,19.6,207.7,19.5z"/>
<path class="st0" d="M201.6,9.4c-2.4,0.2-3.8,3-3.7,5.3c0,2.4,2,4.4,4.5,4.3c0.1,0,0.3,0,0.4,0c2.8-0.2,3.2-1.7,3.3-2
	c0.1-0.4,0.1-0.8-0.1-1.1c-0.1-0.2-0.2-0.3-0.4-0.4l-0.5-0.2c-0.4,0-0.7,0.2-0.9,0.5c-0.2,0.3-0.2,0.6-0.1,0.9v0.2h0.1
	c0,0.1,0,0.1,0.1,0.1l0,0h0.3c0.2,0,0.4-0.1,0.5-0.2l0.2-0.3v-0.2l0,0l-0.2,0.3l-0.5,0.2h-0.3c0-0.1-0.1-0.1-0.1-0.2
	c0-0.3,0-0.5,0.2-0.7c0.2-0.2,0.4-0.3,0.7-0.3h0.4l0.3,0.3c0.1,0.3,0.1,0.6,0,0.9c0,0.3-0.4,1.5-2.4,1.9c-0.7,0.1-1.4,0-2-0.4
	c-0.6-0.4-0.5-0.8-0.9-1.1s-0.8-0.2-0.9-0.9c-0.1-0.5,0.1-1,0.6-1.1c-0.2-0.3-0.7-0.5-1.1-0.3c0,0-0.1-1.3,0.7-1.8s1.3-0.1,1.4,0.3
	c0.3-0.6,0.1-1.3-0.5-1.6c0.5-0.3,1-0.5,1.6-0.6c1-0.1,1.1,0.8,0.8,1.4s0.9-0.2,0.8-1c0.6,0.2,0.9,0.8,0.8,1.4
	c-0.1,1.2-1,1.7-1.6,1.5s-1.1-0.4-1.1,0.4s2.1,1,3-1.2c0.6-1.7-0.4-3.6-2.1-4.2C202.5,9.4,202,9.4,201.6,9.4z M199.5,15.4h-0.4
	c0,0.1,0,0.1-0.1,0.2l0,0c-0.1,0.1-0.1,0.2-0.1,0.3v-0.3l0,0v-0.2l0,0v-0.2c0.1,0,0.1,0,0.1-0.1c0,0,0,0,0,0h0.4L199.5,15.4z
	 M199.9,12.1h0.8l-0.4-0.2h-1.8l0.2-0.2l0.2-0.2h1V12.1z M201.8,10h0.8l0.3,0.2h0.2c0,0.1,0.1,0.2,0.2,0.2c0,0.1,0,0.1,0.1,0.2v0.3
	c0,0.1,0,0.1,0.1,0.1l0,0v0.2l0,0l-0.2-0.4V11h-0.2c0-0.1-0.1-0.2-0.2-0.2l-0.2-0.2h-0.9L201.8,10z"/>
<path class="st0" d="M16.7,1.7c-2.6-0.3-4.9,1.6-5.2,4.2c0,0.2,0,0.5,0,0.7c0.1,1.8,0.8,3.6,2,5c0,0-1.9-3-1.3-5.4
	c0.2-1.7,1.4-3,3-3.4c0.9-0.1,2.1,0.7,1.1,2.1s1.4-0.1,1.4-1.4c0.6,0.4,1.1,1.1,1.3,1.8c0.3,1.3-1.1,2.1-1.9,1.2S16.9,8,18.6,7.9
	c-1.1,0.6-2.3,0.6-3.4,0.2c-0.8-0.6-1.1-1.7-0.6-2.6c-1.2,0.8-1.6,2.4-0.8,3.6c0.1,0.1,0.1,0.2,0.2,0.3c-0.3,0.2-0.4,0.6-0.3,0.9
	c0.4-0.3,0.9-0.4,1.4-0.2c2.1,0.6,4.3-0.4,5.2-2.4c0.7,0.6,1.8,0.5,2.4-0.2c0,0-1.5-0.4-1.6-1.6s-0.7-3.1-2.5-3.6
	c0.4-0.4,0.5-1.1,0.1-1.6C18.2,1.3,17.5,1.7,16.7,1.7z M16.9,2.3l1.3,0.4c0.4,0.3,0.8,0.6,1.2,1c0.2,0.2,0.3,0.4,0.4,0.7
	c0.2,0.2,0.3,0.5,0.3,0.8c0.1,0.3,0.1,0.5,0.1,0.8c0,0.3,0,0.6-0.1,0.9C20,7.4,19.7,8,19.4,8.4C19,8.8,18.5,9.1,18,9.3
	c-0.5,0.2-1,0.3-1.5,0.2h-0.7l-0.6-0.3c-0.4-0.2-0.7-0.5-0.9-0.8c-0.2-0.2-0.3-0.5-0.4-0.8V7c0,0.2,0,0.3,0.1,0.5
	c0.1,0.3,0.2,0.6,0.4,0.8C14.7,8.6,15,8.8,15.3,9l0.5,0.2h0.7c0.5,0,1,0,1.4-0.2c0.5-0.2,0.9-0.5,1.3-0.9c0.3-0.4,0.5-0.9,0.6-1.4
	c0.1-0.3,0.1-0.5,0.1-0.8V5.2l-0.3-0.7c-0.1-0.3-0.2-0.5-0.4-0.7c-0.3-0.4-0.7-0.7-1.1-0.9L16.9,2.3l-2,0.1l0.9-0.2L16.9,2.3z"/>
<path class="st0" d="M18.7,37.2c0.4-0.4,0.4-1,0-1.4c0,0-0.1-0.1-0.1-0.1c1.8-0.5,2.4-2.8,2.5-3.7s1.6-1.6,1.6-1.6
	c-0.6-0.7-1.7-0.8-2.4-0.2c-0.9-2-3.1-3-5.2-2.4c-0.5,0.2-1,0.1-1.4-0.1c-0.1,0.3,0,0.6,0.3,0.8c-0.9,1.1-0.8,2.7,0.3,3.7
	c0.1,0.1,0.2,0.2,0.3,0.2c-0.5-0.8-0.3-2,0.6-2.5c0,0,0,0,0,0c1.1-0.5,2.3-0.5,3.4,0.1c-1.7,0-1.5,1.4-1.5,1.4
	c0.5-0.4,1.3-0.3,1.7,0.2c0.2,0.3,0.3,0.6,0.2,1c-0.2,0.8-0.7,1.4-1.3,1.9c0-0.8-0.6-1.4-1.4-1.5c1,1.4-0.2,2.2-1.1,2.1
	s-2.5-0.9-3-3.4s1.3-5.3,1.3-5.3c-1.2,1.3-1.9,3.1-2,4.9c-0.1,2.7,2.1,4.9,4.8,5c0.1,0,0.3,0,0.4,0C17.5,36.2,18.2,36.6,18.7,37.2z
	 M15.8,35.7h-0.9l-0.5-0.2h2.5l1.2-0.5c0.4-0.2,0.8-0.5,1.1-0.9c0.2-0.2,0.3-0.4,0.4-0.7l0.3-0.7v-0.8c0-0.3,0-0.5-0.1-0.8
	c-0.1-0.5-0.3-1-0.6-1.4c-0.4-0.4-0.8-0.7-1.3-0.9l-1.4-0.2h-0.7l-0.5,0.3l-0.9,0.6c-0.2,0.3-0.3,0.5-0.4,0.8
	c-0.1,0.2-0.1,0.3-0.1,0.5v-0.5c0.1-0.3,0.2-0.6,0.4-0.8c0.2-0.3,0.5-0.6,0.9-0.8l0.6-0.3h0.7c0.5,0,1,0,1.5,0.2
	c0.5,0.2,1,0.5,1.4,0.9c0.3,0.5,0.6,1,0.7,1.6c0.1,0.3,0.1,0.5,0.1,0.8c0,0.3,0,0.6-0.1,0.9c0,0.3-0.1,0.6-0.3,0.8
	c-0.1,0.2-0.2,0.4-0.4,0.6c-0.3,0.4-0.7,0.8-1.2,1c-0.4,0.2-0.8,0.4-1.3,0.4L15.8,35.7z"/>
<path class="st0" d="M9.3,28.5c2.5-0.1,3.9-3,3.8-5.3c-0.1-2.5-2.2-4.4-4.7-4.3c-0.1,0-0.1,0-0.2,0C5.4,19.2,5,20.6,4.9,21
	c-0.1,0.4-0.1,0.8,0.1,1.1l0.4,0.4h0.5c0.4,0,0.7-0.2,0.9-0.5C7,21.8,7,21.5,6.9,21.2c0-0.1,0-0.2-0.1-0.2H6.4
	c-0.3,0-0.5,0.1-0.5,0.3l-0.2,0.3l0,0l0.2-0.3l0.5-0.2h0.2c0,0.1,0,0.1,0.1,0.1l0,0c0,0.1,0,0.1,0.1,0.1c0,0,0,0,0,0
	c0,0.3,0,0.5-0.2,0.7c-0.2,0.2-0.4,0.3-0.7,0.3H5.5L5.2,22c-0.1-0.3-0.1-0.6,0-0.9c0-0.3,0.4-1.5,2.4-1.8c0.7-0.2,1.4,0,2,0.3
	c0.5,0.4,0.5,0.8,0.9,1.1s0.8,0.2,0.9,0.9s-0.3,1.1-0.6,1.1c0.2,0.4,0.6,0.5,0.9,0.3c0,0,0,0,0.1,0c0,0,0.1,1.3-0.6,1.8
	s-1.3,0.1-1.4-0.3c-0.3,0.6-0.1,1.3,0.5,1.6c-0.4,0.4-1,0.6-1.6,0.6c-1,0.1-1.1-0.8-0.9-1.4c-0.5,0.1-0.8,0.6-0.7,1.1
	c0,0-1-0.2-0.8-1.5c0-0.8,0.7-1.5,1.5-1.5c0,0,0.1,0,0.1,0C8.2,23.6,9,23.8,9,23s-2.1-1-3,1.3c-0.6,1.7,0.3,3.5,2,4
	C8.4,28.5,8.9,28.5,9.3,28.5z M11.5,22.5h0.3v-0.2h0.1v-0.2l0,0l0,0l0,0v0.2H12v0.2h-0.1c0,0.1,0,0.1-0.1,0.1h0l0,0
	c-0.1,0-0.1,0-0.1,0.1l0,0h-0.2L11.5,22.5z M11.1,25.8h-0.7c-0.1,0-0.1,0-0.1-0.1l0,0l0.3,0.2h0.8c0.1,0,0.2,0,0.2-0.1
	s0.2,0,0.2-0.1h0.4l0.2-0.2h0.1l-0.2,0.2h-1.2V25.8z M9.2,27.9H8.1c0-0.1-0.1-0.1-0.2-0.2l-0.2-0.2V27c0-0.1,0-0.1-0.1-0.2
	c0-0.1,0-0.1-0.1-0.2l0,0v-0.2l0.2,0.4c0,0.1,0.1,0.1,0.1,0.2L8,27.2h0l0.2,0.2h1V27.9z"/>
<path class="st0" d="M3.3,19.5c-0.9,0.4-1.9,0.2-2.5-0.5l0,0c0.6-0.7,1.6-1,2.5-0.6C2,16.7,3.7,16,3.7,16c-0.7,1.9,1.8,2.9,1.9,3
	l0,0c-0.1,0-2.6,1-1.9,3c-0.8-0.3-1.1-1.2-0.8-2C3,19.8,3.1,19.6,3.3,19.5z"/>
<path class="st0" d="M6,13.8c0.9,2.2,3,2,3,1.2s-0.8-0.5-1.1-0.4s-1.5-0.3-1.6-1.5c-0.2-0.6,0.1-1.2,0.7-1.4c0,0,0.1,0,0.1,0
	c-0.1,0.5,0.2,0.9,0.7,1c-0.2-0.6-0.1-1.5,0.9-1.4c0.6,0.1,1.1,0.3,1.6,0.6c-0.6,0.3-0.8,1-0.5,1.6c0.1-0.4,0.6-0.8,1.4-0.3
	s0.6,1.8,0.6,1.8c-0.4-0.1-0.8,0-1,0.3c0.4,0.2,0.6,0.6,0.6,1.1c-0.1,0.7-0.6,0.7-0.9,0.9s-0.4,0.7-0.9,1.1c-0.6,0.4-1.3,0.5-2,0.4
	c-2-0.4-2.4-1.6-2.4-1.9c-0.1-0.3-0.1-0.6,0-0.9l0.3-0.3h0.4c0.3,0,0.5,0.1,0.7,0.3c0.2,0.2,0.2,0.4,0.2,0.7
	c-0.1,0.1-0.1,0.1-0.1,0.2H6.4l-0.5-0.2l-0.2-0.3l0,0v0.2l0.2,0.3c0,0.1,0.2,0.2,0.5,0.2h0.3c0.1,0,0.1,0,0.1-0.1l0,0l0,0
	c0.1-0.1,0.1-0.1,0.1-0.2C7,16.5,7,16.2,6.8,15.9c-0.2-0.3-0.5-0.5-0.9-0.5l-0.5,0.2C5.2,15.7,5.1,15.8,5,16c-0.2,0.3-0.2,0.7-0.1,1
	c0.1,0.3,0.5,1.8,3.3,2c2.4,0.3,4.6-1.5,4.9-3.9c0-0.1,0-0.3,0-0.4c0.1-2.3-1.3-5.1-3.8-5.3c-1.8-0.1-3.4,1.3-3.5,3.1
	C5.8,12.9,5.9,13.4,6,13.8z M11.6,15.4h0.3c0,0.1,0,0.1,0.1,0.1h0V16c0.1,0,0.1,0,0.1,0.1l0,0v0.2l0,0v0.3C12,16.5,12,16.4,12,16.3
	l0,0c0-0.1,0-0.1-0.1-0.1h0V16h-0.3V15.4z M11.2,12.1h0.9l0.2,0.2l0.2,0.2h-1.9l-0.3,0.2h0.9L11.2,12.1z M9.3,10H8.2L8,10.2v0.2H7.7
	v0.2L7.5,11l0,0v-0.2c0.1,0,0.1,0,0.1-0.1l0,0v-0.3c0.1-0.1,0.1-0.1,0.1-0.2L7.9,10h0.2l0.3-0.2h0.9L9.3,10z"/>
<path class="st0" d="M201.4,28.8c-2.4-0.2-3.8-3-3.7-5.3c0-2.4,2-4.4,4.5-4.3c0.1,0,0.3,0,0.4,0c2.8,0.2,3.2,1.7,3.3,2
	c0.1,0.4,0.1,0.8-0.1,1.1c-0.1,0.2-0.2,0.3-0.4,0.4l-0.5,0.2c-0.4,0-0.7-0.2-0.9-0.5c-0.2-0.3-0.2-0.6-0.1-0.9v-0.2h0.1
	c0-0.1,0-0.1,0.1-0.1l0,0h0.3c0.2,0,0.4,0.1,0.5,0.2l0.2,0.3v0.2l0,0l-0.2-0.3l-0.5-0.2h-0.3c0,0.1-0.1,0.1-0.1,0.2
	c0,0.3,0,0.5,0.2,0.7c0.2,0.2,0.4,0.3,0.7,0.3h0.4l0.3-0.3c0.1-0.3,0.1-0.6,0-0.9c0-0.3-0.4-1.5-2.4-1.9c-0.7-0.1-1.4,0-2,0.4
	c-0.6,0.4-0.5,0.8-0.9,1.1s-0.8,0.2-0.9,0.9c-0.1,0.5,0.1,1,0.6,1.1c-0.2,0.3-0.7,0.5-1.1,0.3c0,0-0.1,1.3,0.7,1.8s1.3,0.1,1.4-0.3
	c0.3,0.6,0.1,1.3-0.5,1.6c0.5,0.3,1,0.5,1.6,0.6c1,0.1,1.1-0.8,0.8-1.4c-0.3-0.6,0.9,0.2,0.8,1c0.6-0.2,0.9-0.8,0.8-1.4
	c-0.1-1.2-1-1.7-1.6-1.5c-0.6,0.2-1.1,0.4-1.1-0.4s2.1-1,3,1.2c0.6,1.7-0.4,3.6-2.1,4.2C202.2,28.8,201.8,28.8,201.4,28.8z
	 M199.3,22.8h-0.4c0-0.1,0-0.1-0.1-0.2l0,0c-0.1-0.1-0.1-0.2-0.1-0.3v0.3l0,0v0.2l0,0V23c0.1,0,0.1,0,0.1,0.1c0,0,0,0,0,0h0.4
	L199.3,22.8z M199.7,26.1h0.8l-0.4,0.2h-1.8l0.2,0.2l0.2,0.2h1V26.1z M201.6,28.2h0.8l0.3-0.2h0.2c0-0.1,0.1-0.2,0.2-0.2
	c0-0.1,0-0.1,0.1-0.2v-0.3c0-0.1,0-0.1,0.1-0.1l0,0V27l0,0l-0.2,0.4v-0.2h-0.2c0,0.1-0.1,0.2-0.2,0.2l-0.2,0.2h-0.9L201.6,28.2z"/>
</svg>
