<svg xmlns="http://www.w3.org/2000/svg" viewBox="0 0 210.4 37.5"><defs><style>.a{fill:#c7a754;}</style></defs><path class="a" d="M187.1,34.5H23.9V34a8.6,8.6,0,0,0-8.6-8.6h-.5V12.5h.5a8.6,8.6,0,0,0,8.6-8.6V3.5H187.1v.4a8.6,8.6,0,0,0,8.6,8.6h.5V25.4h-.5a8.6,8.6,0,0,0-8.6,8.6Zm-162.3-1H186.2a9.5,9.5,0,0,1,9.1-9V13.4a9.5,9.5,0,0,1-9.1-9H24.8a9.5,9.5,0,0,1-9.1,9V24.5A9.6,9.6,0,0,1,24.8,33.5Z"/><path class="a" d="M185.6,32.5H25.4c0-4.4-4.1-8.7-8.3-8.7h-.2V14.5h.2c3.5,0,8.3-4.5,8.3-9H185.6c0,4.5,4.1,8.8,8.3,8.8h.2v9.2h-.2c-4.1,0-8.3,4.5-8.3,8.9ZM25.7,32.2H185.3c0-4.5,4.2-8.9,8.5-9V14.6c-4.3-.1-8.5-4.4-8.5-8.9H25.7c-.1,4.6-4.8,9-8.5,9.1v8.6C21.5,23.5,25.6,27.8,25.7,32.2Z"/><path class="a" d="M192.3.7a1.2,1.2,0,0,0,.1,1.6c-1.8.5-2.4,2.7-2.5,3.6s-1.7,1.6-1.7,1.6a1.9,1.9,0,0,0,2.5.2,4.3,4.3,0,0,0,5.2,2.4,1.6,1.6,0,0,1,1.4.2.8.8,0,0,0-.3-.9,2.6,2.6,0,0,0-.6-3.9,2,2,0,0,1-.6,2.6,4.1,4.1,0,0,1-3.4-.2c1.7.1,1.5-1.4,1.5-1.4s-2.2.1-1.9-1.2a3.2,3.2,0,0,1,1.3-1.8c0,1.3,1.4,1.4,1.4,1.4s.2-2.2,1.1-2.1a3.9,3.9,0,0,1,3,3.4c.6,2.4-1.3,5.4-1.3,5.4a7.6,7.6,0,0,0,1.9-5,4.7,4.7,0,0,0-5.1-4.9A2.4,2.4,0,0,1,192.3.7Zm2.9,1.5.9.2h-2l-1.2.5a4.8,4.8,0,0,0-1.1.9,2.5,2.5,0,0,0-.4.7l-.3.7V6a2.2,2.2,0,0,0,.1.8,3.5,3.5,0,0,0,.6,1.4,3.8,3.8,0,0,0,1.3.9,3.2,3.2,0,0,0,1.4.2h.7l.5-.2a3.5,3.5,0,0,0,.9-.7,3,3,0,0,0,.4-.8,1.1,1.1,0,0,0,.1-.5v.5a2,2,0,0,1-.4.8,2.4,2.4,0,0,1-.9.8l-.6.3h-.7a2.6,2.6,0,0,1-1.5-.2,4.2,4.2,0,0,1-1.4-.9,4.1,4.1,0,0,1-.7-1.5,2.8,2.8,0,0,1-.1-.9,1.9,1.9,0,0,1,.1-.8,1.9,1.9,0,0,1,.2-.8l.5-.7a5.8,5.8,0,0,1,1.2-1l1.3-.4Z"/><path class="a" d="M194.3,36.3a4.8,4.8,0,0,0,5.1-5,7.2,7.2,0,0,0-1.9-4.9s1.9,2.9,1.3,5.3-2,3.3-3,3.4-2.1-.7-1.1-2.1a1.5,1.5,0,0,0-1.4,1.5,3.6,3.6,0,0,1-1.3-1.9,1.2,1.2,0,0,1,1.9-1.2s.2-1.4-1.5-1.4a3.9,3.9,0,0,1,3.4-.1,1.8,1.8,0,0,1,.6,2.5,2.6,2.6,0,0,0,.6-3.9.7.7,0,0,0,.3-.8,1.8,1.8,0,0,1-1.4.1,4.4,4.4,0,0,0-5.2,2.4,1.9,1.9,0,0,0-2.5.2s1.6.4,1.7,1.6.7,3.2,2.5,3.7a1,1,0,0,0-.1,1.5A2.2,2.2,0,0,1,194.3,36.3Zm-.2-.7a3.3,3.3,0,0,1-1.3-.4,2.8,2.8,0,0,1-1.2-1l-.5-.6a3.1,3.1,0,0,1-.2-.8,2.8,2.8,0,0,1-.1-.9,1.9,1.9,0,0,1,.1-.8,4.6,4.6,0,0,1,.7-1.6,4.2,4.2,0,0,1,1.4-.9,3.9,3.9,0,0,1,1.5-.2h.7l.6.3a2.4,2.4,0,0,1,.9.8,3,3,0,0,1,.4.8v.5a1.1,1.1,0,0,0-.1-.5,5.9,5.9,0,0,0-.4-.8l-.9-.6-.5-.3h-.7l-1.4.2a3.8,3.8,0,0,0-1.3.9,3.5,3.5,0,0,0-.6,1.4,2.5,2.5,0,0,0-.1.8v.8l.3.7a1.6,1.6,0,0,0,.4.7,3.1,3.1,0,0,0,1.1.9l1.2.5h2.5l-.5.2h-2Z"/><path class="a" d="M205,24.2c-.9-2.3-3-2.1-3-1.3s.8.6,1.1.4a1.5,1.5,0,0,1,1.6,1.5c.1,1.3-.8,1.5-.8,1.5a1,1,0,0,0-.8-1.1c.3.6.2,1.5-.8,1.4a2.4,2.4,0,0,1-1.6-.6,1.2,1.2,0,0,0,.5-1.6c-.1.4-.6.9-1.4.3s-.7-1.8-.7-1.8a.8.8,0,0,0,1.1-.3c-.4,0-.7-.4-.6-1.1s.5-.6.9-.9.3-.7.9-1.1a2.8,2.8,0,0,1,2-.3c2,.3,2.4,1.5,2.4,1.8a1.4,1.4,0,0,1,0,.9l-.3.3h-.4a.8.8,0,0,1-.7-.3,1,1,0,0,1-.2-.7h.1a.1.1,0,0,0,.1-.1h.2l.5.2.2.3h0l-.2-.3a.5.5,0,0,0-.5-.3h-.5v.2a.8.8,0,0,0,.1.8,1.1,1.1,0,0,0,.9.5h.5c.2-.1.3-.3.4-.4a1.4,1.4,0,0,0,.1-1.1c-.1-.4-.5-1.8-3.3-2.1a4.5,4.5,0,0,0-4.9,4.3c-.1,2.3,1.3,5.2,3.7,5.3A3.3,3.3,0,0,0,205,24.2Zm-5.6-1.7h-.1a.1.1,0,0,0-.1-.1h0a.1.1,0,0,1-.1-.1H199c0-.1,0-.1-.1-.2h0v-.2h0v-.2a.3.3,0,0,0,.1.2h0v.2h.1a.1.1,0,0,0,.1.1v.2h.2Zm.4,3.3h-.3c-.1,0-.2,0-.2-.1h-.6l-.2-.2h.1l.2.2h1.5l.4-.2a9951643238035.2,9951643238035.2,0,0,0-.2.2h-.7Zm1.9,2.1h.2c0-.1.1-.1.2-.1h.6c.1-.1.2-.1.2-.2h.2l.2-.2c0-.1.1-.1.1-.2l.2-.4v.2h0c-.1.1-.1.1-.1.2a.3.3,0,0,0-.1.2v.2l-.2.2c-.1.1-.2.1-.2.2h-1.2Z"/><path class="a" d="M207.7,19.5a2.2,2.2,0,0,0,2.5-.5h0a2.1,2.1,0,0,0-2.5-.6c1.2-1.7-.4-2.4-.4-2.4.7,1.9-1.8,2.9-1.9,3h0c.1,0,2.6,1,1.9,3A1.6,1.6,0,0,0,207.7,19.5Z"/><path class="a" d="M201.6,9.4c-2.4.2-3.8,3-3.7,5.3a4.4,4.4,0,0,0,4.9,4.3c2.8-.2,3.2-1.7,3.3-2a1.4,1.4,0,0,0-.1-1.1.8.8,0,0,0-.4-.4l-.5-.2a1.1,1.1,0,0,0-.9.5,1,1,0,0,0-.1.9v.2h.1a.1.1,0,0,0,.1.1h.3a.6.6,0,0,0,.5-.2l.2-.3v-.2h0l-.2.3-.5.2h-.3c0-.1-.1-.1-.1-.2a1,1,0,0,1,.2-.7.8.8,0,0,1,.7-.3h.4l.3.3a1.4,1.4,0,0,1,0,.9c0,.3-.4,1.5-2.4,1.9a2.8,2.8,0,0,1-2-.4c-.6-.4-.5-.8-.9-1.1s-.8-.2-.9-.9a.9.9,0,0,1,.6-1.1.9.9,0,0,0-1.1-.3s-.1-1.3.7-1.8,1.3-.1,1.4.3a1.2,1.2,0,0,0-.5-1.6,3.2,3.2,0,0,1,1.6-.6c1-.1,1.1.8.8,1.4s.9-.2.8-1a1.2,1.2,0,0,1,.8,1.4c-.1,1.2-1,1.7-1.6,1.5s-1.1-.4-1.1.4,2.1,1,3-1.2A3.3,3.3,0,0,0,201.6,9.4Zm-2.1,6h-.4c0,.1,0,.1-.1.2h0a.8.8,0,0,0-.1.3v-.3h0v-.2h0v-.2a.1.1,0,0,0,.1-.1h.4Zm.4-3.3h.8l-.4-.2h-1.8l.2-.2.2-.2h1Zm1.9-2.1h.8l.3.2h.2a.2.2,0,0,0,.2.2.3.3,0,0,0,.1.2v.3a.1.1,0,0,0,.1.1v.2h0l-.2-.4V11h-.2a.2.2,0,0,0-.2-.2l-.2-.2h-.9Z"/><path class="a" d="M16.7,1.7a4.7,4.7,0,0,0-5.2,4.9,8,8,0,0,0,2,5s-1.9-3-1.3-5.4a3.9,3.9,0,0,1,3-3.4c.9-.1,2.1.7,1.1,2.1s1.4-.1,1.4-1.4A3.2,3.2,0,0,1,19,5.3c.3,1.3-1.1,2.1-1.9,1.2S16.9,8,18.6,7.9a4.1,4.1,0,0,1-3.4.2,2,2,0,0,1-.6-2.6A2.6,2.6,0,0,0,14,9.4a.8.8,0,0,0-.3.9,1.6,1.6,0,0,1,1.4-.2,4.3,4.3,0,0,0,5.2-2.4,1.8,1.8,0,0,0,2.4-.2s-1.5-.4-1.6-1.6-.7-3.1-2.5-3.6A1.2,1.2,0,0,0,18.7.7,2.4,2.4,0,0,1,16.7,1.7Zm.2.6,1.3.4a5.8,5.8,0,0,1,1.2,1,1.6,1.6,0,0,1,.4.7,1.1,1.1,0,0,1,.3.8,1.9,1.9,0,0,1,.1.8,2.8,2.8,0,0,1-.1.9,4.1,4.1,0,0,1-.7,1.5,4.2,4.2,0,0,1-1.4.9,2.6,2.6,0,0,1-1.5.2h-.7l-.6-.3a2.4,2.4,0,0,1-.9-.8,2,2,0,0,1-.4-.8V7a1.1,1.1,0,0,0,.1.5,3,3,0,0,0,.4.8,3.5,3.5,0,0,0,.9.7l.5.2h.7a3.4,3.4,0,0,0,1.4-.2,3.8,3.8,0,0,0,1.3-.9,3.5,3.5,0,0,0,.6-1.4,2.2,2.2,0,0,0,.1-.8V5.2l-.3-.7a2.5,2.5,0,0,0-.4-.7,4.8,4.8,0,0,0-1.1-.9l-1.2-.5h-2l.9-.2Z"/><path class="a" d="M18.7,37.2a1,1,0,0,0-.1-1.5c1.8-.5,2.4-2.8,2.5-3.7s1.6-1.6,1.6-1.6a1.8,1.8,0,0,0-2.4-.2,4.4,4.4,0,0,0-5.2-2.4,1.8,1.8,0,0,1-1.4-.1.7.7,0,0,0,.3.8,2.6,2.6,0,0,0,.6,3.9,1.8,1.8,0,0,1,.6-2.5,3.9,3.9,0,0,1,3.4.1c-1.7,0-1.5,1.4-1.5,1.4A1.2,1.2,0,0,1,19,32.6a3.6,3.6,0,0,1-1.3,1.9A1.5,1.5,0,0,0,16.3,33c1,1.4-.2,2.2-1.1,2.1s-2.5-.9-3-3.4,1.3-5.3,1.3-5.3a7.6,7.6,0,0,0-2,4.9,4.9,4.9,0,0,0,5.2,5A2.2,2.2,0,0,1,18.7,37.2Zm-2.9-1.5h-.9l-.5-.2h2.5l1.2-.5a3.1,3.1,0,0,0,1.1-.9,1.6,1.6,0,0,0,.4-.7l.3-.7v-.8a2.5,2.5,0,0,0-.1-.8,3.5,3.5,0,0,0-.6-1.4,3.8,3.8,0,0,0-1.3-.9l-1.4-.2h-.7l-.5.3-.9.6a5.9,5.9,0,0,0-.4.8,1.1,1.1,0,0,0-.1.5v-.5a3,3,0,0,1,.4-.8,2.4,2.4,0,0,1,.9-.8l.6-.3h.7a3.9,3.9,0,0,1,1.5.2,4.2,4.2,0,0,1,1.4.9,4.6,4.6,0,0,1,.7,1.6,1.9,1.9,0,0,1,.1.8,2.8,2.8,0,0,1-.1.9,1.6,1.6,0,0,1-.3.8,2.1,2.1,0,0,1-.4.6,2.8,2.8,0,0,1-1.2,1,3.3,3.3,0,0,1-1.3.4Z"/><path class="a" d="M9.3,28.5c2.5-.1,3.9-3,3.8-5.3a4.5,4.5,0,0,0-4.9-4.3C5.4,19.2,5,20.6,4.9,21A1.4,1.4,0,0,0,5,22.1l.4.4h.5a1.1,1.1,0,0,0,.9-.5.8.8,0,0,0,.1-.8c0-.1,0-.2-.1-.2H6.4c-.3,0-.5.1-.5.3l-.2.3h0l.2-.3.5-.2h.2c0,.1,0,.1.1.1h0a.1.1,0,0,0,.1.1,1,1,0,0,1-.2.7.8.8,0,0,1-.7.3H5.5l-.3-.3a1.4,1.4,0,0,1,0-.9c0-.3.4-1.5,2.4-1.8a2.8,2.8,0,0,1,2,.3c.5.4.5.8.9,1.1s.8.2.9.9-.3,1.1-.6,1.1a.7.7,0,0,0,1,.3s.1,1.3-.6,1.8-1.3.1-1.4-.3a1.2,1.2,0,0,0,.5,1.6,2.4,2.4,0,0,1-1.6.6c-1,.1-1.1-.8-.9-1.4a1,1,0,0,0-.7,1.1s-1-.2-.8-1.5a1.5,1.5,0,0,1,1.6-1.5c.3.2,1.1.4,1.1-.4s-2.1-1-3,1.3A3.2,3.2,0,0,0,9.3,28.5Zm2.2-6h.3v-.2h.1v-.2h0v0h0v.2H12v.2h-.1a.1.1,0,0,1-.1.1h0a.1.1,0,0,0-.1.1h-.2Zm-.4,3.3h-.7a.1.1,0,0,1-.1-.1l.3.2h.8c.1,0,.2,0,.2-.1s.2,0,.2-.1h.4l.2-.2h.1l-.2.2H11.1ZM9.2,27.9H8.1c0-.1-.1-.1-.2-.2l-.2-.2V27a.3.3,0,0,0-.1-.2c0-.1,0-.1-.1-.2h0v-.2l.2.4c0,.1.1.1.1.2l.2.2H8l.2.2h1Z"/><path class="a" d="M3.3,19.5A2.2,2.2,0,0,1,.8,19h0a2.1,2.1,0,0,1,2.5-.6C2,16.7,3.7,16,3.7,16c-.7,1.9,1.8,2.9,1.9,3h0c-.1,0-2.6,1-1.9,3A1.5,1.5,0,0,1,3.3,19.5Z"/><path class="a" d="M6,13.8c.9,2.2,3,2,3,1.2s-.8-.5-1.1-.4-1.5-.3-1.6-1.5a1.1,1.1,0,0,1,.8-1.4.9.9,0,0,0,.7,1c-.2-.6-.1-1.5.9-1.4a3.2,3.2,0,0,1,1.6.6,1.2,1.2,0,0,0-.5,1.6c.1-.4.6-.8,1.4-.3s.6,1.8.6,1.8a.9.9,0,0,0-1,.3,1.1,1.1,0,0,1,.6,1.1c-.1.7-.6.7-.9.9s-.4.7-.9,1.1a2.8,2.8,0,0,1-2,.4c-2-.4-2.4-1.6-2.4-1.9a1.4,1.4,0,0,1,0-.9l.3-.3h.4a.8.8,0,0,1,.7.3,1,1,0,0,1,.2.7c-.1.1-.1.1-.1.2H6.4l-.5-.2-.2-.3h0v.2l.2.3c0,.1.2.2.5.2h.3a.1.1,0,0,0,.1-.1h0a.3.3,0,0,0,.1-.2,1,1,0,0,0-.1-.9,1.1,1.1,0,0,0-.9-.5l-.5.2a.8.8,0,0,0-.4.4A1.4,1.4,0,0,0,4.9,17c.1.3.5,1.8,3.3,2a4.4,4.4,0,0,0,4.9-4.3c.1-2.3-1.3-5.1-3.8-5.3A3.3,3.3,0,0,0,6,13.8Zm5.6,1.6h.3a.1.1,0,0,0,.1.1V16a.1.1,0,0,1,.1.1v.2h0v.3a.4.4,0,0,1-.1-.3h0a.1.1,0,0,0-.1-.1V16h-.3Zm-.4-3.3h.9l.2.2.2.2H10.6l-.3.2h.9ZM9.3,10H8.2l-.2.2v.2H7.7v.2l-.2.4h0v-.2a.1.1,0,0,0,.1-.1v-.3a.3.3,0,0,0,.1-.2l.2-.2h.2l.3-.2h.9Z"/></svg>