<svg xmlns="http://www.w3.org/2000/svg" viewBox="0 0 500 500"><defs><style>.a{fill:#c7a754;stroke:#c7a754;stroke-miterlimit:10;stroke-width:2px;}</style></defs><path class="a" d="M453.7,222.9H83.4v-3.7a16.7,16.7,0,0,1,16.7-16.7H436.9a16.8,16.8,0,0,1,16.8,16.7ZM87.1,219.2H449.9a13,13,0,0,0-13-13H100.1A13.1,13.1,0,0,0,87.1,219.2Z"/><path class="a" d="M152.9,154.2l-.9-.3a1.9,1.9,0,0,1-.8-2.5c14.4-27.7,37.6-49.8,65.3-62.2a1.9,1.9,0,0,1,1.6,3.4,133.9,133.9,0,0,0-63.6,60.6A1.8,1.8,0,0,1,152.9,154.2Z"/><path class="a" d="M140.1,190.7h-.4a1.7,1.7,0,0,1-1.4-2.1,131.1,131.1,0,0,1,4.6-17.4,1.7,1.7,0,0,1,2.3-1.1,1.8,1.8,0,0,1,1.2,2.3,140.2,140.2,0,0,0-4.5,16.9A1.8,1.8,0,0,1,140.1,190.7Z"/><path class="a" d="M193.5,430a2,2,0,0,1-1.4-.6l-40.9-46.7a1.8,1.8,0,0,1-.2-2.1l16.8-32.3c-1-3.9-5-22.7,2.1-36.3,5.4-10.6,7.5-19.1,9.3-26.6.7-2.6,1.3-5.1,2-7.4,2.5-8.4.9-37-.1-42.6a26.9,26.9,0,0,0-1.4-5.4c-1.3-3.9-2.4-7.6-.4-10.2a2.1,2.1,0,0,1,1.5-.7h18.9a1.6,1.6,0,0,1,.9.3c.4.2,10.2,5.8,10.2,17.7,0,14,.6,30.5,2,33.6s6.7,7.9,13.4,10,17,.7,18.6-.6,4.9-10,8.4-18c5.4-12.1,10.9-24.5,13.7-28.2,4.8-6.3,11.9-14.1,12-14.2a1.7,1.7,0,0,1,1.4-.6h22a1.8,1.8,0,0,1,1.6,1,2,2,0,0,1-.1,2c-6.2,8.5-16.3,23-16.9,26s-2.1,9.3-3.2,13.8c7.3-4.9,23.1-15.6,31.6-21.5,11.3-7.8,32.4-20.8,32.6-21l1-.2h61.9c.5.2,4.6,1.9,5.3,5.1a5.2,5.2,0,0,1-1.6,4.9c-3.2,3.5-12.4,6.5-21.5,9.3l-3.9,1.2c-4.8,1.6-41.9,22.9-51,29.2s-38.1,29.6-41,33.4c-1.1,1.5-8.7,9.6-22,23.9-18.5,19.9-44,47.2-47.5,52.3-5.6,8.2-32.2,50.1-32.5,50.6a1.6,1.6,0,0,1-1.4.8Zm-38.7-48.8,38.5,43.9c5.5-8.7,26.3-41.4,31.3-48.6,3.6-5.3,28.1-31.6,47.8-52.8,11.1-11.8,20.7-22.1,21.8-23.6,3.2-4.3,32.9-27.9,41.8-34.1s46.4-27.9,51.9-29.8l4-1.2c5.9-1.8,17-5.1,19.9-8.2.6-.6.8-1.1.7-1.5s-1.8-2-2.8-2.4H349.4c-3.1,1.9-21.6,13.4-32,20.6s-35.4,24.1-35.7,24.2a1.8,1.8,0,0,1-2.1,0,1.9,1.9,0,0,1-.7-2c0-.1,3.5-14.1,4.4-18.4s10.5-17.8,15.3-24.5H281.1c-1.8,2-7.3,8.2-11.3,13.4-2.5,3.3-8.4,16.7-13.2,27.4-6.4,14.5-8.3,18.5-9.5,19.4-3,2.4-14.9,3.5-22,1.2s-13.5-7.1-15.7-12-2.3-28.1-2.3-35.1c0-8.6-6.3-13.2-7.9-14.3H182c-.3,1.4.5,3.9,1.2,6.1a30.3,30.3,0,0,1,1.6,5.9c.8,4.9,2.8,34.9,0,44.2-.7,2.3-1.3,4.7-1.9,7.3a118.6,118.6,0,0,1-9.7,27.4c-7.1,13.7-1.7,34.1-1.6,34.3a2,2,0,0,1-.2,1.3C168.7,354.7,157.6,376.1,154.8,381.2Z"/><path class="a" d="M179.5,338.9l-.9-.2a1.9,1.9,0,0,1-.8-2.5c13.4-25.2,43.4-39.5,47.9-41.6,6.1-9.3,19-14.5,19.5-14.7a1.7,1.7,0,0,1,2.4,1,1.8,1.8,0,0,1-1,2.4c-.1.1-12.7,5.2-18,13.8a1.6,1.6,0,0,1-.9.7c-.3.2-33,14.6-46.6,40.1A1.9,1.9,0,0,1,179.5,338.9Z"/><path class="a" d="M262.2,324.4a1.6,1.6,0,0,1-.9-.3,1.8,1.8,0,0,1-.7-2.5c2.7-4.8,4.2-18.2,4.6-23,0-.2.1-.4.1-.6L279,265.5a1.8,1.8,0,0,1,2.4-1,1.8,1.8,0,0,1,1,2.4l-13.5,32.3c-.2,2.5-1.6,18.2-5.1,24.2A1.8,1.8,0,0,1,262.2,324.4Z"/><path class="a" d="M308.3,249.4a1.8,1.8,0,0,1-1.7-1.1,2,2,0,0,1,.9-2.5l55.1-26.5a1.9,1.9,0,0,1,2.5.9,1.8,1.8,0,0,1-.8,2.5l-55.2,26.5Z"/><path class="a" d="M319.7,282.6a1.5,1.5,0,0,1-1.1-.4,1.9,1.9,0,0,1-.4-2.6c11.7-15.6,29.6-28.1,38.1-34.1l3.4-2.4c4-3,17.3-7.9,29.4-12.3l5.3-2a.7.7,0,0,0,.4-.3c.2-1.1-1.5-4.2-3.3-6.3a2,2,0,0,1,.2-2.6,1.9,1.9,0,0,1,2.7.2c.8,1,4.9,6,4,9.6a4.2,4.2,0,0,1-2.6,2.9l-5.5,2c-8.5,3.1-24.5,8.9-28.4,11.8l-3.4,2.4c-8.4,6-26,18.2-37.3,33.4A2.1,2.1,0,0,1,319.7,282.6Z"/><path class="a" d="M206.4,445.1a1.7,1.7,0,0,1-1.4-.7l-68.2-78.1a2,2,0,0,1,.2-2.7,1.9,1.9,0,0,1,2.6.2L207.8,442a1.8,1.8,0,0,1-.2,2.6A1.7,1.7,0,0,1,206.4,445.1Z"/><path class="a" d="M116.3,206.3a2.5,2.5,0,0,1-1.4-.6,1.8,1.8,0,0,1-.4-1.4c6.2-80,70-142.4,148.7-145.8V53.9a13.2,13.2,0,1,1,13.4,0v4.6c78.7,3.4,142.5,65.7,148.8,145.7a1.9,1.9,0,0,1-.5,1.4,1.7,1.7,0,0,1-1.4.6ZM269.9,33.2a9.4,9.4,0,0,0-4,17.9,1.9,1.9,0,0,1,1,1.7v7.5a1.9,1.9,0,0,1-1.8,1.9c-77,2.4-139.7,62.6-146.8,140.3H421.5c-7-77.7-69.8-137.9-146.8-140.3a1.9,1.9,0,0,1-1.8-1.9V52.8a1.8,1.8,0,0,1,1.1-1.7,9.4,9.4,0,0,0,5.4-8.5A9.5,9.5,0,0,0,269.9,33.2Z"/><path class="a" d="M274.8,54.6h-4.9a1.8,1.8,0,0,1-1.8-1.8,1.8,1.8,0,0,1,1.8-1.9h4.9a1.8,1.8,0,0,1,1.8,1.9A1.8,1.8,0,0,1,274.8,54.6Z"/></svg>