<svg xmlns="http://www.w3.org/2000/svg" viewBox="0 0 192 213"><defs><style>.a{fill:#caa761;}.b{fill:#f9f3ed;}.c{fill:#f0e0c1;}.d{fill:#c9a04f;}.e{fill:#c7a157;}.f{fill:#f3e3c6;}.g{fill:#c6a25a;}.h{fill:#f5e6cb;}.i{fill:#c7a96f;}.j{fill:#e8d5b0;}.k{fill:#d2b780;}.l{fill:#c8a051;}.m{fill:#dec79b;}.n{fill:#d9c295;}.o{fill:#ccaf75;}.p{fill:#d0b279;}.q{fill:#f7ead3;}.r{fill:#cdae70;}.s{fill:#f7efe5;}.t{fill:#f7eee2;}.u{fill:#f6ede1;}.v{fill:#eddbb9;}.w{fill:#f8f3f0;}.x{fill:#d3b987;}.y{fill:#f8edda;}.z{fill:#c6a35d;}.aa{fill:#d6bd8c;}.ab{fill:#f9f3ee;}.ac{fill:#f8f3ef;}.ad{fill:#f8f0e6;}.ae{fill:#f8f1e9;}</style></defs><path class="a" d="M128.1,80.1h-1.9c-.6-.1-.7-.1-.9-.5s-2.5-2.2-3.8-2.3c-4.2-.3-8.4.1-12.6-.2-1.3-.1-3.3-1.6-3.4-2.6-.3-5.4-.1-10.9-.1-17.1a67.5,67.5,0,0,0-8.1-.2c-1.9,0-4.4-.9-5.6,2a21.2,21.2,0,0,1-3.7-.2c-6-1.5-5.4-6.5-6.1-11.2.3,11.7-8.1,10-16,10.1a11.9,11.9,0,0,1,2.7,2.3c-3.4,1.1-6.8,2-10.2,3s-5,.3-5.8,3.5l-.8.5c-.1,1.2.1,2.2,0,3.3s-1.3,1.4-2,1.9a5.4,5.4,0,0,1-1.9-.7c-2.3-2.1-3.2-4.4-1.7-7.2a7.2,7.2,0,0,0,.4-2.2,64,64,0,0,1,2.9-6.5,3.7,3.7,0,0,0,1-1.7,13.8,13.8,0,0,1,1.7-2.9A13,13,0,0,0,53.8,48a9.8,9.8,0,0,1,1.7-2.3,17,17,0,0,0,1.8-3,65.5,65.5,0,0,1,4.9-5.6,26.9,26.9,0,0,0,2-2.7c3.5-2.6,6.9-5,10.6-7.4a7,7,0,0,0,1.9-1.5,5.3,5.3,0,0,1,1.5-.5l7.3-3.4a35.8,35.8,0,0,1,5.3-1.1c2.3.9,3.9.3,4.7-2.2a25.3,25.3,0,0,1,2.1-3.2l6.8-1.5c.6.2,1.1.2,1.5.6l2.9,3.7a3.4,3.4,0,0,0,.6.6,4.5,4.5,0,0,0,.2.8,2.4,2.4,0,0,1,.6-.8,1.7,1.7,0,0,1,1.2.3,19,19,0,0,0,3.5.3,1.8,1.8,0,0,1,1.1.3,3.8,3.8,0,0,0,1.6.4c2.7.9,5.2,1.8,7.7,2.9a5.9,5.9,0,0,0,1.7,1c2.7,1.6,5.2,3.2,7.7,5a4.6,4.6,0,0,0,1.6,1.1c4,4.7,7.9,9.3,11.8,14.1a17.4,17.4,0,0,0,1.2,1.4,4.3,4.3,0,0,1,.2,1.2,17.4,17.4,0,0,0,1.8,2.2c2.3,5.4,4.3,10.8,7,15.7,1.6,3.1.9,5.1-1.1,7.1a10.4,10.4,0,0,1-4.4,2.8c-7.5,1.8-15,3.2-22.5,4.9a8.5,8.5,0,0,0-2.2.9M94.6,35.4c-4.2,5.7-8.7,11.3-10.9,18.9h33.4c3.1,0,4-.7,2.7-3.6-3.9-8.4-9.4-15.7-15.6-22.6-1.4-1.5-2.8-1.6-4.2.3s-3.4,4.3-5.4,6.9M124.5,61c-5.3-.2-10.6-.5-15.9-.6-.6,0-1.7,1.5-1.8,2.4-.2,2.6.1,5.3-.1,8s.7,4.7,4.2,4.3c10.8-1.2,21.7-2.2,32.5-3.6,3.3-.4,6.3-2,9.5-3.1l-.2-1.4c-8.6-4.4-18.2-5-28.2-6M92.8,25.2a76.1,76.1,0,0,0-8.5,2.5C70.9,33.5,61.4,43.3,54.9,56.2a10.2,10.2,0,0,0-.8,3c7.2-1.3,14-2.3,20.6-3.6,1.3-.3,3.1-1.4,3.5-2.6,3.1-9.1,8.5-16.8,14.4-24.3.6-.8.5-2.3.2-3.5m27.1.9c-2.2-.6-4.4-1.3-6.7-1.8a13,13,0,0,0-3.4.2,11.3,11.3,0,0,0,1.3,3.2c6.3,7.7,11.8,15.9,15.5,25.3a4.4,4.4,0,0,0,2.7,2.5c6.1,1.2,12.3,2.2,18.5,3.2,1.9.3,2.4-.4,1.6-2-6.3-13.3-14.7-24.7-29.5-30.6M47,66.1Z"/><path class="b" d="M90,199.8a11.7,11.7,0,0,1-2.7-.5,18.7,18.7,0,0,1-3.1-2.4c-.2-.3-.3-.4-.2-.8,1.5-3.1,2.7-6,4.2-9a3.8,3.8,0,0,0,.5-1.6,15.1,15.1,0,0,1,.2-3.1,5.7,5.7,0,0,0-.2-2.9c-1.8-3.4-11.9-4.2-15-.5a16.9,16.9,0,0,1-3.2-.1c-1.4-.7-2.5-1.4-.5-2.4s3.1-.8,4.6-1.4a27.9,27.9,0,0,0,2.4-1.9,36.4,36.4,0,0,1,4.5-.5l2,.6c2.7-.7,6,.8,8.1-2.2a1.8,1.8,0,0,1,1.1.2c1.2,1.6,2.1,1.6,2.9-.2l3.2-.8,9.3-3.3,2.2-.6h2.1l3.1-.2c.3.2.4.2.5.5l3.2,2.2c.3,1.4.3,2.5.6,3.7s-.2,3.4-2.9,3.1a73.1,73.1,0,0,0-9.4-.4c-.7,0-1.4,1.2-2.4,2a4.3,4.3,0,0,1-1.9.4,9.3,9.3,0,0,0-2.4-.3,1.5,1.5,0,0,1-.9-.4l-2.7-1.3a14.2,14.2,0,0,0-2.6,2.4,5.2,5.2,0,0,1-1,1.1l-1.5.8,1.3,1.5a1.5,1.5,0,0,1,.5.7,1.3,1.3,0,0,0,.9.5,6.5,6.5,0,0,1,2,.2c1.7.6,3.2,1.1,4.5,1.7l-4.9,4.6c-2.3,0-4.3-.1-6.3.1s-1.3.9-2,1.4a6.7,6.7,0,0,1,1.3,1.5v1.7h-.2a6.7,6.7,0,0,0-.6,1.5c.3,1,.5,1.8.7,2.7Z"/><path class="c" d="M148,43.7,136.2,29.6a9.3,9.3,0,0,0-1.6-1.1l-7.6-5-1.7-1-7.8-2.8-1.5-.5-1.3-.3-3.4-.3-1.2-.2h-.7c-.2-.1-.4-.2-.6-.8l-2.9-3.7a4.7,4.7,0,0,1-1.6-.5c-3.2-1.9-5.2-.6-7,1.7a15.8,15.8,0,0,1-2.1,3.2l-4.6,2-5.3,1.3L77.9,25l-1.4.5-2,1.5L64,34.4a26.1,26.1,0,0,0-2,2.7l-4.9,5.7c-.8,1.2-1.3,2.1-1.9,2.9l-1.6,2.4-1.7,3a31,31,0,0,1-1.6,3,18.1,18.1,0,0,0-1,1.7l-2.8,6.5a18.9,18.9,0,0,0-.6,2.1c-1.2,2.8-.3,5.1,2,7.4.1.9.2,1.4.2,1.8A7.5,7.5,0,0,1,43.7,64c4-11,9.6-21.2,18-29.5A78.7,78.7,0,0,1,82.9,20.1l1.9-.4c4.4-1.3,8.9-2.1,12-6.3s7-3.7,9.7-.9c4,4.3,9.5,4.7,14.4,6.5a51.3,51.3,0,0,1,22.8,15.7,116.8,116.8,0,0,1,9.5,13.5c1.8,2.8,2.8,6.1,4.2,9.2a34.8,34.8,0,0,0,2.1,4.8c2.6,4.2,1.5,9.8-2.7,12.2-8,4.5-16.6,6.3-25.6,6.6a7.2,7.2,0,0,1-3-.7,4.3,4.3,0,0,1,2.1-1.1c7.5-1.7,15-3.1,22.5-4.9a10.4,10.4,0,0,0,4.4-2.8c2-2,2.7-4,1.1-7.1-2.7-4.9-4.7-10.3-7-15.9a7.1,7.1,0,0,0-1.8-2.2,9.6,9.6,0,0,0-.2-1.2A3.6,3.6,0,0,0,148,43.7Z"/><path class="d" d="M92,59.1c.9-2.9,3.4-2,5.3-2a67.5,67.5,0,0,1,8.1.2c0,6.2-.2,11.7.1,17.1.1,1,2.1,2.5,3.4,2.6,4.2.3,8.4-.1,12.6.2,1.3.1,2.5,1.3,3.5,2.4a22.4,22.4,0,0,1-5.2.3l-2.7-.3a63.4,63.4,0,0,0-8.6-.4c-.6,0-1.2.8-1.9,1.4a16,16,0,0,0-.5,2.1A6.6,6.6,0,0,1,106,84a6.3,6.3,0,0,1-2.3,1.7,20.9,20.9,0,0,1-3.9.7,9.6,9.6,0,0,1-2.4-3.1c-.8-2-1.8-3.2-4.2-2.9l-2.7-.6H83.8l-2.1.6H79.4a.7.7,0,0,1,.1-.6,15.9,15.9,0,0,1,2.8-3.4l12.5-.5c.9-.9,2.3-1.9,2.4-3a93.7,93.7,0,0,0,.1-10.6c-.1-.6-.9-1.2-1.5-2Z"/><path class="e" d="M57.2,136.4a5.5,5.5,0,0,1-.2-1.2,8.6,8.6,0,0,0,.1-1.5,9.3,9.3,0,0,0-1.9-2.1l-1.2-.8c-1.8-.7-3.6-1.2-5.5-1.8a4.3,4.3,0,0,1-1.8-.8,1.8,1.8,0,0,1,.2-1.1l1.1-.2a61.7,61.7,0,0,0,4.7-4.4l2.4,1.9c3,2.2,6,1.7,7.7-1.5a13,13,0,0,1,1.5-1.8,21.2,21.2,0,0,1,3.5,2.3,7,7,0,0,1,.6,1.9l4.9,3.4a14.3,14.3,0,0,1,1.4,2c-.3,1.9-3,3.8.5,5.4a16.6,16.6,0,0,1,.1,3.1,6.1,6.1,0,0,1-1.6,1.3,24.1,24.1,0,0,1-2.5-.8,10.9,10.9,0,0,0-2.8-.3c.5-2.1,1.3-3.9,1.4-5.8s-.6-3.4-1.5-3.8-3.6-.3-4.3.6-2.7,4.4-4.2,6.8a6.3,6.3,0,0,1-1.9-.3Z"/><path class="f" d="M68.5,125.1a10.8,10.8,0,0,1-.6-1.9v-1c.1-1.3,0-2.2.1-3.3a3,3,0,0,1,.2-1.3c.7-3,1.2-5.8,1.7-8.9v-6.4a8.8,8.8,0,0,0-1.2-2.1c-.2-.8-.5-1.3-.7-2l-1.5-1.9-3.8-2.9c-4-3.3-8.3-2.9-12.5,1.5,1.5-.1,2.8.1,3.3-.3,2.2-1.8,4.5-1.5,6.9-.6a6.6,6.6,0,0,1-1.3,2.5l-9.4,5.2a5.6,5.6,0,0,1-1.6-2.1,26.8,26.8,0,0,1,.7-2.7l1.3-2-4.1.8a36.8,36.8,0,0,1,3.7-3.2A15.1,15.1,0,0,1,52.5,91c2.8-1.6,5.7-2.7,8.7-.6A60.8,60.8,0,0,1,68,95.6c2.4,2.2,3.8,4.9,3.3,8.3-.6,5.3-1.1,10.7-1.9,15.9-.5,3.1,2.5,6.7,5.4,5.8a135,135,0,0,0,13.7-5.5c.8-.4.8-2.6,1.6-4.3.3-.2.6-.3.6-.1a2.7,2.7,0,0,1,0,.9c-.2,1.8-.4,3.2-.6,4.9a64.8,64.8,0,0,1-6.3,1.7,14.6,14.6,0,0,0-2.8,1.5C77,127.9,72.8,127.9,68.5,125.1Z"/><path class="g" d="M129.5,90.1a26.6,26.6,0,0,1,4.9,0,30.6,30.6,0,0,0,3.8,1,5.7,5.7,0,0,1,1.3.8c.9.8,1.7,1.3,2.6,2l1.4,1.4,1.9,2.6v3.9s0,.1-.2.1a13.3,13.3,0,0,1-1.4,1.9,6.5,6.5,0,0,1-2-.2c-1.5-2.7-1.6-6.1-5.2-7.3-7.4-2.4-9.3,4.1-12.9,8.5-.3-2.2-.4-3.6-.6-5.2l2.5-6a25.9,25.9,0,0,1,2.3-1.9A8,8,0,0,0,129.5,90.1Z"/><path class="h" d="M58.1,179.4c-4.6-.1-9.2-.2-13.8-.5-.2,0-.8-2.6-.4-3.1a18.5,18.5,0,0,1,5.8-3.9c3.8-1.2,6.3-3.9,6.3-7.8.1-8.4.2-16.8.7-25.3a88.4,88.4,0,0,1,1.4,9.2v4.7c.1,3.7.3,7,.4,10.7s-.9,4.6-1.6,6.9l-2.4.9c-3.4,1.9-7.5,2.3-10.1,6.4h10a14.1,14.1,0,0,1,2.2.6Z"/><path class="g" d="M54.7,171.2a9.9,9.9,0,0,1,2.4-.7,7.7,7.7,0,0,1,2.2,2.2l6.1,2a14.3,14.3,0,0,1,1.4,2v2.5l3.2,2.2c.2,1.8.5,3.4.7,5.1a6.3,6.3,0,0,1-.3,1.9c-1.2-1.7-1.9-3.6-3.3-4.8s-4.4-2.9-6.8-4.3l-1.1.2-.5-.4a7.5,7.5,0,0,0-2.2-1.1,8.2,8.2,0,0,1-2.2-.6l-4.4-2.2Z"/><path class="i" d="M46.6,128.4a6.5,6.5,0,0,1,1.7.8,13.3,13.3,0,0,1-3.3,2.4l-1.8.3a7.3,7.3,0,0,0-1.3,1h-.2l-2.5.2-1.5,1.2a26.5,26.5,0,0,1-2.6,2.1c-2.4,1.8-1.7,3.3.2,4.8l1.3,2.1a5.3,5.3,0,0,1-.1,1.8c-.3.6-.4,1-.8,1.3l-1.9-.3a7.7,7.7,0,0,0-1.6,1.9,28,28,0,0,1,0,2.9,4.1,4.1,0,0,1-1.5-1.8,31.8,31.8,0,0,1-.6-3.7v-1.7a1.5,1.5,0,0,1,.3-.5,5.3,5.3,0,0,0,.4-1.7,2.3,2.3,0,0,1,.2-1.2c.7-2.5,1.2-4.9,1.7-7.3a12.8,12.8,0,0,1,1.5-1.2l10.1-3.4Z"/><path class="c" d="M125.4,93.6a63.3,63.3,0,0,1-2.4,6.1c-2.1,5.4-2.3,10.5.3,15.7.1,1.6.1,2.9.2,4.5s.3,3.1.4,4.8a19.2,19.2,0,0,1-4.1,1.9c-2.3-.8-4.4-1.4-6.6-2.3a14.3,14.3,0,0,0-2.6-1.9,40.5,40.5,0,0,1,7,2.1c3,1.4,4.7.7,4.4-2.4a75.3,75.3,0,0,0-2.2-10.5c-1.5-6,.8-11.3,3-16.5C123.1,94.4,124.4,94.1,125.4,93.6Z"/><path class="f" d="M135.2,156.3l-2.7,3.4a13.3,13.3,0,0,0-1.4,2.7c-.7.4-1.9.6-1.9.4-1.3-3.5-4-2.6-6.6-2.5-.9.1-1.8-.7-2.7-1.5a33.1,33.1,0,0,1,.2-4.5,23.6,23.6,0,0,0,1.2-2.8,39.2,39.2,0,0,1,2.4-6.3,14.2,14.2,0,0,1,1.8-.8,2,2,0,0,1,1.2.2c0,.2.1.4,0,.6s.8,1,1.2,1.5a11.8,11.8,0,0,1,.7,2,1.9,1.9,0,0,1-.5,1.1,41.9,41.9,0,0,1-3.4-2.8c-.6,1.7-1.2,3.2-1.7,4.7s-.9,4.1-1.4,6.2l6.5.3.5-.5a15,15,0,0,1-.8-3.2,5.6,5.6,0,0,1,.7-2.6l1.3,2.8a2.4,2.4,0,0,1,0,1.2,3.3,3.3,0,0,0,.7,1.3.4.4,0,0,1,.1.3,5.4,5.4,0,0,0,2.2-.4c.1-.3.1-.4.4-.6Z"/><path class="j" d="M164.6,155.1c-1.3,2.2-2.8,1.8-3.8-.2a63.8,63.8,0,0,1-2.7-7.5c-2.4,3.6-1.2,7-1.3,10.3-.1.4.4.9.3,1.2-.7,2.2-.8,5.6-2.3,6.3s-2.1-2.4-3.5-4.1.1-1.1.4-1.4a39.7,39.7,0,0,1,2.3,3.9c.7-6.3,1.4-12.3,2.3-18.3a10.4,10.4,0,0,1,2.5,0c.5,1.3.8,2.3,1.2,3.2s1.8,3.6,2.7,5.6A11.8,11.8,0,0,0,164.6,155.1Z"/><path class="k" d="M62.7,123.1c-1.6,3-4.6,3.5-7.6,1.3l-2.4-1.9a41.8,41.8,0,0,1-4.6,4.2,6,6,0,0,1,.5-1.6,11.4,11.4,0,0,0,1.5-1.9,12.1,12.1,0,0,0-.1-2.8v-1.3c-1.1-3-2.2-5.5-3.3-8v-.2a21.9,21.9,0,0,1-.5-3.1,32.8,32.8,0,0,1,2.4,3.7c.5-1.6.9-3,1.4-4.2.2,1.2.5,2.2.7,3.4V112c.6,1.5,1.2,2.7,1.8,4.1a4,4,0,0,1,0,1.1,3.5,3.5,0,0,0,.9,1.5c.8,1.3,1.4,2.5,2.1,3.9C57.8,125.9,60.3,123.9,62.7,123.1Z"/><path class="e" d="M158.7,145.1h-2.5a4,4,0,0,1-1.6-.9v-1.4a8.6,8.6,0,0,1,.5-2.3,9.9,9.9,0,0,0,1-2.7v-3.3a5.6,5.6,0,0,1,.2-2.1l1.9-1.6a16,16,0,0,1,1.7,4.4,10.9,10.9,0,0,0-.5,1.4c.5.8,1.1,1.4,1.7,2.2a34.8,34.8,0,0,1,0,5.6Z"/><path class="l" d="M50,72.4a7.4,7.4,0,0,1,2-1.9c6.5,1.7,12.3,4.3,18.6,4.2a10,10,0,0,1-2.2,2.4L63,76.6l-1.7-.2a5,5,0,0,0-1.6.2l-1.8.3-1-.6-1.6-1.4a23.6,23.6,0,0,0-2.8-1.2Z"/><path class="m" d="M124,195.1c1.1,1.4,2.4,3.2.1,4.4s-3.6.4-4.5-2.2-2-3.2-3.2-4.5-4.6-.4-5.8,1.7a19.4,19.4,0,0,1-1.4,3c-.7.1-1,.1-1.3-.2s1-2,1.4-3.1c.2-2.8,1.7-3.8,4.3-3.8h4.5c.2.1.5.1.5.4l3.6,7.5,1-.4c-.4-1.9-.9-3.7-1.1-5.5Z"/><path class="c" d="M120.1,80l4.9-.2.9.3a15.5,15.5,0,0,1-5.1,2.2,21.5,21.5,0,0,1-6.2.1c-3.2-.3-4.2,1.2-3.9,4.4,0,.3-.1.3-.3.3h-1.2c-.1,0-.4-.1-.4-.3s-1.8-2.2-2.7-3.1a2.6,2.6,0,0,1,.2-1.1,19.9,19.9,0,0,1,2.1-2c3.2,0,6.1-.1,9.1.1A9.9,9.9,0,0,0,120.1,80Z"/><path class="j" d="M160.1,135.1a33.1,33.1,0,0,0-2-4.5c-1.1-.5-1.9-.7-2.8-1.2l-4.6-2.9c4.1-.8,10.1,3.4,11.3,8.1s1.2,7.2,1.9,10.8c.4,2,1.2,3.9,1.5,6a4.5,4.5,0,0,1-.5,2.8c-.3-.2-.3-.4-.3-.7v-1.2l-1.2-1.5c-.7-2.3-1.4-4.3-2.1-6.4s-.1-3.5-.1-5.8v-2.2A4.7,4.7,0,0,0,160.1,135.1Z"/><path class="n" d="M60.5,179.4a41,41,0,0,1,6.6,4.2c1.4,1.2,2.1,3.1,3.3,5a13.4,13.4,0,0,1,.3,3.4c0,1,.1,1.8.2,3.1a36.3,36.3,0,0,1,3.4-2.7,5.2,5.2,0,0,1,1.8.2,3,3,0,0,1,.4,1.7c-3.6-.1-5.3,2.1-6.5,4.8a4.8,4.8,0,0,1-1.4.6c-.7-.7-1.5-1.8-1.3-2.2,3.2-4.7,2.3-9-1.3-13.1l-4.5-3.5Z"/><path class="o" d="M154.6,144.4l1.4.7c-.6,6.2-1.3,12.2-2,18.5l-2.3-4.2c.1-4.3.5-8.3.9-12.3a2.1,2.1,0,0,1,.4-1.1Z"/><path class="j" d="M146.7,101.8c-.1,4.8.6,9.7-1.7,14.3s-2.4,5.1,2.5,7.9a5.6,5.6,0,0,1,1.6,2.1,62.5,62.5,0,0,1-7.2-3.1,3.4,3.4,0,0,1-.6-1.5,73.7,73.7,0,0,1,2.3-7.1,4.8,4.8,0,0,0,1-1.7c0-3.2.1-6.1.3-9.1a7.7,7.7,0,0,0,.5-1.7s0-.1.2-.1Z"/><path class="m" d="M142.1,123.1l7.1,3.3h1.3a25.1,25.1,0,0,1,4.6,3.2,3,3,0,0,1-.8,1.6c-1.7-.8-3.1-1.6-4.6-2.2-5.5-2.4-9-1.5-11.1,2.7a9.4,9.4,0,0,1-1.4,1.2c-.6.2-.9.2-1.2,0,2.3-2.9,4.7-5.5,7.1-8.2Z"/><path class="o" d="M35.9,146.6a3.7,3.7,0,0,1,.7-1.2,6.7,6.7,0,0,1,1.5.6,10.3,10.3,0,0,1,.7,2.5,3.3,3.3,0,0,0,1.3,1.3h.4c0,.6.1,1.3.2,2.5s-.1,1.1-.2,1.6c-.1,3.1.1,6.2.2,9.4-.1.9-.1,1.6-.2,2.3H40a1.4,1.4,0,0,0-.9-.4.5.5,0,0,1-.5-.3l-1.1-1.5a20.6,20.6,0,0,1,.2-3.6,9.7,9.7,0,0,0,.8-2.4c0-1.6,0-2.9.1-4.4a17.3,17.3,0,0,0-1.5-2c-.1-.3-.1-.6-.3-1.3A30.9,30.9,0,0,0,35.9,146.6Z"/><path class="p" d="M119.9,159.1c.9.5,1.8,1.3,2.7,1.2,2.6-.1,5.3-1,6.6,2.5,0,.2,1.2,0,2-.2a2.6,2.6,0,0,1,2,.6l1.8,5.7c.4,1.3,1,2.7,1.5,4.1h-1.1c-1.4.7-2.4,1.4-3.6,2.1a1.8,1.8,0,0,1-1.1-.2c1.2-1.5,2.4-2.7,3.5-3.9l-2-4.9c-.3-.6-.6-1.3-1.1-1.5-3.1-1-6.2-1.8-9.3-3C121,161.3,120.5,160,119.9,159.1Z"/><path class="q" d="M136,133.1h1.1c0,6.8-.2,13.5-.5,20.3a3.1,3.1,0,0,1-1.2,2.1,5,5,0,0,1-.8-2,12.3,12.3,0,0,1,.2-1.9,24.8,24.8,0,0,0-.3-4.7,13.3,13.3,0,0,1,0-2c.2-3.7.3-7.1.6-10.7Z"/><path class="i" d="M90.7,115.5h-.4a5.9,5.9,0,0,1-.3-1.8,23.5,23.5,0,0,0-.1-2.8l-1.2-1.6c-.2-1.1-.4-2-.5-3.1a9.8,9.8,0,0,0-.7-1.6,30.1,30.1,0,0,1,.1-4.3c.4-.3.7-.5,1.1-.4s1.8.8,2.7,1.4a14.9,14.9,0,0,0,.2,2.1c.1,2.5.2,4.7.2,7.1s-.4,2.6-.6,3.9A3.1,3.1,0,0,0,90.7,115.5Z"/><path class="e" d="M68.7,77.1l2.2-2.4c3.9.4,7.5,1.1,11.1,1.7l-2.5,3.2a10.3,10.3,0,0,1-3.9-.1C73.1,78.5,70.9,77.8,68.7,77.1Z"/><path class="q" d="M65.8,184.6c3.8,3.9,4.7,8.2,1.5,12.9-.2.4.6,1.5,1.1,2.2a18.9,18.9,0,0,1-2.8,1.7c-.2-.9-.9-2.2-.5-2.9C67.9,194,67.2,189.4,65.8,184.6Z"/><path class="f" d="M87.4,100.5c0,1.3.1,2.6.1,4.4a3.7,3.7,0,0,0,.6,1.5c.2,1,.4,1.9.6,3.3a4.9,4.9,0,0,0,1.2,1.5,16.2,16.2,0,0,1,.1,2.3c-3.4-.8-3.4-3.8-3.6-6.4-.3-4.2-1.7-8.5,1.5-12.5.4-.2.7-.2.8,0v.9a8.5,8.5,0,0,1-.4,2.3A9.5,9.5,0,0,0,87.4,100.5Z"/><path class="m" d="M30.1,145.8c.2,1.1.3,2.3.6,3.4a7.6,7.6,0,0,0,1.5,2.1,44,44,0,0,1-1.5,6.5,6.8,6.8,0,0,1-1.9,1.1,106,106,0,0,1,.1-11.3C29,147,29.7,146.4,30.1,145.8Z"/><path class="q" d="M138.9,131.7c1.8-4.2,5.3-5.1,10.8-2.7,1.5.6,2.9,1.4,4.7,2.3l1.7,1.1v1.8a9,9,0,0,1-3.2-1.3C148,128.9,144.1,128.5,138.9,131.7Z"/><path class="q" d="M152.3,147.1c-.1,4-.5,8-.9,12.3a7.6,7.6,0,0,1-.1,1.5c-.2.2-.5.2-.6,0C148,158,148.9,149.5,152.3,147.1Z"/><path class="c" d="M113.4,102.4c1.6,1.9,2,6.7,0,8.7s-2.9,4.7-3.4,7.8c-.5.3-.6.3-.9.1s-.4-2.2-.5-3.4a4.2,4.2,0,0,1,.3-1.2c.6-.9.9-1.7,1.4-2.6,2.8-1.9,3.3-4.5,2.9-7.7a4,4,0,0,1,0-1.1Z"/><path class="q" d="M31,157.8a60,60,0,0,1,1.5-6.5,8.7,8.7,0,0,1-.1-3.2,15.4,15.4,0,0,1,1.6-1.8l1.7.2a15.4,15.4,0,0,1,1.1,3c-1,1.2-2,2-2.8,3.1S32.1,156,31,157.8Z"/><path class="h" d="M57.9,77.1a3.4,3.4,0,0,1,1.9-.4,7.9,7.9,0,0,1,1.6.8,7.8,7.8,0,0,0,2.3.8,36.9,36.9,0,0,1,4.9.5,9.7,9.7,0,0,0,2.4.8l2.4.4c-1.2.4-2.4,1.1-3.4,1-3.6-.5-7.1-1.3-10.6-2.1C58.8,78.8,58.4,77.9,57.9,77.1Z"/><path class="h" d="M39.4,133.2h2.3c.2.3.2.8,0,.9-4.9,1.9-5.2,5.5-3.7,10.1,0,.3-.1.4-.2.3l-1.2-1.2a11.2,11.2,0,0,1-1.3-2.1v-4.7l2.7-2A5.8,5.8,0,0,0,39.4,133.2Z"/><path class="c" d="M46,107.8c.2.9.5,1.9.7,3.1-3.9-1.9-5.3-9.4-2.1-13.6a1.7,1.7,0,0,1,.7,1.3c-.1.1-.1.4-.3.5a3.4,3.4,0,0,0-.5,1.6,23.5,23.5,0,0,1,.1,2.6c.2.5.4.8.6,1.4S45.8,106.8,46,107.8Z"/><path class="q" d="M30.1,145.5c-.4.9-1.1,1.5-1.2,2.1-.2,3.7-.3,7.4-.3,11.3-.6-.1-1.8-.5-1.8-.8.3-4.4.8-8.7,1.4-13,0-.5.9-.9,1.6-1.3A3.1,3.1,0,0,1,30.1,145.5Z"/><path class="m" d="M130.7,175.1a2.6,2.6,0,0,1,1.1.2,2.6,2.6,0,0,1,.2,1.1l-1.5,1.2a43.5,43.5,0,0,0-3.1,3.5c-.1.3-.1.6-.3,1.3-.4,3.5-1.9,5.4-5,5.8,1-1.4,3-2.6,3-3.7C125,180,127.9,177.6,130.7,175.1Z"/><path class="h" d="M43.4,131.9l1.9-.3,8.8-.6a2.3,2.3,0,0,1,1.1.8,13.7,13.7,0,0,0,1.9,2.1A4.9,4.9,0,0,1,57,135c-3.9-3.4-8-3.7-12.4-1.3-.2.1-.6-.2-1.1-.6A7.5,7.5,0,0,1,43.4,131.9Z"/><path class="c" d="M110.7,87.1c.6.4,1.5.9,1.6,1.4.5,4.1,1,8.2,1.1,12.3a2.9,2.9,0,0,1-1.4-1.3c-.1-.5-.1-.8-.2-1.3s-.3-1.7-.4-2.7a4.5,4.5,0,0,1,.1-1.2c-.2-2.5-.5-4.8-.9-7.2Z"/><path class="q" d="M48.4,125.1a3.2,3.2,0,0,1-.6,1.6,2.4,2.4,0,0,1-1.2.4l-2.8.7L34,131.1c.2-.5.3-1.3.7-1.4C39.1,128.1,43.6,126.6,48.4,125.1Z"/><path class="h" d="M40.8,165.7a3.4,3.4,0,0,1,.2-2.4c1.8-3.5,1.1-6.5-.4-9.5a6.2,6.2,0,0,1,.1-1.2c2.3,1.3,4.1,6.4,2.9,8.9A18.1,18.1,0,0,1,40.8,165.7Z"/><path class="h" d="M79.2,80.6a5.7,5.7,0,0,1,2.6-.1h2.5l5.2.6a32.3,32.3,0,0,1,3.9.9c0,.8-.1,1.3-.1,1.8L80.5,81.7A2.3,2.3,0,0,1,79.2,80.6Z"/><path class="r" d="M68.6,78.6a45.2,45.2,0,0,1-4.9-.5,4.3,4.3,0,0,1-.5-1.5l5.2.5a46.6,46.6,0,0,1,6.9,2.4,3.5,3.5,0,0,1-1.7.4,6.3,6.3,0,0,1-2.6-.5Z"/><path class="h" d="M122.1,188.5c3.1-.7,4.6-2.6,5-5.9-.1,1.5.3,4-.7,4.8-2.6,2-3,4.3-2.4,7.4a12.2,12.2,0,0,1-1.9-2.5,14.2,14.2,0,0,1-.3-3.4Z"/><path class="q" d="M70.2,199.1c1-2.7,2.7-4.9,6.5-4.8l1.4.2a1.6,1.6,0,0,1,.5.9,4.8,4.8,0,0,1,0,1.2l-.6.5C74.9,195.5,72.7,197.6,70.2,199.1Z"/><path class="f" d="M136.7,173a27.5,27.5,0,0,1-1.7-4.1c-.6-1.8-1.1-3.5-1.7-5.5,1.7,2.7,3.3,5.8,4.9,8.8Z"/><path class="m" d="M92,89.1a15.9,15.9,0,0,1,1.6-3.2c.8-.1,1.2-.1,1.6.2a74.2,74.2,0,0,1-5.3,7.4C90.6,91.9,91.3,90.5,92,89.1Z"/><path class="n" d="M58.1,147.7c-.4-2.9-.7-5.9-1.2-9.1a3.4,3.4,0,0,1,.1-2c.4,0,.6.1.9.6C58,141,58.1,144.4,58.1,147.7Z"/><path class="m" d="M102,199.7H96.3c-.3-.3-.3-.4-.1-.7,3-.7,5.8-1.2,8.6-1.7a2.8,2.8,0,0,1,1.7.7Z"/><path class="m" d="M34,131.3a80.6,80.6,0,0,1,9.8-3.3c.2.1.2.5.2.5l-9.7,3.3C34,131.7,34,131.6,34,131.3Z"/><path class="c" d="M46.6,111.3a78.2,78.2,0,0,1,3.4,7.6C47.2,117.3,46.2,114.8,46.6,111.3Z"/><path class="c" d="M139.4,91.7a4.9,4.9,0,0,1-1.2-.8,2.6,2.6,0,0,1-.2-1.1c3.4-.4,4.9,1.9,5.9,4.9-.3.3-.4.3-.5.3a5.2,5.2,0,0,1-1.3-1.3A13.2,13.2,0,0,0,139.4,91.7Z"/><path class="b" d="M78,197.3a1.9,1.9,0,0,1,.8-.7,3.4,3.4,0,0,1,1.9.9l2.6.9C81.8,201.4,80.4,201.2,78,197.3Z"/><path class="q" d="M30.8,140.5a2.6,2.6,0,0,1-.2,1.1.8.8,0,0,1-.6.2,7.3,7.3,0,0,1,1.7-8.4A52.9,52.9,0,0,1,30.8,140.5Z"/><path class="h" d="M38.7,165.1l.4.3a1.2,1.2,0,0,1,.2.7c-.8-.2-2.4-.3-2.5-.6a21.4,21.4,0,0,1,.3-6.2c.3.3.4.4.4.6s0,2.1-.1,3.7A2.8,2.8,0,0,0,38.7,165.1Z"/><path class="q" d="M102.2,199.9a33,33,0,0,1,4.5-2,5.4,5.4,0,0,1,1.2-.4l1.2.2C107.8,200.9,105,200.4,102.2,199.9Z"/><path class="h" d="M56.1,76.7c-3.3,2.1-4.8-.7-6.5-2.6a11.8,11.8,0,0,1,3.4,1l1.6.4A7.1,7.1,0,0,0,56.1,76.7Z"/><path class="q" d="M154.9,140.6a11.2,11.2,0,0,1-.5,2.2,11.6,11.6,0,0,1-1.7,1.6c-1.7-3,1-4.5,2.4-6.3A6.7,6.7,0,0,1,154.9,140.6Z"/><path class="h" d="M38.8,148.3a26.7,26.7,0,0,0-.7-2.6,9.6,9.6,0,0,1-.2-1.2H38c2.7.8,3.3,2.7,2.7,5.3-.2.2-.5.2-.6-.1Z"/><path class="q" d="M96,199v.6a51.5,51.5,0,0,1-5.7.2,2.6,2.6,0,0,1-.7-1.8,51.2,51.2,0,0,1,5.4,1Z"/><path class="h" d="M38.5,153.2a31.7,31.7,0,0,1-.2,4.2,1.9,1.9,0,0,1-1,.4,21.7,21.7,0,0,1-.3-4.5A4.1,4.1,0,0,1,38.5,153.2Z"/><path class="m" d="M109.2,119.2h.6c.3,1,.4,1.9.7,3.1a11.3,11.3,0,0,1,2.6,2.3,2.6,2.6,0,0,1-1.9.4C110.4,122.9,109.8,121.1,109.2,119.2Z"/><path class="h" d="M91.8,89.1c-.5,1.4-1.2,2.8-1.9,4.4s0,.2-.2.2l-1.1.7h-.4C88.7,92.3,88.7,89.8,91.8,89.1Z"/><path class="r" d="M95.2,85.9H93.8a4.3,4.3,0,0,1-.5-1.8c0-.7.1-1.2.1-2.2s0-.6.2-.6A29,29,0,0,1,95.2,85.9Z"/><path class="n" d="M45.3,98.4a3.8,3.8,0,0,0-.5-1.2,4.1,4.1,0,0,1,1-1.4l4.3-.9a8.7,8.7,0,0,1-1.6,2Z"/><path class="m" d="M31,140.4c.2-2.2.6-4.5,1-7.1.1-.2.2-.2.5-.2A49.9,49.9,0,0,1,31,140.4Z"/><path class="m" d="M52.7,75l-3.2-1.2H48.3a4.1,4.1,0,0,1-.3-1.6,4.1,4.1,0,0,1,1.8.2,19.1,19.1,0,0,1,2.7,1.6A3.1,3.1,0,0,1,52.7,75Z"/><path class="h" d="M132.2,176.4a1.8,1.8,0,0,1-.2-1.1,14,14,0,0,1,3.2-2.2A22.4,22.4,0,0,1,132.2,176.4Z"/><path class="h" d="M127.6,181.1a16.4,16.4,0,0,1,2.8-3.3A19.7,19.7,0,0,1,127.6,181.1Z"/><path class="m" d="M137.7,89.8c.3.3.3.6.3,1.1a11.1,11.1,0,0,1-3.4-.8A9.9,9.9,0,0,1,137.7,89.8Z"/><path class="q" d="M83.4,198.3a5.4,5.4,0,0,1-2.5-.9l3-1.1c0,.2.1.3.1.6A8.4,8.4,0,0,1,83.4,198.3Z"/><path class="j" d="M145.5,98.4c-.1-.1-.1-.2-.1-.8a12.8,12.8,0,0,1-.1-1.8,6.9,6.9,0,0,1,1.4,2.5Z"/><path class="m" d="M112,99.8a13.5,13.5,0,0,1,1.2,1.2,2.3,2.3,0,0,1,.2,1.2.8.8,0,0,1-.4.7A14.1,14.1,0,0,1,112,99.8Z"/><path class="m" d="M145.4,98.7c.3-.3.6-.3,1.1-.3a15.1,15.1,0,0,1,.2,3.1c-.3.3-.6.3-1.1.3A14.7,14.7,0,0,1,145.4,98.7Z"/><path class="n" d="M134.6,153.7a18.9,18.9,0,0,0,.6,1.8v.7a4.6,4.6,0,0,1-2.1.2,1,1,0,0,1-.4-.8.7.7,0,0,1,.3-.5l1.1-1.4Z"/><path class="m" d="M155.1,140.5c0-.7.1-1.4.2-2.5s.3-.2.6-.2A5.6,5.6,0,0,1,155.1,140.5Z"/><path class="h" d="M60.3,179.3a6.2,6.2,0,0,1,1,1.6,6.2,6.2,0,0,1-2-1.2C59.5,179.4,59.8,179.4,60.3,179.3Z"/><path class="m" d="M38.6,153a2.9,2.9,0,0,1-1.6,0,3.6,3.6,0,0,1,0-1.8A5.7,5.7,0,0,1,38.6,153Z"/><path class="m" d="M152.7,144.7a8.1,8.1,0,0,1,1.6-1.6c.3.2.3.5.3,1.1a5.7,5.7,0,0,1-1.5,1.6C152.8,145.5,152.8,145.2,152.7,144.7Z"/><path class="c" d="M129.4,89.9a3.4,3.4,0,0,1-1.3,1.6A3.3,3.3,0,0,1,129.4,89.9Z"/><path class="m" d="M145.2,95.7c.1.6.1,1.1.2,1.8a8.4,8.4,0,0,1-1.9-2.2c0-.3.1-.3.4-.4A4.6,4.6,0,0,1,145.2,95.7Z"/><path class="c" d="M49.8,120.6a5.5,5.5,0,0,1,.4,2.4A6.1,6.1,0,0,1,49.8,120.6Z"/><path class="m" d="M164.6,153.7a1.8,1.8,0,0,0,.1.6v.6a3,3,0,0,1-1.8-.8A4.1,4.1,0,0,1,164.6,153.7Z"/><path class="m" d="M56.2,76.6a2.5,2.5,0,0,1-1.4-1.1l.5-.4a4.5,4.5,0,0,1,1.3,1.1C56.7,76.5,56.4,76.6,56.2,76.6Z"/><path class="m" d="M37.3,158a1.5,1.5,0,0,1,1-.3,4.8,4.8,0,0,1-.6,2.1.7.7,0,0,1-.4-.5Z"/><path class="n" d="M56.6,178.2a3.4,3.4,0,0,1,1.9.8c.1.2-.2.3-.3.3A5.7,5.7,0,0,1,56.6,178.2Z"/><path class="n" d="M43.2,131.9c.2.2.2.5.1,1a1.3,1.3,0,0,1-1.1.1A1.7,1.7,0,0,1,43.2,131.9Z"/><path class="m" d="M30,142c.2-.2.3-.2.6-.2a2.3,2.3,0,0,1-.1,1.4A1.9,1.9,0,0,1,30,142Z"/><path class="m" d="M39.5,166c-.2-.1-.2-.2-.3-.5s.4-.2.7.1S39.8,165.8,39.5,166Z"/><path class="s" d="M94.8,35.2c1.8-2.4,3.6-4.5,5.2-6.7s2.8-1.8,4.2-.3c6.2,6.9,11.7,14.2,15.6,22.6,1.3,2.9.4,3.6-2.7,3.6H83.7C85.9,46.7,90.4,41.1,94.8,35.2Z"/><path class="t" d="M124.8,61c9.7,1,19.3,1.6,27.9,6l.2,1.4c-3.2,1.1-6.2,2.7-9.5,3.1-10.8,1.4-21.7,2.4-32.5,3.6-3.5.4-4.5-1-4.2-4.3s-.1-5.4.1-8c.1-.9,1.2-2.4,1.8-2.4Z"/><path class="u" d="M52,67.1a2.1,2.1,0,0,1,.8-.5c4.1-1.2,7.7-2.6,11.5-3.2,8.7-1.2,17.4-2,26-3,2.3-.3,3.3.5,3.2,2.9a84.2,84.2,0,0,0,0,8.7c0,2.3-.9,3.3-3.2,3-9-1.1-18.1-1.8-27-3.4C59.4,70.9,54.7,71.3,52,67.1Z"/><path class="f" d="M93,25.2c.1,1.2.2,2.7-.4,3.5C86.7,36.2,81.3,43.9,78.2,53c-.4,1.2-2.2,2.3-3.5,2.6-6.6,1.3-13.4,2.3-20.6,3.6a10.2,10.2,0,0,1,.8-3c6.5-12.9,16-22.7,29.4-28.5A68.5,68.5,0,0,1,93,25.2M68.5,54.5c4-.2,7.2-1.3,9.2-5.4,3.1-5.9,6.8-11.4,10.2-17.2a21,21,0,0,0,1.5-3.3c-1.2,0-2.2-.3-2.9,0a71.6,71.6,0,0,0-8.7,4.5c-8,5-13.9,12-19.1,19.7-1.2,1.7-1,3.1,1.4,2.9S65.3,55,68.5,54.5Z"/><path class="v" d="M120.1,26.2c14.6,5.8,23,17.2,29.3,30.5.8,1.6.3,2.3-1.6,2-6.2-1-12.4-2-18.5-3.2a4.4,4.4,0,0,1-2.7-2.5c-3.7-9.4-9.2-17.6-15.5-25.3a11.3,11.3,0,0,1-1.3-3.2,13,13,0,0,1,3.4-.2c2.3.5,4.5,1.2,6.9,1.9M132,54.4l10.8,1.4c1.1.1,2.3,0,3.4,0s-.2-2.9-.9-4.1c-7.1-11.3-15.4-21.2-29.1-24.7a2.3,2.3,0,0,0-1.7.1,3,3,0,0,0,0,2.1c1.7,2.4,3.7,4.7,5.2,7.2,2.6,4.2,5.7,8.4,7.3,13.1C127.9,52.2,129,53.6,132,54.4Z"/><path class="r" d="M51.8,67.1c2.9,4.2,7.6,3.8,11.5,4.5,8.9,1.6,18,2.3,27,3.4,2.3.3,3.2-.7,3.2-3a84.2,84.2,0,0,1,0-8.7c.1-2.4-.9-3.2-3.2-2.9-8.6,1-17.3,1.8-26,3-3.8.6-7.4,2-11.4,3.1.5-3.1,3.3-2.7,5.5-3.4s6.8-1.9,10.5-3.1L88,59.1h3.7a15.9,15.9,0,0,1,4.1,1.6,19.1,19.1,0,0,1,.2,4c-.4,3.7-.9,7.4-1.3,11.1l-12.4.6-11.4-2c-6.6.4-12.4-2.2-18.6-3.9A8,8,0,0,1,51.8,67.1Z"/><path class="d" d="M88,58.9c-6.2.4-12.5.7-19,.9a14.9,14.9,0,0,1-3.1-2c7.9-.1,16.3,1.6,16-10.1C82.6,52.4,82,57.4,88,58.9Z"/><path class="k" d="M97.6,15.1c1.5-2.3,3.5-3.6,6.5-1.7A51,51,0,0,1,97.6,15.1Z"/><path class="k" d="M78.2,25a75.2,75.2,0,0,1,6.9-3.3Z"/><path class="k" d="M90.8,20.5a24.6,24.6,0,0,1,4.3-2.1C94.7,20.8,93.1,21.4,90.8,20.5Z"/><path class="k" d="M105.9,14.2a25.1,25.1,0,0,1,2.8,3.3A34.1,34.1,0,0,1,105.9,14.2Z"/><path class="k" d="M111.4,18.8a8.2,8.2,0,0,1,3.1.1A8.2,8.2,0,0,1,111.4,18.8Z"/><path class="p" d="M52.2,51.1a8.1,8.1,0,0,1,1.4-2.8A9.1,9.1,0,0,1,52.2,51.1Z"/><path class="p" d="M55.5,45.7A12.5,12.5,0,0,1,57,43,9.1,9.1,0,0,1,55.5,45.7Z"/><path class="p" d="M62.2,37.1a8.5,8.5,0,0,1,1.7-2.5A11.1,11.1,0,0,1,62.2,37.1Z"/><path class="k" d="M149.5,46.5a4.3,4.3,0,0,1,1.7,1.8A5.9,5.9,0,0,1,149.5,46.5Z"/><path class="p" d="M74.8,27a4.5,4.5,0,0,1,1.6-1.3A4.5,4.5,0,0,1,74.8,27Z"/><path class="p" d="M46.2,64.4a2.9,2.9,0,0,1,.2-1.8A3,3,0,0,1,46.2,64.4Z"/><path class="k" d="M134.7,28.7a2.7,2.7,0,0,1,1.3.8C135.6,29.5,135.2,29.2,134.7,28.7Z"/><path class="k" d="M125.3,22.7a2.9,2.9,0,0,1,1.4.8A3.4,3.4,0,0,1,125.3,22.7Z"/><path class="k" d="M116,19.4a1.9,1.9,0,0,1,1.2.2A1.4,1.4,0,0,1,116,19.4Z"/><path class="k" d="M148.1,43.9a2.7,2.7,0,0,1,1.2,1A2.1,2.1,0,0,1,148.1,43.9Z"/><path class="p" d="M49.5,55.7a2.9,2.9,0,0,1,.8-1.4A2.3,2.3,0,0,1,49.5,55.7Z"/><path class="k" d="M109.4,18.5c0-.1.3-.1.4-.1a1,1,0,0,1-.2.9A4.5,4.5,0,0,1,109.4,18.5Z"/><path class="l" d="M122.1,188.2c-.1.4-.1.5-.5.7l-3,1.7a.9.9,0,0,1-.6-.3c-1.8-.9-3.4-2.5-4.7.1-2.3,0-3.8,1-4.2,3.8a4.8,4.8,0,0,1-2.4,0l-1.4-4a15.3,15.3,0,0,1-1.4-2.1c.3-3,0-5.5-3.2-6.6a4.4,4.4,0,0,1,.9-1.8h3.9c2.1,0,3.9.1,5.8,0l8.3-.6a2.3,2.3,0,0,1,1.2.2,8,8,0,0,0,1.4-.9c1.9-3.5,1.4-6.3-1.1-7.9a6.6,6.6,0,0,1-.6-2,13.9,13.9,0,0,0-2.1-2.1H116l-.7-.4c-1.8-.7-3.2-1.1-4.9-1.6h-2.5l-1.4.8h-.7c-2.4.1-4.9-.3-5.9,2.7a5.3,5.3,0,0,1-1.5,1.1,34.2,34.2,0,0,1-4.4.4c-.3-1.1-.5-2.1-.8-3a14.5,14.5,0,0,0-1.3-2.9l-3.4-.6L86.7,160a23.7,23.7,0,0,1-1.3-3.2,13.7,13.7,0,0,1,.2-3,35.6,35.6,0,0,1,3.9-1.3c.7,1.6,1,3.3,1.8,4.6s2.3,2.6,3.2,2.5a8,8,0,0,0,4.4-2.8c.5-.7-.2-2.6-.8-3.8s-1.8-2.6-2.5-4a29.1,29.1,0,0,1,3.1-2.4,34.5,34.5,0,0,0,2.8,2.6,50.9,50.9,0,0,0,6.8,1.2l3.4,1.4,5.8,1.9,1.9.2c.2.3.3.5.5.5v4.4c.6,1.2,1.1,2.5,1.9,2.8,3.1,1.2,6.2,2,9.3,3,.5.2.8.9,1.1,1.5l2,4.9c-1.1,1.2-2.3,2.4-3.5,3.9-2.8,2.7-5.7,5.1-5.6,9.6C125.1,185.6,123.1,186.8,122.1,188.2Z"/><path class="r" d="M59.3,172.5l-2-2.2a48.1,48.1,0,0,1,1.4-7c.6-.2,1.1-.2,1.3.1,1.7,2.3,3.3,2.3,5.3-.5a.5.5,0,0,1,.3-.5,21,21,0,0,0,2.2-3.3l1.5.9,1.4,2,.6.8a10.3,10.3,0,0,0,3-.2l1.1-.2a.8.8,0,0,1,.7.2,11.8,11.8,0,0,1,.4,3l-2.1.9a5.9,5.9,0,0,0,.4,2.1,37.1,37.1,0,0,0,4.8.5h1.3l4.7-2.7a9.7,9.7,0,0,1,2.5.2,6.2,6.2,0,0,1,.7,1.9,4.9,4.9,0,0,1-.3,1.5,7.6,7.6,0,0,0-1.4,1.1h-2l-3.8,1.3a40.3,40.3,0,0,1-4.6.6H73.2a4.2,4.2,0,0,1-1.3-.3,9,9,0,0,1-.6-2.2c1-3.6.3-5.6-2.2-5.4s-6.2,1.1-8,4.5l-.8,1.3A4.1,4.1,0,0,0,59.3,172.5Z"/><path class="m" d="M100.7,181.8c3.2.8,3.5,3.3,3,6.4a17.9,17.9,0,0,1-3,2.2h4.6a14.8,14.8,0,0,1,1.1,3.9c-1.9,2.5-4.2,2.3-6.6,1.9a48.6,48.6,0,0,0-5.5-1c-1.1-.1-2.3.4-4.1.7l4.5,3.1-5.1-1.2a5,5,0,0,1-.8-2.6,11.4,11.4,0,0,0,.6-1.4h.3l10.4,1a8.2,8.2,0,0,0,3.5-.3c.6-.1,1-1,1.5-1.5a7.1,7.1,0,0,0-1.8-1.2c-1.5-.5-3.1-.8-5.2-1.3,5.3-3.7,5.4-3.8,3.4-6.1a21.6,21.6,0,0,1-4.5-1.9A11.6,11.6,0,0,1,100.7,181.8Z"/><path class="q" d="M101.3,184.5c2.2,2.2,2.1,2.3-3.2,6,2.1.5,3.7.8,5.2,1.3a7.1,7.1,0,0,1,1.8,1.2c-.5.5-.9,1.4-1.5,1.5a8.2,8.2,0,0,1-3.5.3l-10.4-1a1.7,1.7,0,0,1,0-1.7,27.4,27.4,0,0,1,5.7-.2,2.4,2.4,0,0,0,1.3-1v-1.8Z"/><path class="q" d="M120.4,168.7l.7,2c1.3,5.8,1.3,5.8-3.9,6.6l-.8.4a24.8,24.8,0,0,1-3.9-.2l-2.1.2a4.3,4.3,0,0,1-1.7-.3l-3.4-.3c.8-.7,1.5-1.9,2.2-1.9a73.1,73.1,0,0,1,9.4.4c2.7.3,3.6-.6,2.9-3.1a35.3,35.3,0,0,1-.5-3.8c0-.2,0-.2.2-.2Z"/><path class="n" d="M84,196.1a14.2,14.2,0,0,1-3.1,1.1,11.9,11.9,0,0,1-2-.8c-.2-.3-.3-.5,0-1.1,2.8.1,5.1,0,4.6-3.6.6-1,.9-1.8,1.4-2.7.7-3,1.2-5.8,1.8-8.6h.4a9.8,9.8,0,0,1,1.6,2.1,18.4,18.4,0,0,1-.2,3.1,5,5,0,0,1-.5,1.5C86.7,190.1,85.5,193,84,196.1Z"/><path class="k" d="M70,181.1a14.9,14.9,0,0,1-3-1.8,24.2,24.2,0,0,1,3.7-.2H74a29.9,29.9,0,0,1,3.4-.4c3.2.2,6.9-1.7,9.5,1.7h-.5Z"/><path class="a" d="M100.7,181.5l-3.9.9a3.4,3.4,0,0,1-2,0l-.9-.5c-.1-.1-.2-.2-.3-.7a2.4,2.4,0,0,1,.5-1.5,19,19,0,0,0,2.1-1.9,4.2,4.2,0,0,1,1.3-.7H100l.9.4a2.5,2.5,0,0,1,.4,1.2v1Z"/><path class="h" d="M87.1,180.4c-2.8-3.5-6.5-1.6-9.7-1.8a23.1,23.1,0,0,0-3.2.4c2.6-3.7,12.7-2.9,14.5.5a5.7,5.7,0,0,1,.2,2.9Z"/><path class="h" d="M70.5,178.9a13.1,13.1,0,0,1-3.5.1,4.8,4.8,0,0,1,0-2.4,27.8,27.8,0,0,1,5-2.3,8.5,8.5,0,0,0,1.4-1h3a4.7,4.7,0,0,1-1.8,1.9c-1.5.6-3.2.7-4.6,1.4S69.1,178.2,70.5,178.9Z"/><path class="w" d="M96.4,189.1a2.2,2.2,0,0,1,.1,1.8,6.1,6.1,0,0,1-1.2.9H89.7a7.4,7.4,0,0,1-1.6-1.2c.7-.5,1.3-1.3,2-1.4S94.1,189.1,96.4,189.1Z"/><path class="j" d="M98.6,169.1l1.5-1.2,6-2.7h.6a3.7,3.7,0,0,0,1.3-.7,12.4,12.4,0,0,1,2.5.2,8,8,0,0,1,1.6,1.6,6.5,6.5,0,0,1-2,0,7.9,7.9,0,0,0-2.2.8c-3,1.1-5.9,2.2-9.1,3.1A2.4,2.4,0,0,1,98.6,169.1Z"/><path class="x" d="M88.7,170a2.6,2.6,0,0,1,.4-1.5c3.2-.5,2.9-2.8,3-4.8a21.8,21.8,0,0,1,1.1,2.7c.3.9.5,1.9.8,3.2a2.4,2.4,0,0,1-.2,1.3l-1.1.2H91.3l-1.4-.2Z"/><path class="y" d="M90,171h1.1c-1.6,3-4.9,1.5-7.5,2a8.3,8.3,0,0,1,1.8-1.9,5.9,5.9,0,0,1,1.8.1A18.4,18.4,0,0,0,90,171Z"/><path class="m" d="M101.6,179.7c-.3-.2-.3-.5-.1-1a7.9,7.9,0,0,1,1.9-.9l1.7-.6a9.2,9.2,0,0,1,3.4.3l-3.3,2.2Z"/><path class="p" d="M94,170.8a4.1,4.1,0,0,1,.1-1,27.4,27.4,0,0,1,4.3-.8,1.8,1.8,0,0,1,.2,1.1,13.5,13.5,0,0,1-3.2.9Z"/><path class="p" d="M112.4,166.3a12.5,12.5,0,0,1-1.6-1.7,33.5,33.5,0,0,1,4.3,1.3Z"/><path class="y" d="M116,166.6a3.3,3.3,0,0,1,2.4,0,15.4,15.4,0,0,1,.9,1.9h-.1A17.9,17.9,0,0,1,116,166.6Z"/><path class="j" d="M85.1,171.2a11.6,11.6,0,0,1-1.6,1.7,4.6,4.6,0,0,1-2-.2A15,15,0,0,1,85.1,171.2Z"/><path class="q" d="M97.3,177a3.7,3.7,0,0,1-1.3.7H94.7a9.2,9.2,0,0,1,2.5-2A6.8,6.8,0,0,1,97.3,177Z"/><path class="q" d="M93.9,179.7l-.4,1.3a3,3,0,0,1-1.4-1.1,7.1,7.1,0,0,1,1.5-.7A.6.6,0,0,1,93.9,179.7Z"/><path class="y" d="M93.8,170.9a3,3,0,0,1,1.3.2c-.3,1.8-1.2,1.8-2.4.2C93,171,93.3,171,93.8,170.9Z"/><path class="m" d="M97.5,177.1a2,2,0,0,1-.2-1.1,6.7,6.7,0,0,1,2.6.9A8.2,8.2,0,0,1,97.5,177.1Z"/><path class="m" d="M94.1,179.7c-.2,0-.2-.3-.3-.5l.8-1.2a2.3,2.3,0,0,1,1.2-.2A5,5,0,0,1,94.1,179.7Z"/><path class="q" d="M103.2,177.6a4.5,4.5,0,0,1-1.7.9,1.8,1.8,0,0,1-.4-1A3.8,3.8,0,0,1,103.2,177.6Z"/><path class="y" d="M108.1,167a5.1,5.1,0,0,1,1.8-.8A3.8,3.8,0,0,1,108.1,167Z"/><path class="h" d="M88.2,187.1a3.5,3.5,0,0,1,.3-1.2A1.5,1.5,0,0,1,88.2,187.1Z"/><path class="q" d="M89.2,193.8c.1.4-.1.7-.4,1.2A2.4,2.4,0,0,1,89.2,193.8Z"/><path class="m" d="M93.9,182.1q.3-.2.6.3C94.3,182.5,94.2,182.4,93.9,182.1Z"/><path class="e" d="M95.2,86.1A33.3,33.3,0,0,0,93.6,81a1.2,1.2,0,0,1-.2-.6c2.2-.3,3.2.9,4,2.9a15.3,15.3,0,0,0,2.3,3.3,3.7,3.7,0,0,1-.4,1.4,17.1,17.1,0,0,1-.7,1.8H98a11.5,11.5,0,0,0-1.3,3.4,2.1,2.1,0,0,1-.4,1.1A20,20,0,0,0,93.9,97l-.8.7-.5-.2c-1.2-.9-2.2-1.6-3.1-2.4l.4-1.4h0C91.7,91.3,93.5,88.8,95.2,86.1Z"/><path class="o" d="M99.4,87.8l.5-1.2c1.4-.4,2.6-.5,3.8-.9A6.3,6.3,0,0,0,106,84a7.6,7.6,0,0,1,2.5,2.8,9.2,9.2,0,0,0-2.7,9.6c-5-2.1-5.1-2.5-2.7-5a11.1,11.1,0,0,0,1.8-3.6H99.4Z"/><path class="l" d="M94.8,75.9c.3-3.8.8-7.5,1.2-11.2.1-1.2,0-2.4,0-3.9.4.3,1.2.9,1.3,1.5a93.7,93.7,0,0,1-.1,10.6C97.1,74,95.7,75,94.8,75.9Z"/><path class="z" d="M117.4,80.5h-9.2l-1.5-.2c.6-.4,1.2-1.2,1.8-1.2a42.5,42.5,0,0,1,8.6.6C117.3,80.3,117.3,80.4,117.4,80.5Z"/><path class="r" d="M89.3,81a49.9,49.9,0,0,1-5-.7.8.8,0,0,1-.3-.6c2.1,0,4.1,0,6.3.2A2.7,2.7,0,0,1,89.3,81Z"/><path class="m" d="M89.5,81.1A3.8,3.8,0,0,1,90.6,80a12.7,12.7,0,0,1,2.6.4c.2,0,.2.3.2.5a1.7,1.7,0,0,1-.1.7A19.9,19.9,0,0,1,89.5,81.1Z"/><path class="n" d="M117.5,80.7a1,1,0,0,1-.2-.7,6.8,6.8,0,0,1,2.5-.1A4.4,4.4,0,0,1,117.5,80.7Z"/><path class="n" d="M106.6,80.6h1.3a5.3,5.3,0,0,1-1.6,1.8A4.5,4.5,0,0,1,106.6,80.6Z"/><path class="m" d="M83.8,79.7c.2.1.2.3.2.6a3.1,3.1,0,0,1-1.9.1A4.6,4.6,0,0,1,83.8,79.7Z"/><path class="n" d="M69.1,159.8l-1.3-.7a11.1,11.1,0,0,1-2.2,3c.2-5.8.6-11.4,1-17.3.1-2.1.1-3.9.3-5.8a16.6,16.6,0,0,0,1.3-4.4,18.1,18.1,0,0,0-.5-3.9l-3.8,2.5c0,.2,0,.4-.2.5a15.6,15.6,0,0,0-2,3.5c-.6,1.3-1,2.7-1.5,3.8-.1-1.5-.2-2.7-.2-3.9s2.3-4.8,4-6.7,3.1-1.1,4.3-.6,1.5,2.5,1.5,3.8-.9,3.7-1.4,5.8a4.3,4.3,0,0,1,2.7.6C67.9,146.6,68.4,153.2,69.1,159.8Z"/><path class="f" d="M75.5,139.1c-.1-.9-.2-1.8-.3-3.2-.4-3.1.9-4.8,3-6.2.6.1.9.1,1.1.4-.8,1.9-2.4,3.7-2.3,5.3s2.1,5.5,2.5,8.4a119,119,0,0,1,1,13.3c-.2,0-.5,0-.5-.3s-.1-2.5-.1-3.9-.9-4.4-1.3-6.7-1.2-2.1-1.8-3.4Z"/><path class="h" d="M69.3,160c-.9-6.8-1.4-13.4,1.9-19.9a4.6,4.6,0,0,1,2.5.6,15.5,15.5,0,0,1,1.5,2.8,5.6,5.6,0,0,1-.3,2.3c-1.1-1.1-2-2.2-3.4-3.8a16.5,16.5,0,0,0-.8,3.5c-.1,5.4-.1,10.9-.1,16.3Z"/><path class="c" d="M62.8,122.9c-2.5,1-5,3-7.1-.3,4.7,1,6.5.1,7.8-4.5s1.2-6.4,2-9.5c.1,3.2-.1,6.2-.2,9.4a32.4,32.4,0,0,1-1.3,3.1A14,14,0,0,1,62.8,122.9Z"/><path class="i" d="M59.8,137.2a22.2,22.2,0,0,1,.3,4.1c.1,6.3,0,12.1-.2,17.6-.7-2.3-1.3-4.4-1.8-6.5V148c0-3.6-.1-7-.1-10.6A3.6,3.6,0,0,1,59.8,137.2Z"/><path class="k" d="M68.4,125.3c4.4,2.6,8.6,2.6,12.6-.6a8,8,0,0,1,2.8-1.3,46.7,46.7,0,0,1-6.7,5H73.3C71.6,127.5,69.9,126.4,68.4,125.3Z"/><path class="x" d="M76,128.4a2.6,2.6,0,0,1,1.1.2,6.2,6.2,0,0,1,.9,1.1c-1.9,1.4-3.2,3.1-2.8,5.9-3.5-1.1-.8-3-.3-5Z"/><path class="n" d="M54,130.8c-2.7.4-5.5.6-8.5.8l3-2.3A26.4,26.4,0,0,1,54,130.8Z"/><path class="k" d="M64.3,121.1a8.6,8.6,0,0,1,1.3-3.1,11,11,0,0,1,2.4-.2,2.6,2.6,0,0,1-.2,1.1,19.6,19.6,0,0,0,.1,3.5,1.5,1.5,0,0,1-.1.6Z"/><path class="x" d="M75.2,143.2l-1.3-2.3a7.5,7.5,0,0,1,1.4-1.7,10.2,10.2,0,0,1,1.2,3.6A3,3,0,0,1,75.2,143.2Z"/><path class="z" d="M75.8,128.4a4.6,4.6,0,0,1-.9,1.9,6.1,6.1,0,0,1-1.6-1.6A9.5,9.5,0,0,1,75.8,128.4Z"/><path class="n" d="M57.1,133.7a5.5,5.5,0,0,1-1.7-1.7A4.6,4.6,0,0,1,57.1,133.7Z"/><path class="k" d="M44.3,128.5c-.3,0-.3-.4-.3-.5a9.2,9.2,0,0,1,2.5-.8c.2.2.2.5.2,1A15.7,15.7,0,0,1,44.3,128.5Z"/><path class="z" d="M62.8,93.6a29.1,29.1,0,0,1,3.7,2.9A21.1,21.1,0,0,0,68,98.4a8.8,8.8,0,0,1,.7,2,9.8,9.8,0,0,0,1.2,2.1c0,2,0,4-.2,6.3l-1.7,3-2.6-4.7s-.1,0-.1-.2c-1-3.7-2.6-6.6-6.5-7.5.2-1.1.4-2,.6-2.9A20.5,20.5,0,0,1,60.7,94,10.7,10.7,0,0,1,62.8,93.6Z"/><path class="z" d="M78.2,129.7a3.3,3.3,0,0,1-.9-1.1l6.7-5.1c2-.8,4-1.3,6.2-2.1a4.6,4.6,0,0,1,1.4-.9,4.6,4.6,0,0,1,2.1.2,6.1,6.1,0,0,1,.1,1.9c.2.7.5,1.3.8,2.1a7.6,7.6,0,0,1-2.2,1.7c-2.4,0-4.4,0-6.6-.2s-4.4,2.2-6.5,3.5H78.2Z"/><path class="z" d="M45.3,98.6a14.8,14.8,0,0,1,3.1-1.5,4.9,4.9,0,0,1-.5,2.5c-1.6,2.9-1.3,3.3,2.3,3.7-.1,1.4-.2,2.6-.3,3.8l-1.3,4.4a32.8,32.8,0,0,0-2.4-3.7,10,10,0,0,1-.8-3.2,4.2,4.2,0,0,0-.8-1.5,24.5,24.5,0,0,1,.1-2.5,12.6,12.6,0,0,0,.5-1.6S45.2,98.7,45.3,98.6Z"/><path class="n" d="M65.4,107l2.6,4.8a31.7,31.7,0,0,1,1.7-2.7,72.7,72.7,0,0,1-1.5,8.5,11,11,0,0,1-2.6.2c-.2-3,0-6-.1-9.4A3.6,3.6,0,0,1,65.4,107Z"/><path class="n" d="M62.7,93.4a5,5,0,0,1-2,.4c-2.7-.7-5-1-7.2.8-.5.4-1.8.2-3.3.3C54.4,90.5,58.7,90.1,62.7,93.4Z"/><path class="r" d="M93.7,120.4a5.5,5.5,0,0,1-2.1-.2,32.5,32.5,0,0,1-.8-3.8,5.6,5.6,0,0,1-.1-.7,1.7,1.7,0,0,1,.7-1.2,5.9,5.9,0,0,1,2,.2l2.8,1.6c.1.1.5.2.4.4a16.8,16.8,0,0,1-1.5,3Z"/><path class="n" d="M59.1,96.5a5.4,5.4,0,0,1-.6,2.9c-3.2-.2-5.2,1.3-7.3,2.9l-1.3-.6C52.9,100,55.9,98.2,59.1,96.5Z"/><path class="k" d="M49.7,101.7a3.1,3.1,0,0,1,1.4.7,1.8,1.8,0,0,1-.9.7c-3.6-.2-3.9-.6-2.4-3.3Z"/><path class="m" d="M90.7,116.6a25.6,25.6,0,0,1,.7,3.6,2.7,2.7,0,0,1-1.1,1A43,43,0,0,1,90.7,116.6Z"/><path class="n" d="M67.9,122.2a26.9,26.9,0,0,1-.2-3.1A9.9,9.9,0,0,1,67.9,122.2Z"/><path class="n" d="M69.9,102.3a6.2,6.2,0,0,1-1.2-1.7A3.2,3.2,0,0,1,69.9,102.3Z"/><path class="n" d="M68,98.2a6.9,6.9,0,0,1-1.4-1.5A5.1,5.1,0,0,1,68,98.2Z"/><path class="aa" d="M123.2,115.1c-2.5-4.9-2.3-10-.3-15.2a33.2,33.2,0,0,1,.8,4.9c3.6-4.4,5.5-10.9,12.9-8.5,3.6,1.2,3.7,4.6,5.2,7.7.4,6.2.5,12-3.4,17.2-3.8,3.4-7.6,3.6-10.5.4a42.7,42.7,0,0,0-2.2-3.8,32,32,0,0,0-2.5-2.7m2.1-6.8c.5,2.9.8,5.9,1.5,8.8s2.6,5.2,5.4,5.1a8.7,8.7,0,0,0,5.9-3.5c3.5-5.8,3.5-12.2,1-18.5-1.2-3-5.2-4.1-7.5-2.3A15.6,15.6,0,0,0,125.3,108.3Z"/><path class="i" d="M138.6,121.1c3.7-5.1,3.6-10.9,3.4-17a3.6,3.6,0,0,1,2-.3h.7c0,2.9-.1,5.8-.3,9.1l-1,1.7c-.7,2.2-1.4,4.5-2.3,7A9.3,9.3,0,0,1,138.6,121.1Z"/><path class="m" d="M139.5,91.9a9.3,9.3,0,0,1,2.5,1.6A8,8,0,0,1,139.5,91.9Z"/><path class="m" d="M144.9,103.6h-.7a8.5,8.5,0,0,1,1-1.8A2.8,2.8,0,0,1,144.9,103.6Z"/><path class="n" d="M54.5,171.2l-4.6,4a26.7,26.7,0,0,1,4.1,2.2c-2.9.2-5.9.2-9.6.2C47,173.5,51.1,173.1,54.5,171.2Z"/><path class="n" d="M58.1,152.7c.5,1.8,1.1,3.9,1.9,6.4.9,5.1,1.2,5.3,5.3,3.9-2,2.7-3.6,2.7-5.3.4-.2-.3-.7-.3-1.3-.4C58.4,159.7,58.2,156.4,58.1,152.7Z"/><path class="d" d="M70,181.4c5.3-.5,10.7-.7,16.3-.9a34.6,34.6,0,0,1-1.7,8.5,9.9,9.9,0,0,0-1.3,2.8c.7,3.5-1.6,3.6-4.4,3.3-.4-.1-.5-.3-.8-.8a11.6,11.6,0,0,0-2.1-1.9H74.1l-3.4-.5c0-1,0-1.9-.1-3.1s.1-1.6.1-2.2S70.2,183.2,70,181.4Z"/><path class="o" d="M71.8,174.3,67,176.4a4,4,0,0,1-1.4-1.9,19.5,19.5,0,0,1,3.8-2.8l.8-.6h1.1c.1.5.3,1.1.6,2.1A3.5,3.5,0,0,1,71.8,174.3Z"/><path class="j" d="M69.3,171.8a35.2,35.2,0,0,0-3.8,2.5,35.4,35.4,0,0,1-6.2-1.6,2,2,0,0,1,1.1-1.4c1.5.5,2.7,1.3,3.9,1.3A28.9,28.9,0,0,0,69.3,171.8Z"/><path class="m" d="M35.1,136.5a29.6,29.6,0,0,1,.2,4.4C33.4,139.8,32.7,138.3,35.1,136.5Z"/><path class="m" d="M33.8,146.2a7,7,0,0,1-1.4,1.7A5.5,5.5,0,0,1,33.8,146.2Z"/><path class="m" d="M37.8,144.4a2.4,2.4,0,0,1,.1,1.2,1.3,1.3,0,0,1-1.1-.3,12.3,12.3,0,0,1-.2-1.9A4.4,4.4,0,0,1,37.8,144.4Z"/><path class="m" d="M39.2,133.2a2.3,2.3,0,0,1-1.1,1.1A2.9,2.9,0,0,1,39.2,133.2Z"/><path class="l" d="M138.4,121.2a13.1,13.1,0,0,1,2.7.6l.8,1.2a9.1,9.1,0,0,1,1.2,1.7c-2.4,2.7-4.8,5.3-7.1,8.2a2.9,2.9,0,0,1-1.2,1.3c-.9.6-2,.9-2,1.3-.1,2.8-.1,5.7,0,8.5,0,.4,1,.8,1.6,1.2a11.4,11.4,0,0,1,0,1.9,33.8,33.8,0,0,0,.3,4.7c0,.5-.1,1-.1,1.7s-.3.2-.7.3a3.4,3.4,0,0,0-1.1,1.4l-.2.5a8.1,8.1,0,0,1-2.2.1h-.5v-1.3a19.3,19.3,0,0,0,.1-2.3c-.5-1.5-.9-2.6-1.4-3.8a10.8,10.8,0,0,1-.6-1.9,12.8,12.8,0,0,0-1.2-1.5,1.7,1.7,0,0,1-.1-.7c-.9-1.7-1.8-3.1-2.6-4.7,2.4-2.8,1.1-4.9-.6-7s-2.4-2.3-3.5-3.7a14.1,14.1,0,0,1,.1-2.2,33.6,33.6,0,0,0,4-2.2,28.3,28.3,0,0,1,.9-2.7h3C130.8,124.8,134.6,124.6,138.4,121.2Z"/><path class="i" d="M119.8,126.6a3.7,3.7,0,0,1-.1,2.3,63.2,63.2,0,0,1-8.4-2.7c0-.5.1-.8.1-1.2a4.5,4.5,0,0,0,1.8-.4C115.4,125.2,117.5,125.8,119.8,126.6Z"/><path class="r" d="M127.9,121.6a7,7,0,0,1-2.9,0l-1.5-1.9c-.1-1.4-.1-2.7-.2-4.3a13.6,13.6,0,0,1,2.4,2.4A42.7,42.7,0,0,1,127.9,121.6Z"/><path class="m" d="M123.5,119.9a5,5,0,0,1,1.2,1.7,11.7,11.7,0,0,1-.5,2.7A18.4,18.4,0,0,1,123.5,119.9Z"/><path class="b" d="M128.4,151.7a9.4,9.4,0,0,0-.6,2.8,15,15,0,0,0,.8,3.2l-.5.5-6.5-.3c.5-2.1.9-4.2,1.4-6.2s1.1-3,1.7-4.7l3.4,3a1.7,1.7,0,0,1,.4,1.3Z"/><path class="i" d="M124,139.8a46.4,46.4,0,0,1,2.6,4.4c-.2.2-.5.2-1.2.1a5.6,5.6,0,0,0-1.9.9l-2.4,6.3-1.8,2.3a3.2,3.2,0,0,1-1.6-.3,43.9,43.9,0,0,1,2.6-6.3Z"/><path class="i" d="M128.6,151.1c-.1-.3-.1-.6-.2-1.1a5.9,5.9,0,0,1,.2-1.3,12.2,12.2,0,0,1,1.2,3.4A2.9,2.9,0,0,1,128.6,151.1Z"/><path class="n" d="M128.5,151.3a9.1,9.1,0,0,1,1.3,1,4.4,4.4,0,0,1,.1,2,8.4,8.4,0,0,1-1.4-2.4C128.4,151.7,128.5,151.4,128.5,151.3Z"/><path class="n" d="M119.4,153.9a7.8,7.8,0,0,1,1.6-2.1,7.6,7.6,0,0,1-.9,2.5C119.7,154.4,119.6,154.2,119.4,153.9Z"/><path class="n" d="M132.8,157.2a4.4,4.4,0,0,1-1.9.2A6.8,6.8,0,0,1,132.8,157.2Z"/><path class="i" d="M132.8,157.1h-2c-.2.1-.3,0-.2-.2v-1.2h1.9a.9.9,0,0,1,.4.6A1.7,1.7,0,0,1,132.8,157.1Z"/><path class="n" d="M123.7,145.2a4.8,4.8,0,0,1,1.5-1A4.4,4.4,0,0,1,123.7,145.2Z"/><path class="n" d="M130.4,155.8c.2.3.2.6.1,1.2a1.8,1.8,0,0,1-.7-1.1Z"/><path class="n" d="M126.7,145.2a3,3,0,0,1,1.2,1.1A2.4,2.4,0,0,1,126.7,145.2Z"/><path class="o" d="M164.6,153.5l-1.7.4a56.1,56.1,0,0,1-2.9-5.4c-.4-.9-.7-1.9-1.2-3.2a8.5,8.5,0,0,1,2.3-.9,50.8,50.8,0,0,1,2.3,6.6,3.9,3.9,0,0,0,1.2,1.5Z"/><path class="ab" d="M65.4,107.1c0,.3-.1.6-.1,1.1a96.8,96.8,0,0,1-1.8,9.9c-1.3,4.6-3.1,5.5-7.8,4.3a28.7,28.7,0,0,1-2.3-3.9,7.5,7.5,0,0,0-.8-1.4,5.2,5.2,0,0,1,0-1.3,26.3,26.3,0,0,0-1.9-4.1,3.5,3.5,0,0,1,.2-1.2,17.6,17.6,0,0,0,.4-2.7c-.1-3.4,1.7-5.5,4.8-6.6s4.9,1.1,6.8,2.9a35,35,0,0,1,2.4,3Z"/><path class="c" d="M65.3,106.9c-.8-.8-1.5-1.9-2.4-2.8s-3.8-4-6.8-2.9-4.9,3.2-4.8,6.6a12.9,12.9,0,0,1-.4,2.5,10.7,10.7,0,0,1-.9-3c0-1.4.1-2.6.2-4l1-.7c2.1-1.9,4.1-3.4,7.3-2.9S64.3,103.2,65.3,106.9Z"/><path class="c" d="M50.7,112a15.8,15.8,0,0,1,1.9,3.7A18.1,18.1,0,0,1,50.7,112Z"/><path class="c" d="M52.5,117.2a2.4,2.4,0,0,1,.8,1.1A1.5,1.5,0,0,1,52.5,117.2Z"/><path class="o" d="M156.3,132.4a6.2,6.2,0,0,1-1.6-1,3.3,3.3,0,0,1,.5-1.6,8.3,8.3,0,0,1,2.7.7A4.9,4.9,0,0,1,156.3,132.4Z"/><path class="o" d="M161.2,136.6a10.9,10.9,0,0,1-.1,1.7,3.2,3.2,0,0,1-1.5-1.7A2.8,2.8,0,0,1,161.2,136.6Z"/><path class="m" d="M161.2,136.4h-1.5a1.7,1.7,0,0,1,.2-1.2A2.5,2.5,0,0,1,161.2,136.4Z"/><path class="r" d="M55.3,74.9c-.1.2-.2.3-.6.4L53,75.1c-.3-.3-.3-.6-.3-1.1A7.3,7.3,0,0,1,55.3,74.9Z"/><path class="m" d="M63,76.6a3,3,0,0,1,.4,1.5,3,3,0,0,1-2-.8,2,2,0,0,1,0-.8Z"/><path class="r" d="M61.3,76.4c.1.3,0,.4,0,.7s-.7-.1-1.2-.4A1.6,1.6,0,0,1,61.3,76.4Z"/><path class="i" d="M95,199l-4.8-3.1c1.8-.3,3-.8,4.1-.7a48.6,48.6,0,0,1,5.5,1c2.4.4,4.7.6,6.6-1.7H109a10.6,10.6,0,0,1-1.1,2.9,1.8,1.8,0,0,1-1,.4,12.3,12.3,0,0,0-2.1-.5c-2.8.5-5.6,1-8.6,1.7Z"/><path class="i" d="M118.6,190.9a10.8,10.8,0,0,1,2.9-1.8,13,13,0,0,1,.4,3.1c.4,2.1.9,3.9,1.3,5.8l-1,.4Z"/><path class="i" d="M113.6,190.4c1-2.6,2.6-1,4.2-.1A27.6,27.6,0,0,1,113.6,190.4Z"/><path class="e" d="M106,96.4a8.2,8.2,0,0,1,2.5-9.3.5.5,0,0,1,.7.3,67,67,0,0,1,1.3,7.1,3.8,3.8,0,0,0,.9,1.3,8.6,8.6,0,0,1,.2,2.4,22.2,22.2,0,0,1-4.5-.5Z"/><path class="m" d="M110.7,94.4c-.5-2.2-.9-4.5-1.4-7,.3-.3.6-.3,1.1-.3a34.7,34.7,0,0,1,1,7.2Z"/><path class="m" d="M164.6,152.3a2.7,2.7,0,0,1-1.2-1A2.7,2.7,0,0,1,164.6,152.3Z"/><path class="g" d="M70.7,192a8.4,8.4,0,0,1,3.1.3,19.7,19.7,0,0,1-2.9,2.8C70.8,193.8,70.7,193,70.7,192Z"/><path class="a" d="M76.1,192.6a7.7,7.7,0,0,1,1.9,1.5c-.3.3-.5.3-1,.2A6.8,6.8,0,0,1,76.1,192.6Z"/><path class="m" d="M143.6,114.4a2.7,2.7,0,0,1,.8-1.3A3.2,3.2,0,0,1,143.6,114.4Z"/><path class="m" d="M40.5,154c1.6,2.8,2.3,5.8.5,9.1A54.3,54.3,0,0,1,40.5,154Z"/><path class="m" d="M38.8,148.5a2.3,2.3,0,0,1,1.1,1.1C39.5,149.5,39.2,149.1,38.8,148.5Z"/><path class="m" d="M38.6,164.9a1.7,1.7,0,0,1-1.1-1C37.9,164,38.2,164.4,38.6,164.9Z"/><path class="i" d="M134.5,144.9c-.7-.1-1.7-.5-1.7-.9-.1-2.8-.1-5.7,0-8.5,0-.4,1.1-.7,1.9-1.1C134.8,137.8,134.7,141.2,134.5,144.9Z"/><path class="n" d="M134.8,151.6a19.1,19.1,0,0,1-.4-4.3A14.3,14.3,0,0,1,134.8,151.6Z"/><path class="h" d="M96.1,116.2a10.1,10.1,0,0,1-2.7-1.7c-.6-1.7-1-2.9-1.5-4.1s-.2-4.4-.1-7a17.8,17.8,0,0,1,1.7-3.4C94.6,105.5,92.6,111.2,96.1,116.2Z"/><path class="a" d="M89.4,95.3a15,15,0,0,1,3,2.3l-1,3.5a7,7,0,0,1-2.7-1.4c-.1-1-.2-1.5-.2-2a10.3,10.3,0,0,1,.4-2.2A.4.4,0,0,1,89.4,95.3Z"/><path class="m" d="M91.4,101.4a21.5,21.5,0,0,1,1.1-3.6c.2-.2.5-.1.7.2a3.8,3.8,0,0,1,.1,1.8,31.1,31.1,0,0,1-1.5,3.3A2.7,2.7,0,0,1,91.4,101.4Z"/><path class="m" d="M91.8,110.6a14.3,14.3,0,0,1,1.4,3.7,2.7,2.7,0,0,1-1.6.1A9.9,9.9,0,0,1,91.8,110.6Z"/><path class="m" d="M88.3,97.8a3.7,3.7,0,0,1,.3,1.7,4.3,4.3,0,0,1-1,.9A5.4,5.4,0,0,1,88.3,97.8Z"/><path class="m" d="M89.9,111a2.3,2.3,0,0,1-1.1-1.1C89.2,110,89.5,110.4,89.9,111Z"/><path class="m" d="M88.2,106.3a1.9,1.9,0,0,1-.7-1.1A1.8,1.8,0,0,1,88.2,106.3Z"/><path class="m" d="M89.5,95.1c-.1.2-.4.1-.6.1s-.2-.2-.2-.6a2.2,2.2,0,0,1,1-.9A2.5,2.5,0,0,1,89.5,95.1Z"/><path class="z" d="M111.2,124.9a2.5,2.5,0,0,1,0,1.5c-2.6,1.3-5.2,1.8-7.4,3a11.6,11.6,0,0,0-4.3,4.2c-1,1.8-1,4.1-1.7,6.2-.5-.1-.8-.1-1.1-.4,0-3.4,0-6.5.2-9.8a9.5,9.5,0,0,0-1-1.7s-.1,0,.1-.2a3.8,3.8,0,0,1,1.6-.6c2.2-.5,4.9,1.4,6-2a9.3,9.3,0,0,1,1.5-1.3c1.1-1.6,1.8-3-.4-4v-.3a28.8,28.8,0,0,0-1.3-3.1s0-.1.2,0h2l3-.4c.2.9.4,1.9.6,3.1S110.4,122.9,111.2,124.9Z"/><path class="o" d="M107.3,97.8l4.3.6c.3.3.3.6.4,1.1a27,27,0,0,0,.9,3.6,1.1,1.1,0,0,1,.1,1.1c-1.2,2.8-2,5.2-2.9,7.6a6.7,6.7,0,0,1-1.4,2.6,5.3,5.3,0,0,1-2-.2C108.8,108.6,109.7,103.3,107.3,97.8Z"/><path class="m" d="M110.3,111.8a65.9,65.9,0,0,1,2.6-7.4C113.6,107.3,113.1,109.9,110.3,111.8Z"/><path class="aa" d="M106.7,114.4h1.8a1.3,1.3,0,0,1,.1,1.1,6.5,6.5,0,0,1-3.1.5A5.2,5.2,0,0,1,106.7,114.4Z"/><path class="m" d="M68.6,78.8a4.8,4.8,0,0,1,2.1.6A4.8,4.8,0,0,1,68.6,78.8Z"/><path class="n" d="M45,99.1a1.5,1.5,0,0,1-.3,1.2A1.5,1.5,0,0,1,45,99.1Z"/><path class="k" d="M44.6,103.3a2.4,2.4,0,0,1,.8,1.1A2.3,2.3,0,0,1,44.6,103.3Z"/><path class="o" d="M110.5,94.5h.7a1.8,1.8,0,0,1,.2,1.1A1.5,1.5,0,0,1,110.5,94.5Z"/><path class="i" d="M133,155.1c0-.4.3-.8.8-1.3A3.8,3.8,0,0,1,133,155.1Z"/><path class="ac" d="M68.2,54.5c-2.9.5-5.5,1-8.1,1.2s-2.6-1.2-1.4-2.9c5.2-7.7,11.1-14.7,19.1-19.7a71.6,71.6,0,0,1,8.7-4.5c.7-.3,1.7,0,2.9,0a21,21,0,0,1-1.5,3.3c-3.4,5.8-7.1,11.3-10.2,17.2C75.7,53.2,72.5,54.3,68.2,54.5Z"/><path class="ab" d="M131.7,54.4c-2.7-.8-3.8-2.2-4.7-4.9-1.6-4.7-4.7-8.9-7.3-13.1-1.5-2.5-3.5-4.8-5.2-7.2a3,3,0,0,1,0-2.1,2.3,2.3,0,0,1,1.7-.1c13.7,3.5,22,13.4,29.1,24.7.7,1.2.6,2.7.9,4.1s-2.3.1-3.4,0Z"/><path class="f" d="M96.7,129.8v9.9c-.7,3.5-1.5,6.4-2.4,9.4l-5.2,1.4c-1.4,1.1-2.5,2.2-3.7,3.3s0,1.8-.1,3.3v9.3a31.4,31.4,0,0,1-4.4,2.5l-2.1-1.8-.5.8,1,1.2a19,19,0,0,1-4.5-.7c-.1-1-.1-1.5-.2-2a12.7,12.7,0,0,1,2.1-.7h2.2c3.1-1.6,1.1-4.5,2.1-6.6s2.1-2,2.3-3.1c.4-4,2.4-7,6.3-7.4s3.9-1.8,4.3-4.1.6-7.1,1.1-10.5-1.3-6.3-4.9-6.1c-2.1,0-4.1,1.1-6.2,1.6a8.2,8.2,0,0,1-3.1.1l5.2-3.2c2,0,4,0,6.5.2l3.3,1.3s.1,0,.1.2a13.8,13.8,0,0,0,.8,1.7M81.4,165.4l1.6-.6-.5-.9A5.2,5.2,0,0,0,81.4,165.4Z"/><path class="m" d="M98,139.8c.5-2.1.5-4.4,1.5-6.2a11.6,11.6,0,0,1,4.3-4.2c2.2-1.2,4.8-1.7,7.4-2.8,2.9.7,5.6,1.6,8.5,2.5a43.8,43.8,0,0,1,3.8,3.5c1.7,2.1,3,4.2.6,7l-3.8,7.6c-1,2-1.9,4.1-2.9,6.3a37.4,37.4,0,0,1-5.7-1.7,33.2,33.2,0,0,1-3.5-1.6l-4.6-2.3c3.3.8,6.6,1.1,9.2,2.7s3.7,2.1,5.3-1.3,3.5-7.4,5-11.3a5.1,5.1,0,0,0-.4-3.4c-2.3-4.9-8.7-7-13.7-4.8a5.1,5.1,0,0,1-2.2.6c-3.5,0-5.2,2.3-5.9,5.3a21.9,21.9,0,0,0-.8,7.2c.1,1.7,1.2,3.3,1.8,5.1a4.4,4.4,0,0,1-.6,1,15.9,15.9,0,0,1-2.6-2.6C98.4,143.8,98.2,141.8,98,139.8Z"/><path class="p" d="M89.3,150.5l5.2-1.4h.9a33.9,33.9,0,0,1,2.7,3.9c.6,1.2,1.3,3.1.8,3.8a8,8,0,0,1-4.4,2.8c-.9.1-2.4-1.4-3.2-2.5s-1.1-3-1.8-4.9a6.2,6.2,0,0,1-.2-1.7m7.6,6.5a16.8,16.8,0,0,0-.7-3.9c-.1-.3-2-.5-2.3-.1s-1.7,2.3-1.5,3.1S94.8,158.3,96.9,157Z"/><path class="a" d="M105.5,179.7a12.9,12.9,0,0,1,3-2,4.7,4.7,0,0,1,2,.2l2.2-.2h3.8l2.8,1.3c-2.7.3-5.3.5-8,.6S107.6,179.7,105.5,179.7Z"/><path class="x" d="M95.6,149h-.9c.5-3,1.3-5.9,2-9.1.3-.3.6-.3,1.1-.2.4,2,.6,4,.9,6.3A28.1,28.1,0,0,1,95.6,149Z"/><path class="m" d="M119.6,179.1a9,9,0,0,1-2.8-1.3.5.5,0,0,1,.4-.5c5.2-.8,5.2-.8,4-6.4,2.4,1.2,2.9,4,.8,7.4l-1.3.8Z"/><path class="x" d="M85.6,166.4a66.5,66.5,0,0,1-.2-9c.4.6.8,1.6,1.3,2.6l1.8,3.1a21.2,21.2,0,0,1-.5,3.3Z"/><path class="c" d="M88.1,166.6c.1-1.1.3-2.1.5-3.3a7.5,7.5,0,0,1,3.3.2c.1,2.2.4,4.5-2.8,4.7A6.2,6.2,0,0,1,88.1,166.6Z"/><path class="x" d="M103.3,147.9l4.7,2.2a25.4,25.4,0,0,1-6.5-.9c0-.5.2-.7.6-1.2Z"/><path class="p" d="M105.8,165.2c-1.6.8-3.5,1.7-5.6,2.5C100.9,164.9,103.4,165.3,105.8,165.2Z"/><path class="x" d="M89.1,150.5a3.7,3.7,0,0,1,.2,1.6,18,18,0,0,1-3.7,1.7A28.1,28.1,0,0,1,89.1,150.5Z"/><path class="i" d="M105.3,190.2a30.4,30.4,0,0,1-4.6.2l3-1.9A6.6,6.6,0,0,1,105.3,190.2Z"/><path class="p" d="M119.5,168.5a6.1,6.1,0,0,1-.9-1.8,7.9,7.9,0,0,1,1.9,1.8C120.2,168.7,119.9,168.6,119.5,168.5Z"/><path class="p" d="M107.9,164.3a2.1,2.1,0,0,1-1,.8A1.7,1.7,0,0,1,107.9,164.3Z"/><path class="a" d="M120.8,179.3a1.6,1.6,0,0,1,1-.8A2.1,2.1,0,0,1,120.8,179.3Z"/><path class="y" d="M65.3,162.9c-4.1,1.5-4.4,1.3-5-3.6s-.1-11.7-.1-17.7a32.1,32.1,0,0,1,1.5-4.4,9.6,9.6,0,0,1,2-3.2,64,64,0,0,1-.3,6.4c-.1,2.3-.5,5,3.2,4.7-.4,5.6-.8,11.2-1.2,17.1C65.4,162.5,65.3,162.7,65.3,162.9Z"/><path class="b" d="M70.7,162q-.2-8.4,0-16.5a16.5,16.5,0,0,1,.8-3.5l3.5,4a4.6,4.6,0,0,1,.1,2.6,29,29,0,0,0-.4,3.8c-.5,3.4-.9,6.7-1.7,10l-1.7.2A1.7,1.7,0,0,1,70.7,162Z"/><path class="ad" d="M69.4,171.7a23.8,23.8,0,0,1-5.1.9c-1.2,0-2.4-.8-3.7-1.4a1.7,1.7,0,0,1,.7-1.4l3.6-1.8c4.6-2.5,5.2-2.1,5.1,3.1C69.9,171.3,69.8,171.4,69.4,171.7Z"/><path class="g" d="M78.6,165.7H76.9a11.8,11.8,0,0,1-.7-3.2c.1-1,.2-1.5.3-2.4.1-3.1.2-6,.5-8.8l2.9,2a25.6,25.6,0,0,1-.1,3.8C79.3,160.2,79,163,78.6,165.7Z"/><path class="h" d="M76.7,151.2c0,2.8-.1,5.7-.4,8.9l-1.1,2.2a2.3,2.3,0,0,1-1.1.2h-.8c.5-3.3.9-6.6,1.4-10a14.2,14.2,0,0,1,.6-3.8c.7-.1,1-.1,1.3.2S76.7,150.5,76.7,151.2Z"/><path class="j" d="M70.2,171.1c-.1-5.2-.7-5.6-5.3-3.1l-3.4,1.7c1.4-3.3,4.5-4.1,7.6-4.4s3.2,1.8,2.2,5.4C71,171,70.7,171,70.2,171.1Z"/><path class="ac" d="M79.6,169.1a5.1,5.1,0,0,1-1.3-1.2l.5-.8a14.1,14.1,0,0,1,1.8,1.7C80.4,169.1,80.1,169.1,79.6,169.1Z"/><path class="j" d="M89.9,170.9a8.6,8.6,0,0,1-2.4.4,1.7,1.7,0,0,1,1-1.3A5.5,5.5,0,0,1,89.9,170.9Z"/><path class="n" d="M73,162.4l.9.2a7.1,7.1,0,0,1-2.6.2Z"/><path class="x" d="M74.4,166.5a2.7,2.7,0,0,1,.3,1.7A4.3,4.3,0,0,1,74.4,166.5Z"/><path class="n" d="M75.4,162.4a5.6,5.6,0,0,1,.8-2,2.9,2.9,0,0,1-.1,1.8A.8.8,0,0,1,75.4,162.4Z"/><path class="j" d="M72,174.3a1.7,1.7,0,0,1,0-1c.3-.2.6-.2,1.2-.1A2.6,2.6,0,0,1,72,174.3Z"/><path class="b" d="M95.4,191.9a3.5,3.5,0,0,1,1.1-.8A1.9,1.9,0,0,1,95.4,191.9Z"/><path class="m" d="M112.5,177.5a2.9,2.9,0,0,1-1.7.4A2.9,2.9,0,0,1,112.5,177.5Z"/><path class="a" d="M83.5,191.7a6.1,6.1,0,0,1,1-2.6A6.6,6.6,0,0,1,83.5,191.7Z"/><path class="ac" d="M93.5,100c-.1-.7-.1-1.2-.2-2a1.5,1.5,0,0,1,.5-.9c.2-.1.2.1.3.2l.8-.2,2-2.1c2.9-1.7,3.8,1.5,5.6,1.8,3.8.7,4.1,3.4,4.1,6.2.1,4.7,0,9.4-3.3,13.3,0,0,0,.1-.3.1H96.7l-.5-.2C92.6,111.2,94.6,105.5,93.5,100Z"/><path class="f" d="M103.5,116.4c3.1-4,3.2-8.7,3.1-13.4,0-2.8-.3-5.5-4.1-6.2-1.8-.3-2.7-3.5-5.6-2-.3-.2-.4-.4-.4-.5a5.1,5.1,0,0,1,.4-1.1,24.7,24.7,0,0,0,1.3-3.3h.6a11.3,11.3,0,0,0,1.9-1.9h4.2a11.1,11.1,0,0,1-1.8,3.6c-2.4,2.5-2.3,2.9,2.7,5a8,8,0,0,1,1.3,1.3c2.6,5.6,1.7,10.9-.4,16.5l-1.4,1.9A5.2,5.2,0,0,1,103.5,116.4Z"/><path class="a" d="M98,89.9A8.3,8.3,0,0,1,96.9,93,7.7,7.7,0,0,1,98,89.9Z"/><path class="m" d="M96.3,94.4c.2,0,.3.2.3.5a5.6,5.6,0,0,1-1.9,2.2H94v-.3A17.9,17.9,0,0,1,96.3,94.4Z"/><path class="m" d="M100.5,87.8a6.5,6.5,0,0,1-1.5,2,3.1,3.1,0,0,1,.3-1.8A2.3,2.3,0,0,1,100.5,87.8Z"/><path class="w" d="M66.6,144.8c-3.7.6-3.3-2.1-3.2-4.4s.4-4.1.5-6.5c0-.3,0-.5.3-.7,2.3,0,2.6,1.2,2.3,2.9a15.1,15.1,0,0,0,.2,3C66.7,140.9,66.7,142.7,66.6,144.8Z"/><path class="y" d="M66.9,139a7,7,0,0,1-.4-2.9c.3-1.7,0-2.9-2.3-3,1-.8,2.3-1.6,3.5-2.4a18.1,18.1,0,0,1,.5,3.9A16.6,16.6,0,0,1,66.9,139Z"/><path class="ac" d="M80.7,129.8a18.2,18.2,0,0,0,3.2-.3c2.1-.5,4.1-1.6,6.2-1.6,3.6-.2,5.4,2.5,4.9,6.1s-.6,7-1.1,10.5-1.5,3.8-4.3,4.1-5.9,3.4-6.3,7.4c-.2,1.1-1.3,2-2.3,2.8a3.8,3.8,0,0,1-.3-1.7c-.4-4.4-.5-8.9-1.2-13.3s-2.2-5.5-2.5-8.4,1.5-3.4,2.3-5.3c.1-.3,0-.4.2-.4Z"/><path class="x" d="M77,151.2a6.2,6.2,0,0,1-.4-2.6,6.8,6.8,0,0,1,2-2.1c.4,2,.9,4.1,1.3,6.4A23.8,23.8,0,0,1,77,151.2Z"/><path class="n" d="M78.6,146.2l-2,2.1a1.3,1.3,0,0,1-1.1.1,14.3,14.3,0,0,1-.3-2.3v-2.6a1.8,1.8,0,0,1,1.4-.4A16.5,16.5,0,0,1,78.6,146.2Z"/><path class="x" d="M80.5,157.1a4.4,4.4,0,0,1,.2,1.7c-.7,2.4,1.3,5.3-1.8,6.9a63.2,63.2,0,0,1,.9-8.4A1,1,0,0,1,80.5,157.1Z"/><path class="q" d="M104.9,123.8a8,8,0,0,1-1.6,1.3c-2.3.3-4.1.4-6.1.5a8.6,8.6,0,0,1-1.8-1.4,12.9,12.9,0,0,0-1.5-1.7,12.4,12.4,0,0,0-.2-1.8,3.1,3.1,0,0,1,1.7-1h9.3v.4C104.7,121.5,104.8,122.7,104.9,123.8Z"/><path class="x" d="M80.8,129.6a2,2,0,0,1-1.3.1,54.1,54.1,0,0,1,6.3-3.5C84.3,127.4,82.6,128.4,80.8,129.6Z"/><path class="x" d="M95.4,124.4a15,15,0,0,1,1.8,1.4,7.8,7.8,0,0,1,.1,1.3l-1.3.6a13.5,13.5,0,0,1-3.2-1.1,18.8,18.8,0,0,1,2-2Z"/><path class="aa" d="M95.4,124.2c-.1.2-.2.2-.5.2a3.4,3.4,0,0,1-1.1-1.8A6.1,6.1,0,0,1,95.4,124.2Z"/><path class="aa" d="M99.4,119.6H95.6a13.2,13.2,0,0,1,1-3,45.6,45.6,0,0,1,6.5-.2,10.5,10.5,0,0,1,1.5,3,2.7,2.7,0,0,1-1.8,0A12.6,12.6,0,0,0,99.4,119.6Z"/><path class="ad" d="M125.3,108a15.7,15.7,0,0,1,6.3-10.1c2.3-1.8,6.3-.7,7.5,2.3,2.5,6.3,2.5,12.7-1,18.5a8.7,8.7,0,0,1-5.9,3.5c-2.8.1-4.7-2.4-5.4-5.1S125.8,111.2,125.3,108Z"/><path class="aa" d="M97.6,127.1c-.3-.3-.3-.6-.3-1.2a51.1,51.1,0,0,1,5.8-.7C102.5,128.5,99.8,126.6,97.6,127.1Z"/><path class="aa" d="M105.1,123.8a14.3,14.3,0,0,1-.4-3.8C106.9,120.8,106.2,122.2,105.1,123.8Z"/><path class="x" d="M96.9,129.6a2.8,2.8,0,0,1-1-1.5A4.4,4.4,0,0,1,96.9,129.6Z"/><path class="ac" d="M81.4,165.2a8.1,8.1,0,0,1,1.1-1.3l.5.9A5.3,5.3,0,0,1,81.4,165.2Z"/><path class="ae" d="M103.6,147.9h-1.4c-.9-1.7-2-3.3-2.1-5a21.9,21.9,0,0,1,.8-7.2c.7-3,2.4-5.3,5.9-5.3a5.1,5.1,0,0,0,2.2-.6c5-2.2,11.4-.1,13.7,4.8a5.1,5.1,0,0,1,.4,3.4c-1.5,3.9-3.3,7.6-5,11.3s-2.1,3.1-5.3,1.3S106.9,148.7,103.6,147.9Z"/><path class="h" d="M96.7,157.2c-1.9,1.1-3.6.8-4.3-1.1s.7-2.3,1.5-3.1,2.2-.2,2.3.1A10.8,10.8,0,0,1,96.7,157.2Z"/><path class="h" d="M94.1,97.3l.4-.2C94.5,97.2,94.3,97.3,94.1,97.3Z"/><path class="z" d="M99.7,119.6a12.3,12.3,0,0,1,2.8-.2A6.3,6.3,0,0,1,99.7,119.6Z"/></svg>