<svg xmlns="http://www.w3.org/2000/svg" viewBox="0 0 197 197"><defs><style>.a{fill:#c7a754;}</style></defs><path class="a" d="M69.4,165.3l-.3-5.8c-.1-1.7-.6-2-2.1-1.2-6.6,3.5-13.5,5.7-21,5.4-11.6-.3-20.8-5-27.3-14.8-4.4-6.8-2.7-16.9,2.9-21.2,3.2-2.5,5.8-5.9,10.8-4,1.4.6,3.2.1,4.3,1.7s.7.8.6,1.1c-.3,2.1,1.1,3.5,2.1,5s.9,3.4,1.2,5.3c3.2-1.8,5-19.5,4.2-25.4-.7-.2-.8.5-1.1.8-3.3,3.9-8.5,5.8-13.9,2.5a18.4,18.4,0,0,1-7.4-8,7.8,7.8,0,0,1-.5-1.4C20,96.4,24.1,88.4,32.5,84.8l1.2-.4c1.2-.5,1.4-1.3.5-2.2a23,23,0,0,1-3.5-5.1c-1.5-2.9-.6-7.2,2.1-9.8a6.9,6.9,0,0,1,8-.8,6,6,0,0,1,.4,10.1,5,5,0,0,0-1.8,1.5c.7,1.7,2.3,2.3,3.9,2.9s1.5-.7,1.5-1.7c-.1-3.9-.1-7.8-.1-11.6,0-6-.2-12-.8-18a24,24,0,0,0-3.5-10,6.5,6.5,0,0,0-4.5-3,4.9,4.9,0,0,1-3.2-4.4A2,2,0,0,1,34,30.8a49.9,49.9,0,0,0,5.9-3.4c.8-.6,1.5-.3,2.2.3A92.8,92.8,0,0,0,64.9,41.4c2.8,1.2,2.8,1.4,2.4,5.6h2.2c3,0,3.3-.3,2.8-3.4a39.9,39.9,0,0,0-6.6-16.9c-1-1.6-1.8-3.5-3.5-4.5-.8.7-.4,1.5-.5,2.2-.1,3.3-1.8,5.5-4.6,5.9s-6.9-1.6-7.7-4.4C47.7,20.4,50.9,16,56.5,15c7.1-1.2,12.1,2.1,16.7,6.5,1.5,1.4,2.8,3,4.3,4.5a2.7,2.7,0,0,0,1.9,1.3,7.1,7.1,0,0,0,.2-5.7c-1.6-3.5-.1-6.2,1.6-8.8a4.9,4.9,0,0,1,5.1-2.1A5.4,5.4,0,0,1,91.2,15c.7,2.9,1,3,4.2,2.6s3.9.2,5.6-1c-.1-.8-.7-.7-1.2-.7s-2.6-1.3-2.1-3.1a3.6,3.6,0,0,1,4.6-2.7,6.6,6.6,0,0,1,4.4,9.5,9.2,9.2,0,0,0-1.1,4.3c.1,1.2-.8,2.2-1.5,3.1s-.9,1.3-.5,2.2c1.1,2.6.4,4.2-2.1,5.6-.9.5-2.1.6-2.9,1.3a2.1,2.1,0,0,0,1.5,2c1.5.7,1.6,1.8,1.1,3.1a6.6,6.6,0,0,0-.3,3.7,6.2,6.2,0,0,1-2.8,5.9c-1.1.9-1.4,1.7-.9,2.9,3.3,8.5,6.9,16.8,10.7,25,.2.5.4,1.1,1.1,1.2s.8-.9.8-1.5c-.2-8.6.1-17.2-1.3-25.7-.4-2.6-1.2-5.1-3.8-6.3a1.8,1.8,0,0,1-.8-1.8,49.1,49.1,0,0,0-.6-6.6,1.5,1.5,0,0,1,1.1-1.9c2.5-.8,3.9-2.7,5.3-4.7a82.1,82.1,0,0,1,9.2-11.9,20.7,20.7,0,0,1,11.6-6c4.8-.9,11.2,3.5,12,8.2a3.3,3.3,0,0,1,.1,1.4c-.7,3-3.1,4.4-5.7,5.1s-4.5-.2-6.1-2.2-1.7-2-3.2-.1c-3,3.8-4.3,8.2-5.1,12.8-2.1,13.1-1.4,26.3-1.4,39.4-.1,3.8.1,3.8,3.9,3.8h6.2c1.6,0,2.4-.6,2.4-2.4-.1-7.7,0-15.5-.1-23.2-.1-5.2-2.1-7-6.3-7.6-2.2-.3-2.3-.7-2.1-2.8s1.8-4.6,4.7-5.5c6.6-2.2,12-6.4,17.3-10.7,1.6-1.2,3-2.6,4.5-3.9s2-.8,2.8.4a17.5,17.5,0,0,0,4.6,4.8c1.2.9.9,2-.3,2.3-2.9.8-4.2,3-5.3,5.5s-3,7.3-2.8,11.5c.2,6,.2,12,.3,18,0,.6-.2,1.2.4,1.8l.5-.3c2.9-3.3,4.8-3.9,8.2-2.5s5.2,4.5,5.2,8a9.1,9.1,0,0,1-1.9,5.4c-1.1,1.6-1,1.9.9,2.9,5.4,2.6,9.5,6.6,10.9,12.7s-1.1,14-8.5,16.8c-4.2,1.7-7.9,1.7-11.8-.7s-3.6-5.9-.7-8.2c1.3-1.2,1.3-2,.2-3.2s-1.6-3.8-.6-5.4,1.2-1.5,2.2-.5,1,.8,1.5.3a1.2,1.2,0,0,0,.2-1.7,6.3,6.3,0,0,0-4.6-3.2c-1.3-.3-1.7.7-1.7,1.7s-.2,4.5-.1,6.7c.2,7.1-.1,14.2.6,21.2s1.1,13.3,3.6,19.6a18.7,18.7,0,0,0,7.3,9.3c1.2.8,1.3,1.7.4,2.8,2.2.3,6.3-2.2,7-3.9s-.3-1.4-1.2-1.3c-3.8.5-6.8-1.6-9.8-3.4s-3.4-3.2-3-5.8.4-3.8.7-5.8a5.4,5.4,0,0,1,2.5-4.2,4,4,0,0,0,1.6-2.2,4.1,4.1,0,0,1,3.6-2.8c6.7-1,13.6,3.8,15.3,10.7.8,3.3,1.4,6.7.6,9.8a21.2,21.2,0,0,1-5.9,10.1,34.4,34.4,0,0,1-15.2,8.3c-7.1,1.7-14.1.6-20.9-1.8l-3.5-1.3c-1.8-.6-2.6,0-2.2,1.9a32.1,32.1,0,0,1,.4,7.6,18,18,0,0,1-9.4,15.5c-5.8,3.4-12.1,5.1-18.8,3.1-3.3-1-5.9-2.8-7.3-6s-1.2-4.8.6-7,4.2-2.8,6.9-2.4a8,8,0,0,1,4.2,2.3c2.5,2.4,6.2,2.1,7.7-1s3.4-9.4,2.3-14.5c-2-9.5-6-18.3-9.8-27.1-5.1-12-10.5-23.9-15.7-35.9-.5-1.2-.9-2.4-1.4-3.7s-1.5-1.5-2.7-1.4a2.1,2.1,0,0,0-1.9,2c-.1,1.3-.2,2.5-.2,3.7a311.2,311.2,0,0,1-3.8,48.2c-.9,5.8-2.2,11.6-2.7,17.5a43.6,43.6,0,0,0,.1,12.5c.7,3.3,1.4,3.7,4.4,2.5,5.1-2,8.6,2,8.1,5.9a5,5,0,0,1-1.2,2.4c-3.4,3.4-8.4,3.8-12.8,1.1-5.9-3.5-8.9-8.9-9.9-15.5-.2-1.5-.3-2.9-.4-4.5m46.8-140a13.4,13.4,0,0,0,3.5-3.2,25.3,25.3,0,0,1,7.3-5.3c1.7-.8,1.8-.7,2.8.8.8-.6,1.9-.8,2.5-1.6-3.1-2.9-12.9,2.8-16.5,9.5a5.5,5.5,0,0,0-1.8,2.8,3.4,3.4,0,0,0,2.2-3m-49.3,32c-1.8-2.7-1.2-5.8-1.1-8.9h-.9c-2.5.8-2.7,3.1-2.8,5.2-.4,8.1-.4,16.2-.3,24.3a7.8,7.8,0,0,0,.3,2.2c.2.8.6,1.3,1.4,1.3l10.1.3A1.3,1.3,0,0,0,75,80.4c-.2-5.1-.2-10.1-.8-15.1-.1-1.1-.8-2.2-1.8-2.2-2.8,0-3.9-1.8-4.5-4.1a8.2,8.2,0,0,0-1-1.7m23-23.8c1.7-.9,3-2.7,5.1-2.6s3.4-1.5,5.2-1.7c-.1-2-1.2-3.6-.5-5.5s-.3-2-1.7-2a17.4,17.4,0,0,0-5.9,1c-.5.2-.9.6-1.6.1s1.9-1.4,2.7-2.6c-3.2-.1-4.2,2.6-5.8,4.3-1.1-1-1.9-1.9-1.7-3.2s-1,.2-1.3-.6.9-2.2-.6-3.1-1.6-.2-2.3-.3-1.7.4-1,1.5a9.5,9.5,0,0,1,.9,6.2,10.9,10.9,0,0,0-.3,5.2c1.2-2.5,1.9-4.8,3.5-6.9a4.6,4.6,0,0,0,2.5,2.9c.1,1.6-1.6,2.5-1.5,4.1s1.7-.3,2.3-.9a18.7,18.7,0,0,1,4.5-3.3c.7-.3,1.4-.7,2,.1s-.6,1.2-1.3,1.5c-3,1.3-5.1,3.6-7,6.1-2.9,4-5.2,8.2-4.8,13.3a162.5,162.5,0,0,0,2.7,17,8.9,8.9,0,0,0,1.2,3.7l.3-.4-.3-1.5a41.9,41.9,0,0,1-2-15.3,8.4,8.4,0,0,1,1.4-4.2,4.4,4.4,0,0,1,6.1-1.3c1.6,1.1,1.6,2.5,0,5-.2.4-.5.7-.2,1.2a1.1,1.1,0,0,0,1.3.4c1.2-.2,1.6-.9,1.7-2.1s.4-2.1,1.9-1.3,1.8,0,2.5-.8a3.3,3.3,0,0,0-.9-4.6,11.7,11.7,0,0,1-3-4.1c-1.6.7-3.2-.5-4.8-.5s-3.3,2.4-5.4,3.7c.6-4.2,3.2-6.3,6.1-8.5M126.7,104h.4a4.9,4.9,0,0,1,4.2,3.7c.6,1.9-.7,2.8-2.1,3.7a5.4,5.4,0,0,0-2.2,3.3,15.4,15.4,0,0,0,1.1,9.7c.9,2,2.1,2.1,3.5.4a10.9,10.9,0,0,0,2.6-7.3c.3-8.5-.3-17-.4-25.6a2.4,2.4,0,0,0-2.6-2.7q-3.4-.3-6.9-.3c-2,0-2.6.7-2.6,2.6a58.9,58.9,0,0,0,1.1,10.2c.5,2.5,1,2.8,3.9,2.3M66.4,89.2h-1c-2.8,0-2.9.2-3.1,3s0,4.7,0,7.1c.2,6.6-.2,13.3.9,19.9a12.1,12.1,0,0,0,3.1,6.3,2.2,2.2,0,0,0,2.5.9c1-.3,1.3-1.2,1.4-2.2a19.8,19.8,0,0,0-1.4-9c-.5-1.3-1.4-2.4-3-2.3a2,2,0,0,1-1.7-1.1c-1.4-2-.9-4.2,1.4-5.7.7-.5,1.8-.7,2-1.6.6-2.6,2.2-2.2,4-1.7s2.4.4,2.8-1.9a74.7,74.7,0,0,0,.4-9.5c.1-1.5-.8-2.2-2.2-2.2H66.4m82.9,36.3c-.6-8.6-.9-17.3-1-26-.2-14.3-.3-28.7-.4-43V48.6a2.2,2.2,0,0,0-2-2.3c-1.4-.1-.9,1.3-.9,2,0,5.4.1,10.8.2,16.1.3,10.4.1,20.7.4,31.1s.1,18,.5,27a18.8,18.8,0,0,0,1,4.7c.1.5.3,1,.9,1a1.2,1.2,0,0,0,1.1-.9c.1-.4.1-1,.2-1.8M48,61.9c-.1-4.6-.3-9.1-.4-13.7a13.5,13.5,0,0,0-.8-4c-.2-.7-.6-1.3-1.5-1.1s-.7.9-.6,1.6.7,3.9.9,5.9c.8,6.8.4,13.7.6,20.6.4,14.6.5,29.2.4,43.8a59.7,59.7,0,0,1-3.7,22.1,5.2,5.2,0,0,0-.3,1.8c0,.6.4.9,1,1a.7.7,0,0,0,.9-.7c.2-2.8,2.2-4.9,2.8-7.5,1-4.9.9-9.9,1-14.9.2-7.3-.2-14.6.5-21.9,0-.8,0-1.6.8-2s1,.5,1.5.9,1,.7,1.5.1a2.7,2.7,0,0,0,.3-2.3c-.1-.8-.8-.5-1.4-.3s-1.5,1.1-2.6,1.1a7.4,7.4,0,0,1-.8-4.1c-.2-2.7.5-5.3.4-7.9-.4-6-.5-12.1-.5-18.5m13.3,82.9a37.1,37.1,0,0,0,3.6-5.2c.4-.7,1.2-1.4.4-2.2s-1.5,0-2.2.4A75.8,75.8,0,0,0,44.4,152a8.7,8.7,0,0,0-2.4,3.9c8.2-.8,14.1-5.2,19.3-11.1M163,98a25.2,25.2,0,0,1,3-5.6c-2.3,1-2.5,4.2-5.2,5.2.3-1.8,1.9-2.9,1.5-4.6s-1.2.1-1.7-.7a10.3,10.3,0,0,0-.3-5.2c-.4-1.2.6-1.5,1.6-1A15,15,0,0,1,170.2,97c.8,4-.7,7.7-.7,11.6a5.7,5.7,0,0,0,2.5-3.4c2.3-8.6.9-14.3-5.8-19.2a13,13,0,0,0-6-2c-1.6-.3-2,1.2-3,1.9l-.3.2c-2.2,1.2-2.3,1.6-.3,3.2s3.7,3.5,3.3,6.5-1.5,3.1-3.7,2.4c-.4-.2-.8-.5-1.4,0a2.4,2.4,0,0,0,1.6,2.5A5.2,5.2,0,0,0,163,98M59.5,113.3V99.4l-2.3-.9c0,3.9-.1,7.6.1,11.3s0,8,1,11.9,2.2,6.8,6.5,7.6c.2,0,.4.3.5.4s-1.3,1.2-2,1.6a67.7,67.7,0,0,0-13.8,9.2c-.7.6-1.6,1.1-1.5,2.3,1.6.6,2.5-.5,3.5-1.2A64.2,64.2,0,0,1,64,134l3.8-1.6a2.5,2.5,0,0,0,1.5-2.6c-.1-1.3-1.2-1.3-2.2-1.6a8.7,8.7,0,0,1-6.7-6.8,34,34,0,0,1-.9-8.1M79.6,70c.6-.2.3-.7.3-1-1-6.1-3.4-11.5-8-15.8-.3-.3-.8-.4-.5-1.3,3.4,1.1,4.4,5,7.8,6.3.8-.2.9-1.1.6-2.1l-1.5-3.4c-.3-.6-.7-1.2-.2-1.8s0-1.8-.7-2.2-1.3.4-1.5,1.2-1,1.4-1.9.5a9.6,9.6,0,0,0-3.6-1.9,1.5,1.5,0,0,0-1.9.8c-1.4,2.5-.3,6.7,2.3,8.1.8.5,1.4.8.8,1.9s.1,1.4,1,1.6c2.4.4,3.8,1.9,4.9,3.9A40.3,40.3,0,0,1,79.6,70M53.7,40.2l6.9,4.1c.5.3,1,.6,1,1.2s-.7.8-1.2,1c-2.3.6-3.1,2.3-3.2,4.5s-.2,2.9-.2,4.3V71.2c.6-.2,1.1.3,1.9-.2V55.4c0-3.6.3-6.8,3.8-9a2.4,2.4,0,0,0,0-4.1q-4.1-2.2-8.1-4.2c-.9-.5-1.8-.6-2.3.4s.7,1.1,1.4,1.7m83.1,80.1c.1-9.7.3-19.5-.7-29.2-1,.9-.8,2-.8,3.1.1,8.1.1,16.2.3,24.3a7.9,7.9,0,0,1-2.4,6.2,12.4,12.4,0,0,1-2.1,1.9,2,2,0,0,0-.6,3,14,14,0,0,0,5.5,5.8,3.4,3.4,0,0,0,1.7.5c.7,0,1.3-.1,1.6-.8s-.2-1.2-.8-1.5-3.5-2.9-5.6-4-1.3-1.5,0-2.2,3.9-3.8,3.9-7.1m-3.3-74.5c-.7-.9-2.3-1-2.6-2.5,3.1-1.8,6.9-2.5,9.3-5.5a1,1,0,0,0-1.3-.3,69,69,0,0,1-10.7,4.9,1.7,1.7,0,0,0-1.1,1.8,1.7,1.7,0,0,0,1.5,1.5c4.7,1.4,6.3,4.8,6.3,9.4,0,7.6.2,15.1.3,22.7.1.7-.2,1.5.8,1.8s.5-1.4.5-2.1c-.1-7.6-.1-15.1-.5-22.7-.1-3,.4-6.3-2.5-9m-6.3,127.6c0-.2-.1-.5,0-.7,1-2.4,1.8-4.7,0-7.1a4.3,4.3,0,0,0,.1-.5c-.1-1.4.6-2.3,1.2-3.4s.5-3.8-2-5.3c-.9-.5-2.1-.6-2.5-2,1.5-.3,2.2-1.4,2.9-2.6-1.6-1.4-3.6-1.6-4.3-.4-1.7,3.2-1,5.4,2.3,7.1l.8.4c.7.4,1.4.9,1,1.7s-1.1.4-1.7.1-1.1-.4-1.6.2-.1,1,.2,1.5a6,6,0,0,0,.8.8,8.7,8.7,0,0,1,2.6,7,13.1,13.1,0,0,1-3.7,7.4l-5,5.1c3-.5,5-1.7,6.1-3.9s2.8-2.9,2.8-5.4m-27-93.5c0-1-.4-1.7-1.5-1.7s-1.7.5-1.9,1.3.8,1.2,1.4,1.5,1.6.8,1.6,1.7-1.1.7-1.2,1.5,1.1,1,1.6,1.5,1.3.9.8,1.5.1,2.4,1.3,3.1,1.8.8,1.1,1.8-.3,2.6,1.1,3.4,1.9,1.3,1.1,2.2-.4,1.9.8,2.6,2.3,1.7.4,3.6c.9,1.1,2,2.1,3.4,1.6s.5-1.5.4-2.4-.5-.8-.9-1.1a1.8,1.8,0,0,1-.9-1.7,5.4,5.4,0,0,0-1.7-4,2.2,2.2,0,0,1-.8-1.9c-.1-2.5-3.2-4-2.3-6.8l-.3-.3c-2.1-1.9-2.2-4.8-3.5-7.4M39.3,139.6a12.1,12.1,0,0,1-9.1,3.6,2.4,2.4,0,0,0-2.3,2.1c-.8,4.3,4.1,9.8,8.7,9.6-.5-1.6-2.1-2-3.3-2.8s-2.8-2.2-.2-3.9l.7-.4a13.8,13.8,0,0,0,5.5-8.2m-5.1,19.1c.9.3,1.4-.5,2.3-.8l.3.4c.3.6.5,1.2,1.3,1.1s.5-.3.5-.7-.6-1-1.3-1.3a36.9,36.9,0,0,1-4.2-1.7c-4.5-2.2-8.4-4.9-8.4-10.7.1-1.3-.8-1.3-1.6-.6a4.8,4.8,0,0,1-3.8,2c3.4,6.1,8.5,9.7,14.9,12.3m66.9-59.1,5.2,12.1c.3.6.7,1.5,1.6,1.1s.5-1.2.2-1.8L95,80.8c-.2-.5-.4-1.2-1.9-1.2,2.1,7,5.3,13.3,8,20M69.9,85.1c-2.1.6-4.4.1-6.8.5a2.4,2.4,0,0,0,2.4.9H78.3c3.1-.1,6.2,0,9.3-.3.7-.1,1.5-.2,1.4-1.1a1.3,1.3,0,0,0-1.4-1.4H67.4a11.1,11.1,0,0,0,2.5.5c.6.1,1.1.4,0,1M43.2,90.3A7.7,7.7,0,0,0,39.3,93c-.6.9-.9,1.8.6,2.1a1.8,1.8,0,0,1,1.6,1.6c.7,2-.1,3.6-1.2,5.1s-1,.6-.7,1.5a36.8,36.8,0,0,1,4.9,1.8c.2-.4.5-.7.5-1V91.6c0-.9-.5-1.4-1.8-1.3m85.1,45.5c-5.3-5.3-9.9-11.3-16.7-15.1,1.5,0,2.6-.8,4.2-.8a23.9,23.9,0,0,0-5.8-4.5c-.5-.3-1.4-.5-1.5,0s-1.1,2.1-.7,3.3,3.3,3.4,4.4,5.5c5.3,1.8,9.4,5.3,13.2,9.3,1.2,1.4,2.3,3,4.2,3.7l-1.3-1.4m-4.6-49.7h4.6a2.1,2.1,0,0,0,2-2c0-1.1-1.2-.8-2-.8-2.9-.1-5.8,0-8.8,0h-7.3c-.7,0-1.6.2-1.6,1.1s.6,1.4,1.5,1.6h11.6M72.9,105.7c-.7-.8-1.5-1.3-2.3-.3s-.1,3.5.7,4.4.5-1,1.4-.9a5.3,5.3,0,0,1,.7,2.8c0,.7-.2,1.7.5,2.1s1.2,2.6.9,4.1-.7,3.2-1.1,4.7-.3,1.3.4,1.7c1.2-1.3,3.6-29.2,2.5-31.5-.6,5.3-.9,10.3-1.7,15.4-1.4-.6-1.4-1.6-2-2.5m44.1-62a3.6,3.6,0,0,1-.1-2.5,4.3,4.3,0,0,0-1.6-4.9c-1.5-1.1-2.8-.6-2.9,1.3a2.1,2.1,0,0,1-1.6,2.2c-1.4.5-1.4,1.6-.1,2.5a8.5,8.5,0,0,1,3.5,4,7.5,7.5,0,0,0,1.4,2.4c.4-.6,1.4-.8,1-1.7s-.1-2.1.4-3.3M78,157.8v-9.1c-2.6,9.3-3.2,23.5.8,27.6a66.9,66.9,0,0,1-.8-18.5m89.7-3c3.1-2.4,3.1-2.5,3-4l-.8.5a19.2,19.2,0,0,1-12.2,4.2c-2.4-.1-2.8,2.5-4.5,3.4,5.4.7,9.8-1.5,14.5-4.1m-47.2-4.4a128.8,128.8,0,0,0-8.4-21.6c-.2-.5-.5-1-1.2-.8s9.1,24.8,9.6,25.2.1-1.7,0-2.8m.4-126.3a26.3,26.3,0,0,0-2.6,10.7,1.3,1.3,0,0,0,1,1.6c.9.1.9-.6,1.1-1.2a41.4,41.4,0,0,1,3.6-9.4c.7-1.2-.1-2-.8-2.7s-1.6,0-2.3,1M84.4,98.6v-5H84c-.6,12.9-1.8,25.8-2.6,38.8,2.3-11,2.5-22.2,3-33.8M50.6,122.9c-.7.6-.6,1.3-.4,2.1s.4,1.4,1.2,1.4,1-.7,1.1-1.4-.1-1.4.7-1.8-.2,2,.8,2.6c1.2-1.2,2-5,1.4-6.4s-.5-.9-1-.8-1.7-.7-2.3-1.5-.7-1.8-1.8-2.5a10.9,10.9,0,0,0,.9,5.7c.3.8.8,1.7-.6,2.6m4.3-78.7a8.7,8.7,0,0,0-2.7-2.7c-1.3-.8-2-.5-2.1,1s0,4,.1,6a9.3,9.3,0,0,0,2,4.8c2.7-1.9,3.1-3,1.4-4.4s-1.6,2.3-2,.1a7.5,7.5,0,0,1,.7-4.6c.9,0,1.2.7,1.6,1.1s1.2,1.5,2,.7-.3-1.3-1-2M40.1,83.5l.4,1.6c.2-3,.2-3-1.1-4s-5-4.2-5.6-7.7a1.1,1.1,0,0,0-1.3-1c-.7.1-.7.7-.8,1.3A8.7,8.7,0,0,0,39,82.6c.5,0,.8.2,1.1.9m135.7,48.4c.6,1.2.2,3,2,3.6a3.9,3.9,0,0,0,.1-2.8c-.7-3.3-3-5.3-5.4-7.3s-4.8-2.1-7.6-1.7c-.6.1-1.3.3-1.1,1.2s.7.8,1.3.8h1.1c5.2-.3,7.5,1.2,9.6,6.3m-10.9,11.4a2.9,2.9,0,0,0,2.8-2,1.7,1.7,0,0,0,0-1.8,1.4,1.4,0,0,0-1.7-.3,1.9,1.9,0,0,1-2.2-.4,12.4,12.4,0,0,1-1.8-1.4,1.2,1.2,0,0,0-1.4-.2,1.4,1.4,0,0,0-.5,1.5c.1,2.4,1.8,4.2,4.8,4.6m-98.4,9.5c.9-.4.7,1,1.5.8s1.4-2.3,1.7-3.6-.6-2.8-2.5-2.3-4.1,3.3-4.4,5.9c.6.3,1.1-.5,1.7-.1s1.2-.4,2-.7m36.1-45.3c-2.8-7-6.4-13.7-9.6-20.6l-.5.2L103.3,112c.7-1.7-.3-2.8-.7-4.5m47,42.3a2.2,2.2,0,0,0,2.2.2c-4.2-4-8.3-7.7-13.3-10.3,2.7,4.4,6.8,7.1,11.1,10.1m-114-45.7c-.6-1.1-1.9-1-3-1.7a10.5,10.5,0,0,1-2.3,4,1.9,1.9,0,0,0-.7,1.6c.4,1.5,3,3.1,4.9,2.8-1-2.4-1.2-4.6,1.1-6.7m137.3,33.8c0-.9.3-2-.8-2.5s-1.9.5-2.9,1.2c1.5,2.4.9,4.5-.6,6.6-.5.5-.8,1.3.3,1.6s3.8-1.8,3.6-2.9.1-2.5.4-4m-149-6c1-.1,1-.6.6-1.4a41.6,41.6,0,0,0-5.1,2.8c-1.9.9-2.3,6.7-.9,9-.1-4.5,4-6.7,5-10.4h.4m93-14.6c1-.5,1.3.9,2.3.9-1.8-2-2.8-4.4-4.7-6.1s-1.4-1.2-2.3-.5-.7,1.5-.3,2.3a10.3,10.3,0,0,0,5.2,4.9c.2-.5-.3-.9-.2-1.5M76.5,27.1c-3.4-4-7.2-7.5-12.1-9.7a3.7,3.7,0,0,0-3-.3c7,3,12.1,7.7,16.4,13.4.2-1.4-.5-2.2-1.3-3.4M26,91.9c-3,3.4-4,9.6-2.1,12.6.1-1.1,1.6-1.9-.1-2.8s-.4-.7-.2-1.1c2.6-3.7,2.1-9,6.2-11.9-1.7.4-2.6,1.8-3.8,3.2m41.7-68c-3-3.3-4.9-4.6-7.2-4.7,4.7,2.5,6.8,6.9,9.3,11.1,1.6-1.2,1.4-2.3.4-3.5l-2.5-2.9m57.9,82.4c-.8.5-.6,1.6-1.5,2.1l-1-.4a1.7,1.7,0,0,0-1.9,0c-.4.3-.4.7-.3,1.2a1.3,1.3,0,0,0,1.6.9c1.3-.2,2.9.4,3.8-1s.7-.1,1-.1,1.2-.3,1.5-.9a1.5,1.5,0,0,0-.5-1.5,2.6,2.6,0,0,0-2.7-.3M112.9,95.2c-2.9-6.6-5.8-13.3-8.8-19.9l-.4.2a24.1,24.1,0,0,0,.8,2.5c2,5.2,4.7,10.1,6.6,15.4a10.1,10.1,0,0,0,1.2,2.3c.5.7.6.3.6-.5m-7-10.1L102,77a176.2,176.2,0,0,0,9.6,22.3c-1.4-4.8-3.7-9.3-5.7-14.2m46.3-11c-.4-.3-1-.8-1.2.2a10.3,10.3,0,0,0,.2,3.9,1.4,1.4,0,0,0,2.1,1,8.6,8.6,0,0,0,1.9-1.1c.9-.8,1-1.5-.2-2a7.3,7.3,0,0,1-2.8-2M118,137.5c.9,1.9,1.5,4,2.8,5.8.7-.3,1.1-.7.9-1.3-1.5-3.3-2.7-6.8-4.9-9.8-.5,1.9.6,3.4,1.2,5.3M79.4,177.7c-1,.3.1,1.3-.8,1.7-2.2-1.2-2.5-4-4.1-6.1a4.3,4.3,0,0,0,.6,2.4c.4.8,1.2,1.8,1.1,2.5-.4,2.4,1.4,3.1,2.7,4.2a1.3,1.3,0,0,0,1.2.2,1.1,1.1,0,0,0,.5-1.4,36.6,36.6,0,0,0-1.2-3.5m36-76.5c.5,2.3.7,4.7,2.1,6.9a66,66,0,0,0,.2-7.7c-.1-.9-1.1-1.2-2-1.2s-.3,1.2-.3,2M77.8,130a1.6,1.6,0,0,0-.6-2.1c-.9-.6-1.7-1-2.6-.3s-1.3,3-.7,4.2,1.2,1.7,2.5,1.2-1.4-2.7-1.1-4.3c.9.2,1.1.9,1.5,1.5s.6.8,1-.2M54.9,23.2c.4,1.2,1.2.9,2,.5s1.1-.7,1.6-.1a2.1,2.1,0,0,1-.1,2c-.4.9-1.4,1.2-2,1.8,2.3.1,3.4-.7,3.8-2.8a2.2,2.2,0,0,0-1.6-2.7c-1.4-.5-2.8-.8-3.7,1.3m-17.5,68L38.5,90c1.3-.8,1.4-1.8.4-3.1a3.3,3.3,0,0,1-2.1,1.4c-.6.1-1.3.3-1.3,1.1s-.9,2.1-1.9,2.7A3.5,3.5,0,0,0,32,93.7c1.2-.2,1.7-1.1,2.4-1.6s2,.2,3-.9M139.2,47.8c.1-.5.7-1.1-.2-1.6-1.3,1.5-1.6,4.1-.5,5.3a2.7,2.7,0,0,0,3.5.3c1.1-.8,1.2-1.7.4-3-.6.7-.8,1.9-1.9,1.5s-1.4-1.2-1.3-2.5M54,19.6c1-.7,2.3-.6,3.4-1.2s-.1-2.1-1.7-1.7a6.1,6.1,0,0,0-4.3,8.1c-.3-2.4.6-3.9,2.6-5.2M157.5,79c-3.3,1.2-4.2,3.5-3,6.1,0-3.8,4-2.8,5.2-4.9a2.6,2.6,0,0,0-2.2-1.2M138.9,89.9c-.7,2.2-.3,3.7,1.3,4.2s1.5.4,1.5-.7a9.7,9.7,0,0,0-.2-2.9c-.3-1.6-.9-1.8-2.6-.6M115.8,73.3,115.1,60c0,6-.4,12.1.1,18.1h.7c0-1.5,0-3-.1-4.8m5.6,95.2a8.6,8.6,0,0,0-.1-7.2c-.3,5-.8,9.8-4,13.7,2.2-1.5,3-3.9,4.1-6.5M134.5,43.9c.2.2.3.5.5.6s5.2-1.1,5.6-2.3a1.1,1.1,0,0,0-.2-1.1.7.7,0,0,0-1-.1c-1.5,1.1-3.5,1.3-4.9,2.9m28.9,60.3c.5-.3,1.1,0,1.6.1a1.5,1.5,0,0,0,1.7-.8c.2-.4.3-.8,0-1.1a1.7,1.7,0,0,0-1.9-.4l-2.5,1.1c-.6.3-1.2.6-1.1,1.3a.9.9,0,0,0,.5.8c.8.4,1-.5,1.7-1M140.9,76.1c-1.3-.5-2.3.1-2.2,1.5a3.9,3.9,0,0,0,1.6,3.4,1.8,1.8,0,0,0,1.1-2c-.2-.9-.3-1.7-.5-2.9m-68,66.8c-.9,1.2-2.8,2.1-1.5,4.2.9-.4,1.5-1,2.2-1.3a2.3,2.3,0,0,0,.9-2.8c-.2-.8-.9-.6-1.6-.1m40-77.2a13.5,13.5,0,0,0-.8-4.2c-1.1,2.2-.9,4.3-.9,6.3s.8.7,1.7.6V65.7M78,143.6a18.2,18.2,0,0,0-.9-5.1c-.8-2.4-1.8-2.7-4.3-1.2a5.2,5.2,0,0,1,3.5,2.4c1,1.2,1.2,2.7,1.7,3.9m63.7-45.5c-.1-.8-.2-1.6-1.2-1.2a2.6,2.6,0,0,0-1.5,2.9c.1.7.4,1.6,1.2,1.4a2.4,2.4,0,0,0,1.6-2.3,2.8,2.8,0,0,0-.1-.8m-8.3,54.8c-1.1-.7-1.9-1.9-3.4-2.5a7.9,7.9,0,0,0,7.6,5.2l-4.2-2.7m8.1-33.5c-.9,1-1.2,2.4,0,3.1s1.5-.9,2.1-1.7a1.5,1.5,0,0,0,.1-1.9c-.8-.8-1.4-.1-2.2.5m-90.2-65c-1.2-.5-1,.5-1.1,1.1s1.2,2.9,2.6,3.8a1.5,1.5,0,0,0,0-2.3,15,15,0,0,1-1.5-2.6M71.1,166.1c0,4.5.4,6.1,1.7,7.6-1.6-5-1.6-9.9-1.7-14.8a19.4,19.4,0,0,0,0,7.2M52.6,107.7c.8-1.1-.6-2.2-.2-3.4s.2-1.1-.6-1.2-1.1.4-1.3,1.1a2.8,2.8,0,0,0,2.1,3.5m13.2.3a1.7,1.7,0,0,0,.2,2.4c.8.8,1.1-.2,1.7-.5a.8.8,0,0,1,.7-.2,1.1,1.1,0,0,0,.7-.9c.1-.7-.4-.9-.8-1.1a2.3,2.3,0,0,0-2.5.3M50.9,73.8c-1.5,1-1.4,2.1-.3,3.5,1-.7,2.3-1.1,2.1-2.6s-.7-1.2-1.8-.9M140,69c-.7-.8-1.3-.3-1.6.3s-.9,2.1.2,3c2.5-1,2.5-1,1.4-3.3m.2,41.4,1.8,2.7c.3.4.7.7,1.1.5s.6-.7.5-1.2-1.3-2.3-3.4-2m-.5-54.9c-.7-.7-1.3-.4-1.6.4s0,1.8.5,2.6.8.3,1.2,0,1-1.2.5-2-.3-.6-.6-1M95.6,75.9c.6.4,1.1.9,1.8.7.7-1.8.7-1.9-.2-3.2-1.8.7-1.9.8-1.6,2.5m44.7-12.8c-.1-.5.5-1.1-.1-1.6-2.5.7-3,1.7-1.5,3.3.6-.3,1.5-.5,1.6-1.7M88.4,77c.2.3.2.9,1.1,1.1-1.2-3.2-2.4-6.1-3.5-9l-.4.2L88.4,77M51.2,100c1.5.1,1.5-1.1,1.6-2.1a.7.7,0,0,0-1-.7,1.5,1.5,0,0,0-1,2.2c0,.1.1.3.4.6M43.6,37.7c-1.1-.2-1.1.6-.9,1.3s.7,1.9,2.2,1.7a3.4,3.4,0,0,0-1.3-3m52,32.8c0-.9-.5-1.4-1.5-1.4s-1.7,1.6-.2,2.6,1.5.1,1.7-1.2M50.1,62.2c.2,1,.9,1.2,1.5.6s.5-1.8.2-2.9a3.1,3.1,0,0,0-1.7,2.3M124,139.3c-.1,1.1-.2,2.1,1.3,2.4a2.6,2.6,0,0,0,.1-2.7c-.3-.5-.9-.4-1.4.3m16.7-35c-1.4-.3-1.5.7-1.4,1.7s.5,1.1,1.2.9,1.1-1.2.6-2.1l-.4-.5m-12.2,40.6c.2-.3.6-.7.1-1.1a1.2,1.2,0,0,0-1.3,0,1.9,1.9,0,0,0-.7,2.7c.8-.2,1.2-.9,1.9-1.6m11.1-24.3c.3-1,1.3-1.9,1.1-3.1s-1.7-.3-1.7.6-.7,2,.6,2.5m-88-53.7c-1,0-1.2.8-1.4,1.5a.8.8,0,0,0,.4.9,1.3,1.3,0,0,0,1.4-.2c1-.8.3-1.4-.4-2.2m-1.9,69.3c.4-.5.8-1,.2-1.7s-1,.6-1.4,1.1-1,1-.4,1.6,1-.3,1.6-1m7.2-5.7-.4,1c-.1.5-.1.9.4,1.2s.8,0,1.2-.3a.9.9,0,0,0,.1-1.2c-.2-.4-.4-1.1-1.3-.7m2-1.4c.5.3,1,.7,1.4-.1a2.8,2.8,0,0,0-3.3-1.5l1.9,1.6m51.7-20.2a1.6,1.6,0,0,0,2.4-.5,1.4,1.4,0,0,0-1.6-1.1c-.8,0-.7.8-.8,1.6M36.8,86.2c-.8-1.1-1.5-1.1-3.8.6,1.5-.2,2.6.3,3.8-.6m73.3,92.3c-.4.4-1,.7-1.1,1.4a1.8,1.8,0,0,0,1.6.1c.5-.1,1.1-.4,1-.9s-.6-.7-1.5-.6M30.4,101.3c.4,0,.8.3,1.3,0s-.6-1.5-1.5-1.6a.7.7,0,0,0-.9.5c-.1.6.4.8,1.1,1.1M142.1,40.8c.5.4,1,.8,1.7.3s.2-.5,0-.8a1.3,1.3,0,0,0-1.4-.8c-.6.1-.7.6-.3,1.3M84.8,13c-1.4-.6-2,0-2.3,1.7.9-.7,2-.4,2.3-1.7m89.6,131.1c.3.3.7.9,1.2.3a1.3,1.3,0,0,0-.3-1.9c-.6.3-1.1.6-.9,1.6M52.3,133a3.4,3.4,0,0,0-.9,2.4c1.5-.4,1.7-.9.9-2.4m85.2-5.6a.7.7,0,0,0-.7-1c-.7,0-1.2.4-1.3,1.3a1.5,1.5,0,0,0,2-.3m-22.7,53.2c-1.1-.6-1.6,0-2,1.1,1.2.6,1.8.3,2-1.1M25.5,107.7h-.3c-.3,1.3.5,1.9,1.6,2.6.1-1.2-.6-1.7-1.3-2.5M72.9,33.1a5.2,5.2,0,0,0-.8-2.5,19.1,19.1,0,0,0-.4,2.1c-.1,1,.4,1.1,1.2.4m67.6,103.1c-.4.3-1,.5-.8,1.3a1.3,1.3,0,0,0,1.8-.6c.3-.7-.3-.8-1-.7m21.6-26.3c1.4-.2,1.2-.8.5-1.8C161.9,108.6,161.3,108.9,162.1,109.9Z"/></svg>