<svg xmlns="http://www.w3.org/2000/svg" viewBox="0 0 198.5 213.1"><path d="M99.5,213.1a1.3,1.3,0,0,1-1.2-.7,2.8,2.8,0,0,0-.7-.9c-.5-.3-1.3-.3-1.9-.6a.9.9,0,0,1-.3-1.7,1.7,1.7,0,0,1-1.8-1c0-.6.5-1.1,1.2-1.5s1.4-.6,2.1-1a5.6,5.6,0,0,0,2.4-1.8Z" style="fill:#336"/><path d="M99.3,201.1a8,8,0,0,0-2.3-2.6,10.8,10.8,0,0,0-3.3-1.3l-2-.4a16.6,16.6,0,0,0-6.3.3l-1.2.2h-.5a.7.7,0,0,0-.9.6,1.6,1.6,0,0,0,.8,1c-.8,1.2-.2,3,1.6,4a6.6,6.6,0,0,0,2.5.7l1.3-.2,1-.5a1.2,1.2,0,0,0,.2-1.7,2.4,2.4,0,0,0-1.2-.7,2.3,2.3,0,0,0-1.5.2.6.6,0,0,0-.1,1,1.4,1.4,0,0,0,1.4.3c.1.4-.4.7-.9.6a2,2,0,0,1-1.8-2.9,3.8,3.8,0,0,1,2.1-1.6,7,7,0,0,1,3.2-.2c-.8,0-1.6.4-1.6,1s.7,1.2,1.6,1.3,1.7-.5,1.7-1.1-.1-.3,0-.5a.5.5,0,0,1,.3-.4l.7.2c2.7.9,4.7,2.9,4.9,5" style="fill:#336"/><path d="M99.3,201.9c-.2.2-.4.5-.7.6l-1,.5a4.6,4.6,0,0,1-2.3.5l-.7-.2a.2.2,0,0,1,0-.3l.3-.2c0-.1-.2-.1-.3-.1a.9.9,0,0,0-.9.2.7.7,0,0,0-.4.5v.4l.5.2H91.7c-.7.1-1.2.4-1.2.8s-.5-.2-.4-.4-1.1.4-1.1.7.5.8,1.1.9.1.6.5.9a2.8,2.8,0,0,0,2.2,0,.9.9,0,0,0,.7-.6c.1,0,.1-.1.1-.2h-.9c-.4-.1-.8-.3-.6-.6a1.6,1.6,0,0,1,1.1-.5h1.4a4.8,4.8,0,0,0,2.4-.7l.5-.3a1.1,1.1,0,0,1,1.2,0,1.3,1.3,0,0,1,.3.5c0,.2,0,.5.3.6" style="fill:#336"/><path d="M98.6,207.7h.7v-6.6h-.7Z" style="fill:#336"/><path d="M99.2,213.1a1.5,1.5,0,0,0,1.2-.7c.2-.3.3-.7.7-.9s1.3-.3,1.9-.6,1-1.3.3-1.7c.9.1,1.7-.5,1.7-1.1s-.5-1.1-1.1-1.4l-2.2-1a7.6,7.6,0,0,1-2.4-1.8Z" style="fill:#336"/><path d="M99.3,201.1a8,8,0,0,1,2.3-2.6,15.5,15.5,0,0,1,3.2-1.4l2.1-.4,3.2-.2a14.5,14.5,0,0,1,3,.5,2.9,2.9,0,0,0,1.3.1h.5a.8.8,0,0,1,.9.7,1.9,1.9,0,0,1-.8,1c.8,1.2.2,3-1.5,4a7.7,7.7,0,0,1-2.6.7,3.5,3.5,0,0,1-2.3-.7,1.1,1.1,0,0,1-.2-1.6,2,2,0,0,1,1.2-.8,2.3,2.3,0,0,1,1.5.2c.4.3.5.7.2,1a1.6,1.6,0,0,1-1.5.3c-.1.4.4.6.9.6a1.9,1.9,0,0,0,1.3-.5,1.8,1.8,0,0,0,.5-2.4,3.8,3.8,0,0,0-2.2-1.6,8.4,8.4,0,0,0-3.2-.2c.9,0,1.7.5,1.7,1.1a1.5,1.5,0,0,1-1.6,1.2c-.8.1-1.7-.4-1.7-1v-.5c0-.2-.1-.4-.3-.4a.8.8,0,0,0-.7.1c-2.7,1-4.7,3-4.9,5.1" style="fill:#336"/><path d="M99.3,201.9l.7.6,1,.5a4.6,4.6,0,0,0,2.3.5l.7-.2c.1-.1.1-.3,0-.3s-.3-.1-.2-.2.1-.1.2-.2a1.6,1.6,0,0,1,1,.2c.1.2.3.3.3.5a.3.3,0,0,1,0,.4l-.5.2H107c.6,0,1.2.4,1.2.8s.4-.3.3-.4,1.1.3,1.1.7-.5.8-1.1.8,0,.7-.5.9a2.8,2.8,0,0,1-2.2.1,2.2,2.2,0,0,1-.7-.6v-.2c-.1-.1-.1-.1.1-.1h.8c.4,0,.8-.3.5-.6a1.3,1.3,0,0,0-1-.4H104a5.2,5.2,0,0,1-2.3-.7l-.5-.3a1.2,1.2,0,0,0-1.3,0,.8.8,0,0,0-.2.5c-.1.2-.1.4-.3.6" style="fill:#336"/><polygon points="100.1 207.7 99.3 207.7 99.3 201.1 100 201.1 100.1 207.7" style="fill:#336"/><path d="M98.6,209.3c0,.8.3,1.5.7,1.4s.8-.6.8-1.5-.4-3.1-.8-3.1S98.6,208.4,98.6,209.3Z" style="fill:#336"/><path d="M26.2,126.8a12,12,0,0,1-1.9-11.1c.6-1.6,1.9-2.9,2.1-4.6a2.6,2.6,0,0,0-.7-2.1l1.4.4a1.7,1.7,0,0,1,.7,1.3,3.7,3.7,0,0,0-.9-4,7.4,7.4,0,0,1,2.1-.1,3.2,3.2,0,0,1,1.8,1,2.2,2.2,0,0,1,.2,2.1,1.8,1.8,0,0,1,1.4.2,8.6,8.6,0,0,1,5.6,5.7,2.5,2.5,0,0,0-1.7-.3c.5,1.2-.6,2.1-1.6,2.5a6.4,6.4,0,0,1-2,.3,2.3,2.3,0,0,0,.4-1.4,1.6,1.6,0,0,0-.7-1.1l-1.1-.3a3.9,3.9,0,0,0-2.9.9,4.2,4.2,0,0,0-1.3,1.6,6.6,6.6,0,0,0-.6,2,2.1,2.1,0,0,1,1.5-.7,1.5,1.5,0,0,1,1.3,1,2.4,2.4,0,0,0-1.6,1.5,6.2,6.2,0,0,0-.4,3.6c.3,1.1.9,2.3,2,2.5a3.6,3.6,0,0,1,.3-1.8c.2-.2.3-.5.6-.7s.6-.3.6-.4a3.6,3.6,0,0,0,1,3.7,5.2,5.2,0,0,0,6.1.9,3.8,3.8,0,0,0,1.6-2.3,2.5,2.5,0,0,0-1.1-2.4,2.1,2.1,0,0,1,1.9-.1,2,2,0,0,1,1.2,1.5,4.1,4.1,0,0,0-.5-4.5,4.3,4.3,0,0,0-2.1-1.4H37.6c-.4,0-1.1-.1-.9.4s.3.3.4.4a2.2,2.2,0,0,1,.3,1.4,2,2,0,0,1-.8,1.2,2,2,0,0,1-2.7-.4,2.8,2.8,0,0,1-.2-2.9,3.8,3.8,0,0,1,3.1-1.7,11.1,11.1,0,0,1,3.6.8,2.1,2.1,0,0,1,2.1-1.4,3.1,3.1,0,0,0-.1,1.9l.6,1.9a5.7,5.7,0,0,1,.3,1.8,11.1,11.1,0,0,1-.2,1.9,13.4,13.4,0,0,1-.7,1.8,8.6,8.6,0,0,1-1,1.6,7.6,7.6,0,0,1-7.3,2.7l-2.1-.6A11.6,11.6,0,0,1,26.2,126.8Zm-.4-9.7a1.8,1.8,0,0,1,.1-.5,1.4,1.4,0,0,1,.2-.6c0-.2.2-.4.3-.6a6.8,6.8,0,0,1,1.2-1.2l1.7-.8.9-.2H33c.3,0,.5-.2.3-.5s-.6-.3-.8-.4a5.8,5.8,0,0,0-1.9-.2h-.5l-1,.3a5.9,5.9,0,0,0-1.7,1l-.7.7-.5.7-.3.7c-.1.2-.1.5-.2.6v.5Z" style="fill:#336"/><path d="M41.9,128.3a5,5,0,0,0,1.4-1.5l.4-.9a.9.9,0,0,0,.1-.5v-.3a.8.8,0,0,1,.4.4,2.1,2.1,0,0,1,.7,1.1,1.7,1.7,0,0,1-.1,1.2,1.1,1.1,0,0,0-.3.7c.1.4.6.2.8.2h1.1l2.1.4a16.7,16.7,0,0,1,2.3,1.2l.5.3a10.3,10.3,0,0,1,2.5,3c.5,1.1.5,2.7,1.6,3.4a1.7,1.7,0,0,0,1.8.2,5.2,5.2,0,0,1-1.1,1,1.3,1.3,0,0,1-1.2.1,1.9,1.9,0,0,0,1.4.9,2.9,2.9,0,0,0,1.8-.3,7.6,7.6,0,0,1-.9,1.8,3.8,3.8,0,0,1-1.6,1.2,1.8,1.8,0,0,1-1.7-.6,2.8,2.8,0,0,1-.8,1.2,9.8,9.8,0,0,1-3.6,2l-2.1.2a8,8,0,0,1-2.1-.5,3,3,0,0,0,1.3-1.2c-1.3-.2-1.3-1.8-.9-2.8a6.2,6.2,0,0,1,1.1-1.7,1.4,1.4,0,0,0,.7,1.1,1.2,1.2,0,0,0,1.3.1,2.8,2.8,0,0,0,.9-.7,6.2,6.2,0,0,0,1.2-2.6,4.9,4.9,0,0,0-.9-3.3,1.8,1.8,0,0,1-.6,1.4,1.4,1.4,0,0,1-1.5.4,2.6,2.6,0,0,0,.3-1.9,4.1,4.1,0,0,0-1.5-2.5,2.5,2.5,0,0,0-2.7-.6,3.9,3.9,0,0,1,.6,1.5,1.9,1.9,0,0,1-.2.7c0,.2-.3.6-.3.7a3,3,0,0,0-2.5-2.1,4.8,4.8,0,0,0-3.5.5,4.8,4.8,0,0,0-2.1,1.9,6.4,6.4,0,0,0-.7,3.1c0,1.1.3,2.2.4,3.3a2.6,2.6,0,0,1-2.4-2,7.4,7.4,0,0,1,.2-3.3,7,7,0,0,1,4.9-4.8l2-.5A3.7,3.7,0,0,0,41.9,128.3Zm10.3,5.8.2.4.2.3c0,.2.1.4.1.6a3.3,3.3,0,0,1,0,1.4,4.8,4.8,0,0,1-.5,1.7,2,2,0,0,1-.4.8l-.2.4-.9,1.1-.3.4-.4.3c-.1.2-.1.5.2.4a1.8,1.8,0,0,0,.8-.5,8.1,8.1,0,0,0,1.2-1.4.8.8,0,0,1,.2-.4l.4-.9a6.8,6.8,0,0,0,.3-1.9V136c0-.3-.1-.5-.1-.7l-.3-.5-.2-.4-.3-.3Z" style="fill:#336"/><path d="M68,191.5a4.3,4.3,0,0,0-1.6,1.4,3,3,0,0,0-.4,1v.9l-.8-.6a5.3,5.3,0,0,1-1.2-1.4,1.7,1.7,0,0,1,0-1.4.8.8,0,0,0,.3-.8c-.1-.4-.8-.3-1.2-.4l-1.5-.4a18.3,18.3,0,0,1-2.8-1.4,13.5,13.5,0,0,1-3.2-2.6l-.5-.6a10.6,10.6,0,0,1-2.7-5.1c-.4-1.7.1-3.3-.7-5a3.4,3.4,0,0,0-2-1.7,4.3,4.3,0,0,1,1.6-.1,1.8,1.8,0,0,1,1.5.8,4.4,4.4,0,0,0-1.1-2,5.5,5.5,0,0,0-2.1-1.2,6.9,6.9,0,0,1,1.9-1,3.1,3.1,0,0,1,2.3.2,2.5,2.5,0,0,1,1.5,1.7,2,2,0,0,1,1.4-.4,13.2,13.2,0,0,1,4.8.4,12.8,12.8,0,0,1,4.3,2.3,3.8,3.8,0,0,0-1.9.5c1.4.8.9,2.3.2,3.1a4,4,0,0,1-1.9,1.1c.2-.4,0-.9-.4-1.4a2.6,2.6,0,0,0-1.5-.7,1.7,1.7,0,0,0-1.2.2,4.2,4.2,0,0,0-2.3,2,4.6,4.6,0,0,0,.3,4.1,1.6,1.6,0,0,1,1.1-1.2,2.2,2.2,0,0,1,1.9.3,2.1,2.1,0,0,0-.7,2,5.6,5.6,0,0,0,1.9,3.5c.9.9,2.3,1.8,3.6,1.5a3.3,3.3,0,0,1-.8-1.8,2.4,2.4,0,0,1,.2-.8l.4-.6a5,5,0,0,0,3.4,2.9,8,8,0,0,0,4.6,0,4.3,4.3,0,0,0,2.6-1.8c.1-.2.3-.5.6-.5a1.3,1.3,0,0,1,1,.3c.2.1.5.2.6.4s-1.2,1.8-1.7,2.1a8.3,8.3,0,0,1-3.2,1.3,24.8,24.8,0,0,0-2.7.3A6,6,0,0,0,68,191.5ZM54.6,180.8l-.2-.5c0-.2-.1-.4-.1-.6V179a3.7,3.7,0,0,1,.5-1.6A5.3,5.3,0,0,1,56,176l.8-.5.4-.3,1.3-.5.6-.2h.5c.3-.1.4-.4,0-.5h-1a5.3,5.3,0,0,0-1.9.6l-.5.3-.8.7a6.2,6.2,0,0,0-1.1,1.7l-.3.9v.8a1.9,1.9,0,0,0,.1.8,1.4,1.4,0,0,0,.2.6l.2.5Z" style="fill:#336"/><path d="M28.9,152.7a3.1,3.1,0,0,0-1.6,1.2l-.6,1a4.3,4.3,0,0,1-.1.5v.5l-.5-.8a5.6,5.6,0,0,1-.7-1.8,2.4,2.4,0,0,1,.3-1.5c.2-.2.5-.4.4-.8s-.5-.6-.8-.7l-1.2-.8a9.8,9.8,0,0,1-2.1-2,14.5,14.5,0,0,1-2-3.4l-.4-.8a15.9,15.9,0,0,1-1-6.1,13.1,13.1,0,0,1,.6-2.7,8.8,8.8,0,0,0,.2-2.8,3.9,3.9,0,0,0-1.2-2.3,3.6,3.6,0,0,1,1.4.2,2.1,2.1,0,0,1,1.1,1.3,5,5,0,0,0-1.9-4.2,3.5,3.5,0,0,1,1.9-.6,2.8,2.8,0,0,1,2.8,3,1.7,1.7,0,0,1,1.4-.1,10.1,10.1,0,0,1,7.1,5.3,2.5,2.5,0,0,0-1.7,0c.9,1.2,0,2.5-.9,3.2a5.4,5.4,0,0,1-1.9.7,2.2,2.2,0,0,0,0-1.6,2.4,2.4,0,0,0-1-1.2H25.2a3.8,3.8,0,0,0-2.5,1.6,4.6,4.6,0,0,0-.9,2,9.6,9.6,0,0,0,0,2.4,2.1,2.1,0,0,1,1.2-1.1,1.6,1.6,0,0,1,1.6.9,2.5,2.5,0,0,0-1.1,1.9,7.5,7.5,0,0,0,.7,4.1c.6,1.2,1.5,2.4,2.7,2.4a3.5,3.5,0,0,1-.2-2,3.2,3.2,0,0,1,.3-.9l.5-.5a4.9,4.9,0,0,0,2.1,3.8,5.6,5.6,0,0,0,3.8,1.1,4.2,4.2,0,0,0,2.7-1.2c.2-.2.3-.4.6-.4s.6.3.8.5l.4.6c.2.8-1.5,1.5-2,1.8a9.4,9.4,0,0,1-3,.5,18.1,18.1,0,0,0-2.3-.3A3.3,3.3,0,0,0,28.9,152.7Zm-8.6-14.3v-1.2a2.4,2.4,0,0,1,.2-.8,4,4,0,0,1,.8-1.6,6.1,6.1,0,0,1,1.5-1.2l.8-.4h.5l1.3-.2h1.1a.3.3,0,0,0,.1-.5,1.4,1.4,0,0,0-.9-.3,4,4,0,0,0-1.9.2h-.5l-.9.6a6.7,6.7,0,0,0-1.4,1.5,4.1,4.1,0,0,0-.5.9l-.3.9c0,.3-.1.6-.1.8v.7a2.8,2.8,0,0,1,.1.6Z" style="fill:#336"/><path d="M68.5,169.9a23.8,23.8,0,0,1,2,3.9c.4,1,.7,2,1,3a2.4,2.4,0,0,0,1.8,1.7,3.4,3.4,0,0,0,2.4-.4c-.8.5-1,1.3-1.5,1.9a3.9,3.9,0,0,1-2.6,1.1,3.4,3.4,0,0,1-2.7-1.2c-.8-1-.2-2-.2-3.1a8.6,8.6,0,0,0-.9-3.5,16.5,16.5,0,0,0-1.5-2.5,12.9,12.9,0,0,0-2.1-1.9,6.3,6.3,0,0,0-2.7-1,5.4,5.4,0,0,0-2.8.2c.2,0,.4-.8.5-1l.9-.9a4.9,4.9,0,0,1,2.3-.8c-.4-1.6-2-2.2-3.5-2.5a8.5,8.5,0,0,0-5,.5,3.6,3.6,0,0,0-2.2,2.3,2.5,2.5,0,0,1-1.3-2.3,3,3,0,0,1,1.2-2.1,15.7,15.7,0,0,0-3,.5,6.2,6.2,0,0,0-2.5,1.4,6.1,6.1,0,0,0-1.9,4.1,2.9,2.9,0,0,0,.3,1.8,3.5,3.5,0,0,0,1.9,1.7,2.5,2.5,0,0,0,2.1-.3,8.5,8.5,0,0,1-.3,3.2c-.6,1.6-2.2,3.2-4.4,1.6a4.8,4.8,0,0,0,.7,3,16.5,16.5,0,0,1-3.6-2.2,27,27,0,0,1-2.8-3.1,16.2,16.2,0,0,1-2-3.6,12.5,12.5,0,0,1-.9-3.7,3.1,3.1,0,0,1,.3-2.2,4.8,4.8,0,0,1-3-2.1,4.9,4.9,0,0,1-.4-3.5,6.7,6.7,0,0,1,1.4-2.8,6.1,6.1,0,0,0,1.9,2.9,5.5,5.5,0,0,0,3,1.4,3.2,3.2,0,0,1-1.4-2,5.8,5.8,0,0,1,.2-2.3,3.8,3.8,0,0,0,.9,1.5,5.4,5.4,0,0,0,1.6,1c2.4.8,4.7-.5,7-.7h3.6a20.9,20.9,0,0,1,3.6.7l.9.2a20.9,20.9,0,0,1,4.1,1.7,16.4,16.4,0,0,1,2.6,2l1.2,1.1c.2.3.6,1,1.1.8s.5-.7.7-1.1a2.5,2.5,0,0,1,1.4-1.3,3.5,3.5,0,0,1,2-.3h1l-.4.4-.5.6a10.1,10.1,0,0,0-.7,1.5,5.7,5.7,0,0,0-.4,2.9C67,167.5,67.8,168.6,68.5,169.9ZM48,159.4H46.4l-1,.2-1.2.4-1.2.7a8.4,8.4,0,0,0-2.1,2.1,6.1,6.1,0,0,0-.7,1.4l-.3.7a6.1,6.1,0,0,0-.2,3,3,3,0,0,0,.5,1.6c.3.5.7.2.7-.2a2.5,2.5,0,0,0-.1-.8v-.9a16.6,16.6,0,0,1,.3-2.2c0-.2.1-.4.1-.6a4.2,4.2,0,0,1,.6-1.4,7.2,7.2,0,0,1,1.7-2.2,7.1,7.1,0,0,1,2-1.2l1-.3H48Z" style="fill:#336"/><path d="M94.5,182l1.6,1.7a6.6,6.6,0,0,1,1.2,7.6,7.7,7.7,0,0,1-3.4,3l-2.5.8a8.2,8.2,0,0,1-2.7.2l-3.1-.2a6.9,6.9,0,0,0-2.9.2c-.4-.9.3-1.8,1.4-2.1a10.8,10.8,0,0,1-2-3.6,3.1,3.1,0,0,1,1.4-3.3,3.9,3.9,0,0,1,3.5-.2,2.2,2.2,0,0,1,1.4,2.6,2.5,2.5,0,0,1-3.1.9,1.5,1.5,0,0,0-.7-.3c-.7-.1-.4.6-.3.9a3.8,3.8,0,0,0,.6,1.3,5.7,5.7,0,0,0,2.6,1.9,7.1,7.1,0,0,0,6.4-.8,3.9,3.9,0,0,1-2.6-.6,2,2,0,0,1-.7-2,3.6,3.6,0,0,0,3.5.3,2.8,2.8,0,0,0,1.8-2.4,4.5,4.5,0,0,0-.8-2.7,6.4,6.4,0,0,0-3-2.6,5.4,5.4,0,0,0-2.2-.4,3.5,3.5,0,0,0-2,.5,6.9,6.9,0,0,0,.3-.8l.5-.6a2.7,2.7,0,0,1,1.6-.8c-.4-1.1-1.7-1.3-2.9-1.3a7,7,0,0,0-3.5.9c-.7.5-1.3,1-1.3,1.8a1.6,1.6,0,0,1-1.2-1.3,1.7,1.7,0,0,1,.6-1.5,6.5,6.5,0,0,0-2.1.7,4.8,4.8,0,0,0-1.6,1.2,3.8,3.8,0,0,0-.9,2.9,1.5,1.5,0,0,0,.4,1.1,2,2,0,0,0,1.4.8,2.2,2.2,0,0,0,1.6-.4,7.4,7.4,0,0,1,0,2.1,2.2,2.2,0,0,1-3.1,1.5,2.7,2.7,0,0,0,.7,1.8,10.8,10.8,0,0,1-2.7-1l-2.2-1.6a8.9,8.9,0,0,1-2.6-4,1.9,1.9,0,0,1,0-1.5,2.9,2.9,0,0,1-2.3-.8,2.7,2.7,0,0,1-.8-2,4.8,4.8,0,0,1,.7-2,4.1,4.1,0,0,0,3.9,1.9,1.9,1.9,0,0,1-1.2-1.1,3.2,3.2,0,0,1-.2-1.4,2.6,2.6,0,0,0,2.1,1.1c1.8.1,3.2-1,4.7-1.5a11.9,11.9,0,0,1,2.6-.5,11.1,11.1,0,0,1,2.6-.1h.7a16.5,16.5,0,0,1,3.2.7l1.2.4,1.1.5,1,.7c.2.2.6.6.9.4s.3-.5.4-.8a2.3,2.3,0,0,1,.9-1.1l1.5-.4h.7l-.2.3-.3.4a4.9,4.9,0,0,0-.4,1.1,4.6,4.6,0,0,0,.1,2A5.1,5.1,0,0,0,94.5,182Zm-15.4-3.7H78l-.7.3-.8.4-.7.6a5.2,5.2,0,0,0-1.2,1.7l-.4.9a4.3,4.3,0,0,1-.1.5,3.1,3.1,0,0,0,.2,1.9,1.8,1.8,0,0,0,.4,1,.4.4,0,0,0,.6-.3c-.1-.1-.1-.3-.2-.4a1.3,1.3,0,0,0-.1-.6v-1.9l.3-.9a5.1,5.1,0,0,1,.9-1.6,3.3,3.3,0,0,1,1.3-1.1l.6-.3.5-.2h.5Z" style="fill:#336"/><path d="M54,150.8a2.1,2.1,0,0,0-1.3-.7,5,5,0,0,0-.4-1.3,3.6,3.6,0,0,0-.8-1.2,3.1,3.1,0,0,0-1.1-.9l-1.3-.5a3.9,3.9,0,0,0-2.4.2,3,3,0,0,0-1.5,1.8,2.3,2.3,0,0,0,.8,2.3,1.7,1.7,0,0,0,1.5.4,1.1,1.1,0,0,0,1-.9,1.1,1.1,0,0,0-.5-1.3.9.9,0,0,0-1.3.2.8.8,0,0,1,.3-1.2,1.5,1.5,0,0,1,1.3.1,3.7,3.7,0,0,1,2,2.8,5.6,5.6,0,0,1-.6,3.1,4.1,4.1,0,0,1-2.5,1.8,1.6,1.6,0,0,0,.6-2.1,1.9,1.9,0,0,0-2.1-1,1.6,1.6,0,0,0-.8,2.2,4.3,4.3,0,0,1,.4.7c.1.2.1.5-.1.6s-.4.2-.6.2a11.2,11.2,0,0,1-3.5-1.2,10.6,10.6,0,0,1-2.9-2.7,1.4,1.4,0,0,1,.1-1.7,4.4,4.4,0,0,1,1.8-1.5h.6a.4.4,0,0,1,.4.4c0,.1-.1.2,0,.4s.5.2.7,0a.9.9,0,0,0,.3-1,1.4,1.4,0,0,0-.7-1,3.5,3.5,0,0,0,1.7-.6,1.7,1.7,0,0,0,.7-1.5.4.4,0,0,1,.4.4,1,1,0,0,0,.6-1.3,1.2,1.2,0,0,0-1.2-.8,1.8,1.8,0,0,0-2-1.1,1.6,1.6,0,0,0-1,2c.4-.1.9-.3,1.2,0a.9.9,0,0,1-.1,1.3c-.4.4-.9.4-1.4.6a3,3,0,0,0-1.8,1.7l-.4.6a.6.6,0,0,1-.6.3c-.4-.1-.6-.7-.6-1.2a3.5,3.5,0,0,1,1-2.1l1.4-1.8a3.1,3.1,0,0,0,.4-2.3,1.7,1.7,0,0,0-1.9-1.2,1.5,1.5,0,0,0,.1-1.3,1.9,1.9,0,0,0-.7-1.1c-.7-.5-1.7-.4-2.3-1.1s-.2-.7-.4-1.1a1,1,0,0,0-.8-.6c-.3.1-.4.6-.5,1a30.8,30.8,0,0,0,.3,5.2,23.8,23.8,0,0,0,.5,2.6l.3,1.3.4,1.3.8,2.3,1.1,2.2.7,1a8.6,8.6,0,0,0,.7,1,9.8,9.8,0,0,0,1.7,1.8l1.3,1,.8.4a8.7,8.7,0,0,0,3.9.7l2-.4a8.9,8.9,0,0,0,4.8-3.7c.3-.4.5-.8.9-1l.4-.2A.9.9,0,0,0,54,150.8Z" style="fill:#336"/><path d="M165.8,130.9l-2.1.6a7.6,7.6,0,0,1-7.3-2.7,8.6,8.6,0,0,1-1-1.6,13.4,13.4,0,0,1-.7-1.8,11.1,11.1,0,0,1-.2-1.9,5.7,5.7,0,0,1,.3-1.8l.6-1.9a3.1,3.1,0,0,0-.1-1.9,2.1,2.1,0,0,1,2.1,1.4,11.1,11.1,0,0,1,3.6-.8,3.7,3.7,0,0,1,3.1,1.7,2.8,2.8,0,0,1-.2,2.9,2,2,0,0,1-2.7.4,1.5,1.5,0,0,1-.7-1.2,1.7,1.7,0,0,1,.2-1.4.8.8,0,0,0,.4-.4c.2-.5-.5-.4-.8-.4h-1.4a4.3,4.3,0,0,0-2.1,1.4,4.1,4.1,0,0,0-.5,4.5,2,2,0,0,1,1.2-1.5,2.3,2.3,0,0,1,2,.1,2.6,2.6,0,0,0-1.2,2.4,3.8,3.8,0,0,0,1.6,2.3,5.2,5.2,0,0,0,6.1-.9,3.6,3.6,0,0,0,1-3.7c0,.1.6.3.7.4l.5.7a3.6,3.6,0,0,1,.3,1.8c1.1-.2,1.7-1.4,2-2.5a6.2,6.2,0,0,0-.4-3.6,2.4,2.4,0,0,0-1.6-1.5,1.5,1.5,0,0,1,1.3-1,2.1,2.1,0,0,1,1.5.7,6.6,6.6,0,0,0-.6-2,3.4,3.4,0,0,0-1.3-1.6,3.8,3.8,0,0,0-2.9-.9l-1.1.3a2.1,2.1,0,0,0-.7,1.1,1.9,1.9,0,0,0,.5,1.4,7.1,7.1,0,0,1-2.1-.3c-1-.4-2.1-1.3-1.6-2.5a2.5,2.5,0,0,0-1.7.3,8.8,8.8,0,0,1,5.6-5.7,1.8,1.8,0,0,1,1.4-.2,2.2,2.2,0,0,1,.2-2.1,3.2,3.2,0,0,1,1.8-1,7.4,7.4,0,0,1,2.1.1,3.7,3.7,0,0,0-.9,4,1.7,1.7,0,0,1,.7-1.3l1.4-.4a3,3,0,0,0-.7,2.1c.2,1.7,1.5,3,2.1,4.6a12,12,0,0,1-1.9,11.1A11.6,11.6,0,0,1,165.8,130.9Zm6.3-13.9v-.5c-.1-.1-.1-.4-.2-.6l-.3-.7-.5-.7-.6-.7a8.1,8.1,0,0,0-1.8-1l-1-.3h-.5a6.2,6.2,0,0,0-1.9.2,3,3,0,0,0-.8.4c-.2.3,0,.5.3.5h2.8l.9.2,1.7.8a6.8,6.8,0,0,1,1.2,1.2c.1.2.3.4.3.6a1.4,1.4,0,0,1,.2.6l.2.5Z" style="fill:#336"/><path d="M157.3,129l2,.5a7,7,0,0,1,4.9,4.8,6.2,6.2,0,0,1,.2,3.3,2.6,2.6,0,0,1-2.4,2c.1-1.1.4-2.2.4-3.3a6.4,6.4,0,0,0-.7-3.1,4.3,4.3,0,0,0-2.1-1.9,4.8,4.8,0,0,0-3.5-.5,3,3,0,0,0-2.5,2.1c0-.1-.3-.5-.3-.7a.9.9,0,0,1-.1-.7,2.7,2.7,0,0,1,.5-1.5,2.5,2.5,0,0,0-2.7.6,4.6,4.6,0,0,0-1.5,2.5,2.6,2.6,0,0,0,.3,1.9,1.4,1.4,0,0,1-1.5-.4,1.8,1.8,0,0,1-.6-1.4,4.9,4.9,0,0,0-.9,3.3,6.2,6.2,0,0,0,1.2,2.6,2.8,2.8,0,0,0,.9.7,1.2,1.2,0,0,0,1.3-.1,1.4,1.4,0,0,0,.7-1.1,6.2,6.2,0,0,1,1.1,1.7c.4,1,.4,2.6-.9,2.8a3,3,0,0,0,1.3,1.2,8,8,0,0,1-2.1.5l-2-.2a9.5,9.5,0,0,1-3.7-2,2.8,2.8,0,0,1-.8-1.2,1.8,1.8,0,0,1-1.7.6,3.8,3.8,0,0,1-1.6-1.2,7.6,7.6,0,0,1-.9-1.8,2.9,2.9,0,0,0,1.8.3,2.4,2.4,0,0,0,1.5-.9,1.5,1.5,0,0,1-1.3-.1l-1.1-1a1.6,1.6,0,0,0,1.8-.2c1.1-.7,1.1-2.3,1.6-3.4a10.3,10.3,0,0,1,2.5-3l.5-.3a16.7,16.7,0,0,1,2.3-1.2l2.1-.4h1.1c.2,0,.7.2.8-.2a1.1,1.1,0,0,0-.3-.7,1.7,1.7,0,0,1-.1-1.2,2.1,2.1,0,0,1,.7-1.1.8.8,0,0,1,.4-.4v.3c0,.2.1.3.1.5l.4.9a5,5,0,0,0,1.4,1.5A3.7,3.7,0,0,0,157.3,129Zm-11.7,5.1-.3.3-.2.4-.3.5c0,.2-.1.4-.1.7v.8a6.8,6.8,0,0,0,.3,1.9l.4.9a.8.8,0,0,1,.2.4,8.1,8.1,0,0,0,1.2,1.4,1.8,1.8,0,0,0,.8.5c.3.1.3-.2.2-.4l-.4-.3-.3-.4-.9-1.1-.2-.4a2,2,0,0,1-.4-.8,4.8,4.8,0,0,1-.5-1.7,3.3,3.3,0,0,1,0-1.4c0-.2.1-.4.1-.6l.2-.3.2-.4Z" style="fill:#336"/><path d="M127.9,190.9a24.8,24.8,0,0,0-2.7-.3,8.3,8.3,0,0,1-3.2-1.3c-.5-.3-2.2-1.5-1.7-2.1s.4-.3.6-.4a1.3,1.3,0,0,1,1-.3c.3,0,.5.3.6.5a4.3,4.3,0,0,0,2.6,1.8,8,8,0,0,0,4.6,0,5,5,0,0,0,3.4-2.9l.4.6a2.4,2.4,0,0,1,.2.8,2.7,2.7,0,0,1-.8,1.8,4.1,4.1,0,0,0,3.6-1.5,5.6,5.6,0,0,0,1.9-3.5,2.1,2.1,0,0,0-.7-2,2.4,2.4,0,0,1,2-.3,1.7,1.7,0,0,1,1,1.2,4.6,4.6,0,0,0,.3-4.1,3.8,3.8,0,0,0-2.3-2,1.6,1.6,0,0,0-1.2-.2,2.6,2.6,0,0,0-1.5.7,1.6,1.6,0,0,0-.4,1.4,4,4,0,0,1-1.9-1.1c-.7-.8-1.2-2.3.2-3.1a3.8,3.8,0,0,0-1.9-.5,12.4,12.4,0,0,1,4.4-2.3,12.5,12.5,0,0,1,4.7-.4,2,2,0,0,1,1.4.4,2.5,2.5,0,0,1,1.5-1.7,3.1,3.1,0,0,1,2.3-.2,6.9,6.9,0,0,1,1.9,1,5.5,5.5,0,0,0-2.1,1.2,4.4,4.4,0,0,0-1.1,2,1.8,1.8,0,0,1,1.5-.8,4.3,4.3,0,0,1,1.6.1,3.4,3.4,0,0,0-2,1.7c-.8,1.7-.3,3.3-.7,5a10.6,10.6,0,0,1-2.7,5.1l-.5.6a13.5,13.5,0,0,1-3.2,2.6,18.3,18.3,0,0,1-2.8,1.4l-1.5.4c-.4.1-1.1,0-1.2.4a.8.8,0,0,0,.3.8,1.7,1.7,0,0,1,0,1.4,5.3,5.3,0,0,1-1.2,1.4l-.7.6c-.1,0-.1-.4-.1-.4v-.5a3,3,0,0,0-.4-1,4.3,4.3,0,0,0-1.6-1.4A6,6,0,0,0,127.9,190.9Zm15.4-10.1.2-.5a1.4,1.4,0,0,0,.2-.6,1.9,1.9,0,0,0,.1-.8v-.8l-.3-.9a4.5,4.5,0,0,0-1.1-1.7l-.8-.7-.4-.3a5.9,5.9,0,0,0-2-.6h-1c-.4.1-.3.4,0,.5h.5l.6.2,1.3.5.4.3.8.5a5.3,5.3,0,0,1,1.2,1.4,3.7,3.7,0,0,1,.5,1.6v.7c0,.2-.1.4-.1.6l-.2.5Z" style="fill:#336"/><path d="M167.2,152.5a18.1,18.1,0,0,0-2.3.3,9.4,9.4,0,0,1-3-.5c-.5-.3-2.2-1-2-1.8l.4-.6c.2-.2.5-.5.8-.5a.7.7,0,0,1,.6.4,4.2,4.2,0,0,0,2.7,1.2,5.6,5.6,0,0,0,3.8-1.1,4.9,4.9,0,0,0,2.1-3.8l.5.5a1.6,1.6,0,0,1,.3.9,4.6,4.6,0,0,1-.1,2c1.1,0,2-1.2,2.6-2.4a7.5,7.5,0,0,0,.7-4.1,2.5,2.5,0,0,0-1.1-1.9,1.6,1.6,0,0,1,1.6-.9,1.9,1.9,0,0,1,1.2,1.1,9.6,9.6,0,0,0,0-2.4,4.6,4.6,0,0,0-.9-2,3.8,3.8,0,0,0-2.5-1.6h-1.2a2.4,2.4,0,0,0-1,1.2,2.2,2.2,0,0,0,0,1.6,5.4,5.4,0,0,1-1.9-.7c-.9-.7-1.8-2-.9-3.2a2.5,2.5,0,0,0-1.7,0A10.1,10.1,0,0,1,173,129a1.7,1.7,0,0,1,1.4.1,2.5,2.5,0,0,1,.8-2.2,2.7,2.7,0,0,1,2-.8,3.5,3.5,0,0,1,1.9.6,5,5,0,0,0-1.9,4.2,2.1,2.1,0,0,1,1.1-1.3,3.6,3.6,0,0,1,1.4-.2,3.9,3.9,0,0,0-1.2,2.3,8.8,8.8,0,0,0,.2,2.8,13.1,13.1,0,0,1,.6,2.7,15.9,15.9,0,0,1-1,6.1l-.3.8a19.4,19.4,0,0,1-2.1,3.4,9.8,9.8,0,0,1-2.1,2l-1.2.8c-.3.1-.8.2-.8.7s.2.6.4.8a2.4,2.4,0,0,1,.3,1.5,5.6,5.6,0,0,1-.7,1.8l-.5.8v-.5a4.3,4.3,0,0,1-.1-.5l-.6-1a3.1,3.1,0,0,0-1.6-1.2A3.2,3.2,0,0,0,167.2,152.5Zm10.4-14.1a2.8,2.8,0,0,1,.1-.6v-.7c0-.2-.1-.5-.1-.8l-.3-.9a4.1,4.1,0,0,0-.5-.9,6.7,6.7,0,0,0-1.4-1.5l-.9-.6H174a4,4,0,0,0-1.9-.2,1.4,1.4,0,0,0-.9.3c-.3.2-.1.5.2.5h1l1.3.2h.5l.8.4a6.1,6.1,0,0,1,1.5,1.2,4,4,0,0,1,.8,1.6,2.4,2.4,0,0,1,.2.8v1.2Z" style="fill:#336"/><path d="M131,166.1a7.1,7.1,0,0,0-.5-2.9,10.1,10.1,0,0,0-.7-1.5l-.5-.6-.4-.4h1a3.5,3.5,0,0,1,2,.3,2.3,2.3,0,0,1,1.4,1.3c.2.4.3.9.7,1.1s.9-.5,1.1-.8l1.2-1.1a16.4,16.4,0,0,1,2.6-2,20.9,20.9,0,0,1,4.1-1.7l.9-.2a22.9,22.9,0,0,1,3.6-.7h3.6c2.3.2,4.6,1.5,7,.7a5.4,5.4,0,0,0,1.6-1,3.8,3.8,0,0,0,.9-1.5,5.8,5.8,0,0,1,.2,2.3,3.2,3.2,0,0,1-1.4,2,5.5,5.5,0,0,0,3-1.4,6.1,6.1,0,0,0,1.9-2.9,8.4,8.4,0,0,1,1.5,2.8,5.6,5.6,0,0,1-.5,3.5,4.6,4.6,0,0,1-3,2.1,3.1,3.1,0,0,1,.3,2.2,12.5,12.5,0,0,1-.9,3.7,20.9,20.9,0,0,1-1.9,3.6c-.9,1.1-1.9,2.1-2.9,3.1a16.5,16.5,0,0,1-3.6,2.2,4.8,4.8,0,0,0,.7-3c-2.2,1.6-3.8,0-4.4-1.6a8.5,8.5,0,0,1-.3-3.2,2.5,2.5,0,0,0,2.1.3,3.5,3.5,0,0,0,1.9-1.7,2.9,2.9,0,0,0,.3-1.8,6.1,6.1,0,0,0-1.9-4.1,6.2,6.2,0,0,0-2.5-1.4,14.5,14.5,0,0,0-3-.5,2.7,2.7,0,0,1,1.2,2.1,2.3,2.3,0,0,1-1.3,2.3,3.6,3.6,0,0,0-2.2-2.3,8.5,8.5,0,0,0-5-.5c-1.5.3-3.1.9-3.5,2.5a4.5,4.5,0,0,1,2.3.8l.9.9c.1.2.3,1,.5,1a5.4,5.4,0,0,0-2.8-.2,6.3,6.3,0,0,0-2.7,1,12.9,12.9,0,0,0-2.1,1.9,16.5,16.5,0,0,0-1.5,2.5,8.6,8.6,0,0,0-.9,3.5c0,1.1.6,2.1-.2,3.1a3.4,3.4,0,0,1-2.7,1.2,3.9,3.9,0,0,1-2.6-1.1c-.5-.6-.7-1.4-1.5-1.9a3.4,3.4,0,0,0,2.4.4,2.4,2.4,0,0,0,1.8-1.7c.3-1,.6-2,1-3a23.8,23.8,0,0,1,2-3.9A11.7,11.7,0,0,0,131,166.1Zm18.8-6.6h1.5l1,.3a5.9,5.9,0,0,1,2,1.2,9.6,9.6,0,0,1,1.8,2.2,7.8,7.8,0,0,1,.5,1.4c0,.2.1.4.1.6a8.3,8.3,0,0,1,.3,2.2v.9c0,.3-.1.6-.1.8s.4.7.7.2a3,3,0,0,0,.5-1.6,6.1,6.1,0,0,0-.2-3l-.3-.7a6.1,6.1,0,0,0-.7-1.4,8.4,8.4,0,0,0-2.1-2.1l-1.2-.7-1.2-.4-1-.2h-1.6Z" style="fill:#336"/><path d="M104.1,180.5a6.7,6.7,0,0,0,0-2,4.9,4.9,0,0,0-.4-1.1l-.3-.4-.2-.3h.7l1.5.4a2.3,2.3,0,0,1,.9,1.1c.1.3.1.6.4.8s.7-.2.9-.4l1-.7,1.1-.5,1.2-.4a16.5,16.5,0,0,1,3.2-.7h.7a11.1,11.1,0,0,1,2.6.1,11.9,11.9,0,0,1,2.6.5c1.5.5,2.9,1.6,4.7,1.5a2.6,2.6,0,0,0,2.1-1.1,3.2,3.2,0,0,1-.2,1.4,1.9,1.9,0,0,1-1.2,1.1,4,4,0,0,0,3.9-1.9,4.8,4.8,0,0,1,.7,2,2.7,2.7,0,0,1-.8,2,2.9,2.9,0,0,1-2.3.8,1.9,1.9,0,0,1,0,1.5,8.9,8.9,0,0,1-2.6,4,12.5,12.5,0,0,1-2.2,1.6,11.7,11.7,0,0,1-2.6,1,3.2,3.2,0,0,0,.6-1.8,2.1,2.1,0,0,1-3-1.5,5,5,0,0,1-.1-2.1,2.2,2.2,0,0,0,1.6.4,2,2,0,0,0,1.4-.8,1.5,1.5,0,0,0,.4-1.1,3.8,3.8,0,0,0-.9-2.9,4.8,4.8,0,0,0-1.6-1.2,6.5,6.5,0,0,0-2.1-.7,1.7,1.7,0,0,1,.6,1.5,1.6,1.6,0,0,1-1.2,1.3c0-.8-.6-1.3-1.2-1.8a7.7,7.7,0,0,0-3.6-.9c-1.2,0-2.4.2-2.9,1.3a2.7,2.7,0,0,1,1.6.8l.5.6a6.9,6.9,0,0,0,.3.8,3.5,3.5,0,0,0-2-.5,4.6,4.6,0,0,0-2.1.4,6.2,6.2,0,0,0-3.1,2.6,4.5,4.5,0,0,0-.8,2.7,2.8,2.8,0,0,0,1.8,2.4,3.6,3.6,0,0,0,3.5-.3,2,2,0,0,1-.7,2,3.9,3.9,0,0,1-2.6.6,7.1,7.1,0,0,0,6.4.8,5.7,5.7,0,0,0,2.6-1.9,3.8,3.8,0,0,0,.6-1.3c.1-.3.4-1-.3-.9a1.5,1.5,0,0,0-.7.3,2.5,2.5,0,0,1-3.1-.9,2.2,2.2,0,0,1,1.4-2.6,3.9,3.9,0,0,1,3.5.2,3.1,3.1,0,0,1,1.4,3.3,9.3,9.3,0,0,1-2,3.6c1.1.3,1.8,1.2,1.4,2.1a6.9,6.9,0,0,0-2.9-.2l-3.1.2a8.2,8.2,0,0,1-2.7-.2l-2.5-.8a7.7,7.7,0,0,1-3.4-3,6.6,6.6,0,0,1,1.2-7.6l1.6-1.7A5.5,5.5,0,0,0,104.1,180.5Zm14.6-2.1h.5l.5.2.6.3a3.3,3.3,0,0,1,1.3,1.1,5.1,5.1,0,0,1,.9,1.6l.3.9v1.9a1.3,1.3,0,0,0-.1.6c-.1.1-.1.3-.2.4a.4.4,0,0,0,.6.3,3.1,3.1,0,0,0,.5-1,4.1,4.1,0,0,0,.1-1.9,4.3,4.3,0,0,1-.1-.5,3.6,3.6,0,0,0-.4-.9,5.2,5.2,0,0,0-1.2-1.7l-.7-.6-.8-.4-.7-.3h-1.1Z" style="fill:#336"/><path d="M143.8,150.8a2.1,2.1,0,0,1,1.3-.7,5,5,0,0,1,.4-1.3,3.6,3.6,0,0,1,.8-1.2,3.1,3.1,0,0,1,1.1-.9l1.3-.5a3.9,3.9,0,0,1,2.4.2,3,3,0,0,1,1.5,1.8,2.3,2.3,0,0,1-.8,2.3,1.7,1.7,0,0,1-1.5.4,1.1,1.1,0,0,1-1-.9,1.2,1.2,0,0,1,.5-1.3.9.9,0,0,1,1.3.2.8.8,0,0,0-.3-1.2,1.5,1.5,0,0,0-1.3.1,3.7,3.7,0,0,0-2,2.8,5.6,5.6,0,0,0,.6,3.1,4.1,4.1,0,0,0,2.5,1.8,1.6,1.6,0,0,1-.6-2.1,1.9,1.9,0,0,1,2.1-1,1.6,1.6,0,0,1,.8,2.2,4.3,4.3,0,0,0-.4.7c0,.2-.1.5.1.6s.4.2.7.2a11.6,11.6,0,0,0,3.4-1.2,10.6,10.6,0,0,0,2.9-2.7,1.5,1.5,0,0,0,0-1.7,5.5,5.5,0,0,0-1.9-1.5h-.6a.4.4,0,0,0-.4.4c0,.1.1.2,0,.4s-.5.2-.7,0a.9.9,0,0,1-.3-1,1.8,1.8,0,0,1,.7-1,3.5,3.5,0,0,1-1.7-.6,1.7,1.7,0,0,1-.7-1.5.4.4,0,0,0-.4.4,1.1,1.1,0,0,1-.6-1.3,1.2,1.2,0,0,1,1.2-.8,1.8,1.8,0,0,1,2-1.1,1.6,1.6,0,0,1,1,2c-.4-.1-.9-.3-1.2,0a.9.9,0,0,0,.1,1.3c.4.4.9.4,1.4.6a3.5,3.5,0,0,1,1.9,1.7.9.9,0,0,0,.3.6.6.6,0,0,0,.6.3c.4-.1.6-.7.6-1.2a3.5,3.5,0,0,0-1-2.1l-1.4-1.8a3.1,3.1,0,0,1-.4-2.3,1.7,1.7,0,0,1,1.9-1.2,1.5,1.5,0,0,1-.1-1.3,1.9,1.9,0,0,1,.7-1.1c.7-.5,1.8-.4,2.3-1.1s.2-.7.4-1.1a1,1,0,0,1,.8-.6c.3.1.4.6.5,1a30.8,30.8,0,0,1-.3,5.2,23.8,23.8,0,0,1-.5,2.6l-.3,1.3-.4,1.3-.8,2.3-1.1,2.2a6.1,6.1,0,0,1-.7,1,3.6,3.6,0,0,1-.7,1,9.8,9.8,0,0,1-1.7,1.8l-1.3,1-.8.4a8.7,8.7,0,0,1-3.9.7l-2-.4a8.9,8.9,0,0,1-4.8-3.7,2.2,2.2,0,0,0-.9-1l-.4-.2C143.6,151.9,143.6,151.2,143.8,150.8Z" style="fill:#336"/><path d="M98.3,0a1.5,1.5,0,0,1,1.2.7,2.8,2.8,0,0,0,.7.9c.5.3,1.3.3,1.9.6s1.1,1.3.3,1.7A1.6,1.6,0,0,1,104.2,5c0,.5-.5,1-1.2,1.4s-1.4.6-2.1,1a7.6,7.6,0,0,0-2.4,1.8Z" style="fill:#336"/><path d="M98.5,12a8,8,0,0,0,2.3,2.6,10.8,10.8,0,0,0,3.3,1.3l2,.4a14.8,14.8,0,0,0,6.3-.3,2.5,2.5,0,0,1,1.2-.1h.5a.9.9,0,0,0,.9-.7c0-.4-.4-.7-.8-1s.2-3-1.6-4a6.6,6.6,0,0,0-2.5-.7l-1.3.2-1,.5a1.2,1.2,0,0,0-.2,1.7,2.3,2.3,0,0,0,1.3.7,1.6,1.6,0,0,0,1.4-.2.6.6,0,0,0,.1-1,1.4,1.4,0,0,0-1.4-.3c-.1-.4.4-.6.9-.6a2,2,0,0,1,1.8,2.9,3.8,3.8,0,0,1-2.1,1.6,7,7,0,0,1-3.2.2c.8.1,1.6-.4,1.6-1s-.7-1.2-1.6-1.3a1.7,1.7,0,0,0-1.7,1.1c0,.1.1.3,0,.5a.5.5,0,0,1-.3.4l-.7-.2c-2.7-.9-4.7-2.9-4.9-5" style="fill:#336"/><path d="M98.5,11.2l.7-.6,1-.5a4.6,4.6,0,0,1,2.3-.5l.7.2a.2.2,0,0,1,0,.3c-.1.1-.3.1-.3.2h.3a.7.7,0,0,0,.9-.2.7.7,0,0,0,.4-.5c.1-.1.1-.2,0-.4l-.5-.2h2.1c.7-.1,1.2-.4,1.2-.8s.5.2.4.4,1.1-.3,1.1-.7-.5-.8-1.1-.8a.8.8,0,0,0-.5-.9,2.4,2.4,0,0,0-2.2-.1.9.9,0,0,0-.7.6V7h.9c.4.1.8.4.6.6a1.6,1.6,0,0,1-1.1.5h-1.4a5.2,5.2,0,0,0-2.3.7l-.6.3a1.1,1.1,0,0,1-1.2,0,1.3,1.3,0,0,1-.3-.5.6.6,0,0,0-.3-.6" style="fill:#336"/><path d="M99.2,5.4h-.7V12h.7Z" style="fill:#336"/><path d="M98.6,0a1.5,1.5,0,0,0-1.2.7,1.5,1.5,0,0,1-.7.9,10.6,10.6,0,0,1-1.9.6c-.9.4-1,1.3-.3,1.8a1.5,1.5,0,0,0-1.7,1c-.1.6.5,1.1,1.1,1.4l2.2,1a7.6,7.6,0,0,1,2.4,1.8Z" style="fill:#336"/><path d="M98.5,12a8,8,0,0,1-2.3,2.6A15.5,15.5,0,0,1,93,16l-2.1.4-3.1.2a15.4,15.4,0,0,1-3.1-.5,2.8,2.8,0,0,0-1.3-.1h-.5a.8.8,0,0,1-.9-.7,1.9,1.9,0,0,1,.8-1c-.8-1.2-.2-2.9,1.5-4a11.1,11.1,0,0,1,2.6-.7,3.5,3.5,0,0,1,2.3.7,1.1,1.1,0,0,1,.2,1.6,2,2,0,0,1-1.2.8,1.8,1.8,0,0,1-1.5-.2.6.6,0,0,1-.1-1,1.4,1.4,0,0,1,1.4-.3c.1-.4-.4-.6-.9-.6a2,2,0,0,0-1.8,2.9,3.8,3.8,0,0,0,2.2,1.6,8.4,8.4,0,0,0,3.2.2c-.9,0-1.7-.5-1.7-1s.7-1.2,1.6-1.3,1.7.4,1.7,1v.5a.4.4,0,0,0,.4.4.7.7,0,0,0,.6-.1c2.7-1,4.7-3,4.9-5.1" style="fill:#336"/><path d="M98.5,11.2l-.7-.6-1-.5a4.6,4.6,0,0,0-2.3-.5l-.7.2c-.1.1-.1.3,0,.3s.3.1.2.2l-.2.2a.9.9,0,0,1-.9-.2c-.2-.2-.4-.3-.4-.5a.3.3,0,0,1,0-.4l.5-.2H90.8c-.6-.1-1.2-.4-1.2-.9s-.4.3-.3.4-1.1-.2-1.1-.6.5-.8,1.1-.9,0-.7.5-.9A3.3,3.3,0,0,1,92,6.2a1.6,1.6,0,0,1,.7.7v.2c.1.1.1.1-.1.1a2.1,2.1,0,0,0-.8,0c-.3,0-.8.3-.5.6a1.9,1.9,0,0,0,1,.5h1.5a5.2,5.2,0,0,1,2.3.7l.5.3a1.2,1.2,0,0,0,1.3,0,.8.8,0,0,0,.2-.5c.1-.2.1-.4.3-.6" style="fill:#336"/><polygon points="97.7 5.4 98.5 5.4 98.5 12 97.8 12 97.7 5.4" style="fill:#336"/><path d="M99.2,3.9c0-.9-.3-1.5-.7-1.5s-.8.7-.8,1.5.4,3.1.8,3.1S99.2,4.7,99.2,3.9Z" style="fill:#336"/><path d="M111.2,47.6h-.4c-.3-.1-.7.1-1,.2a7.2,7.2,0,0,1-2.5.7h-2.5l-1.5-.5a7.4,7.4,0,0,1-2.6-1.5,8.8,8.8,0,0,1-1.8-2.9A9.1,9.1,0,0,1,97,46.4a7.9,7.9,0,0,1-2.5,1.5l-1.6.5H90.4a10.2,10.2,0,0,1-2.5-.6,1.7,1.7,0,0,0-1-.3h-.4a.8.8,0,0,1-.7-.8,1.4,1.4,0,0,1,.5-1.1,3.7,3.7,0,0,1,1.1-4.5,3.5,3.5,0,0,1,2-.7,2.6,2.6,0,0,1,1.9.8,2.1,2.1,0,0,1,.2,2,1.8,1.8,0,0,1-.9.8,1.2,1.2,0,0,1-1.2-.3.9.9,0,0,1,1-1.5.8.8,0,0,0-.8-.7,1.4,1.4,0,0,0-1,.5,2.6,2.6,0,0,0-.3,2.8,4.4,4.4,0,0,0,1.8,2,2.7,2.7,0,0,0,1.2.3h1.4a1.4,1.4,0,0,1-1.4-1.3,1.2,1.2,0,0,1,1.2-1.3,1.3,1.3,0,0,1,1.4,1.2v.6c0,.2.1.4.3.4a.4.4,0,0,0,.5-.1,7.1,7.1,0,0,0,3.6-4.2v-.7l-.8-.6a2.9,2.9,0,0,0-1.9-.6l-.5.2c-.2.1-.1.3,0,.4s.2.1.2.2l-.2.2a.8.8,0,0,1-.8-.3.6.6,0,0,1-.3-.6.3.3,0,0,1,0-.4.5.5,0,0,1,.4-.2h-.5a5.7,5.7,0,0,1-1.3,0,1.2,1.2,0,0,1-1-1,.3.3,0,0,0-.2.4,1,1,0,0,1-1-.8.9.9,0,0,1,.9-.9.7.7,0,0,1,.4-1,1.7,1.7,0,0,1,1.8-.1,1.9,1.9,0,0,1,.6.7v.3c.1.1.1.1-.1.1h-.6c-.3.1-.7.4-.5.7a1.5,1.5,0,0,0,.9.6H95a3.3,3.3,0,0,1,1.9.8l.4.4a.9.9,0,0,0,1,.1v-1A8.6,8.6,0,0,0,96.9,38l-1.8-1.1a2.5,2.5,0,0,1-1-1.7A1.4,1.4,0,0,1,95.6,34a1.2,1.2,0,0,1,.2-2c.5-.3,1.2-.3,1.6-.7a5.3,5.3,0,0,0,.6-1,1.1,1.1,0,0,1,.8-.8h.1a1.1,1.1,0,0,1,.8.8,5.3,5.3,0,0,0,.6,1c.4.4,1.1.4,1.6.7a1.2,1.2,0,0,1,.2,2,1.3,1.3,0,0,1,1.5,1.2,2.2,2.2,0,0,1-1,1.7L100.8,38a5.3,5.3,0,0,0-1.3,1.3v1c.2.2.6.1.9-.1l.4-.4a3.3,3.3,0,0,1,1.9-.8,4.8,4.8,0,0,1,1.2,0,1.5,1.5,0,0,0,.9-.6c.2-.3-.2-.6-.5-.7s-.4,0-.6,0-.1,0-.1-.1v-.3a1.3,1.3,0,0,1,.6-.7,1.9,1.9,0,0,1,1.9.1.8.8,0,0,1,.3,1,.9.9,0,0,1,.9.9.9.9,0,0,1-.9.8c.1-.1-.1-.4-.3-.4s-.5.8-1,1a5.6,5.6,0,0,1-1.3,0h-.4l.3.2a.6.6,0,0,1,.1.4.9.9,0,0,1-.4.6c-.2.2-.4.4-.7.3a.2.2,0,0,1-.2-.2c0-.1.1-.1.2-.2a.3.3,0,0,0,0-.4l-.6-.2a2.5,2.5,0,0,0-1.8.6,4.7,4.7,0,0,0-.9.6v.7a7.5,7.5,0,0,0,3.6,4.2.4.4,0,0,0,.5.1c.2,0,.3-.2.3-.4v-.6a1.5,1.5,0,0,1,1.4-1.3,1.3,1.3,0,0,1,1.2,1.4,1.4,1.4,0,0,1-1.3,1.3h1.3a2.8,2.8,0,0,0,1.2-.4,3.7,3.7,0,0,0,1.8-1.9,2.6,2.6,0,0,0-.3-2.8,1.2,1.2,0,0,0-1-.5c-.4,0-.8.3-.7.7a.9.9,0,0,1,1.1.3,1,1,0,0,1-.1,1.2,1.3,1.3,0,0,1-1.2.3,2.7,2.7,0,0,1-1-.8,2.1,2.1,0,0,1,.2-2,2.7,2.7,0,0,1,1.9-.8,3.2,3.2,0,0,1,2,.7,3.6,3.6,0,0,1,1.1,4.4,1.7,1.7,0,0,1,.6,1.2A.9.9,0,0,1,111.2,47.6ZM99.5,34c0-1-.3-1.8-.6-1.8s-.7.8-.7,1.8.3,3.6.7,3.6S99.5,34.9,99.5,34Z" style="fill:#336"/><path d="M171.6,86.3a12,12,0,0,1,1.9,11.1c-.6,1.6-1.9,2.9-2.1,4.6a3.4,3.4,0,0,0,.7,2.2,3.4,3.4,0,0,1-1.4-.5,1.6,1.6,0,0,1-.7-1.3,3.7,3.7,0,0,0,.9,4,7.4,7.4,0,0,1-2.1.1,3.2,3.2,0,0,1-1.8-1,2.2,2.2,0,0,1-.2-2.1,1.5,1.5,0,0,1-1.4-.2,8.8,8.8,0,0,1-5.6-5.7,2.5,2.5,0,0,0,1.7.3c-.5-1.1.6-2.1,1.6-2.5a4.9,4.9,0,0,1,2.1-.2,1.5,1.5,0,0,0-.5,1.3,2.1,2.1,0,0,0,.7,1.1,1.7,1.7,0,0,0,1.1.3,4.1,4.1,0,0,0,2.9-.8,4.8,4.8,0,0,0,1.3-1.6,8.3,8.3,0,0,0,.6-2.1,2.1,2.1,0,0,1-1.5.7,1.5,1.5,0,0,1-1.3-1,2.2,2.2,0,0,0,1.6-1.4,6.7,6.7,0,0,0,.4-3.7c-.3-1.1-.9-2.3-2-2.5a3.4,3.4,0,0,1-.3,1.8l-.5.7-.7.4a3.7,3.7,0,0,0-1-3.7,5.3,5.3,0,0,0-3.3-1.5,6.4,6.4,0,0,0-2.8.6,3.8,3.8,0,0,0-1.6,2.3,2.6,2.6,0,0,0,1.2,2.4,2.3,2.3,0,0,1-2,.1,1.9,1.9,0,0,1-1.2-1.5,4.1,4.1,0,0,0,.5,4.5,4.3,4.3,0,0,0,2.1,1.4h1.4c.3,0,1,.2.8-.4a.8.8,0,0,0-.4-.4,1.7,1.7,0,0,1-.2-1.4,1.5,1.5,0,0,1,.7-1.2,2,2,0,0,1,2.7.4,2.8,2.8,0,0,1,.2,2.9,3.7,3.7,0,0,1-3.1,1.7,11.1,11.1,0,0,1-3.6-.8,2,2,0,0,1-2.1,1.4,3.1,3.1,0,0,0,.1-1.9l-.6-1.9a5.7,5.7,0,0,1-.3-1.8,13.7,13.7,0,0,1,.2-1.9,13.4,13.4,0,0,1,.7-1.8,14,14,0,0,1,1-1.6,7.8,7.8,0,0,1,7.3-2.6l2.1.5A12.2,12.2,0,0,1,171.6,86.3Zm.5,9.8a1.2,1.2,0,0,0-.2.5,1.7,1.7,0,0,1-.2.5c0,.2-.2.4-.3.6a4.6,4.6,0,0,1-1.2,1.2,5.3,5.3,0,0,1-1.7.8l-.9.2h-2.8c-.3,0-.5.2-.3.5a3,3,0,0,0,.8.4,6.2,6.2,0,0,0,1.9.2h.5l1-.3a8.1,8.1,0,0,0,1.8-1l.6-.7.5-.7.3-.7c.1-.2.1-.4.2-.6v-.5Z" style="fill:#336"/><path d="M155.9,84.8a5,5,0,0,0-1.4,1.5,10.4,10.4,0,0,0-.4,1c0,.1-.1.3-.1.4v.4l-.4-.5a2.3,2.3,0,0,1-.7-1,2,2,0,0,1,.1-1.3,1.1,1.1,0,0,0,.3-.7c-.1-.4-.6-.2-.8-.2h-1.1a7.8,7.8,0,0,1-2.1-.4,16.7,16.7,0,0,1-2.3-1.2l-.5-.3a9.1,9.1,0,0,1-2.5-3c-.5-1.1-.5-2.7-1.6-3.4a1.6,1.6,0,0,0-1.8-.2l1.1-1a1.5,1.5,0,0,1,1.3-.1,2.4,2.4,0,0,0-1.5-.9,3.8,3.8,0,0,0-1.8.3,5.6,5.6,0,0,1,.9-1.7,2.7,2.7,0,0,1,1.6-1.2,1.5,1.5,0,0,1,1.7.5,2.1,2.1,0,0,1,.8-1.1,7.5,7.5,0,0,1,3.7-2,4.4,4.4,0,0,1,2-.2,7.8,7.8,0,0,1,2.1.4,3,3,0,0,0-1.3,1.2c1.3.2,1.3,1.8.9,2.8a6.2,6.2,0,0,1-1.1,1.7,1.4,1.4,0,0,0-.7-1.1,1.2,1.2,0,0,0-1.3-.1,2.8,2.8,0,0,0-.9.7,6.2,6.2,0,0,0-1.2,2.6,4.9,4.9,0,0,0,.9,3.3,1.8,1.8,0,0,1,.6-1.4,1.4,1.4,0,0,1,1.5-.4,2.6,2.6,0,0,0-.3,1.9,4.6,4.6,0,0,0,1.5,2.5,2.5,2.5,0,0,0,2.7.6,2.7,2.7,0,0,1-.5-1.4,1.1,1.1,0,0,1,.1-.8c0-.2.3-.6.3-.7a3,3,0,0,0,2.5,2.1,4.8,4.8,0,0,0,3.5-.5,4.3,4.3,0,0,0,2.1-1.9,6.4,6.4,0,0,0,.7-3.1c0-1.1-.3-2.1-.4-3.2a2.4,2.4,0,0,1,2.4,1.9,6.6,6.6,0,0,1-.2,3.4,7,7,0,0,1-4.9,4.7l-2,.5A3.7,3.7,0,0,0,155.9,84.8ZM145.6,79l-.2-.3a.5.5,0,0,0-.2-.4c0-.2-.1-.4-.1-.6a3.3,3.3,0,0,1,0-1.4,4.8,4.8,0,0,1,.5-1.7,2,2,0,0,1,.4-.8c.1-.1.1-.3.2-.4l.9-1,.3-.5.4-.3c.1-.1.1-.5-.2-.4a1.8,1.8,0,0,0-.8.5,8.1,8.1,0,0,0-1.2,1.4.8.8,0,0,1-.2.4l-.4,1a5.7,5.7,0,0,0-.3,1.8v.8c0,.3.1.5.1.7l.3.5c.1.2.2.3.2.4l.3.3Z" style="fill:#336"/><path d="M129.8,21.6a4.3,4.3,0,0,0,1.6-1.4,3,3,0,0,0,.4-1v-.5s0-.4.1-.4l.7.6a7.5,7.5,0,0,1,1.2,1.4,1.7,1.7,0,0,1,0,1.4.8.8,0,0,0-.3.8c.1.4.8.4,1.2.4l1.5.5a11.7,11.7,0,0,1,2.8,1.3,13.5,13.5,0,0,1,3.2,2.6l.5.6a10.6,10.6,0,0,1,2.7,5.1c.4,1.7-.1,3.3.7,5a3.1,3.1,0,0,0,2,1.7,4.3,4.3,0,0,1-1.6.1A1.8,1.8,0,0,1,145,39a4.4,4.4,0,0,0,1.1,2,5.5,5.5,0,0,0,2.1,1.2,6.9,6.9,0,0,1-1.9,1A3.1,3.1,0,0,1,144,43a2.5,2.5,0,0,1-1.5-1.7,2,2,0,0,1-1.4.4,9.5,9.5,0,0,1-4.7-.4A12.4,12.4,0,0,1,132,39a3.8,3.8,0,0,0,1.9-.5c-1.4-.8-.9-2.3-.2-3.1a4,4,0,0,1,1.9-1.1,1.6,1.6,0,0,0,.4,1.4,2.1,2.1,0,0,0,1.5.7,1.6,1.6,0,0,0,1.2-.2,3.8,3.8,0,0,0,2.3-2,4.6,4.6,0,0,0-.3-4.1,1.5,1.5,0,0,1-1,1.2,2.4,2.4,0,0,1-2-.3,2,2,0,0,0,.7-2,5.6,5.6,0,0,0-1.9-3.5c-.9-.8-2.2-1.8-3.6-1.5a2.9,2.9,0,0,1,.8,1.8,2.4,2.4,0,0,1-.2.8l-.4.6a5,5,0,0,0-3.4-2.9,8,8,0,0,0-4.6,0,4.7,4.7,0,0,0-2.6,1.8.6.6,0,0,1-.6.5c-.3.1-.7-.1-1-.2s-.5-.3-.6-.5,1.2-1.8,1.7-2.1a10.2,10.2,0,0,1,3.2-1.3l2.7-.2Zm13.4,10.7.2.5c0,.2.1.4.1.6v.7a3.3,3.3,0,0,1-.5,1.6,5.3,5.3,0,0,1-1.2,1.4l-.8.6-.4.2-1.3.5-.6.2h-.5c-.3.1-.4.4,0,.5h1a5.9,5.9,0,0,0,2-.6l.4-.3.8-.7a4.5,4.5,0,0,0,1.1-1.7l.3-.9v-.8a1.9,1.9,0,0,0-.1-.8,1.4,1.4,0,0,0-.2-.6l-.2-.5Z" style="fill:#336"/><path d="M168.9,60.4a3.1,3.1,0,0,0,1.6-1.2l.6-1c0-.2.1-.3.1-.5s.1-.5.1-.4l.5.7a5.6,5.6,0,0,1,.7,1.8,2.4,2.4,0,0,1-.3,1.5c-.2.2-.5.4-.4.8s.5.6.8.7l1.2.8a9.8,9.8,0,0,1,2.1,2A19.4,19.4,0,0,1,178,69l.3.8a15.7,15.7,0,0,1,.8,3.1,15.1,15.1,0,0,1,.2,3,15.7,15.7,0,0,1-.6,2.8,8.6,8.6,0,0,0-.2,2.8,4,4,0,0,0,1.2,2.2,3.6,3.6,0,0,1-1.4-.2,2.1,2.1,0,0,1-1.1-1.3,5.3,5.3,0,0,0,1.9,4.3,4.5,4.5,0,0,1-1.9.5,2.6,2.6,0,0,1-2-.7,2.9,2.9,0,0,1-.8-2.3,1.7,1.7,0,0,1-1.4.1,9.8,9.8,0,0,1-7.1-5.3,2.5,2.5,0,0,0,1.7,0c-.9-1.2,0-2.5.9-3.1a4,4,0,0,1,1.9-.7,1.9,1.9,0,0,0,0,1.5,2.4,2.4,0,0,0,1,1.2,1.7,1.7,0,0,0,1.2.1,3.8,3.8,0,0,0,2.5-1.6,4.1,4.1,0,0,0,.9-2,9.6,9.6,0,0,0,0-2.4,1.6,1.6,0,0,1-1.2,1.1,1.6,1.6,0,0,1-1.6-.9,2.2,2.2,0,0,0,1.1-1.9,7.5,7.5,0,0,0-.7-4.1c-.6-1.2-1.5-2.4-2.6-2.4a5,5,0,0,1,.1,2.1,1.3,1.3,0,0,1-.3.8l-.5.6a5,5,0,0,0-2.1-3.9,5.6,5.6,0,0,0-3.8-1.1,4.3,4.3,0,0,0-2.7,1.3.9.9,0,0,1-.6.3c-.3,0-.6-.3-.8-.5l-.4-.6c-.2-.8,1.5-1.5,2-1.7a6,6,0,0,1,3-.5l2.3.2A3.2,3.2,0,0,0,168.9,60.4Zm8.6,14.3v1.2a2.4,2.4,0,0,1-.2.8,4,4,0,0,1-.8,1.6,4.4,4.4,0,0,1-1.5,1.2,2,2,0,0,1-.8.4h-.5l-1.3.2h-1c-.3,0-.5.3-.2.5a1.4,1.4,0,0,0,.9.3,4,4,0,0,0,1.9-.2h.5l.9-.6a6.7,6.7,0,0,0,1.4-1.5,1.9,1.9,0,0,0,.5-.9l.3-.9c0-.3.1-.5.1-.8v-.7a2.8,2.8,0,0,1-.1-.6Z" style="fill:#336"/><path d="M114,39.1a3.1,3.1,0,0,0,1.3-.6c.2-.1.3-.3.5-.5l.2-.3v-.2c.1.1.1.3.2.4s.3.6.2.9a.9.9,0,0,1-.4.8l-.4.5c0,.2.4.2.5.3l.7.4,1.2,1a5.9,5.9,0,0,1,1,1.7v.4a5.4,5.4,0,0,1,.3,3.1c-.2.9-.8,1.9-.6,2.9s.3.9.7,1h-.9a.9.9,0,0,1-.6-.6,1.9,1.9,0,0,0,1.1,2,2.4,2.4,0,0,1-1.1.6,1.6,1.6,0,0,1-1.2-.2.9.9,0,0,1-.5-1.1,1.4,1.4,0,0,1-.9.3h-1.2l-1.2-.4a4.7,4.7,0,0,1-1.9-1.8,2.1,2.1,0,0,0,1.1-.1c-.6-.7-.1-1.5.5-1.9a2.3,2.3,0,0,1,1.2-.6,1,1,0,0,0-.1.9,1.1,1.1,0,0,0,.7.6h.7a3.4,3.4,0,0,0,1.6-1,3.7,3.7,0,0,0,.7-2.5,1.3,1.3,0,0,1-.8.7,1,1,0,0,1-1-.4,1.7,1.7,0,0,0,.9-1.1,3,3,0,0,0-.2-2.1,1.5,1.5,0,0,0-1.5-1.2,2.1,2.1,0,0,1,0,1.1l-.3.4-.4.4a2.2,2.2,0,0,0-1-2.1,4.2,4.2,0,0,0-2.5-.6,4,4,0,0,0-1.8.7.5.5,0,0,1-.4.3.9.9,0,0,1-.5-.3.5.5,0,0,1-.2-.4c-.1-.4,1.1-.9,1.5-1a6.4,6.4,0,0,1,2-.3l1.5.2Zm4.4,7.4v.6c0,.1-.1.3-.1.4l-.6.9-.9.8-.6.3H116l-.9.3h-.6a.2.2,0,0,0-.1.3c.2.1.4,0,.6,0l1.1-.2.3-.2.6-.4.9-.9.3-.5a1.7,1.7,0,0,0,.2-.5c0-.2.1-.3.1-.5v-.6Z" style="fill:#336"/><path d="M122.1,40.3a2.6,2.6,0,0,0,1.1-.7l.4-.5a.4.4,0,0,0,.1-.3v-.2l.3.4a1.9,1.9,0,0,1,.3.8,1.1,1.1,0,0,1-.3.8c-.2.1-.3.2-.3.4s.3.3.5.4l.7.3,1.1.8a4.8,4.8,0,0,1,1.2,1.6l.2.3a5.8,5.8,0,0,1,.5,2.9c0,.9-.6,1.8-.3,2.8a1.1,1.1,0,0,0,.8.9h-.9c-.3-.1-.6-.2-.7-.5a1.8,1.8,0,0,0,1.3,1.8,6,6,0,0,1-1.1.6,1.7,1.7,0,0,1-1.2-.1,1.3,1.3,0,0,1-.6-1c-.1.2-.5.3-.8.3a4.5,4.5,0,0,1-2.3-.4,3.5,3.5,0,0,1-2-1.4l1.1-.2a1.2,1.2,0,0,1,.3-1.8,2.4,2.4,0,0,1,1.1-.6,1.1,1.1,0,0,0,0,.8,1.2,1.2,0,0,0,.7.5h.7a2.6,2.6,0,0,0,1.4-1.1,3.2,3.2,0,0,0,.6-2.3c-.2.3-.5.6-.8.6a1,1,0,0,1-1-.2,1.8,1.8,0,0,0,.8-1.1,2.8,2.8,0,0,0-.4-2,1.5,1.5,0,0,0-1.5-1,1.7,1.7,0,0,1,0,1,.8.8,0,0,1-.2.4c0,.1-.3.3-.3.4a2.2,2.2,0,0,0-1.2-1.9,3.7,3.7,0,0,0-2.3-.4,3.2,3.2,0,0,0-1.6.9l-.4.2a.5.5,0,0,1-.5-.3c-.1-.1-.2-.1-.2-.3s1-.9,1.3-1a6.1,6.1,0,0,1,1.8-.5H121Zm4.9,6.6v.6c-.1.1-.1.2-.1.4a4.1,4.1,0,0,1-.5.9l-.9.8-.4.3h-.3l-.8.3h-.6c-.1,0-.2.2,0,.3h.5a3.5,3.5,0,0,0,1.1-.3l.3-.2.5-.4a3.4,3.4,0,0,0,.8-.9l.3-.5c0-.2.1-.3.1-.5s.1-.3.1-.4v-.6Z" style="fill:#336"/><path d="M129.3,43.2a23.8,23.8,0,0,1-2-3.9,21.1,21.1,0,0,1-1-3,2.4,2.4,0,0,0-1.8-1.7,4,4,0,0,0-2.4.4c.8-.5,1-1.3,1.5-1.9a3.9,3.9,0,0,1,2.6-1.1,3.4,3.4,0,0,1,2.7,1.2c.8,1.1.2,2,.2,3.1a8.6,8.6,0,0,0,.9,3.5,16.5,16.5,0,0,0,1.5,2.5,9.5,9.5,0,0,0,2.1,1.9,5.2,5.2,0,0,0,2.7,1,5.4,5.4,0,0,0,2.8-.2c-.2,0-.4.8-.5,1a3.8,3.8,0,0,1-.9.9,4.5,4.5,0,0,1-2.3.8c.4,1.6,2,2.2,3.5,2.5a8.5,8.5,0,0,0,5-.5,3.4,3.4,0,0,0,2.2-2.3,2.3,2.3,0,0,1,1.3,2.3,2.6,2.6,0,0,1-1.2,2.1,14.5,14.5,0,0,0,3-.5,6.2,6.2,0,0,0,2.5-1.4,6.1,6.1,0,0,0,1.9-4.1,2.9,2.9,0,0,0-.3-1.8,3.5,3.5,0,0,0-1.9-1.7,2.5,2.5,0,0,0-2.1.3,8.5,8.5,0,0,1,.3-3.2c.6-1.6,2.2-3.2,4.4-1.6a4.8,4.8,0,0,0-.7-3,13.8,13.8,0,0,1,3.6,2.3,21.6,21.6,0,0,1,2.9,3.1,17,17,0,0,1,1.9,3.5,13.3,13.3,0,0,1,.9,3.7,3,3,0,0,1-.3,2.2,4.6,4.6,0,0,1,3,2.1,5.8,5.8,0,0,1,.5,3.6,8.9,8.9,0,0,1-1.5,2.7,6.1,6.1,0,0,0-1.9-2.9,5.5,5.5,0,0,0-3-1.4,3.2,3.2,0,0,1,1.4,2,5.8,5.8,0,0,1-.2,2.3,3.8,3.8,0,0,0-.9-1.5,3.7,3.7,0,0,0-1.6-.9c-2.4-.9-4.7.4-7,.6h-3.6l-3.6-.6-.9-.3a20.9,20.9,0,0,1-4.1-1.7,24.8,24.8,0,0,1-2.6-1.9l-1.2-1.2c-.2-.3-.6-1-1.1-.8s-.5.7-.7,1.1a2.3,2.3,0,0,1-1.4,1.3,3.6,3.6,0,0,1-2,.4h-1l.4-.4.5-.6a5.2,5.2,0,0,0,.7-1.5A7.1,7.1,0,0,0,131,47,11.7,11.7,0,0,0,129.3,43.2Zm20.5,10.5h1.6l1-.2,1.2-.4,1.2-.7a7,7,0,0,0,2.1-2.1,6.1,6.1,0,0,0,.7-1.4l.3-.7a6,6,0,0,0,.2-3,3,3,0,0,0-.5-1.6c-.3-.4-.7-.2-.7.2s.1.5.1.8v.9a7.8,7.8,0,0,1-.3,2.2c0,.2-.1.4-.1.7a6.9,6.9,0,0,1-.5,1.3,9.6,9.6,0,0,1-1.8,2.2,4.7,4.7,0,0,1-2,1.2l-1,.3h-1.5Z" style="fill:#336"/><path d="M103.3,31.1l-1.6-1.6c-1.9-2.2-2.6-5.2-1.2-7.7a7.7,7.7,0,0,1,3.4-3l2.5-.8a8.2,8.2,0,0,1,2.7-.2l3.1.2a6.9,6.9,0,0,0,2.9-.2c.4.9-.3,1.8-1.4,2.1a9.3,9.3,0,0,1,2,3.6,3.3,3.3,0,0,1-1.4,3.4,4.3,4.3,0,0,1-3.5.1c-1.1-.5-1.8-1.6-1.4-2.5a2.5,2.5,0,0,1,3.1-1,1.5,1.5,0,0,0,.7.3c.7.1.4-.5.3-.9a3.8,3.8,0,0,0-.6-1.3,5.7,5.7,0,0,0-2.6-1.9,7.1,7.1,0,0,0-6.4.8,3.9,3.9,0,0,1,2.6.7,1.8,1.8,0,0,1,.7,1.9,3.6,3.6,0,0,0-3.5-.3,2.9,2.9,0,0,0-1.8,2.4,4.5,4.5,0,0,0,.8,2.7,6.2,6.2,0,0,0,3.1,2.6,4.6,4.6,0,0,0,2.1.4,4.5,4.5,0,0,0,2-.4c-.1,0-.2.6-.3.7l-.5.7a4.8,4.8,0,0,1-1.6.8c.5,1,1.7,1.2,2.9,1.2A6.7,6.7,0,0,0,114,33a2.3,2.3,0,0,0,1.2-1.8,1.6,1.6,0,0,1,1.2,1.3,1.7,1.7,0,0,1-.6,1.5,6.5,6.5,0,0,0,2.1-.7,4.8,4.8,0,0,0,1.6-1.2,3.8,3.8,0,0,0,.9-2.9,1.7,1.7,0,0,0-.4-1.1,2,2,0,0,0-1.4-.8,1.8,1.8,0,0,0-1.6.5,4.8,4.8,0,0,1,.1-2.1,2.1,2.1,0,0,1,3-1.6,3.2,3.2,0,0,0-.6-1.8,11.7,11.7,0,0,1,2.6,1,12.5,12.5,0,0,1,2.2,1.6,8.9,8.9,0,0,1,2.6,4,1.9,1.9,0,0,1,0,1.5,2.9,2.9,0,0,1,2.3.8,2.9,2.9,0,0,1,.8,2.1,4.4,4.4,0,0,1-.7,1.9,4.2,4.2,0,0,0-3.9-1.9,1.9,1.9,0,0,1,1.2,1.1,3.2,3.2,0,0,1,.2,1.4,2.6,2.6,0,0,0-2.1-1.1c-1.8-.1-3.2,1-4.7,1.5a11.9,11.9,0,0,1-2.6.5,11.1,11.1,0,0,1-2.6.1h-.7a30.3,30.3,0,0,1-3.2-.6l-1.2-.5-1.1-.5-1-.7c-.2-.1-.5-.6-.9-.4s-.3.5-.4.8a2.3,2.3,0,0,1-.9,1.1,3.7,3.7,0,0,1-1.5.4h-.7l.2-.3.3-.4a4.9,4.9,0,0,0,.4-1.1,6.7,6.7,0,0,0,0-2A5.5,5.5,0,0,0,103.3,31.1Zm15.4,3.7h.5l.6-.2.7-.2.8-.5.7-.6a5.2,5.2,0,0,0,1.2-1.7,3.6,3.6,0,0,0,.4-.9,4.3,4.3,0,0,1,.1-.5,4.1,4.1,0,0,0-.1-1.9,4.7,4.7,0,0,0-.5-1,.4.4,0,0,0-.6.3c.1.1.1.3.2.5a1.1,1.1,0,0,0,.1.5v1.9l-.3.9a5.1,5.1,0,0,1-.9,1.6,3.3,3.3,0,0,1-1.3,1.1l-.6.4h-1Z" style="fill:#336"/><path d="M143.8,62.3a2.1,2.1,0,0,0,1.3.7,5,5,0,0,0,.4,1.3,3.6,3.6,0,0,0,.8,1.2,3.1,3.1,0,0,0,1.1.9l1.3.5a3.9,3.9,0,0,0,2.4-.2,2.7,2.7,0,0,0,1.5-1.8,2.3,2.3,0,0,0-.8-2.3,1.7,1.7,0,0,0-1.5-.4,1.2,1.2,0,0,0-1,.9,1.2,1.2,0,0,0,.5,1.3.9.9,0,0,0,1.3-.2.8.8,0,0,1-.3,1.2,1.5,1.5,0,0,1-1.3-.1,3.7,3.7,0,0,1-2-2.8,5.6,5.6,0,0,1,.6-3.1,4.1,4.1,0,0,1,2.5-1.8,1.6,1.6,0,0,0-.6,2.1,1.8,1.8,0,0,0,2.1,1,1.6,1.6,0,0,0,.8-2.2l-.4-.6c0-.3-.1-.6.1-.7s.4-.2.7-.2a11.6,11.6,0,0,1,3.4,1.2,10.6,10.6,0,0,1,2.9,2.7,1.5,1.5,0,0,1,0,1.7,4.5,4.5,0,0,1-1.9,1.5c-.2,0-.4.1-.6,0a.4.4,0,0,1-.4-.4c0-.1.1-.2,0-.4s-.5-.2-.7,0a.9.9,0,0,0-.3,1,1.8,1.8,0,0,0,.7,1,3.5,3.5,0,0,0-1.7.6,1.8,1.8,0,0,0-.7,1.6.5.5,0,0,1-.4-.5,1.1,1.1,0,0,0-.6,1.3,1.2,1.2,0,0,0,1.2.8,1.8,1.8,0,0,0,2,1.1,1.6,1.6,0,0,0,1-2,1.1,1.1,0,0,1-1.2,0,.9.9,0,0,1,.1-1.3,5.9,5.9,0,0,1,1.4-.6,2.9,2.9,0,0,0,1.9-1.7.9.9,0,0,1,.3-.6.4.4,0,0,1,.6-.2c.4,0,.6.6.6,1.1a3.5,3.5,0,0,1-1,2.1l-1.4,1.8a3.1,3.1,0,0,0-.4,2.3,1.7,1.7,0,0,0,1.9,1.2,1.5,1.5,0,0,0-.1,1.3,1.9,1.9,0,0,0,.7,1.1c.7.5,1.8.4,2.3,1.2s.2.7.4,1,.5.7.8.6.4-.6.5-1a30.8,30.8,0,0,0-.3-5.2,23.8,23.8,0,0,0-.5-2.6l-.3-1.3-.4-1.3-.8-2.3-1.1-2.2a6.1,6.1,0,0,0-.7-1,3.6,3.6,0,0,0-.7-1,9.8,9.8,0,0,0-1.7-1.8l-1.3-1-.8-.4a7.5,7.5,0,0,0-3.9-.6,6.9,6.9,0,0,0-2,.3,8.6,8.6,0,0,0-4.8,3.8,2.6,2.6,0,0,1-.9.9l-.4.2C143.6,61.2,143.6,61.9,143.8,62.3Z" style="fill:#336"/><path d="M32,82.2l2.1-.5a7.8,7.8,0,0,1,7.3,2.6,14,14,0,0,1,1,1.6,13.4,13.4,0,0,1,.7,1.8,13.7,13.7,0,0,1,.2,1.9,5.7,5.7,0,0,1-.3,1.8l-.6,1.9a3.1,3.1,0,0,0,.1,1.9,2,2,0,0,1-2.1-1.4,11.1,11.1,0,0,1-3.6.8,3.8,3.8,0,0,1-3.1-1.7,2.8,2.8,0,0,1,.2-2.9,2,2,0,0,1,2.7-.4,2,2,0,0,1,.8,1.2,2.2,2.2,0,0,1-.3,1.4l-.4.4c-.2.6.5.4.9.4h1.3A4.3,4.3,0,0,0,41,91.5a4.1,4.1,0,0,0,.5-4.5,1.9,1.9,0,0,1-1.2,1.5,2.1,2.1,0,0,1-1.9-.1A2.5,2.5,0,0,0,39.5,86a3.8,3.8,0,0,0-1.6-2.3,6.4,6.4,0,0,0-2.8-.6,5.3,5.3,0,0,0-3.3,1.5,3.7,3.7,0,0,0-1,3.7l-.6-.4a2,2,0,0,1-.6-.7,3.4,3.4,0,0,1-.3-1.8c-1.1.2-1.7,1.4-2,2.5a6.7,6.7,0,0,0,.4,3.7A2.2,2.2,0,0,0,29.3,93,1.5,1.5,0,0,1,28,94a2.1,2.1,0,0,1-1.5-.7,8.3,8.3,0,0,0,.6,2.1A6.5,6.5,0,0,0,28.4,97a4.3,4.3,0,0,0,2.9.8,1.7,1.7,0,0,0,1.1-.3,1.6,1.6,0,0,0,.7-1.1,1.8,1.8,0,0,0-.4-1.3,4.4,4.4,0,0,1,2,.2c1,.4,2.1,1.4,1.6,2.5a2.5,2.5,0,0,0,1.7-.3,8.6,8.6,0,0,1-5.6,5.7,1.5,1.5,0,0,1-1.4.2,2.2,2.2,0,0,1-.2,2.1,3.2,3.2,0,0,1-1.8,1,7.4,7.4,0,0,1-2.1-.1,3.7,3.7,0,0,0,.9-4,1.6,1.6,0,0,1-.7,1.3,3.4,3.4,0,0,1-1.4.5,2.9,2.9,0,0,0,.7-2.2c-.2-1.7-1.5-3-2.1-4.6a12,12,0,0,1,1.9-11.1A12.2,12.2,0,0,1,32,82.2ZM25.7,96.1v.5c.1.2.1.4.2.6l.3.7.5.7a2.3,2.3,0,0,0,.7.7,5.9,5.9,0,0,0,1.7,1l1,.3h.5a5.8,5.8,0,0,0,1.9-.2c.2-.1.7-.2.8-.4s0-.5-.3-.5H30.2l-.9-.2a5.3,5.3,0,0,1-1.7-.8,4.6,4.6,0,0,1-1.2-1.2c-.1-.2-.3-.4-.3-.6a1.7,1.7,0,0,1-.2-.5,2.8,2.8,0,0,1-.1-.5Z" style="fill:#336"/><path d="M40.5,84.1l-2-.5a7,7,0,0,1-4.9-4.7,7.9,7.9,0,0,1-.2-3.4,2.4,2.4,0,0,1,2.4-1.9c-.1,1.1-.4,2.1-.4,3.2a6.4,6.4,0,0,0,.7,3.1,4.8,4.8,0,0,0,2.1,1.9,4.8,4.8,0,0,0,3.5.5,3,3,0,0,0,2.5-2.1c0,.1.3.5.3.7a1.9,1.9,0,0,1,.2.8,4.2,4.2,0,0,1-.6,1.4,2.5,2.5,0,0,0,2.7-.6A4.1,4.1,0,0,0,48.3,80a2.6,2.6,0,0,0-.3-1.9,1.4,1.4,0,0,1,1.5.4,1.8,1.8,0,0,1,.6,1.4,4.9,4.9,0,0,0,.9-3.3A6.2,6.2,0,0,0,49.8,74a2.8,2.8,0,0,0-.9-.7,1.2,1.2,0,0,0-1.3.1,1.4,1.4,0,0,0-.7,1.1,6.2,6.2,0,0,1-1.1-1.7c-.4-1-.4-2.6.9-2.8a3,3,0,0,0-1.3-1.2,7.8,7.8,0,0,1,2.1-.4,5,5,0,0,1,2.1.2,7.6,7.6,0,0,1,3.6,2,2.1,2.1,0,0,1,.8,1.1,1.5,1.5,0,0,1,1.7-.5,2.7,2.7,0,0,1,1.6,1.2,5.6,5.6,0,0,1,.9,1.7,3.8,3.8,0,0,0-1.8-.3,1.9,1.9,0,0,0-1.4.9,1.3,1.3,0,0,1,1.2.1,5.2,5.2,0,0,1,1.1,1,1.7,1.7,0,0,0-1.8.2c-1.1.7-1.1,2.3-1.6,3.4a9.1,9.1,0,0,1-2.5,3l-.5.3a16.7,16.7,0,0,1-2.3,1.2,7.8,7.8,0,0,1-2.1.4H45.4c-.2,0-.7-.2-.8.2a1.1,1.1,0,0,0,.3.7,2,2,0,0,1,.1,1.3,2.3,2.3,0,0,1-.7,1l-.4.5v-.4a.6.6,0,0,0-.1-.4,10.4,10.4,0,0,0-.4-1,5,5,0,0,0-1.4-1.5A3.7,3.7,0,0,0,40.5,84.1ZM52.2,79l.3-.3c0-.1.1-.2.2-.4l.3-.5c0-.2.1-.4.1-.7v-.8a5.7,5.7,0,0,0-.3-1.8l-.4-1a.8.8,0,0,1-.2-.4A8.1,8.1,0,0,0,51,71.7a1.8,1.8,0,0,0-.8-.5c-.3-.1-.3.3-.2.4l.4.3.3.5.9,1c.1.1.1.3.2.4a2,2,0,0,1,.4.8,4.8,4.8,0,0,1,.5,1.7,3.3,3.3,0,0,1,0,1.4c0,.2-.1.4-.1.6a.5.5,0,0,0-.2.4l-.2.3Z" style="fill:#336"/><path d="M69.9,22.3l2.7.2a10.2,10.2,0,0,1,3.2,1.3c.5.3,2.2,1.5,1.7,2.1s-.4.3-.6.5-.7.3-1,.2a.6.6,0,0,1-.6-.5,4.7,4.7,0,0,0-2.6-1.8,8,8,0,0,0-4.6,0,5,5,0,0,0-3.4,2.9l-.4-.6a2.4,2.4,0,0,1-.2-.8,3.6,3.6,0,0,1,.8-1.8c-1.3-.3-2.7.7-3.6,1.5A5.6,5.6,0,0,0,59.4,29a2,2,0,0,0,.7,2,2.2,2.2,0,0,1-1.9.3,1.5,1.5,0,0,1-1.1-1.2,4.6,4.6,0,0,0-.3,4.1,4.2,4.2,0,0,0,2.3,2,1.7,1.7,0,0,0,1.2.2,2.1,2.1,0,0,0,1.5-.7,1.3,1.3,0,0,0,.4-1.4,4,4,0,0,1,1.9,1.1c.7.8,1.2,2.3-.2,3.1a3.8,3.8,0,0,0,1.9.5,12.8,12.8,0,0,1-4.3,2.3,9.9,9.9,0,0,1-4.8.4,2,2,0,0,1-1.4-.4A2.5,2.5,0,0,1,53.8,43a3.1,3.1,0,0,1-2.3.2,6.9,6.9,0,0,1-1.9-1A5.5,5.5,0,0,0,51.7,41a4.4,4.4,0,0,0,1.1-2,1.8,1.8,0,0,1-1.5.8,4.3,4.3,0,0,1-1.6-.1,3.1,3.1,0,0,0,2-1.7c.8-1.7.3-3.3.7-5a10.6,10.6,0,0,1,2.7-5.1l.5-.6a13.5,13.5,0,0,1,3.2-2.6,11.7,11.7,0,0,1,2.8-1.3l1.5-.5c.4,0,1.1,0,1.2-.4a.8.8,0,0,0-.3-.8,1.7,1.7,0,0,1,0-1.4,7.5,7.5,0,0,1,1.2-1.4l.8-.6v.9a3,3,0,0,0,.4,1A4.3,4.3,0,0,0,68,21.6Zm-15.4,10-.2.5a1.4,1.4,0,0,0-.2.6,1.9,1.9,0,0,0-.1.8V35l.3.9a6.2,6.2,0,0,0,1.1,1.7l.8.7.5.3a5.3,5.3,0,0,0,1.9.6h1c.4-.1.3-.4,0-.5h-.5l-.6-.2-1.3-.5-.4-.2-.8-.6a5.3,5.3,0,0,1-1.2-1.4,3.3,3.3,0,0,1-.5-1.6v-.7c0-.2.1-.4.1-.6l.2-.5Z" style="fill:#336"/><path d="M30.6,60.6l2.3-.2a6,6,0,0,1,3,.5c.5.2,2.2.9,2,1.7l-.4.6c-.2.2-.5.5-.8.5s-.4-.2-.6-.3a4.3,4.3,0,0,0-2.7-1.3,5.6,5.6,0,0,0-3.8,1.1,5,5,0,0,0-2.1,3.9l-.5-.6c-.1-.3-.3-.5-.3-.8a3.9,3.9,0,0,1,.2-2.1c-1.2,0-2.1,1.2-2.7,2.4a7.5,7.5,0,0,0-.7,4.1A2.2,2.2,0,0,0,24.6,72a1.6,1.6,0,0,1-1.6.9,1.8,1.8,0,0,1-1.2-1.1,9.6,9.6,0,0,0,0,2.4,4.1,4.1,0,0,0,.9,2,3.8,3.8,0,0,0,2.5,1.6,1.7,1.7,0,0,0,1.2-.1,2.4,2.4,0,0,0,1-1.2,1.9,1.9,0,0,0,0-1.5,4,4,0,0,1,1.9.7c.9.6,1.8,1.9.9,3.1a2.5,2.5,0,0,0,1.7,0,9.8,9.8,0,0,1-7.1,5.3,1.7,1.7,0,0,1-1.4-.1,2.9,2.9,0,0,1-.8,2.3,2.5,2.5,0,0,1-2,.7,4.5,4.5,0,0,1-1.9-.5,5.3,5.3,0,0,0,1.9-4.3,2.1,2.1,0,0,1-1.1,1.3,3.6,3.6,0,0,1-1.4.2,4,4,0,0,0,1.2-2.2,8.6,8.6,0,0,0-.2-2.8,15.7,15.7,0,0,1-.6-2.8,15.1,15.1,0,0,1,.2-3,15.7,15.7,0,0,1,.8-3.1l.4-.8a14.5,14.5,0,0,1,2-3.4,9.8,9.8,0,0,1,2.1-2l1.2-.8c.3-.1.8-.2.8-.7s-.2-.6-.4-.8a2.4,2.4,0,0,1-.3-1.5A5.6,5.6,0,0,1,26,58l.5-.7c0-.1.1.3.1.4s.1.3.1.5l.6,1a3.1,3.1,0,0,0,1.6,1.2A3.3,3.3,0,0,0,30.6,60.6ZM20.2,74.7a2.8,2.8,0,0,1-.1.6V76c0,.3.1.5.1.8l.3.9a1.9,1.9,0,0,0,.5.9,6.7,6.7,0,0,0,1.4,1.5l.9.6h.5a4,4,0,0,0,1.9.2,1.4,1.4,0,0,0,.9-.3.3.3,0,0,0-.1-.5H25.4L24.1,80h-.5a2,2,0,0,1-.8-.4,4.4,4.4,0,0,1-1.5-1.2,4,4,0,0,1-.8-1.6,2.4,2.4,0,0,1-.2-.8V74.7Z" style="fill:#336"/><path d="M84.9,39.3l1.5-.2a6.4,6.4,0,0,1,2,.3c.4.1,1.6.6,1.5,1a.5.5,0,0,1-.2.4.9.9,0,0,1-.5.3.5.5,0,0,1-.4-.3,4,4,0,0,0-1.8-.7,4.2,4.2,0,0,0-2.5.6,2.2,2.2,0,0,0-1,2.1l-.4-.4a.8.8,0,0,1-.2-.4,1.4,1.4,0,0,1-.1-1.1A1.5,1.5,0,0,0,81.3,42a3.4,3.4,0,0,0-.2,2.2,2,2,0,0,0,.9,1.1,1,1,0,0,1-1,.4,1.3,1.3,0,0,1-.8-.7,3.7,3.7,0,0,0,.7,2.5,3.4,3.4,0,0,0,1.6,1h.7a1.1,1.1,0,0,0,.7-.6,1,1,0,0,0-.1-.9,3.1,3.1,0,0,1,1.3.6,1.3,1.3,0,0,1,.4,1.9,2.2,2.2,0,0,0,1.1.1,4.7,4.7,0,0,1-1.9,1.8l-1.2.4H82.3a1.4,1.4,0,0,1-.9-.3.9.9,0,0,1-.5,1.1,1.6,1.6,0,0,1-1.2.2,2.4,2.4,0,0,1-1.1-.6,1.9,1.9,0,0,0,1.1-2,.9.9,0,0,1-.6.6h-.9a1.1,1.1,0,0,0,.7-1c.2-1-.4-2-.6-2.9a5.4,5.4,0,0,1,.3-3.1v-.4a6.2,6.2,0,0,1,1.1-1.7,5.2,5.2,0,0,1,1.1-1l.7-.4c.1-.1.5-.1.5-.3a1,1,0,0,0-.4-.5,1.2,1.2,0,0,1-.4-.8,2.9,2.9,0,0,1,.2-.9c.1-.1.1-.3.2-.4v.2c.1.1.2.2.2.3s.3.4.5.5a3.1,3.1,0,0,0,1.3.6Zm-5.6,7.2v.6c0,.2.1.3.1.5s.1.3.2.5l.3.5a4.3,4.3,0,0,0,1,.9,1,1,0,0,0,.5.4l.3.2,1.1.2h.6a.2.2,0,0,0-.1-.3h-.6l-.8-.3h-.3l-.5-.3a3.9,3.9,0,0,1-1-.8,4.1,4.1,0,0,1-.5-.9c-.1-.1-.1-.3-.2-.4v-.6Z" style="fill:#336"/><path d="M76.8,40.5h1.3a4.1,4.1,0,0,1,1.9.4c.3.1,1.4.6,1.3,1.1s-.1.2-.2.3l-.5.2-.4-.2a2.5,2.5,0,0,0-1.6-.8,3.1,3.1,0,0,0-2.3.3,2.1,2.1,0,0,0-1.2,1.9c0-.1-.3-.3-.3-.3l-.3-.5a1.6,1.6,0,0,1,.1-1c-.7-.1-1.2.5-1.6,1a2.8,2.8,0,0,0-.3,2,1.4,1.4,0,0,0,.7,1.1.8.8,0,0,1-.9.3,1.4,1.4,0,0,1-.8-.7,3.3,3.3,0,0,0,.5,2.4,3.1,3.1,0,0,0,1.5,1,.8.8,0,0,0,.7.1.6.6,0,0,0,.6-.5.6.6,0,0,0,0-.8l1.2.6c.5.4.9,1.3.3,1.8a1.2,1.2,0,0,0,1,.2,3.6,3.6,0,0,1-1.9,1.5,3.8,3.8,0,0,1-2.4.3,1.1,1.1,0,0,1-.8-.2,1.1,1.1,0,0,1-.6,1,1.4,1.4,0,0,1-1.1.1l-1.1-.6a1.8,1.8,0,0,0,1.2-1.8.8.8,0,0,1-.6.4,2.7,2.7,0,0,1-.9,0,1.6,1.6,0,0,0,.8-1c.2-.9-.3-1.9-.4-2.8a6.3,6.3,0,0,1,.6-2.9l.2-.3a5.7,5.7,0,0,1,1.1-1.6l1.2-.8.7-.3c.2-.1.5-.1.5-.4s-.2-.3-.3-.4a1.2,1.2,0,0,1,0-1.6c.1-.2.1-.3.2-.4s.1.2.1.2l.2.3a1,1,0,0,0,.4.5,2.6,2.6,0,0,0,1.1.7Zm-6,6.4V48c.1.1.1.3.2.5l.3.5.8.9.5.4h.3l1.1.4h.5c.2,0,.1-.2-.1-.3h-.6L73,50h-.3l-.5-.3a3,3,0,0,1-.8-.8,4.1,4.1,0,0,1-.5-.9c0-.1-.1-.2-.1-.4v-.6Z" style="fill:#336"/><path d="M112,166.2a1.5,1.5,0,0,1-.6,1.1,3.7,3.7,0,0,1-1.1,4.5,3.2,3.2,0,0,1-2,.7,2.7,2.7,0,0,1-1.9-.8,2.1,2.1,0,0,1-.2-2,1.6,1.6,0,0,1,1-.8,1.3,1.3,0,0,1,1.2.3,1,1,0,0,1,.1,1.2.9.9,0,0,1-1.1.3c-.1.4.3.7.7.7a1.2,1.2,0,0,0,1-.5,2.6,2.6,0,0,0,.3-2.8,3.5,3.5,0,0,0-1.8-2l-1.2-.3a2.8,2.8,0,0,0-1.3,0,1.4,1.4,0,0,1,1.3,1.3,1.2,1.2,0,0,1-1.2,1.3,1.3,1.3,0,0,1-1.4-1.2v-.6c0-.2-.1-.4-.3-.4a.4.4,0,0,0-.5.1,7.5,7.5,0,0,0-3.6,4.2v.7l.9.6a2.5,2.5,0,0,0,1.8.6c.2-.1.4-.1.6-.3s.1-.2,0-.3l-.2-.2.2-.2c.3-.1.5,0,.7.3a1,1,0,0,1,.4.5.9.9,0,0,1-.1.5c0,.1-.2.2-.3.2h1.7a1.2,1.2,0,0,1,1,1,.4.4,0,0,0,.3-.5,1.1,1.1,0,0,1,.9.9.9.9,0,0,1-.9.9.8.8,0,0,1-.3,1,1.9,1.9,0,0,1-1.9.1,1.6,1.6,0,0,1-.6-.8v-.2h.7c.3-.1.7-.4.5-.7a1.5,1.5,0,0,0-.9-.6h-1.2a4.1,4.1,0,0,1-1.9-.8l-.4-.4c-.3-.2-.7-.3-.9-.1v1a5,5,0,0,0,1.3,1.2,11.3,11.3,0,0,1,1.8,1.2,2.1,2.1,0,0,1,1,1.7,1.2,1.2,0,0,1-1.5,1.1,1.3,1.3,0,0,1-.2,2.1c-.5.3-1.2.3-1.6.7s-.4.7-.6,1a1.3,1.3,0,0,1-.8.8h-.1a1.3,1.3,0,0,1-.8-.8c-.2-.4-.3-.8-.6-1s-1.1-.4-1.6-.7a1.3,1.3,0,0,1-.2-2.1,1.3,1.3,0,0,1-1.5-1.1,2.3,2.3,0,0,1,1-1.7l1.8-1.2a8.1,8.1,0,0,0,1.4-1.2v-1a.9.9,0,0,0-1,.1l-.4.4a4.1,4.1,0,0,1-1.9.8H93.8a1.5,1.5,0,0,0-.9.6c-.2.3.2.6.5.7H94c.2,0,.2,0,.1.1v.2a1.6,1.6,0,0,1-.6.8,1.7,1.7,0,0,1-1.8-.1.7.7,0,0,1-.4-1,1,1,0,0,1-.9-.9c0-.5.5-.8,1-.9s0,.5.2.5a1.2,1.2,0,0,1,1-1h1.8l-.4-.2a.5.5,0,0,1,0-.5.5.5,0,0,1,.3-.5.6.6,0,0,1,.8-.3l.2.2c0,.1-.2.1-.2.2s-.2.3,0,.3.3.2.5.3a3.5,3.5,0,0,0,1.9-.6l.8-.6v-.7a7.1,7.1,0,0,0-3.6-4.2.4.4,0,0,0-.5-.1c-.2,0-.3.2-.3.4v.6a1.3,1.3,0,0,1-1.4,1.2,1.2,1.2,0,0,1-1.2-1.3,1.4,1.4,0,0,1,1.4-1.3,3.3,3.3,0,0,0-1.4,0l-1.2.3a3.9,3.9,0,0,0-1.8,2,2.6,2.6,0,0,0,.3,2.8,1.4,1.4,0,0,0,1,.5.8.8,0,0,0,.8-.7,1,1,0,0,1-1.2-.4.9.9,0,0,1,.2-1.1,1.2,1.2,0,0,1,1.2-.3,1.4,1.4,0,0,1,.9.8,1.9,1.9,0,0,1-.2,1.9,2.3,2.3,0,0,1-1.9.9,3.5,3.5,0,0,1-2-.7,3.8,3.8,0,0,1-1.1-4.5,1.6,1.6,0,0,1-.5-1.1c0-.4.3-.9.7-.8h.4a1.7,1.7,0,0,0,1-.3,10.3,10.3,0,0,1,2.5-.7h2.5l1.6.5a5.4,5.4,0,0,1,2.5,1.5,8.1,8.1,0,0,1,1.9,2.9,7.9,7.9,0,0,1,1.8-2.9,5.3,5.3,0,0,1,2.6-1.5l1.5-.5h2.5a7.1,7.1,0,0,1,2.5.6,1.9,1.9,0,0,0,1,.3h.4A.9.9,0,0,1,112,166.2Zm-13.1,9.2c-.4,0-.6,2.7-.7,3.6s.3,1.8.7,1.8.6-.8.6-1.8S99.2,175.4,98.9,175.4Z" style="fill:#336"/><path d="M112.9,173.7l-1.5.2a6.4,6.4,0,0,1-2-.3c-.4-.1-1.6-.6-1.5-1a.5.5,0,0,1,.2-.4.9.9,0,0,1,.5-.3l.4.2a2.6,2.6,0,0,0,1.8.7,3.6,3.6,0,0,0,2.5-.5,2.3,2.3,0,0,0,1-2.1c0,.1.3.3.4.4l.3.4a2.1,2.1,0,0,1,0,1.1,1.6,1.6,0,0,0,1.5-1.2,3,3,0,0,0,.2-2.1,1.7,1.7,0,0,0-.9-1.1,1,1,0,0,1,1-.4,1.6,1.6,0,0,1,.8.6,3.4,3.4,0,0,0-.7-2.4,2.7,2.7,0,0,0-1.6-1h-.7a1.1,1.1,0,0,0-.7.6.8.8,0,0,0,.1.8,2.2,2.2,0,0,1-1.2-.5c-.6-.4-1.1-1.3-.5-1.9a1.4,1.4,0,0,0-1.1-.1,4.7,4.7,0,0,1,1.9-1.8l1.2-.4h1.2l.9.2a.9.9,0,0,1,.5-1,1.6,1.6,0,0,1,1.2-.2,2.4,2.4,0,0,1,1.1.6,1.9,1.9,0,0,0-1.1,2,.9.9,0,0,1,.6-.6h.9a1.4,1.4,0,0,0-.7,1.1c-.2,1,.4,2,.6,2.9a5.4,5.4,0,0,1-.3,3.1v.4a5.9,5.9,0,0,1-1,1.7l-1.2,1-.7.4c-.1,0-.5.1-.5.3l.4.5a.9.9,0,0,1,.4.8c.1.3-.1.6-.2.9s-.1.3-.2.4v-.2l-.2-.3-.5-.5-1.3-.7Zm5.6-7.2v-.6c0-.2-.1-.3-.1-.5l-.2-.5-.3-.5-.9-1-.6-.3-.3-.2a3.5,3.5,0,0,0-1.1-.3h-.6a.2.2,0,0,0,.1.3h.6l.9.3h.2a.9.9,0,0,1,.6.3l.9.8.6.9v1Z" style="fill:#336"/><path d="M121,172.5h-1.4a3.9,3.9,0,0,1-1.8-.4c-.3-.1-1.4-.6-1.3-1.1l.2-.2a.5.5,0,0,1,.5-.3l.4.2a2.5,2.5,0,0,0,1.6.8,3.1,3.1,0,0,0,2.3-.3,2.2,2.2,0,0,0,1.2-1.9l.3.4a.5.5,0,0,1,.2.4,1.7,1.7,0,0,1,0,1c.7.1,1.2-.5,1.5-1a2.8,2.8,0,0,0,.4-2,1.8,1.8,0,0,0-.8-1.1,1.3,1.3,0,0,1,1-.3,1.8,1.8,0,0,1,.8.7,3.1,3.1,0,0,0-.6-2.3,2.6,2.6,0,0,0-1.4-1.1h-.7a1.2,1.2,0,0,0-.7.5,1.1,1.1,0,0,0,0,.8,2.4,2.4,0,0,1-1.1-.6,1.2,1.2,0,0,1-.3-1.8l-1.1-.2a4.3,4.3,0,0,1,2-1.5,4.5,4.5,0,0,1,2.3-.3c.3,0,.7.1.8.3a1.2,1.2,0,0,1,.6-1,1.7,1.7,0,0,1,1.2-.1,3,3,0,0,1,1.1.6,1.8,1.8,0,0,0-1.3,1.8.8.8,0,0,1,.7-.5h.9a1.1,1.1,0,0,0-.8.9c-.3.9.3,1.9.3,2.8a5.8,5.8,0,0,1-.5,2.9l-.2.3a6.1,6.1,0,0,1-1.2,1.6l-1.1.8-.7.3c-.2.1-.5.1-.5.4a.5.5,0,0,0,.3.4,1.1,1.1,0,0,1,.3.8c0,.3-.2.5-.3.8l-.3.4v-.2a.4.4,0,0,0-.1-.3l-.4-.5a2.6,2.6,0,0,0-1.1-.7A2.2,2.2,0,0,0,121,172.5Zm6-6.4v-1a4.3,4.3,0,0,0-.1-.5l-.3-.5a2.4,2.4,0,0,0-.8-.9l-.5-.4-.3-.2a2,2,0,0,0-1.1-.3c-.1,0-.4-.1-.5,0s-.1.3,0,.3h.6l.8.3h.3l.4.3.9.8a4.1,4.1,0,0,1,.5.9.6.6,0,0,0,.1.4v.6Z" style="fill:#336"/><path d="M83.8,173.8l-1.3.7-.5.5-.2.3v.2c-.1-.1-.1-.3-.2-.4a2.9,2.9,0,0,1-.2-.9,1.2,1.2,0,0,1,.4-.8,1,1,0,0,0,.4-.5c0-.2-.4-.3-.5-.3l-.7-.4a5.2,5.2,0,0,1-1.1-1,6.2,6.2,0,0,1-1.1-1.7v-.4a5.4,5.4,0,0,1-.3-3.1c.2-.9.8-1.9.6-2.9a1,1,0,0,0-.7-1h.9a.9.9,0,0,1,.6.6,1.9,1.9,0,0,0-1.1-2,2.4,2.4,0,0,1,1.1-.6,1.6,1.6,0,0,1,1.2.2.9.9,0,0,1,.5,1.1,1.4,1.4,0,0,1,.9-.3h1.2l1.2.4a4.7,4.7,0,0,1,1.9,1.8,2.2,2.2,0,0,0-1.1.1c.6.6.1,1.5-.4,1.9a5.2,5.2,0,0,1-1.3.6,1,1,0,0,0,.1-.9,1.1,1.1,0,0,0-.7-.6h-.7a2.7,2.7,0,0,0-1.6,1,3.6,3.6,0,0,0-.7,2.4,1.6,1.6,0,0,1,.8-.6,1,1,0,0,1,1,.4,2,2,0,0,0-.9,1.1,3,3,0,0,0,.2,2.1,1.6,1.6,0,0,0,1.5,1.2,1.4,1.4,0,0,1,.1-1.1.8.8,0,0,1,.2-.4c.1-.1.4-.3.4-.4a2.3,2.3,0,0,0,1,2.1,3.6,3.6,0,0,0,2.5.5,2.6,2.6,0,0,0,1.8-.7l.4-.2a.9.9,0,0,1,.5.3.5.5,0,0,1,.2.4c.1.4-1.1.9-1.5,1a6.4,6.4,0,0,1-2,.3l-1.5-.2Zm-4.4-7.3v-.6c.1-.1.1-.3.2-.4a4.1,4.1,0,0,1,.5-.9,3.9,3.9,0,0,1,1-.8l.5-.3h.3l.8-.3h.6a.2.2,0,0,0,.1-.3h-.6l-1.1.3-.3.2a1,1,0,0,0-.5.4,4.3,4.3,0,0,0-1,.9l-.3.5c-.1.2-.1.4-.2.5s-.1.3-.1.5v.6Z" style="fill:#336"/><path d="M75.7,172.7a2.4,2.4,0,0,0-1.1.6l-.4.6-.2.3s0,.2-.1.2-.1-.2-.2-.4a1.3,1.3,0,0,1-.3-.8,1.1,1.1,0,0,1,.3-.8.9.9,0,0,0,.3-.5c0-.2-.3-.2-.5-.3l-.7-.3-1.2-.8a5.7,5.7,0,0,1-1.1-1.6l-.2-.4a5.7,5.7,0,0,1-.6-2.8c.1-.9.6-1.9.4-2.8a1.4,1.4,0,0,0-.8-1h.9c.2.1.5.2.6.5a1.7,1.7,0,0,0-1.2-1.8,3.9,3.9,0,0,1,1.1-.6,1.4,1.4,0,0,1,1.1.1,1.1,1.1,0,0,1,.6,1c.2-.2.5-.2.8-.3a4.7,4.7,0,0,1,2.4.4,3.6,3.6,0,0,1,1.9,1.5,1.2,1.2,0,0,0-1,.2c.6.5.2,1.3-.3,1.8l-1.2.6a.7.7,0,0,0,0-.9.7.7,0,0,0-.6-.4.8.8,0,0,0-.7.1,2.5,2.5,0,0,0-1.5,1,3.3,3.3,0,0,0-.5,2.4,1.4,1.4,0,0,1,.8-.7.8.8,0,0,1,.9.3,1.4,1.4,0,0,0-.7,1.1,2.8,2.8,0,0,0,.3,2c.4.5.9,1.1,1.6,1a1.7,1.7,0,0,1-.1-1l.3-.5.3-.3a2.1,2.1,0,0,0,1.2,1.9,3.1,3.1,0,0,0,2.3.3,2.5,2.5,0,0,0,1.6-.8l.4-.2.5.2.2.3c.1.5-1,1-1.3,1.1a5.8,5.8,0,0,1-1.9.4H76.8A2,2,0,0,0,75.7,172.7ZM70.8,166v-.5c0-.2.1-.3.1-.4a4.1,4.1,0,0,1,.5-.9l.8-.8.5-.3H73c.2-.2.5-.2.7-.3h.6c.2-.1.3-.3.1-.4h-.5l-1.1.4h-.3l-.5.4-.8.9-.3.5c-.1.2-.1.4-.2.5v1.1Z" style="fill:#336"/><path d="M67,53.6a3.7,3.7,0,0,0,1.4.7H70a.8.8,0,0,0-.2.4,1.8,1.8,0,0,1-.8.9,1.2,1.2,0,0,1-1,.2h-.7c-.2.1,0,.5.1.7s.1.5.1.8a10.9,10.9,0,0,1,.1,1.8,9,9,0,0,1-.6,2.2l-.2.4a7.1,7.1,0,0,1-2.1,2.8c-.9.7-2.2,1-2.7,2.1a1.4,1.4,0,0,0,0,1.5l-.9-.7a1,1,0,0,1-.3-1,2.3,2.3,0,0,0-.1,2.8,3.2,3.2,0,0,1-1.6-.4,2.2,2.2,0,0,1-1.2-1.1,1.4,1.4,0,0,1,.3-1.5,1.4,1.4,0,0,1-1-.5,5.7,5.7,0,0,1-2.4-6,1.5,1.5,0,0,0,1.1.8c0-1.1,1.2-1.4,2.1-1.2a4.7,4.7,0,0,1,1.5.6,1.8,1.8,0,0,0-.8.7,1.4,1.4,0,0,0,.2,1.1,1.1,1.1,0,0,0,.7.6,3.7,3.7,0,0,0,2.3.4,3.8,3.8,0,0,0,2.6-1.4,1.5,1.5,0,0,1-1.3-.2,1.2,1.2,0,0,1-.5-1.1,1.8,1.8,0,0,0,1.6-.2A3.5,3.5,0,0,0,66.1,58a2,2,0,0,0-.1-2.2,2.3,2.3,0,0,1-1,.7h-.7c-.1,0-.5-.1-.6,0A2.9,2.9,0,0,0,64.9,54a4.2,4.2,0,0,0-1.2-2.6,3.2,3.2,0,0,0-2-1.2c-.2-.1-.4-.1-.5-.3a.9.9,0,0,1,.1-.7.8.8,0,0,1,.2-.4c.5-.4,1.7.5,2.1.7a6.5,6.5,0,0,1,1.6,1.7l.8,1.5A4.3,4.3,0,0,0,67,53.6Zm-2.9,9.6-.3.2q0,.1-.3.3l-.4.2a2.1,2.1,0,0,1-1.2.3H60.4l-.7-.2h-.4l-1-.5-.3-.2c-.2-.1-.2-.2-.3-.3s-.5,0-.4.2a1.5,1.5,0,0,0,.5.6l1.4.7h1.2a4.3,4.3,0,0,0,1.6,0l.6-.2.6-.3.4-.3.3-.3.2-.3Z" style="fill:#336"/><path d="M131.7,52.7l.9-1.5a5.2,5.2,0,0,1,1.6-1.7c.3-.2,1.6-1.1,2-.7s.2.3.3.4a.9.9,0,0,1,0,.7c-.1.2-.3.2-.5.3a3.2,3.2,0,0,0-2,1.2,4.2,4.2,0,0,0-1.2,2.6,3.1,3.1,0,0,0,1.2,2.6c0-.1-.5,0-.6,0h-.6a2.1,2.1,0,0,1-1.1-.7,2,2,0,0,0-.1,2.2,3.9,3.9,0,0,0,1.8,1.8,1.8,1.8,0,0,0,1.6.2,1,1,0,0,1-.5,1.1,1.5,1.5,0,0,1-1.3.2,4.2,4.2,0,0,0,5,1,1.9,1.9,0,0,0,.7-.6,1.4,1.4,0,0,0,.1-1.1,1.1,1.1,0,0,0-.8-.7,4.4,4.4,0,0,1,1.6-.6c.8-.2,2,.1,2,1.2a2,2,0,0,0,1.2-.8,6,6,0,0,1-2.4,6,1.6,1.6,0,0,1-1,.5,1.6,1.6,0,0,1,.2,1.5,2.2,2.2,0,0,1-1.2,1.1,2.9,2.9,0,0,1-1.6.4,2.3,2.3,0,0,0-.1-2.8.8.8,0,0,1-.3,1,3.1,3.1,0,0,1-.9.7,1.4,1.4,0,0,0,0-1.5c-.5-1.1-1.8-1.4-2.6-2.1a7.4,7.4,0,0,1-2.2-2.8l-.2-.4a5.9,5.9,0,0,1-.5-2.2,5.4,5.4,0,0,1,0-1.8,2.4,2.4,0,0,1,.2-.8c0-.2.3-.6,0-.7h-.7a1.2,1.2,0,0,1-1-.2c-.4-.2-.5-.5-.7-.9l-.3-.4h1.6a5.1,5.1,0,0,0,1.5-.7A3.8,3.8,0,0,0,131.7,52.7Zm1.9,10.5.2.3.3.3.4.3.6.3.7.2a4.3,4.3,0,0,0,1.6,0h1.2l1.3-.7c.2-.1.5-.4.5-.6s-.2-.3-.3-.2l-.3.3-.4.2-1,.5h-.3l-.8.2h-1.5a2.7,2.7,0,0,1-1.2-.3l-.4-.2-.3-.3-.2-.2Z" style="fill:#336"/><path d="M66,160.8c-.3.4-.5,1-.8,1.4a5.2,5.2,0,0,1-1.6,1.7c-.4.3-.8.7-1.3.5a.8.8,0,0,1-.5-.9c.3-.5,1.5-1,1.9-1.5a4.2,4.2,0,0,0,1.2-2.6,2.7,2.7,0,0,0-1.2-2.5H65a2.5,2.5,0,0,1,1,.8,2,2,0,0,0,.1-2.2,3.7,3.7,0,0,0-1.8-1.9,1.8,1.8,0,0,0-1.6-.1,1.3,1.3,0,0,1,.5-1.2,2,2,0,0,1,1.3-.2,4.7,4.7,0,0,0-2.6-1.4,3.7,3.7,0,0,0-2.3.5,1.3,1.3,0,0,0-.7.5,1.5,1.5,0,0,0-.2,1.1c.2.4.5.7.8.7a5.1,5.1,0,0,1-1.5.7c-.9.1-2.1-.2-2.1-1.3a2,2,0,0,0-1.1.9,5.8,5.8,0,0,1,2.4-6.1,1.9,1.9,0,0,1,1-.5,1.4,1.4,0,0,1-.3-1.5,2.6,2.6,0,0,1,1.2-1.1l1.6-.4a2.4,2.4,0,0,0,.1,2.9,1.1,1.1,0,0,1,.3-1.1l.9-.7a1.5,1.5,0,0,0,0,1.6c.5,1,1.8,1.4,2.7,2.1a6.5,6.5,0,0,1,2.1,2.8l.2.4a7.9,7.9,0,0,1,.6,2.2,10.3,10.3,0,0,1-.1,1.7c0,.3-.1.6-.1.9s-.3.5-.1.7.5,0,.7,0a1.2,1.2,0,0,1,1,.2,2,2,0,0,1,.8.8c0,.2.1.3.2.5H68.4a3.5,3.5,0,0,0-1.4.6A4.7,4.7,0,0,0,66,160.8Zm-1.9-10.6-.2-.2-.3-.3-.4-.3-.6-.3-.6-.2H59.2l-1.4.7-.5.6c-.1.2.2.3.4.2l.3-.2.3-.2,1-.5.4-.2h2.2l1.2.3.4.3.3.2.3.3Z" style="fill:#336"/><path d="M130.8,159.8l-1.5-.6h-1.6l.3-.5c.2-.3.3-.6.7-.8a1.2,1.2,0,0,1,1-.2c.3,0,.5.1.7,0s0-.5,0-.7a2.9,2.9,0,0,1-.2-.9,4.8,4.8,0,0,1,0-1.7,5.4,5.4,0,0,1,.5-2.2l.2-.4a6.7,6.7,0,0,1,2.2-2.8c.8-.7,2.1-1.1,2.6-2.1a1.5,1.5,0,0,0,0-1.6,3.1,3.1,0,0,1,.9.7.9.9,0,0,1,.3,1.1,2.4,2.4,0,0,0,.1-2.9l1.6.4a2.6,2.6,0,0,1,1.2,1.1,1.6,1.6,0,0,1-.2,1.5,2.4,2.4,0,0,1,1,.5,6.2,6.2,0,0,1,2.4,6.1,2.7,2.7,0,0,0-1.2-.9c0,1.1-1.2,1.4-2,1.3a4.6,4.6,0,0,1-1.6-.7.8.8,0,0,0,.8-.7,1.4,1.4,0,0,0-.1-1.1l-.7-.5a4,4,0,0,0-2.4-.5,5.1,5.1,0,0,0-2.6,1.4,2,2,0,0,1,1.3.2,1.1,1.1,0,0,1,.5,1.2,1.8,1.8,0,0,0-1.6.1,4.1,4.1,0,0,0-1.8,1.9,2,2,0,0,0,.1,2.2,2.3,2.3,0,0,1,1.1-.8H134a2.9,2.9,0,0,0-1.2,2.5A4.2,4.2,0,0,0,134,162c.5.6,2,1.1,1.9,2s-1.1.4-1.8-.1a4.9,4.9,0,0,1-1.5-1.7l-.9-1.4A4.3,4.3,0,0,0,130.8,159.8Zm2.9-9.5.2-.3.3-.2.4-.3,1.2-.3h2.3l.3.2,1,.5.4.2.3.2c.1.1.4,0,.3-.2s-.3-.4-.5-.6l-1.3-.7h-2.8l-.7.2-.6.3-.4.3-.3.3-.2.2Z" style="fill:#336"/><path d="M66.9,47a5.7,5.7,0,0,0,.4,2.9,5.2,5.2,0,0,0,.7,1.5l.5.6.4.4h-1a3.6,3.6,0,0,1-2-.4,2.5,2.5,0,0,1-1.4-1.3c-.2-.4-.3-.9-.7-1.1s-.9.5-1.1.8l-1.2,1.2a24.8,24.8,0,0,1-2.6,1.9,20.9,20.9,0,0,1-4.1,1.7l-.9.3c-1.2.2-2.3.5-3.6.6H46.7c-2.3-.2-4.6-1.5-7-.6a3.7,3.7,0,0,0-1.6.9,3.8,3.8,0,0,0-.9,1.5,5.8,5.8,0,0,1-.2-2.3,3.2,3.2,0,0,1,1.4-2,5.5,5.5,0,0,0-3,1.4A6.1,6.1,0,0,0,33.5,58a7,7,0,0,1-1.4-2.7,5.1,5.1,0,0,1,.4-3.6,4.8,4.8,0,0,1,3-2.1,3,3,0,0,1-.3-2.2,13.3,13.3,0,0,1,.9-3.7,13.7,13.7,0,0,1,2-3.5,16.7,16.7,0,0,1,2.8-3.1,13.8,13.8,0,0,1,3.6-2.3,4.8,4.8,0,0,0-.7,3c2.2-1.6,3.8,0,4.4,1.6a8.5,8.5,0,0,1,.3,3.2,2.5,2.5,0,0,0-2.1-.3A3.5,3.5,0,0,0,44.5,44a2.9,2.9,0,0,0-.3,1.8,6.1,6.1,0,0,0,1.9,4.1,6.2,6.2,0,0,0,2.5,1.4,15.7,15.7,0,0,0,3,.5,2.8,2.8,0,0,1-1.2-2.1,2.5,2.5,0,0,1,1.3-2.3,3.4,3.4,0,0,0,2.2,2.3,8.5,8.5,0,0,0,5,.5c1.5-.3,3.1-.9,3.5-2.5a4.9,4.9,0,0,1-2.3-.8,7.6,7.6,0,0,1-.9-.9c-.1-.2-.3-1-.5-1a5.4,5.4,0,0,0,2.8.2,5.2,5.2,0,0,0,2.7-1,9.5,9.5,0,0,0,2.1-1.9,16.5,16.5,0,0,0,1.5-2.5,8.6,8.6,0,0,0,.9-3.5c0-1.1-.6-2,.2-3.1A3.4,3.4,0,0,1,71.6,32a3.9,3.9,0,0,1,2.6,1.1c.5.6.7,1.4,1.5,1.9a4,4,0,0,0-2.4-.4,2.4,2.4,0,0,0-1.8,1.7,21.1,21.1,0,0,1-1,3,23.8,23.8,0,0,1-2,3.9C67.8,44.5,67,45.6,66.9,47ZM48,53.6H46.5l-1-.3a5.3,5.3,0,0,1-2-1.2,7.2,7.2,0,0,1-1.7-2.2,3.8,3.8,0,0,1-.6-1.3c0-.3-.1-.5-.1-.7a14.6,14.6,0,0,1-.3-2.2v-.9a2.2,2.2,0,0,0,.1-.8c0-.4-.4-.6-.7-.2a3,3,0,0,0-.5,1.6,6,6,0,0,0,.2,3l.3.7a6.1,6.1,0,0,0,.7,1.4A7,7,0,0,0,43,52.5l1.2.7,1.2.4,1,.2H48Z" style="fill:#336"/><path d="M93.8,32.6a4.6,4.6,0,0,0-.1,2,4.9,4.9,0,0,0,.4,1.1l.3.4.2.3h-.7a3.7,3.7,0,0,1-1.5-.4,2.3,2.3,0,0,1-.9-1.1c-.1-.3-.1-.6-.4-.8s-.7.3-.9.4l-1,.7-1.1.5-1.2.5a30.3,30.3,0,0,1-3.2.6H83a11.1,11.1,0,0,1-2.6-.1,11.9,11.9,0,0,1-2.6-.5c-1.5-.5-2.9-1.6-4.7-1.5A2.6,2.6,0,0,0,71,35.8a3.2,3.2,0,0,1,.2-1.4,1.9,1.9,0,0,1,1.2-1.1,4.3,4.3,0,0,0-3.9,1.9,4.4,4.4,0,0,1-.7-1.9,2.9,2.9,0,0,1,.8-2.1,2.9,2.9,0,0,1,2.3-.8,1.9,1.9,0,0,1,0-1.5,8.9,8.9,0,0,1,2.6-4l2.2-1.6a10.8,10.8,0,0,1,2.7-1,2.7,2.7,0,0,0-.7,1.8,2.2,2.2,0,0,1,3.1,1.6,7.4,7.4,0,0,1,0,2.1,1.8,1.8,0,0,0-1.6-.5,2,2,0,0,0-1.4.8,1.7,1.7,0,0,0-.4,1.1,3.8,3.8,0,0,0,.9,2.9,4.8,4.8,0,0,0,1.6,1.2A6.5,6.5,0,0,0,82,34a1.7,1.7,0,0,1-.6-1.5,1.6,1.6,0,0,1,1.2-1.3A2.2,2.2,0,0,0,83.9,33a6.1,6.1,0,0,0,3.5.9c1.2,0,2.5-.2,2.9-1.2a4.8,4.8,0,0,1-1.6-.8l-.5-.7c-.1-.1-.2-.7-.3-.7a4.5,4.5,0,0,0,2,.4,5.4,5.4,0,0,0,2.2-.4,6.4,6.4,0,0,0,3-2.6,4.5,4.5,0,0,0,.8-2.7,2.9,2.9,0,0,0-1.8-2.4,3.6,3.6,0,0,0-3.5.3,1.8,1.8,0,0,1,.7-1.9,3.9,3.9,0,0,1,2.6-.7,7.1,7.1,0,0,0-6.4-.8,5.7,5.7,0,0,0-2.6,1.9,3.8,3.8,0,0,0-.6,1.3c-.1.4-.4,1,.3.9a1.5,1.5,0,0,0,.7-.3,2.5,2.5,0,0,1,3.1,1c.4.9-.3,2-1.4,2.5a4.3,4.3,0,0,1-3.5-.1,3.3,3.3,0,0,1-1.4-3.4,10.8,10.8,0,0,1,2-3.6c-1.1-.3-1.8-1.2-1.4-2.1a6.9,6.9,0,0,0,2.9.2l3.1-.2a8.2,8.2,0,0,1,2.7.2l2.5.8a7.7,7.7,0,0,1,3.4,3c1.4,2.5.7,5.5-1.2,7.7l-1.6,1.6A5.1,5.1,0,0,0,93.8,32.6ZM79.1,34.7h-1l-.6-.4A3.3,3.3,0,0,1,76.2,33a5.1,5.1,0,0,1-.9-1.6l-.3-.9V28.6a1.1,1.1,0,0,0,.1-.5c.1-.2.1-.4.2-.5a.4.4,0,0,0-.6-.3,2.1,2.1,0,0,0-.4,1,3.1,3.1,0,0,0-.2,1.9,4.3,4.3,0,0,1,.1.5l.4.9a5.2,5.2,0,0,0,1.2,1.7l.7.6.8.5.7.2.6.2h.5Z" style="fill:#336"/><path d="M54,62.3a2.1,2.1,0,0,1-1.3.7,5,5,0,0,1-.4,1.3,3.6,3.6,0,0,1-.8,1.2,3.1,3.1,0,0,1-1.1.9l-1.3.5a3.9,3.9,0,0,1-2.4-.2,2.7,2.7,0,0,1-1.5-1.8,2.3,2.3,0,0,1,.8-2.3,1.7,1.7,0,0,1,1.5-.4,1.2,1.2,0,0,1,1,.9,1.1,1.1,0,0,1-.5,1.3.9.9,0,0,1-1.3-.2.8.8,0,0,0,.3,1.2,1.5,1.5,0,0,0,1.3-.1,3.7,3.7,0,0,0,2-2.8,5.6,5.6,0,0,0-.6-3.1,4.1,4.1,0,0,0-2.5-1.8,1.6,1.6,0,0,1,.6,2.1,1.8,1.8,0,0,1-2.1,1,1.6,1.6,0,0,1-.8-2.2l.4-.6c.1-.3.1-.6-.1-.7s-.4-.2-.6-.2a11.2,11.2,0,0,0-3.5,1.2,10.6,10.6,0,0,0-2.9,2.7,1.4,1.4,0,0,0,.1,1.7,3.8,3.8,0,0,0,1.8,1.5c.2,0,.4.1.6,0a.4.4,0,0,0,.4-.4c0-.1-.1-.2,0-.4s.5-.2.7,0a.9.9,0,0,1,.3,1,1.4,1.4,0,0,1-.7,1,3.5,3.5,0,0,1,1.7.6,1.8,1.8,0,0,1,.7,1.6.5.5,0,0,0,.4-.5,1,1,0,0,1,.6,1.3,1.2,1.2,0,0,1-1.2.8,1.8,1.8,0,0,1-2,1.1,1.6,1.6,0,0,1-1-2,1.1,1.1,0,0,0,1.2,0,.9.9,0,0,0-.1-1.3,5.9,5.9,0,0,0-1.4-.6,2.6,2.6,0,0,1-1.8-1.7l-.4-.6a.4.4,0,0,0-.6-.2c-.4,0-.6.6-.6,1.1a3.5,3.5,0,0,0,1,2.1l1.4,1.8a3.1,3.1,0,0,1,.4,2.3,1.7,1.7,0,0,1-1.9,1.2,1.5,1.5,0,0,1,.1,1.3,1.9,1.9,0,0,1-.7,1.1c-.7.5-1.7.4-2.3,1.2s-.2.7-.4,1-.5.7-.8.6-.4-.6-.5-1a30.8,30.8,0,0,1,.3-5.2,23.8,23.8,0,0,1,.5-2.6l.3-1.3.4-1.3.8-2.3c.4-.7.7-1.4,1.1-2.2l.7-1a8.6,8.6,0,0,1,.7-1,9.8,9.8,0,0,1,1.7-1.8l1.3-1,.8-.4a7.5,7.5,0,0,1,3.9-.6,6.9,6.9,0,0,1,2,.3,8.6,8.6,0,0,1,4.8,3.8c.3.3.5.7.9.9l.4.2A.9.9,0,0,1,54,62.3Z" style="fill:#336"/><path d="M177,90.3v.5a2.9,2.9,0,0,1-.5,1.3,10.3,10.3,0,0,0-1.5,6.4,7.8,7.8,0,0,0,.4,2.1,8.4,8.4,0,0,0,1.7,3.4,11.2,11.2,0,0,0,3.7,2.4,11,11,0,0,0-3.7,2.3,9.3,9.3,0,0,0-1.8,3.4,14.3,14.3,0,0,0-.4,2.2,11,11,0,0,0,1.4,6.4c.3.4.6.8.5,1.2v.5a1,1,0,0,0,1.2.8,2.1,2.1,0,0,0,1.3-.9,4.8,4.8,0,0,0,5.4-2.1,3.8,3.8,0,0,0,.5-2.5,2.9,2.9,0,0,0-1.3-2.2,2.5,2.5,0,0,0-2.5,0,1.7,1.7,0,0,0-.8,1.3,1.5,1.5,0,0,0,.5,1.4,1.4,1.4,0,0,0,1.5,0,1.1,1.1,0,0,0,.2-1.4c.5-.2,1,.3,1,.8a1.5,1.5,0,0,1-.5,1.3,3.5,3.5,0,0,1-3.4.8,5.1,5.1,0,0,1-2.8-2,4.5,4.5,0,0,1-.7-3.2,1.8,1.8,0,0,0,1.7,1.6,1.7,1.7,0,1,0,0-3.4h-.8c-.2-.1-.5-.2-.6-.4a.9.9,0,0,1,.1-.7,8.7,8.7,0,0,1,5.2-4.6h1a6.1,6.1,0,0,1,.7,1,3,3,0,0,1,.8,2.2.9.9,0,0,1-.3.7h-.4l-.3-.2a.2.2,0,0,0-.2.2c-.2.4.1.7.4.9l.7.4h.6c.1-.1.3-.2.3-.4a.9.9,0,0,0,.1.5,7.6,7.6,0,0,0,.1,1.5,1.5,1.5,0,0,0,1.4,1.1.4.4,0,0,1-.6.4,1.3,1.3,0,0,0,1.2,1,1,1,0,0,0,1-1.1,1.4,1.4,0,0,0,1.3-.6,1.6,1.6,0,0,0-.1-2,1.4,1.4,0,0,0-1-.7h-.3c-.1,0-.1-.1-.1.1s.1.5,0,.7-.4.8-.8.6a1.4,1.4,0,0,1-.8-1,6.1,6.1,0,0,1-.1-1.4,3.9,3.9,0,0,0-1.1-2.2l-.5-.5a.8.8,0,0,1-.1-1.1h1.2a8.1,8.1,0,0,1,1.6,1.6l1.5,2a3.3,3.3,0,0,0,2.2,1.1,1.6,1.6,0,0,0,1.4-1.7,1.8,1.8,0,0,0,2.6-.3c.4-.6.4-1.3.8-1.8a5.9,5.9,0,0,1,1.4-.6,1.8,1.8,0,0,0,.9-.8h0a1.2,1.2,0,0,0-.9-.8,3.7,3.7,0,0,1-1.4-.7c-.4-.4-.4-1.1-.7-1.7a1.8,1.8,0,0,0-2.6-.3,1.5,1.5,0,0,0-1.4-1.7,2.6,2.6,0,0,0-2.2,1c-.6.6-1,1.3-1.5,1.9a6.4,6.4,0,0,1-1.7,1.6h-1.2c-.3-.3-.2-.7.1-1.1s.4-.3.5-.5a3.3,3.3,0,0,0,1.1-2.2,7.8,7.8,0,0,1,.2-1.4,1.4,1.4,0,0,1,.8-.9c.4-.2.7.2.8.5a2.2,2.2,0,0,1-.1.8h.5a1.7,1.7,0,0,0,1-.7,1.8,1.8,0,0,0,.1-2,1.4,1.4,0,0,0-1.3-.6,1,1,0,0,0-1-1.1,1.2,1.2,0,0,0-1.2,1c.2-.1.5.1.5.4a1.3,1.3,0,0,0-1.3,1,7.7,7.7,0,0,0-.2,1.5c0,.2-.1.4-.1.6a.5.5,0,0,0-.3-.5h-.5a1.3,1.3,0,0,0-.8.3.8.8,0,0,0-.4.9l.2.3c.2,0,.2-.2.3-.3s.4-.1.5.1a1.4,1.4,0,0,1,.2.6,2.9,2.9,0,0,1-.7,2.2l-.8,1h-1a9.2,9.2,0,0,1-5.1-4.6,1.1,1.1,0,0,1-.1-.8.7.7,0,0,1,.6-.3h.7a1.8,1.8,0,0,0,1.7-1.7,1.7,1.7,0,0,0-1.6-1.7,1.7,1.7,0,0,0-1.7,1.6,4.4,4.4,0,0,1,.8-3.3,4.8,4.8,0,0,1,2.7-1.9,3.5,3.5,0,0,1,3.5.9,1.9,1.9,0,0,1,.5,1.3,1,1,0,0,1-1.1.8,1.1,1.1,0,0,0-.2-1.5,1.4,1.4,0,0,0-1.5,0,1.5,1.5,0,0,0-.5,1.4,1.7,1.7,0,0,0,.8,1.3,2.5,2.5,0,0,0,2.5,0,3,3,0,0,0,1.4-2.1,3.6,3.6,0,0,0-.6-2.5,4.7,4.7,0,0,0-5.3-2.2,2.1,2.1,0,0,0-1.3-.9A.9.9,0,0,0,177,90.3Zm15.9,15.5c1.2,0,2.2.3,2.2.7s-1,.7-2.2.6-4.6-.3-4.6-.7S191.7,105.8,192.9,105.8Z" style="fill:#336"/><path d="M20.3,89.6a2.2,2.2,0,0,0-1.2.9,4.9,4.9,0,0,0-5.4,2.2,4.2,4.2,0,0,0-.5,2.5,3.2,3.2,0,0,0,1.3,2.1,2.5,2.5,0,0,0,2.5,0,1.8,1.8,0,0,0,.9-1.3,1.3,1.3,0,0,0-.6-1.4,1.4,1.4,0,0,0-1.5,0,1.2,1.2,0,0,0-.2,1.5.9.9,0,0,1-1-.8,1.3,1.3,0,0,1,.5-1.3,3.3,3.3,0,0,1,3.4-.9A5.1,5.1,0,0,1,21.3,95a5.6,5.6,0,0,1,.8,3.3,1.8,1.8,0,0,0-1.8-1.6,1.7,1.7,0,0,0-1.6,1.7,1.8,1.8,0,0,0,1.7,1.7h.7a.8.8,0,0,1,.7.3,1.1,1.1,0,0,1-.1.8,9.1,9.1,0,0,1-5.2,4.6h-.9a2.5,2.5,0,0,1-.8-1,3,3,0,0,1-.8-2.2.9.9,0,0,1,.3-.6.2.2,0,0,1,.4-.1l.3.3c.1-.1.2-.2.2-.3s-.1-.7-.4-.9a1.1,1.1,0,0,0-.8-.3h-.5a.5.5,0,0,0-.3.5c0-.2-.1-.4-.1-.6a3.9,3.9,0,0,0-.2-1.5,1.3,1.3,0,0,0-1.3-1c0-.3.3-.5.5-.4a1.1,1.1,0,0,0-1.1-1,1.2,1.2,0,0,0-1.1,1.1,1.1,1.1,0,0,0-1.2.6,1.5,1.5,0,0,0,.1,2,1.4,1.4,0,0,0,1,.7h.4c0-.3-.1-.5-.1-.8s.4-.7.8-.5a1.3,1.3,0,0,1,.9.9,7.1,7.1,0,0,1,.1,1.4,3.3,3.3,0,0,0,1.1,2.2l.5.5c.3.4.4.8.2,1.1H12.5a5.2,5.2,0,0,1-1.7-1.6c-.5-.6-.9-1.3-1.5-1.9a2.8,2.8,0,0,0-2.2-1,1.5,1.5,0,0,0-1.4,1.7,1.8,1.8,0,0,0-2.6.3,6.7,6.7,0,0,1-.8,1.7c-.3.4-.9.5-1.3.7a1.2,1.2,0,0,0-.9.8h0c.1.4.5.6.9.8a3.9,3.9,0,0,1,1.3.6c.5.5.5,1.2.8,1.8a1.8,1.8,0,0,0,2.6.3,1.6,1.6,0,0,0,1.4,1.7,3,3,0,0,0,2.2-1.1,14.9,14.9,0,0,0,1.5-2,12.9,12.9,0,0,1,1.7-1.6h1.2a.8.8,0,0,1-.2,1.1c-.1.2-.3.3-.5.5a4.4,4.4,0,0,0-1,2.2,5.9,5.9,0,0,1-.2,1.4,1.4,1.4,0,0,1-.8,1c-.4.2-.7-.2-.8-.6a1.7,1.7,0,0,1,.1-.7c0-.2,0-.1-.2-.1H9.8a1.7,1.7,0,0,0-1,.7,1.8,1.8,0,0,0-.1,2,1.4,1.4,0,0,0,1.3.6,1.2,1.2,0,0,0,1.1,1.1,1.2,1.2,0,0,0,1.1-1c-.2.1-.5-.1-.5-.4a1.5,1.5,0,0,0,1.3-1.1,3.9,3.9,0,0,0,.2-1.5c0-.2.1-.3.1-.5s.1.3.3.4h.5l.8-.4a.8.8,0,0,0,.4-.9c-.1-.1-.1-.2-.3-.2s-.1.1-.2.2h-.5a1.4,1.4,0,0,1-.2-.7,2.9,2.9,0,0,1,.7-2.2l.8-1h.9a8.5,8.5,0,0,1,5.2,4.6.9.9,0,0,1,.1.7.9.9,0,0,1-.6.4h-.7a1.8,1.8,0,0,0-1.7,1.7,1.9,1.9,0,0,0,1.6,1.7,1.7,1.7,0,0,0,1.7-1.6,4.7,4.7,0,0,1-3.4,5.2,3.7,3.7,0,0,1-3.5-.8,1.8,1.8,0,0,1-.5-1.3c.1-.5.6-1,1-.8a1,1,0,0,0,.3,1.4,1.4,1.4,0,0,0,1.5,0,1.5,1.5,0,0,0,.5-1.4,1.8,1.8,0,0,0-.9-1.3,2.5,2.5,0,0,0-2.5,0,3.2,3.2,0,0,0-1.3,2.2,3.9,3.9,0,0,0,.6,2.5,4.8,4.8,0,0,0,5.4,2.1,2.2,2.2,0,0,0,1.2.9c.5.1,1.2-.2,1.2-.8v-.5a3.1,3.1,0,0,1,.5-1.2,11,11,0,0,0,1.5-6.4,14.2,14.2,0,0,0-.5-2.2,8,8,0,0,0-1.8-3.4,9.7,9.7,0,0,0-3.6-2.3,9.9,9.9,0,0,0,3.6-2.4,8.6,8.6,0,0,0,1.8-3.4,15.5,15.5,0,0,0,.4-2.1A10.4,10.4,0,0,0,22,92.1a2.9,2.9,0,0,1-.5-1.3c0-.1.1-.3,0-.5A.9.9,0,0,0,20.3,89.6Zm-10,16.8c0,.4-3.4.7-4.6.7s-2.2-.2-2.2-.6,1-.7,2.2-.7S10.3,106.1,10.3,106.4Z" style="fill:#336"/><path d="M146.1,93.2h.3a3.5,3.5,0,0,1,3.5.9,1.5,1.5,0,0,1,.4,1.3.8.8,0,0,1-1,.8,1.2,1.2,0,0,0-.2-1.5,1.4,1.4,0,0,0-1.5,0A1.8,1.8,0,0,0,147,96a2.1,2.1,0,0,0,.9,1.3,2.5,2.5,0,0,0,2.5,0,3.8,3.8,0,0,0,1.4-2.1,4.2,4.2,0,0,0-.6-2.5,4.8,4.8,0,0,0-5.4-2.2,3,3,0,0,0-.8-.8C145.4,90.9,145.8,92,146.1,93.2Z" style="fill:#336"/><path d="M164.9,106.4h0a1.6,1.6,0,0,0-1-.8,4.2,4.2,0,0,1-1.3-.7c-.4-.4-.4-1.1-.8-1.7a1.7,1.7,0,0,0-2.5-.3,1.5,1.5,0,0,0-1.5-1.7,2.5,2.5,0,0,0-2.1,1c-.6.6-1,1.3-1.6,1.9a4.9,4.9,0,0,1-1.6,1.6h-1.2c-.3-.3-.2-.7.1-1.1l.5-.5a3.3,3.3,0,0,0,1.1-2.2c.1-.4,0-.9.1-1.4a1.6,1.6,0,0,1,.9-.9c.4-.2.7.2.8.5s-.1.5-.1.8h.5a2,2,0,0,0,1-.7,1.8,1.8,0,0,0,.1-2,1.4,1.4,0,0,0-1.3-.6,1.2,1.2,0,0,0-1-1.1,1.1,1.1,0,0,0-1.2,1c.2-.1.5.1.5.4a1.3,1.3,0,0,0-1.3,1,3.9,3.9,0,0,0-.2,1.5c0,.2-.1.4-.1.6a.5.5,0,0,0-.3-.5h-.5a1.1,1.1,0,0,0-.8.3.8.8,0,0,0-.4.9c0,.1.1.2.2.3l.3-.3c.1-.1.3-.1.5.1a1.4,1.4,0,0,1,.2.6,3,3,0,0,1-.8,2.2,3.6,3.6,0,0,1-.7,1h-1l-1.1-.2v1.8l1.1-.2h1a6.1,6.1,0,0,1,.7,1,3,3,0,0,1,.8,2.2l-.3.7h-.5a.2.2,0,0,0-.2-.2l-.2.2c-.2.4.1.7.4.9l.7.4h.6c.1-.1.3-.2.2-.4a.9.9,0,0,1,.1.5c.1.5.1,1,.2,1.5a1.5,1.5,0,0,0,1.3,1.1c0,.3-.3.5-.5.4a1.2,1.2,0,0,0,1.2,1,1.2,1.2,0,0,0,1-1.1,1.4,1.4,0,0,0,1.3-.6,1.8,1.8,0,0,0-.1-2,1.7,1.7,0,0,0-1-.7h-.3c-.2,0-.2-.1-.1.1s.1.5,0,.7-.4.8-.8.6a1.4,1.4,0,0,1-.8-1,6.1,6.1,0,0,1-.1-1.4,3.9,3.9,0,0,0-1.1-2.2c-.2-.2-.4-.3-.5-.5a.8.8,0,0,1-.1-1.1h1.1a8.7,8.7,0,0,1,1.7,1.6,14.9,14.9,0,0,0,1.5,2,3.3,3.3,0,0,0,2.2,1.1,1.6,1.6,0,0,0,1.4-1.7,1.8,1.8,0,0,0,2.6-.3,9.8,9.8,0,0,1,.8-1.8,7.5,7.5,0,0,1,1.3-.6,2,2,0,0,0,1-.8h0Zm-5.7.7c-1.2,0-4.6-.3-4.5-.7s3.3-.6,4.5-.6,2.2.3,2.2.7S160.5,107.2,159.2,107.1Z" style="fill:#336"/><path d="M150.3,115.5a2.5,2.5,0,0,0-2.5,0,2.1,2.1,0,0,0-.9,1.3,1.3,1.3,0,0,0,.6,1.4,1.4,1.4,0,0,0,1.5,0,1.1,1.1,0,0,0,.2-1.4c.5-.2,1,.3,1,.8a1.5,1.5,0,0,1-.5,1.3,3.6,3.6,0,0,1-3.5.8h0c-.3,1.1-.7,2.2-1,3.2l.5-.5a4.8,4.8,0,0,0,5.4-2.1,4.5,4.5,0,0,0,.5-2.5A3.2,3.2,0,0,0,150.3,115.5Z" style="fill:#336"/><path d="M52,93.2h-.3a3.3,3.3,0,0,0-3.4.9,1.3,1.3,0,0,0-.5,1.3.9.9,0,0,0,1,.8,1.2,1.2,0,0,1,.2-1.5,1.4,1.4,0,0,1,1.5,0,1.3,1.3,0,0,1,.6,1.4,1.8,1.8,0,0,1-.9,1.3,2.5,2.5,0,0,1-2.5,0,3.2,3.2,0,0,1-1.3-2.1,4.2,4.2,0,0,1,.5-2.5,4.9,4.9,0,0,1,5.4-2.2l.8-.8Z" style="fill:#336"/><path d="M33.2,106.5h.1c.1.4.5.6.9.8a3.9,3.9,0,0,1,1.3.6c.5.5.5,1.2.8,1.8a1.8,1.8,0,0,0,2.6.3,1.6,1.6,0,0,0,1.4,1.7,3,3,0,0,0,2.2-1.1,14.9,14.9,0,0,0,1.5-2,12.9,12.9,0,0,1,1.7-1.6h1.2a.8.8,0,0,1-.2,1.1l-.5.5a4.4,4.4,0,0,0-1,2.2,5.9,5.9,0,0,1-.2,1.4,1.4,1.4,0,0,1-.8,1c-.4.2-.7-.2-.8-.6a1.7,1.7,0,0,1,.1-.7c0-.2,0-.1-.2-.1H43a1.7,1.7,0,0,0-1,.7,1.8,1.8,0,0,0-.1,2,1.4,1.4,0,0,0,1.3.6,1.1,1.1,0,0,0,2.2.1c-.2.1-.5-.1-.5-.4a1.5,1.5,0,0,0,1.3-1.1,3.9,3.9,0,0,0,.2-1.5c0-.2.1-.3.1-.5s.1.3.3.4h.5l.8-.4a.8.8,0,0,0,.4-.9c-.1-.1-.1-.2-.3-.2s-.1.1-.2.2h-.5a1.4,1.4,0,0,1-.2-.7,2.9,2.9,0,0,1,.7-2.2l.8-1h.9l1.1.2v-1.8l-1.1.2h-.9a2.5,2.5,0,0,1-.8-1,3,3,0,0,1-.8-2.2.9.9,0,0,1,.3-.6.2.2,0,0,1,.4-.1l.3.3c.1-.1.2-.2.2-.3s-.1-.7-.4-.9a1.1,1.1,0,0,0-.8-.3h-.5a.5.5,0,0,0-.3.5c0-.2-.1-.4-.1-.6a3.9,3.9,0,0,0-.2-1.5,1.3,1.3,0,0,0-1.3-1c0-.3.3-.5.5-.4a1.1,1.1,0,0,0-1.1-1,1.2,1.2,0,0,0-1.1,1.1,1.1,1.1,0,0,0-1.2.6,1.5,1.5,0,0,0,.1,2,1.4,1.4,0,0,0,1,.7h.4c0-.3-.1-.5-.1-.8s.4-.7.8-.5a1.3,1.3,0,0,1,.9.9,7.1,7.1,0,0,1,.1,1.4,3.3,3.3,0,0,0,1.1,2.2l.5.5c.3.4.4.8.2,1.1H45.7a5.2,5.2,0,0,1-1.7-1.6c-.5-.6-.9-1.3-1.5-1.9a2.8,2.8,0,0,0-2.2-1,1.5,1.5,0,0,0-1.4,1.7,1.8,1.8,0,0,0-2.6.3,6.7,6.7,0,0,1-.8,1.7c-.3.4-.9.5-1.3.7a1.2,1.2,0,0,0-.9.8h-.1Zm3.5,0c0-.4,1-.7,2.2-.7s4.6.3,4.6.6-3.4.7-4.6.7S36.7,106.9,36.7,106.5Z" style="fill:#336"/><path d="M47.8,115.5a2.5,2.5,0,0,1,2.5,0,1.8,1.8,0,0,1,.9,1.3,1.5,1.5,0,0,1-.5,1.4,1.4,1.4,0,0,1-1.5,0,1,1,0,0,1-.3-1.4c-.4-.2-.9.3-1,.8a1.8,1.8,0,0,0,.5,1.3,3.7,3.7,0,0,0,3.5.8H52l.9,3.2-.4-.5a4.8,4.8,0,0,1-5.4-2.1,3.9,3.9,0,0,1-.6-2.5A3.2,3.2,0,0,1,47.8,115.5Z" style="fill:#336"/><path d="M123.6,99.8a12.7,12.7,0,0,1-3.4,4.8,14.2,14.2,0,0,1-4.5,3.2l-3.1,1c-.5.2-.7.4-.6,1s.1,2.3.1,3.4c0,3,.3,6,.6,9a15.2,15.2,0,0,0,1.2,4.3,3.2,3.2,0,0,0,4.9,1.1,1.1,1.1,0,0,0,.5-1.3,1.9,1.9,0,0,1-2.5-1.8,1.8,1.8,0,0,1,.9-1.7,2.4,2.4,0,0,1,1.6-.5,3.9,3.9,0,0,1,3.5,4.7,5.1,5.1,0,0,1-3.8,3.8l-2,.4c-2,.2-3.5-.7-5-1.8l-1-.7c-.2-.2-.4-.2-.5.1a4.1,4.1,0,0,1-2.1,2.2,1.7,1.7,0,0,1-1.9-.2c-.2-.2-.4-.4-.1-.8a3.3,3.3,0,0,0,.2-2.2,14.5,14.5,0,0,0-2.2-4.5c-1.2-2-2.6-3.9-3.9-5.9a.8.8,0,0,0-.5-.5,4.5,4.5,0,0,0,.1,2c.1,2.2.3,4.4.5,6.7s.3,2.5.5,3.7a8.8,8.8,0,0,0,1,3.5,4.2,4.2,0,0,0,2.4,2.5,3,3,0,0,0,2.3.2c.3,0,.5-.1.4-.4a1.2,1.2,0,0,1,.4-1.4,1.4,1.4,0,0,1,1.7.1c1.4,1.1,1.4,2.6.2,4a5.1,5.1,0,0,1-3.9,1.5,8.8,8.8,0,0,1-3.9-.5,7.3,7.3,0,0,1-3.6-3.1c-.1-.2-.1-.4-.4-.5l-1.6,1.4a10.9,10.9,0,0,1-8.4,2.7,4,4,0,0,1-2.2-.9,1.5,1.5,0,0,1-.6-.9,10.6,10.6,0,0,1-.4-1.9c0-1.1.5-1.8,1.5-1.9a1.9,1.9,0,0,1,2,1.5,1.7,1.7,0,0,1,.1,1,1.1,1.1,0,0,0,1.1-.2,8.5,8.5,0,0,0,4.2-4.9,29.9,29.9,0,0,0,1.4-6.6c.5-3.7.2-7.5.3-11.2V113c0-.8,0-.9-.9-.8a3.9,3.9,0,0,1-1.8-.4.7.7,0,0,1-.4-1,8.9,8.9,0,0,0,.4-4.3,14.4,14.4,0,0,0-1.3-4,41.9,41.9,0,0,0-3.4-5.8c-.4-.8-1-1.5-1.5-2.4a3.9,3.9,0,0,0-.2,1.8c0,2.1.1,4.1.1,6.2s.1,3.6.2,5.4-.1,2.4-.1,3.6.1,4.3.2,6.4.2,2.8.4,4.2.3,2.1.6,3.2a6.2,6.2,0,0,0,.7,1.9,2.8,2.8,0,0,0,1.7,1.3c.3.1.6.4,1,.4a.5.5,0,0,1,.3.4,1.7,1.7,0,0,1-.5,1.5,3.6,3.6,0,0,1-2.7.6,4.9,4.9,0,0,1-2.8-2.1l-.8-1.1-.9,1a6.9,6.9,0,0,1-3.3,2.2,8.4,8.4,0,0,1-3.9.3c-1.7-.4-3.9-2.4-3.9-4.3a11.5,11.5,0,0,1,.1-1.9,3.1,3.1,0,0,1,2.2-2.6,3,3,0,0,1,3,.7,1.9,1.9,0,0,1,.3,2.4,1.6,1.6,0,0,1-2.4.5l-.3-.2a1.6,1.6,0,0,0,.7,2,2.6,2.6,0,0,0,2.1.2c2.5-.8,3.6-2.6,4.1-5a27.6,27.6,0,0,0,.6-4c.1-1.3.1-2.6.1-3.9V96.9c-.1-2,.1-4.1-.5-6.1a5.6,5.6,0,0,0-1.6-2.9,2.9,2.9,0,0,0-2.9-.7,2,2,0,0,0-1.2,2,1.2,1.2,0,0,1-1.5,1.1,2.8,2.8,0,0,1-1-4.1c.2-.4,0-.7-.2-1.1A7.9,7.9,0,0,1,72.7,81a4.4,4.4,0,0,1,3.4-4.4,4.1,4.1,0,0,1,4.2,1.2,2.3,2.3,0,0,1,.2,2.8,1.6,1.6,0,0,1-1.7.7,2.3,2.3,0,0,1-2-2.1.4.4,0,0,0-.1-.3,1,1,0,0,0-.7.4,2.8,2.8,0,0,0,1.2,4.6,24.6,24.6,0,0,0,3.7.4h2.4c.6,0,.8.4,1,.9v.3c.1.7.3,1.1.9,1.1a1.2,1.2,0,0,0,1-1.2c0-.2,0-.3-.1-.4s.1-.6.5-.6,2.5.1,3.8.1h.4c.1.1.3.2.3.4l-.3.2a2.8,2.8,0,0,0-1.1,2.6,18.6,18.6,0,0,0,2.2,5.5c.7,1.5,1.6,2.8,2.4,4.2a.8.8,0,0,0,.5.5c.2,0,.2-.2.2-.3s0-1.6-.1-2.3-.1-3.9-.2-5.9a18.4,18.4,0,0,0-1.6-7.3,7,7,0,0,0-2.9-3.2,3,3,0,0,0-2.9-.2c-.6.3-.6.5-.3,1a1.2,1.2,0,0,1-.2,1.6,1.6,1.6,0,0,1-1.6.3c-1.8-.9-2-2.6-.5-4.1a6.3,6.3,0,0,1,3.4-1.6A9.6,9.6,0,0,1,95,78.1a7.8,7.8,0,0,1,1.6,2.4,3.7,3.7,0,0,1,.7,1.4c0,.2.1.3.3.4l.8-1.3a11.7,11.7,0,0,1,8.3-5.1,17.5,17.5,0,0,1,7.2.1,14.5,14.5,0,0,1,7.6,4.7,13.3,13.3,0,0,1,2.9,5.5c.6,2,1.2,4,1.7,5.9a6,6,0,0,0,.6,1.9,1.4,1.4,0,0,0,1,.8,1.5,1.5,0,0,1,.4,2.3,3,3,0,0,1-3.4,1.2c-.3-.1-.4,0-.5.3l-.6,1.2m-14.9,19.3c.1-2-.2-3.9,0-5.9a2.1,2.1,0,0,1-2.1-1.7,2.8,2.8,0,0,1,.3-2.2c.1-.3.1-.5-.3-.7a10.1,10.1,0,0,1-3.6-2.5,6,6,0,0,1-.9-7.5c.7-1.1,2.7-2.1,4-1.5s1.9,1.8,1.6,2.6a2.1,2.1,0,0,1-2.9,1.3c-.4-.1-.6-.1-.6.5s.1.9.1,1.4a4.2,4.2,0,0,0,4,3.5c.4-.1.5-.2.5-.6s0-2.3,0-3.5,0-3.6-.2-5.4a25.5,25.5,0,0,0-1.2-6.7,7.7,7.7,0,0,0-3.2-4.7,1.8,1.8,0,0,1-.5-.7q-.5-.6.3-.6c1.6-.2,3.2.1,4.8,0s1.2.9,1,1.3-.2.6.2.8a.8.8,0,0,0,1-.1,1.2,1.2,0,0,0,.4-1.5c-.2-.5,0-.6.5-.6h2.3a10.6,10.6,0,0,1,2.5.2c.7.3.7.6.2,1a13.1,13.1,0,0,0-3.8,6,21,21,0,0,0-.6,2.4,24.7,24.7,0,0,0-.5,3.8c-.2,2.4.1,4.8.1,7.3a1.6,1.6,0,0,0,.3.9,7.5,7.5,0,0,0,3.3-2.7,14.9,14.9,0,0,0,2.3-8.1c.1-2.1,0-4.1,0-6.1a16.3,16.3,0,0,0-1.3-6.1,6.2,6.2,0,0,0-2.3-2.8,8.1,8.1,0,0,0-5.6-1.3,8.2,8.2,0,0,0-4.7,2.2,11.1,11.1,0,0,0-3.4,5.3,20.2,20.2,0,0,0-.8,5.4c0,3.3,0,6.6.3,9.9.1,1.5,0,2.9,0,4.4a4.5,4.5,0,0,0,.8,2.3,66.5,66.5,0,0,1,3.6,5.6l3.7,5.4c.1.1.1.4.4.1m5.5,8.8c-.1,0-.2-.2-.4-.1s.2.3-.1.5a3.2,3.2,0,0,1-1.3-1.5,13.1,13.1,0,0,1-1.9-6.9c0-2.4-.3-4.7-.2-7a.4.4,0,0,0-.2-.4c-.6.1-.7.6-.7,1.1.1,2.9-.1,5.7.1,8.6,0,.4-.3.5-.6.7s-.4-.1-.5-.3a3.5,3.5,0,0,1-.5-.8,18.2,18.2,0,0,1-1.5-2.3l-4.1-6.1c-.9-1.3-1.7-2.6-2.6-3.8s-3.2-5.2-4.9-7.7L91.1,96c-.8-1.5-1.5-2.9-2.2-4.4a8.2,8.2,0,0,1-.6-6.3.2.2,0,0,0,0-.3A1.9,1.9,0,0,0,87,85a1.9,1.9,0,0,1-.6,1.6,1.7,1.7,0,0,1-1.5.7c.1.2.3.2.2.4s-.7,0-1,.3.7,1.8.3,2.9A31.5,31.5,0,0,1,82.7,85c-.2-.2-.5-.1-.7-.1H79a5.2,5.2,0,0,1-4.3-2.1l-.2-.2c-.6.1-.6-.4-.8-.8a4.2,4.2,0,0,1,1.7-4,2.6,2.6,0,0,1,1.9-.5c.3,0,.7.1.6.5a3.2,3.2,0,0,1-.3.9,1.1,1.1,0,0,0,.2,1.2c.2.4.5,0,.7,0s.9-.3.8-1v-.4c.5-.5,0-.7-.3-1a2.5,2.5,0,0,0-1.5-.5,3.7,3.7,0,0,0-3.7,2.3,4.8,4.8,0,0,0-.3,2.9c0,.5.4.6.6,1l1.3,1.3a.8.8,0,0,1-.1,1.3,3,3,0,0,0-1,2c-.2,1,.6,2.2,1.6,1.7a.7.7,0,0,0-.4-.7c-.3,0-.3-.3-.3-.5A3.3,3.3,0,0,1,77,85.8,4.1,4.1,0,0,1,81.8,87c.3.3.4.6-.1.8a11.4,11.4,0,0,1,1.3,3,12.4,12.4,0,0,1,.4,3.3c0,3.4,0,6.7.1,10.1v10.4a39.9,39.9,0,0,1-.3,6.9,10.9,10.9,0,0,1-2.1,5.4,5.1,5.1,0,0,1-6.1,1.7c-.2.6-.5.4-.8.1a5.1,5.1,0,0,1-.9-1.6,2.9,2.9,0,0,1,.2-2.4c.2-.4.4-.4.8-.1s.3.4.6.5.3-.2.8-.1a.6.6,0,0,0,.6-.9c0-.1-.1-.2,0-.4s-.1-.4-.3-.4a2.2,2.2,0,0,0-2.4.8,3.9,3.9,0,0,0,.7,5.1c.2.2.4.4.6.2a.8.8,0,0,1,.7.1c2.1.5,4,.5,5.7-1a6.8,6.8,0,0,0,2-2.7c.1-.3.2-.6.5-.5a.5.5,0,0,1,.5.5,3.2,3.2,0,0,1,.3.9,4,4,0,0,0,1.8,2.6c.1.1.2.2.3.1s.8,0,1.2.1a1.2,1.2,0,0,0,1.6-.6,5.5,5.5,0,0,1-1.7-1.1c-.3.4-.6.3-.8,0a9.1,9.1,0,0,1-1.9-4.4,39.4,39.4,0,0,1-.7-7.7c0-3.2-.2-6.5,0-9.8,0-1.7-.1-3.4-.1-5.1s.1-4.1.1-6.1v-3c0-.2-.1-.4.1-.5h.3a7.6,7.6,0,0,0,.9.9l2.7,4.5a43.4,43.4,0,0,1,2.8,4.6c1.4,2.7,2.4,5.6,1.7,8.8-.1.3.1.5.5.6a7.5,7.5,0,0,1,4.7,1.9c.2.1.4.3.2.5s0,.4.1.5a45.9,45.9,0,0,1,3.3,4.4c1.1,1.6,2.2,3.2,3.2,4.9s2.7,4.4,2.4,7.2c.3-.1.6,0,.5-.4s0-.3.1-.4A2.5,2.5,0,0,0,109,127a1.1,1.1,0,0,1,.6-.9c.3-.1.4.3.6.5s.2.2.2.3a6.1,6.1,0,0,0,4.6,2.9c.2.1.4.1.5-.1s.3-.3.6-.3a6.2,6.2,0,0,0,1.9-.2,3.8,3.8,0,0,0,3-2.7,2.4,2.4,0,0,0-1-2.7c-.3-.2-.3-.4-.1-.7a1.9,1.9,0,0,0-1.5.1,1.4,1.4,0,0,0-.9,1.1.6.6,0,0,0,.2.7c.2.2.4,0,.5-.1a.8.8,0,0,1,1,.1,1.9,1.9,0,0,1,0,3.1,3.7,3.7,0,0,1-5-.2m2.1-49.4c-.2-.3-.7-.3-.8-.7s.5.1.8,0l-.8-.5-.6-.2a14.9,14.9,0,0,0-6.9-.8,18.7,18.7,0,0,0-4.1.9,11.2,11.2,0,0,0-5.2,4.4,7.4,7.4,0,0,0-1,2.2c-.2.8.1,1.9-.9,2.4s-.2.2-.4.1-.2-.2-.2-.4-.1-.9-.2-1.4c-.6-3.3-2.2-5.9-5.5-7.1-.4-.2-.7-.3-.2-.7a6.4,6.4,0,0,0-4.3.6c-1.1.7-1.7,1.6-1.5,2.6a.9.9,0,0,0,.6.7c.4.1.5-.2.6-.4s.3-.2.3-.4l-.6-.3c-.7-.4-.8-.7-.1-1.2A5.1,5.1,0,0,1,88.7,77c.3-.1.5.1.8.2s.2.3-.1.5a7.4,7.4,0,0,1,3,2.1A8.2,8.2,0,0,1,94,82.3a13.8,13.8,0,0,1,1,4c.1,1.4.4,2.9.4,4.3s.1,3,.1,4.5.1,2.1.1,3.1a2.3,2.3,0,0,0,.3,1.8c.7,1.1,1.4,2.2,2,3.3a.5.5,0,0,0,.4.2v-.9c-.1-3.1-.2-6.2-.2-9.3a3.2,3.2,0,0,1-.1-1.4c.3-1,.1-2,.3-3A16.7,16.7,0,0,1,99.5,84a11.3,11.3,0,0,1,2.9-4.3,13.4,13.4,0,0,1,5.8-2.7,9,9,0,0,1,6,1c.4.1.7.3.2.8l1.2.9a12.8,12.8,0,0,1,2.7,5.9,31,31,0,0,1,.3,6.8,35.6,35.6,0,0,1-.5,6.5c-.6,3.3-3.5,7.6-7.9,8a8.9,8.9,0,0,1-2.3.1,4.8,4.8,0,0,1-3.4-1.6.5.5,0,0,0-.4-.2c-.7.1-.8-.1-.6-.9s-.6-.3-.8-.7a2.7,2.7,0,0,1-.3-1.5,4.3,4.3,0,0,1,1.2-3.2c.3-.3.6-.4.8.2s.5-.3.8,0,.7.3.9-.2.3-.3.5-.1-.6-1.2-1.2-1.2a2.5,2.5,0,0,0-1.9.5c-1.6,1.1-2,3.4-1.4,5.3a7.5,7.5,0,0,0,3.3,3.7,1.2,1.2,0,0,0,.8.2,8,8,0,0,1,2.1.5c.3.1.3.3.1.5l-.4.5a3.3,3.3,0,0,0-.7,1.7,10.5,10.5,0,0,1,.8-1.1,7.7,7.7,0,0,1,4-2.3,15.9,15.9,0,0,0,5-2.2,13.5,13.5,0,0,0,4.7-5.6,9,9,0,0,0,.9-3.3c.1-.5-.2-1,.2-1.5s.1-.3.3-.3.3.2.4.4a3.3,3.3,0,0,0,1.1,1.5,1,1,0,0,0,1.7,0c.1-.1.3-.4.6-.3s0,.4.1.7.4-.6.3-.9H127a1.3,1.3,0,0,1-1.6-.5,5.7,5.7,0,0,1-1.1-1.6c-.9-2.1-1.2-4.3-1.9-6.5a17.5,17.5,0,0,0-1.2-3.2,12.3,12.3,0,0,0-4.9-5.2M95.5,134a8.1,8.1,0,0,1,.2-5.1,2.5,2.5,0,0,1,1.9-1.2c-.1-1.8-.6-3.5.2-5.3a1.3,1.3,0,0,1,.3.8c.2,1.3.2,2.8.5,4.2s.1.3-.1.4-.2.6-.3,1,.6-.1.9.3a55.2,55.2,0,0,1-.7-5.5c-.1-1.9-.3-3.8-.3-5.6.1-.3,0-.4-.2-.7s-1.4-.9-1.9-1.8-.3.7-.3,1a8.7,8.7,0,0,1,.1,2.3,40.1,40.1,0,0,1-.9,9.1,13.8,13.8,0,0,1-1.7,5.3,8.9,8.9,0,0,1-4.1,3.6,3.3,3.3,0,0,1-2.4.1c-.7-.2-.7-.5-.3-1l.3-.3c-.5-.4-.6-.5-.2-1.1a.9.9,0,0,0-1.3.6,2.3,2.3,0,0,0,.6,1.9c.1.1.2.2.4.1a.6.6,0,0,1,.8.1,6.5,6.5,0,0,0,1.9.4.9.9,0,0,0,.8-.4c.1-.2.3-.3.4-.1s1,0,1.4-.1.5-.2.4-.5,0-.4.2-.5l.4.2c.2.4.4.3.7.1a.7.7,0,0,0,.5-.8c0-.5.2-.7.6-.5a.9.9,0,0,0,1.2-1m11.8-45.8a17.4,17.4,0,0,1,1.6,5.5,42,42,0,0,1,.5,7.9v4.1c0,.3.1.5.5.5s.4-.2.4-.5-.1-2.1-.2-3.2-.1-4,0-6a26.8,26.8,0,0,1,1.1-5.5,15.8,15.8,0,0,1,2.9-5.8c.1-.2.3-.3.2-.5h-1.6c-.3,0-.4.1-.5.4a2.1,2.1,0,0,1-2.3,2.1c.2.7-.4.5-.8.5s.1.6.1.9a12.6,12.6,0,0,1,.5,3.3.4.4,0,0,1-.2.6c-.3-.1-.3-.4-.3-.6s-.6-3.1-.7-4.7-.1-.2-.2-.3a3.7,3.7,0,0,1-.5-1.7.5.5,0,0,0-.4-.5h-1.7c1,.9.9,2.3,1.6,3.4m-4.6,48.9c.4.3.5-.2.9-.4a1.4,1.4,0,0,0,1.3.7h.8a3.7,3.7,0,0,0,2.9-1.7c.2-.4.3-.7.8-.4s-.7-1.2-1.2-1.1-.7.9-.5,1.2,0,.6-.3.7a3.4,3.4,0,0,1-2.2.2,4.1,4.1,0,0,1-2.4-1.3c-.3.6-.5.3-.8.1a7,7,0,0,1-1.5-2,18.8,18.8,0,0,1-1.2-3,8.1,8.1,0,0,1-.9,4,1.8,1.8,0,0,1,.9.6l.9-1a3.3,3.3,0,0,1,0,1.4c-.2.7-.1,1,.7,1.2s.1-.6.5-.6.4.4.4.7.4.7.9.8M89.8,91.6a14.9,14.9,0,0,1-1.3-3.9,7,7,0,0,0,.7,3.3,71.5,71.5,0,0,0,4.2,7.7l5.4,8.5.4.3q-1-1.8-2.1-3.3c-1.5-2.3-2.9-4.7-4.4-7.1s-1.9-3.6-2.9-5.5m34.1-1a28.5,28.5,0,0,0,1.2,3.1,1.8,1.8,0,0,0,1,1.1l-.2-.4a10.1,10.1,0,0,1-1.7-3.8,31.2,31.2,0,0,0-2.4-7.3,4.4,4.4,0,0,0-1.3-1.8l.3.4a20.3,20.3,0,0,1,2,4.2c.4,1.5.8,2.9,1.1,4.5M96.6,130.7a4.3,4.3,0,0,0,.5,1.6c.1.3.3.4.6.1a3.7,3.7,0,0,0,0-2.9c-.2-.4-.5-.4-.8,0a2.1,2.1,0,0,0-.3,1.2m14.1-34.6a47.4,47.4,0,0,0,.2,9.6c-.1-4.4-.4-8.8.5-13.2a13.5,13.5,0,0,0-.7,3.6m-12.1-3a35.4,35.4,0,0,0,.2,5.6c-.2-3,0-6,.1-9a17.9,17.9,0,0,0-.3,3.4m-13.7,8.2c.1-2.5,0-5,0-7.4a67.7,67.7,0,0,0,0,7.8v-.4m27.9-13a14.3,14.3,0,0,0-.8,2.2,20.2,20.2,0,0,1,3.3-5.7,13,13,0,0,0-2.5,3.5m9.3,11.6c0,.1-.2.2-.1.4a6.9,6.9,0,0,0,1.3-3.7.8.8,0,0,1,.4-.7c-.2-.1-.2-.4-.5-.5a9.1,9.1,0,0,1-1.1,4.5m-15.2,37.6-.7.3a1.4,1.4,0,0,0,1.4-.1c-.2-.4-.4-.2-.7-.2m-6.4-27.8.5.7a4.9,4.9,0,0,0-1.1-1.8,6,6,0,0,0,.6,1.1m8.5,26.9c0-.1,0-.3-.1-.3a.9.9,0,0,0-.7.8c.4.1.6-.2.8-.5m-3.9,1.3c-.2.1-.5,0-.8.2a1.5,1.5,0,0,0,1.3,0c-.1-.2-.3-.1-.5-.2m13.5-58.5,1.2,1.1a5,5,0,0,0-1.7-1.5l.5.4m-16.2,58.2c-.2,0-.3-.2-.5,0a1.6,1.6,0,0,0,1.3.3c-.2-.3-.5-.1-.8-.3m4.7-59.8a16,16,0,0,0,2.1-.5,6.1,6.1,0,0,0-2.4.6h.3m-4.5,34.8h-.1a4,4,0,0,0,1,1.5l-.9-1.5m2.5-12.5a.9.9,0,0,0,1.3-.5c-.4.4-.8.6-1.3.3s-.1.1,0,.2m16.3,24.6.3.7c0-.5,0-.8-.3-1.1s0,.2,0,.4m-29.9,13c.1,0,.2,0,.2-.2l-1.4.4Z" style="fill:#336"/><ellipse cx="100.3" cy="106.5" rx="49.5" ry="60.1" style="fill:none"/><ellipse cx="99.1" cy="106.2" rx="48.3" ry="57.9" style="fill:none;stroke:#336;stroke-miterlimit:10"/></svg>