<svg xmlns="http://www.w3.org/2000/svg" viewBox="0 0 89.3 145.8"><path d="M20.1,115.8a4.3,4.3,0,0,0-.1.5,5.6,5.6,0,0,0,1.3,5.5,2.8,2.8,0,0,0,2.1.8,1.6,1.6,0,0,0,1.3-1.7,1.8,1.8,0,0,1-2.3-.3,2,2,0,0,1,0-2.4,2.4,2.4,0,0,1,2.2-.9,3.1,3.1,0,0,1,2.1,1.4,4.1,4.1,0,0,1-.1,4,4.9,4.9,0,0,1-3.4,2.1,6.4,6.4,0,0,1-4-.9,7.7,7.7,0,0,1-3.4-8.5,4,4,0,0,1-1.3-1.3Z" style="fill:#336"/><path d="M41.2,145.7h.2a3.2,3.2,0,0,0,1.3-1.5,3.8,3.8,0,0,1,1-2.1c.7-.7,1.9-.8,2.7-1.3a2.7,2.7,0,0,0,.5-4.1,2.5,2.5,0,0,0,2.7-2.3,4.4,4.4,0,0,0-1.6-3.5c-1-.9-2.2-1.5-3.2-2.3a12.7,12.7,0,0,1-2.5-2.7V124a1.5,1.5,0,0,1,1.8.2l.8.8a5.3,5.3,0,0,0,3.5,1.7,16.4,16.4,0,0,1,2.2.2,2.1,2.1,0,0,1,1.6,1.3c.3.7-.3,1.2-.9,1.3a2.5,2.5,0,0,1-1.2-.1c-.2,0-.2,0-.2.3a.6.6,0,0,0,.1.4,2.7,2.7,0,0,0,1,1.6,3,3,0,0,0,3.3.2,2,2,0,0,0,.8-2,1.8,1.8,0,0,0,.2-3.6.7.7,0,0,1-.6.9,2.2,2.2,0,0,0-1.7-2.1,6.6,6.6,0,0,0-2.4-.3l-.9-.2a.8.8,0,0,0,.7-.4,1.5,1.5,0,0,0,.2-.9,2.7,2.7,0,0,0-.6-1.2c-.4-.5-.8-.9-1.5-.6l-.4.3c0,.2.3.3.4.5a.5.5,0,0,1,0,.7l-1,.4a5.2,5.2,0,0,1-3.6-1.2,16.7,16.7,0,0,1-1.6-1.2v-1.5c.1-.3.3-1.4.4-1.7h-3c.1.4.3,1.5.4,1.8V121a9.5,9.5,0,0,1-1.6,1.2,4.5,4.5,0,0,1-3.5,1.3l-1-.4a.5.5,0,0,1-.1-.8c.2-.1.4-.2.4-.4s-.2-.3-.4-.3-1.1.1-1.5.6a4.3,4.3,0,0,0-.5,1.2,2.8,2.8,0,0,0,.1.9,1,1,0,0,0,.7.4l-.9.2a8.5,8.5,0,0,0-2.3.3,2.1,2.1,0,0,0-1.7,2.1.7.7,0,0,1-.6-.8,1.7,1.7,0,0,0-1.6,1.8,1.8,1.8,0,0,0,1.8,1.7,1.9,1.9,0,0,0,.9,2,2.7,2.7,0,0,0,3.3-.2,2.6,2.6,0,0,0,.9-1.6.6.6,0,0,0,.1-.4c0-.3.1-.3-.2-.3a2.1,2.1,0,0,1-1.1.1c-.6-.1-1.3-.6-1-1.3a2.4,2.4,0,0,1,1.6-1.3,16.4,16.4,0,0,1,2.2-.2,5.9,5.9,0,0,0,3.5-1.8l.8-.7A1.3,1.3,0,0,1,40,124v1.9a12.7,12.7,0,0,1-2.5,2.7,36.5,36.5,0,0,0-3.1,2.4,4.2,4.2,0,0,0-1.6,3.5,2.4,2.4,0,0,0,2.7,2.2,2.8,2.8,0,0,0,.5,4.1c.9.6,2,.6,2.8,1.3a6.8,6.8,0,0,1,1,2.1,2.7,2.7,0,0,0,1.3,1.5h0A.1.1,0,0,0,41.2,145.7Zm0-5.5c-.6,0-1.1-1.5-1.1-3.5s.5-7.3,1.1-7.3,1.1,5.4,1.1,7.3S41.8,140.2,41.2,140.2Z" style="fill:#336"/><path d="M55.6,122.5a3.9,3.9,0,0,1-.1-3.9,3.2,3.2,0,0,1,2.1-1.5,2.4,2.4,0,0,1,2.2.9,2.1,2.1,0,0,1,.1,2.4,1.8,1.8,0,0,1-2.3.3,1.5,1.5,0,0,0,1.2,1.7,2.6,2.6,0,0,0,2.1-.8,5.7,5.7,0,0,0,1.3-5.6h0l5-1.5-.9.7a7.7,7.7,0,0,1-3.3,8.6,6.3,6.3,0,0,1-4,.9A5,5,0,0,1,55.6,122.5Z" style="fill:#336"/><path d="M81.5,38.6a20.9,20.9,0,0,1-5.3,7.5A24.5,24.5,0,0,1,69,51.3l-4.9,1.6c-.8.2-1.1.6-1,1.5a48.7,48.7,0,0,1,.2,5.4,113.2,113.2,0,0,0,1,14.3A20.9,20.9,0,0,0,66.2,81a5,5,0,0,0,7.7,1.7,1.7,1.7,0,0,0,.8-2.1c-2.3.4-3.7-.6-3.9-2.8a2.8,2.8,0,0,1,1.4-2.7,3.4,3.4,0,0,1,2.6-.8,6.1,6.1,0,0,1,5.5,7.5,8,8,0,0,1-6,5.9,18.3,18.3,0,0,1-3.2.7c-3.1.3-5.6-1.1-8-2.9l-1.5-1.1c-.4-.3-.8-.3-.9.3a6.1,6.1,0,0,1-3.3,3.4,2.4,2.4,0,0,1-3-.3.8.8,0,0,1-.3-1.2c.8-1.1.6-2.3.4-3.6s-2.1-4.8-3.5-7.1-4.1-6.3-6.1-9.4a1.9,1.9,0,0,0-.9-.9,8.6,8.6,0,0,0,.1,3.2L45,79.5c.2,2,.5,3.9.8,5.9A15,15,0,0,0,47.3,91a7.8,7.8,0,0,0,3.8,4,5.6,5.6,0,0,0,3.8.3c.4-.1.7-.2.5-.7a1.9,1.9,0,0,1,.8-2.2,2.1,2.1,0,0,1,2.6.1c2.3,1.8,2.3,4.3.4,6.4a8.9,8.9,0,0,1-6.2,2.5,13.2,13.2,0,0,1-6.2-.9,11.9,11.9,0,0,1-5.7-4.9c-.2-.3-.3-.7-.7-.9l-2.6,2.4a17.2,17.2,0,0,1-13.4,4.2,7.6,7.6,0,0,1-3.5-1.4,2.5,2.5,0,0,1-.8-1.4,8.2,8.2,0,0,1-.7-3.1c0-1.8.8-2.8,2.3-3A3.2,3.2,0,0,1,25,94.8a4.3,4.3,0,0,1,.1,1.6,1.9,1.9,0,0,0,1.8-.3,13.6,13.6,0,0,0,6.7-7.8,53,53,0,0,0,2.2-10.5c.8-6,.3-11.9.5-17.9v-.4c0-1.3-.1-1.5-1.4-1.3a5.6,5.6,0,0,1-2.9-.6,1.1,1.1,0,0,1-.7-1.6,14.3,14.3,0,0,0,.6-6.8,22.2,22.2,0,0,0-2-6.5,83.8,83.8,0,0,0-5.4-9.1,39.8,39.8,0,0,0-2.4-3.8,5.9,5.9,0,0,0-.3,2.9c0,3.2.1,6.5.1,9.7l.3,8.6c.1,1.9-.1,3.9,0,5.8.1,3.4.1,6.8.3,10.2s.2,4.4.5,6.6.5,3.4.9,5.1a16,16,0,0,0,1.3,3,3.7,3.7,0,0,0,2.5,2.1c.6.2,1.1.7,1.7.7s.4.4.5.7a2.5,2.5,0,0,1-.8,2.2,5.1,5.1,0,0,1-4.3,1,8.2,8.2,0,0,1-4.5-3.3L19,83.3l-1.4,1.6a10.3,10.3,0,0,1-5.2,3.5,10.9,10.9,0,0,1-6.2.4C3.4,88.3,0,85.1,0,82a27.1,27.1,0,0,1,.1-2.9,5,5,0,0,1,3.5-4.2,5,5,0,0,1,4.8,1.2,2.8,2.8,0,0,1,.4,3.8c-1,1.4-2.2,1.6-3.8.7l-.5-.2c-.6.9,0,2.5,1.2,3.1a4.1,4.1,0,0,0,3.4.3c3.8-1.3,5.7-4.2,6.5-8,.4-2.1.7-4.1.9-6.3s.1-4.2.1-6.2q.1-14.7,0-29.4c0-3.2.2-6.5-.7-9.7a8.5,8.5,0,0,0-2.6-4.6,4.2,4.2,0,0,0-4.6-1.1,3.2,3.2,0,0,0-1.9,3.1,1.9,1.9,0,0,1-2.4,1.7A3.6,3.6,0,0,1,2,19.4a4.6,4.6,0,0,1,.8-2.5,1.4,1.4,0,0,0-.3-1.7A13.7,13.7,0,0,1,.6,8.6a7.1,7.1,0,0,1,5.5-7,6.1,6.1,0,0,1,6.5,1.9A3.5,3.5,0,0,1,13,8a2.9,2.9,0,0,1-2.6,1.1A3.9,3.9,0,0,1,7.1,5.8a.6.6,0,0,0-.2-.5,1.5,1.5,0,0,0-1,.6c-2.5,2.3-1,6.6,1.9,7.4a29.4,29.4,0,0,0,5.9.5h3.8A1.5,1.5,0,0,1,19,15a1.3,1.3,0,0,1,.1.6c.1,1.2.5,1.7,1.4,1.7a1.8,1.8,0,0,0,1.6-1.9c0-.2-.1-.5-.1-.7s.1-.8.7-.9,4.1.2,6.1.3h.6c.2.1.4.2.4.5s-.2.4-.4.5a4.2,4.2,0,0,0-1.8,4c.5,3.3,2.1,6,3.5,8.8s2.6,4.5,3.9,6.7c.2.4.3.7.7.8s.4-.3.3-.5,0-2.5-.1-3.7c-.2-3.1-.2-6.2-.4-9.3s-.6-8-2.4-11.7a12.2,12.2,0,0,0-4.7-5.1A4.7,4.7,0,0,0,23.8,5c-.9.4-1,.7-.5,1.5A1.9,1.9,0,0,1,23.1,9a2.3,2.3,0,0,1-2.6.5c-2.8-1.4-3.2-4.1-.7-6.5A9.4,9.4,0,0,1,25.1.5,14.8,14.8,0,0,1,36.1,4a12.8,12.8,0,0,1,2.6,3.8,12.2,12.2,0,0,1,1,2.3c0,.2.1.4.5.5l1.3-2.1c3.1-4.7,7.7-7.1,13.1-8A27.8,27.8,0,0,1,66.1.7,24.5,24.5,0,0,1,78.3,8.1a23.3,23.3,0,0,1,4.6,8.8c1,3.1,1.8,6.3,2.6,9.4a10,10,0,0,0,1,2.9A2.3,2.3,0,0,0,88,30.6a2.4,2.4,0,0,1,.7,3.7,5,5,0,0,1-5.3,1.9c-.5-.2-.7-.1-.9.4s-.6,1.3-1,2M57.9,69.1c.1-3.1-.4-6.2,0-9.3a3.3,3.3,0,0,1-3.4-2.7,5.2,5.2,0,0,1,.5-3.5c.1-.5.1-.8-.5-1a19.3,19.3,0,0,1-5.7-4.1c-3-3.3-3.9-7.8-1.4-11.9,1.1-1.8,4.3-3.3,6.4-2.3s2.9,2.7,2.4,4.1-2.3,2.8-4.5,2.1-1-.2-1,.6.2,1.5.2,2.3c.2,2.9,3.4,5.8,6.3,5.5.6,0,.8-.2.8-.8a52.3,52.3,0,0,0,0-5.6c-.1-2.9,0-5.8-.3-8.6a47.9,47.9,0,0,0-1.8-10.7c-1.1-3-2.3-5.7-5.1-7.5a2.8,2.8,0,0,1-.9-1c-.5-.7-.4-1,.5-1.1,2.5-.3,5.1.2,7.6.1.8,0,1.9,1.5,1.6,2s-.3,1.1.3,1.4a1.4,1.4,0,0,0,1.7-.3,1.9,1.9,0,0,0,.6-2.2c-.3-.8,0-1.1.8-1.1s2.4-.2,3.6-.1a18,18,0,0,1,4,.3c1,.4,1.1.9.2,1.7a20.5,20.5,0,0,0-6,9.3c-.4,1.3-.6,2.7-.9,4a38.1,38.1,0,0,0-.8,5.9c-.4,3.9.1,7.8.2,11.7a2.8,2.8,0,0,0,.4,1.5A14.2,14.2,0,0,0,69,43.5c2.7-4,3.4-8.4,3.6-13s.1-6.5.1-9.7a26.7,26.7,0,0,0-2.1-9.6,11,11,0,0,0-3.7-4.6A13.3,13.3,0,0,0,58,4.7a12.6,12.6,0,0,0-7.5,3.4,18.4,18.4,0,0,0-5.3,8.5,30.9,30.9,0,0,0-1.3,8.6c0,5.2,0,10.5.4,15.7.2,2.3.1,4.6.1,6.9a6.5,6.5,0,0,0,1.3,3.8l5.7,8.8c1.8,2.9,3.8,5.8,5.8,8.6.1.2.2.7.7.1m8.7,14.1c-.2,0-.3-.3-.5-.2s.2.5-.2.9a6.4,6.4,0,0,1-2.2-2.4,21.8,21.8,0,0,1-3-11.1c0-3.7-.4-7.4-.3-11.1,0-.2,0-.4-.2-.5s-1.2.9-1.2,1.7c.1,4.5-.1,9.1.1,13.6a1.2,1.2,0,0,1-.8,1.1c-.5.3-.7-.2-.9-.5a8.3,8.3,0,0,1-.8-1.2c-.9-1.1-1.6-2.4-2.4-3.6-2.2-3.3-4.3-6.6-6.5-9.8s-2.8-4-4.1-6.1L35.8,41.8c-2-3.1-4-6.2-5.8-9.4s-2.5-4.6-3.6-7a12.5,12.5,0,0,1-.9-10,.9.9,0,0,0-.1-.5,3.8,3.8,0,0,0-2.1.1,3.2,3.2,0,0,1-.8,2.5A3,3,0,0,1,20,18.6c.2.3.4.4.3.6s-1.1,0-1.5.5,1,3,.5,4.6c-.5-.4-2.8-8.2-2.8-9.3s-.8-.2-1.2-.2H10.7c-2.8-.2-5.2-.9-6.9-3.4l-.3-.3c-1,.2-1-.6-1.2-1.2A6.6,6.6,0,0,1,4.9,3.4,4.6,4.6,0,0,1,8,2.7c.4,0,1.1.1.9.8s-.2,1-.4,1.5a1.9,1.9,0,0,0,.2,1.9c.4.6.8-.1,1.1-.1s1.4-.4,1.4-1.6-.1-.5-.1-.6,0-1.2-.5-1.5a3.3,3.3,0,0,0-2.3-.9,6.4,6.4,0,0,0-6,3.7,9,9,0,0,0-.5,4.6c.1.8.7,1,1.1,1.5a19.9,19.9,0,0,0,1.9,2.1,1.4,1.4,0,0,1,0,2.2,4.4,4.4,0,0,0-1.7,3.1c-.2,1.6,1.1,3.5,2.6,2.8A1.1,1.1,0,0,0,5,21c-.4-.1-.4-.4-.4-.7S6,16.8,7.4,16.2a6.7,6.7,0,0,1,7.7,1.9c.4.6.7,1-.2,1.3a18.8,18.8,0,0,1,2.2,4.8,29.6,29.6,0,0,1,.5,5.2c.1,5.4.1,10.8.2,16.1s0,11,0,16.5a67.5,67.5,0,0,1-.5,11A18.2,18.2,0,0,1,14,81.6c-2.6,3.1-5.9,4.1-9.6,2.7-.4.9-.9.6-1.4.1a10.1,10.1,0,0,1-1.4-2.5,5.5,5.5,0,0,1,.2-3.8c.4-.6.7-.7,1.3-.2s.5.7,1,.9.5-.3,1.3-.3a1,1,0,0,0,1-1.4,1.1,1.1,0,0,1-.1-.6c.1-.4-.2-.6-.5-.7a3.7,3.7,0,0,0-3.7,1.3C.2,79.4.9,83.6,3.2,85.3c.3.2.6.5,1,.3s.7,0,1.1.1c3.2.9,6.3.8,9-1.5a10.7,10.7,0,0,0,3.1-4.4c.2-.4.4-.8.9-.8s.7.4.8.8a8.8,8.8,0,0,1,.5,1.5c.1,1.9,1.5,3,2.8,4.1s.3.4.4.2,1.3,0,2,.2a2.1,2.1,0,0,0,2.6-1,7.7,7.7,0,0,1-2.7-1.7c-.6.6-1,.4-1.4-.1a15.8,15.8,0,0,1-3-6.9,73,73,0,0,1-1.1-12.3c0-5.2-.2-10.4,0-15.6,0-2.7-.1-5.4-.1-8.1s.1-6.5.1-9.7V25.6c0-.3-.1-.6.2-.7a.4.4,0,0,1,.5.1,9.3,9.3,0,0,1,1.3,1.5c1.5,2.3,3,4.7,4.4,7.1s3.2,4.7,4.5,7.2c2.2,4.4,3.7,9,2.6,14-.1.6.2.9.9,1a12.3,12.3,0,0,1,7.5,3.1c.2.1.5.4.3.7s-.1.6.2.9c1.8,2.2,3.5,4.6,5.1,7s3.5,5.1,5.1,7.7,4.3,7,3.9,11.5c.4-.2.9,0,.7-.7a.5.5,0,0,1,.3-.5,4.6,4.6,0,0,0,1.7-3.8,1.6,1.6,0,0,1,.9-1.3c.5-.3.7.4,1,.7l.3.6A10.5,10.5,0,0,0,68,86.3c.2,0,.5.1.7-.2s.5-.5.9-.5a8.3,8.3,0,0,0,3.1-.4c2.2-.6,4.1-1.7,4.7-4.2s0-3.5-1.5-4.3a.7.7,0,0,1-.3-1.1,2.8,2.8,0,0,0-2.2.1,2.3,2.3,0,0,0-1.6,1.8,1,1,0,0,0,.4,1.1c.3.3.6,0,.8-.2a1.2,1.2,0,0,1,1.6.1,3,3,0,0,1,0,5,5.9,5.9,0,0,1-8-.3M70,4.5c-.3-.4-1.1-.4-1.3-1s.8.1,1.3-.1l-1.4-.7-.9-.3a24.2,24.2,0,0,0-11-1.3,29.2,29.2,0,0,0-6.5,1.5,17.1,17.1,0,0,0-8.2,7A9.7,9.7,0,0,0,40.4,13c-.3,1.3.2,3-1.5,3.8-.2.1-.3.4-.6.3s-.3-.4-.4-.6a17.9,17.9,0,0,0-.2-2.3c-.9-5.3-3.5-9.4-8.8-11.4-.5-.2-1.1-.4-.3-1a9,9,0,0,0-6.8,1c-1.8,1-2.7,2.5-2.4,4a1.5,1.5,0,0,0,1,1.2c.5.2.7-.4,1-.7s.4-.3.3-.6l-.8-.5c-1.2-.6-1.3-1.1-.3-2a8.8,8.8,0,0,1,5.4-2c.5-.1.9.2,1.3.3s.4.6,0,.9a11.8,11.8,0,0,1,4.6,3.3,11.5,11.5,0,0,1,2.6,4A22.4,22.4,0,0,1,36.1,17c.2,2.3.6,4.6.6,6.9s.1,4.8.2,7.1.1,3.3.1,5a4,4,0,0,0,.5,2.8l3.3,5.3c.1.1.2.3.5.2V43L41,28.2a5.5,5.5,0,0,1-.1-2.2c.4-1.6.1-3.2.4-4.8a29.7,29.7,0,0,1,1.9-7.8,17.7,17.7,0,0,1,4.7-6.8,19.2,19.2,0,0,1,9.2-4.4,15.1,15.1,0,0,1,9.5,1.6c.6.3,1.1.5.4,1.3a9,9,0,0,1,1.8,1.5,19.1,19.1,0,0,1,4.4,9.3c.7,3.6.4,7.2.5,10.9A50.3,50.3,0,0,1,72.8,37c-.9,5.3-5.6,12.1-12.5,12.8a15.3,15.3,0,0,1-3.7.2,8.2,8.2,0,0,1-5.4-2.6c-.2-.1-.3-.3-.6-.3s-1.4-.2-1-1.4-1-.6-1.3-1.1a7.4,7.4,0,0,1-.5-2.5,6.6,6.6,0,0,1,1.9-5c.6-.6,1.1-.6,1.3.3.5-.7.8-.5,1.3-.1s1.1.6,1.4-.3.5-.4.9-.1a2.2,2.2,0,0,0-2-1.9,4.8,4.8,0,0,0-3.1.8c-2.4,1.7-3.1,5.4-2.1,8.4s3,4.5,5.3,6a3.5,3.5,0,0,0,1.2.3,9.3,9.3,0,0,1,3.3.7c.5.1.6.5.3.9l-.8.8a4.6,4.6,0,0,0-1,2.5c.4-.5.7-1.1,1.1-1.7s4-2.8,6.4-3.5a30.9,30.9,0,0,0,8.1-3.6,22.6,22.6,0,0,0,7.4-8.8,16.7,16.7,0,0,0,1.4-5.3c.1-.8-.2-1.6.4-2.4s.2-.5.5-.5.4.3.5.6a8.5,8.5,0,0,0,1.7,2.5,1.9,1.9,0,0,0,2.8-.1c.3-.2.5-.6.9-.4s0,.6.2,1.1.7-1,.5-1.5a.5.5,0,0,0-.6-.1,2.2,2.2,0,0,1-2.6-.8,8.3,8.3,0,0,1-1.7-2.6c-1.5-3.3-2-6.9-3-10.3a24.5,24.5,0,0,0-2-5.1A20,20,0,0,0,70,4.5M36.9,92.8a21.4,21.4,0,0,1-.6-2.7,8.5,8.5,0,0,1,1-5.4,3.9,3.9,0,0,1,2.9-1.9c-.1-2.7-1-5.5.3-8.3a1.5,1.5,0,0,1,.5,1.1c.4,2.3.3,4.5.8,6.7.1.2.1.6-.1.7s-.4,1-.5,1.6,1-.1,1.4.6a71.3,71.3,0,0,1-1-8.9,65.5,65.5,0,0,1-.5-8.9,1.8,1.8,0,0,0-.4-1c-.7-1.3-2.3-1.6-3.1-2.9a1.4,1.4,0,0,0-.3,1.5,14.5,14.5,0,0,1,.1,3.6A80.4,80.4,0,0,1,36,83.3a26.3,26.3,0,0,1-2.8,8.3,13.1,13.1,0,0,1-6.6,5.7,5.5,5.5,0,0,1-3.8.2c-1-.4-1.1-.8-.3-1.6s.4-.2.3-.5-.8-.8-.2-1.7a1.4,1.4,0,0,0-2,.9,3.3,3.3,0,0,0,.8,3c.2.2.3.5.7.2a1.2,1.2,0,0,1,1.3.1,6.2,6.2,0,0,0,3,.6,1,1,0,0,0,1.2-.5c.2-.3.5-.5.7-.2s1.6.1,2.3-.1a.8.8,0,0,0,.6-.9c-.1-.3-.1-.6.2-.7a.9.9,0,0,1,.7.3c.3.6.7.4,1.2.2a1.3,1.3,0,0,0,.7-1.4c-.1-.7.3-1,.9-.8s1.9-.2,2-1.6M55.7,20a30.5,30.5,0,0,1,2.5,8.8A76.2,76.2,0,0,1,59,41.4c0,2.2,0,4.4.1,6.5,0,.5.1.9.6.8s.7-.3.6-.7a46.9,46.9,0,0,1-.1-5.3c-.1-3.1-.3-6.2-.1-9.4a44.4,44.4,0,0,1,1.8-8.8,23.2,23.2,0,0,1,4.6-9.3c.2-.2.5-.3.3-.7H64.2c-.4,0-.6.1-.7.6-.3,2.3-1.3,3.1-3.7,3.4.2,1.1-.6.7-1.3.7s.1,1,.2,1.5a23.4,23.4,0,0,1,.8,5.3.7.7,0,0,1-.4.9,1,1,0,0,1-.5-1c-.1-2.5-1-4.9-1.1-7.4a.9.9,0,0,0-.3-.6,5,5,0,0,1-.8-2.7c0-.5-.2-.7-.6-.7a6.8,6.8,0,0,0-2.8.2c1.7,1.4,1.5,3.6,2.7,5.3M48.3,97.8c.7.5.9-.4,1.5-.6a1.9,1.9,0,0,0,2,1.1H53c2-.3,3.7-1,4.7-2.8s.4-1.1,1.2-.6c-.2-1.2-1-1.9-1.8-1.7S56,94.5,56.3,95s-.1.9-.5,1.1a6,6,0,0,1-3.5.3,7.3,7.3,0,0,1-3.9-2c-.4.8-.8.4-1.2,0a9.6,9.6,0,0,1-2.4-3.2c-.9-1.4-1.2-3.1-1.9-4.7a13.3,13.3,0,0,1-1.4,6.4c.6.1.9.5,1.4,1l1.4-1.6a4.1,4.1,0,0,1,0,2.2c-.3,1.1,0,1.6,1.2,1.9s.1-1,.8-.9.6.6.6,1.1.6,1,1.4,1.2M27.8,25.5a23.8,23.8,0,0,1-2.1-6.2,12.4,12.4,0,0,0,1.2,5.2,112.4,112.4,0,0,0,6.7,12.3c2.8,4.5,5.7,8.9,8.6,13.4.1.2.2.5.6.5-1.1-1.8-2.2-3.6-3.3-5.2-2.5-3.7-4.7-7.5-7-11.2s-3.2-5.7-4.7-8.8m54.3-1.6a26,26,0,0,0,1.8,4.9,3.7,3.7,0,0,0,1.7,1.8.9.9,0,0,0-.4-.6,19.6,19.6,0,0,1-2.7-6.1c-.9-4-1.8-8-3.7-11.6a12.8,12.8,0,0,0-2.1-2.9,1.6,1.6,0,0,0,.4.7,28.8,28.8,0,0,1,3.2,6.6q1,3.4,1.8,7.2M38.7,87.7a7.2,7.2,0,0,0,.7,2.5c.2.5.6.6.9.1a5.3,5.3,0,0,0,.1-4.6q-.6-.9-1.2,0a2.3,2.3,0,0,0-.5,2M61.1,32.6c-.5,4-.3,14.2.3,15.3-.1-7.1-.6-14.1.8-21a20.6,20.6,0,0,0-1.1,5.7M41.8,27.8a54.2,54.2,0,0,0,.3,9c-.3-4.8.1-9.6.1-14.4a45.6,45.6,0,0,0-.4,5.4m-21.7,13c.1-3.9,0-7.8-.2-11.7a102.6,102.6,0,0,0,.2,12.4v-.7M64.5,20.1a17.4,17.4,0,0,0-1.3,3.6,30.7,30.7,0,0,1,5.2-9.1,17.8,17.8,0,0,0-3.9,5.5M79.2,38.6c-.1.3-.3.4-.3.8,1.2-2.1,2.3-4.1,2.2-5.9a1.1,1.1,0,0,1,.6-1.1c-.2-.3-.2-.7-.8-.9a14.9,14.9,0,0,1-1.7,7.1M55,98.5,54,99c.9.2,1.6.3,2.2-.3s-.7-.3-1.2-.2M44.8,54.2l.8,1.2a6.2,6.2,0,0,0-1.7-2.8c.1.6.6,1,.9,1.6M58.4,97c0-.2,0-.5-.3-.4a1.2,1.2,0,0,0-.9,1.1c.6.2.8-.2,1.2-.7m-6.2,2.2c-.4.1-.9-.2-1.3.2a2.8,2.8,0,0,0,2,.1c-.2-.4-.4-.3-.7-.3M73.5,6.1l2,1.8a6.7,6.7,0,0,0-2.6-2.4l.6.6M47.9,98.7c-.3-.1-.6-.4-.9-.1a1.9,1.9,0,0,0,2.1.4c-.3-.3-.7-.1-1.2-.3M55.3,3.5c1.1-.4,2.2-.4,3.3-.7a8.5,8.5,0,0,0-3.8.9l.5-.2M48.1,58.9H48a4.8,4.8,0,0,0,1.7,2.3l-1.6-2.3m4.1-20c1,.4,1.5.3,2-.6a1.7,1.7,0,0,1-2,.4c-.2-.1-.2.1,0,.2M78.1,78.2l.4,1a2,2,0,0,0-.5-1.8c-.1.3.1.4.1.8M30.5,98.8c.1-.1.3,0,.3-.3l-2.1.6A4,4,0,0,0,30.5,98.8Z" style="fill:#336"/></svg>