<svg xmlns="http://www.w3.org/2000/svg" viewBox="0 0 246.3 258.3"><defs><style>.a{fill:#c7a754;}.b,.c{fill:none;stroke:#c7a754;stroke-miterlimit:10;}.b{stroke-width:0.75px;}.c{stroke-width:2px;}</style></defs><path class="a" d="M123.3,253.8a1.7,1.7,0,0,1-1.3-.8,2.4,2.4,0,0,0-.8-1,14.2,14.2,0,0,0-2.2-.7c-1.1-.5-1.3-1.5-.4-2.1-1,.1-2-.5-2.1-1.2s.6-1.2,1.4-1.7l2.5-1.1a7.8,7.8,0,0,0,2.8-2.2Z"/><path class="a" d="M123.2,239.8a9.6,9.6,0,0,0-2.7-3,12.3,12.3,0,0,0-3.9-1.6l-2.3-.5a20.3,20.3,0,0,0-7.4.4,3.2,3.2,0,0,1-1.4.2h-.6c-.6-.1-1.1.3-1,.8s.4.8.9,1.1-.2,3.5,1.8,4.6a7.5,7.5,0,0,0,3,.9l1.5-.2,1.1-.6a1.5,1.5,0,0,0,.3-2,2.2,2.2,0,0,0-1.5-.8,2,2,0,0,0-1.7.2.8.8,0,0,0-.1,1.2,1.9,1.9,0,0,0,1.7.4c.1.4-.5.7-1.1.7a3.9,3.9,0,0,1-1.5-.6,2.2,2.2,0,0,1-.6-2.9,4.9,4.9,0,0,1,2.5-1.9,9.6,9.6,0,0,1,3.8-.2c-1,0-1.9.5-2,1.2s.9,1.4,1.9,1.5,1.9-.5,2-1.2-.1-.4,0-.6a.5.5,0,0,1,.4-.5l.8.2c3.1,1.1,5.5,3.4,5.7,5.9"/><path class="a" d="M123.2,240.7l-.9.8a3.3,3.3,0,0,1-1.2.5,4.6,4.6,0,0,1-2.6.6l-.8-.2a.2.2,0,0,1,0-.4l.3-.2c0-.1-.2-.2-.3-.2a1.3,1.3,0,0,0-1.1.3c-.3.1-.4.3-.5.6a.6.6,0,0,0,.1.4l.5.2h-2.5c-.7.1-1.4.5-1.4.9s-.5-.2-.4-.4-1.3.4-1.3.8.6.9,1.3,1,.1.8.6,1a3.3,3.3,0,0,0,2.6.1c.4-.2.7-.4.8-.7v-.2c0-.2,0-.2-.2-.2h-.9c-.4-.1-.9-.4-.7-.7a2.3,2.3,0,0,1,1.3-.6,9.6,9.6,0,0,0,1.7,0,4.8,4.8,0,0,0,2.7-.8l.6-.3a1.2,1.2,0,0,1,1.5,0c.2.1.2.3.3.5s0,.6.3.7"/><path class="a" d="M122.3,247.5h.9v-7.7h-.9Z"/><path class="a" d="M123.1,253.8a1.5,1.5,0,0,0,1.3-.8,2,2,0,0,1,.8-1,8.1,8.1,0,0,1,2.2-.7c1.1-.5,1.3-1.6.4-2.1a2,2,0,0,0,2.1-1.2,2.1,2.1,0,0,0-1.4-1.7l-2.5-1.1a7.1,7.1,0,0,1-2.8-2.2Z"/><path class="a" d="M123.1,239.8a9.9,9.9,0,0,1,2.7-3.1,21.7,21.7,0,0,1,3.8-1.6l2.4-.4a23.1,23.1,0,0,1,3.7-.3,19.3,19.3,0,0,1,3.6.6,3.8,3.8,0,0,0,1.5.1h.6c.6-.1,1.1.4,1,.8s-.4.8-.9,1.2c1,1.4.2,3.4-1.8,4.6a5.7,5.7,0,0,1-2.9.8,3.8,3.8,0,0,1-2.7-.7,1.5,1.5,0,0,1-.3-2,3.1,3.1,0,0,1,1.5-.8,2,2,0,0,1,1.7.2.8.8,0,0,1,.1,1.2,1.8,1.8,0,0,1-1.6.3c-.1.4.4.8,1,.7a2,2,0,0,0,1.5-.6,2.1,2.1,0,0,0,.6-2.8,4.9,4.9,0,0,0-2.5-1.9,9.7,9.7,0,0,0-3.8-.2c1,0,1.9.5,2,1.2s-.9,1.4-1.9,1.5a1.8,1.8,0,0,1-2-1.2c0-.2.1-.4,0-.6a.4.4,0,0,0-.4-.4,1.2,1.2,0,0,0-.8.1c-3.1,1.2-5.5,3.5-5.7,6"/><path class="a" d="M123.1,240.7l.9.7a4.5,4.5,0,0,0,1.2.6,4.7,4.7,0,0,0,2.7.6c.3-.1.5-.1.7-.3s.2-.2,0-.3l-.2-.2a.2.2,0,0,1,.2-.2,1.2,1.2,0,0,1,1.2.2c.2.2.4.4.4.6a.3.3,0,0,1,0,.4.6.6,0,0,1-.6.3h2.5c.8.1,1.4.5,1.4,1s.6-.3.4-.5,1.4.3,1.4.8-.6.9-1.3,1-.1.8-.6,1a3,3,0,0,1-2.6.1,1.1,1.1,0,0,1-.8-.7v-.2H131c.4,0,.9-.4.6-.7a1.4,1.4,0,0,0-1.2-.5h-1.7a5.1,5.1,0,0,1-2.8-.8l-.5-.4a1.4,1.4,0,0,0-1.5.1.5.5,0,0,0-.3.5c-.1.3-.1.6-.4.7"/><polygon class="a" points="124.1 247.5 123.2 247.5 123.1 239.8 124 239.7 124.1 247.5"/><path class="a" d="M122.3,249.3c0,1,.4,1.8.9,1.8s.9-.8.9-1.8-.5-3.6-.9-3.6S122.3,248.4,122.3,249.3Z"/><path class="a" d="M37.6,152.8a14,14,0,0,1-2.2-12.9c.6-1.9,2.2-3.4,2.4-5.4a3,3,0,0,0-.8-2.6,4.4,4.4,0,0,1,1.6.6,1.7,1.7,0,0,1,.9,1.5,4.5,4.5,0,0,0-1-4.7,9.7,9.7,0,0,1,2.4-.1,2.8,2.8,0,0,1,2,1.2,2.3,2.3,0,0,1,.3,2.4,2.3,2.3,0,0,1,1.6.2,10.5,10.5,0,0,1,6.6,6.7,4.5,4.5,0,0,0-2-.4c.7,1.4-.6,2.5-1.8,3l-2.4.3a2.2,2.2,0,0,0,.4-1.6,1.6,1.6,0,0,0-.8-1.3,2.8,2.8,0,0,0-1.3-.4,5.2,5.2,0,0,0-3.3,1.1,4.3,4.3,0,0,0-1.5,1.8,7.2,7.2,0,0,0-.7,2.5,2,2,0,0,1,1.7-.9,1.7,1.7,0,0,1,1.5,1.2,2.9,2.9,0,0,0-1.9,1.7,7.7,7.7,0,0,0-.4,4.3c.4,1.3,1,2.7,2.3,2.8a4.5,4.5,0,0,1,.4-2l.6-.8.8-.5a4.6,4.6,0,0,0,1.1,4.3,5.6,5.6,0,0,0,4,1.7,5.2,5.2,0,0,0,3.2-.7,4.2,4.2,0,0,0,1.9-2.6,2.8,2.8,0,0,0-1.4-2.8,2.7,2.7,0,0,1,2.3-.2,2.5,2.5,0,0,1,1.4,1.8,4.7,4.7,0,0,0-.6-5.3,4.6,4.6,0,0,0-2.5-1.5l-1.5-.3c-.4,0-1.2-.1-1,.5l.4.6a1.8,1.8,0,0,1,.4,1.6,2.4,2.4,0,0,1-.9,1.4,2.5,2.5,0,0,1-3.1-.5,3.2,3.2,0,0,1-.4-3.4,4.2,4.2,0,0,1,3.7-1.9,12.6,12.6,0,0,1,4.3.8,2.3,2.3,0,0,1,2.3-1.6,3.6,3.6,0,0,0,0,2.3l.7,2.2a7.6,7.6,0,0,1,.3,2.1,14.9,14.9,0,0,1-.2,2.1,14.3,14.3,0,0,1-.8,2.2,10.7,10.7,0,0,1-1.3,1.9,8.7,8.7,0,0,1-8.4,3.1l-2.5-.7A13.8,13.8,0,0,1,37.6,152.8Zm-.5-11.4a2.8,2.8,0,0,1,.1-.6c.1-.1.1-.4.2-.6l.4-.7,1.4-1.4a7.5,7.5,0,0,1,2-1l1.1-.2h3.3c.3,0,.6-.2.3-.5l-.9-.5a8.2,8.2,0,0,0-2.2-.2h-.6l-1.2.3a8.2,8.2,0,0,0-2,1.2,3,3,0,0,0-.8.8,4.7,4.7,0,0,0-.6.9c-.1.3-.3.5-.3.8a2.5,2.5,0,0,0-.2.7,2.8,2.8,0,0,0-.1.6Z"/><path class="a" d="M56,154.6a6.4,6.4,0,0,0,1.6-1.7,6.1,6.1,0,0,0,.5-1.2c0-.2.1-.3.1-.5v-.4a1.2,1.2,0,0,1,.5.5,2.3,2.3,0,0,1,.8,1.2,2,2,0,0,1-.1,1.5.9.9,0,0,0-.3.9c.1.4.6.2.9.2h1.3l2.4.6a8.7,8.7,0,0,1,2.7,1.4l.5.3a9.1,9.1,0,0,1,3,3.5c.6,1.3.6,3.1,1.9,4a1.9,1.9,0,0,0,2.1.2,7.4,7.4,0,0,1-1.3,1.2,1.8,1.8,0,0,1-1.4.2,2.2,2.2,0,0,0,1.6.9,3.7,3.7,0,0,0,2.1-.3,6.7,6.7,0,0,1-1,2.1,3.8,3.8,0,0,1-1.9,1.4,1.9,1.9,0,0,1-1.9-.6,2.9,2.9,0,0,1-1,1.3,10,10,0,0,1-4.3,2.3,6.5,6.5,0,0,1-2.4.2,6.9,6.9,0,0,1-2.4-.5,3.4,3.4,0,0,0,1.5-1.4c-1.6-.3-1.6-2.1-1.1-3.2a4.8,4.8,0,0,1,1.4-2,1.7,1.7,0,0,0,.7,1.3,2,2,0,0,0,1.5.1,3.1,3.1,0,0,0,1.1-.8,7.3,7.3,0,0,0,1.4-3.1,5,5,0,0,0-1-3.8,2.6,2.6,0,0,1-.7,1.6,1.7,1.7,0,0,1-1.8.4,2.9,2.9,0,0,0,.4-2.2,5.2,5.2,0,0,0-1.8-3,2.9,2.9,0,0,0-3.1-.6,3.2,3.2,0,0,1,.6,1.7,2.8,2.8,0,0,1-.1.9l-.4.8a3.7,3.7,0,0,0-2.9-2.5,5.8,5.8,0,0,0-4.1.6,4.9,4.9,0,0,0-2.5,2.2,7.3,7.3,0,0,0-.8,3.6,26,26,0,0,0,.5,3.9,3,3,0,0,1-2.8-2.3,7.8,7.8,0,0,1,.1-4A8.4,8.4,0,0,1,52,156l2.4-.6Zm12,6.8.3.4.2.4a2.5,2.5,0,0,0,.2.7,4.8,4.8,0,0,1,0,1.7,13.9,13.9,0,0,1-.6,1.9l-.5,1-.3.4a11.3,11.3,0,0,1-1,1.3l-.4.4c-.1.2-.3.3-.4.4s-.1.6.2.5.7-.4.9-.5a7.5,7.5,0,0,0,1.4-1.7l.3-.5c.1-.4.3-.8.4-1.1a19.1,19.1,0,0,0,.4-2.1v-1a1.9,1.9,0,0,0-.2-.8,6.4,6.4,0,0,0-.2-.7c-.1-.1-.3-.3-.3-.4l-.3-.3Z"/><path class="a" d="M86.6,228.5a5.1,5.1,0,0,0-1.9,1.6,6.1,6.1,0,0,0-.5,1.2v.6c0,.1,0,.5-.1.5l-.8-.7a4.2,4.2,0,0,1-1.4-1.6,1.7,1.7,0,0,1,0-1.7.9.9,0,0,0,.3-.9c-.2-.5-.9-.4-1.4-.5l-1.7-.5a12.6,12.6,0,0,1-3.3-1.6,15.7,15.7,0,0,1-3.8-3l-.6-.7a14.7,14.7,0,0,1-3.2-6c-.4-2,.2-3.9-.8-5.8a3.5,3.5,0,0,0-2.3-2,4.1,4.1,0,0,1,1.9-.2,2.5,2.5,0,0,1,1.8,1,4.6,4.6,0,0,0-1.4-2.3,6.1,6.1,0,0,0-2.4-1.5,6.5,6.5,0,0,1,2.2-1.1,4.2,4.2,0,0,1,2.7.2,3,3,0,0,1,1.7,2,2.9,2.9,0,0,1,1.7-.5,13.5,13.5,0,0,1,5.6.5,14.3,14.3,0,0,1,5,2.7,4.3,4.3,0,0,0-2.2.6c1.7.9,1.1,2.7.3,3.6a6.1,6.1,0,0,1-2.2,1.3,2,2,0,0,0-.5-1.6,2.8,2.8,0,0,0-1.8-.9,3.2,3.2,0,0,0-1.4.2,4.9,4.9,0,0,0-2.7,2.4c-.7,1.4-.4,3.1.3,4.8a2,2,0,0,1,1.3-1.4,2.4,2.4,0,0,1,2.3.4,2.7,2.7,0,0,0-.9,2.3,7.1,7.1,0,0,0,2.3,4.1c1.1,1,2.6,2.1,4.1,1.7a4.2,4.2,0,0,1-.8-2,3,3,0,0,1,.2-1l.5-.7c.4,1.5,2.1,2.8,3.9,3.4a9,9,0,0,0,5.4,0,5.2,5.2,0,0,0,3.1-2.2c.1-.2.3-.5.6-.5a2.1,2.1,0,0,1,1.3.3l.7.5c.6.8-1.4,2.1-2,2.5a9.6,9.6,0,0,1-3.8,1.4l-3.1.4A7.1,7.1,0,0,0,86.6,228.5ZM70.9,216a3.2,3.2,0,0,1-.2-.6,1.4,1.4,0,0,1-.2-.6v-.9a3.2,3.2,0,0,1,.6-1.8,7,7,0,0,1,1.3-1.7,3.3,3.3,0,0,1,1-.6l.5-.3a7.6,7.6,0,0,1,1.6-.6l.7-.2.5-.2c.3-.1.4-.4,0-.6H75.5a9,9,0,0,0-2.3.8l-.5.3-.9.8a6.3,6.3,0,0,0-1.3,2,1.9,1.9,0,0,0-.3,1,3.8,3.8,0,0,0-.1,1,2,2,0,0,0,.2.9,1.4,1.4,0,0,0,.2.7l.3.6Z"/><path class="a" d="M40.8,183.1a5.2,5.2,0,0,0-1.9,1.4,7.5,7.5,0,0,0-.7,1.2c0,.2-.1.4-.1.6v.5c-.3-.2-.4-.6-.6-.9a5.6,5.6,0,0,1-.8-2,2.1,2.1,0,0,1,.4-1.8,1.5,1.5,0,0,0,.4-1c0-.5-.7-.6-1-.8a6,6,0,0,1-1.3-.9,10.9,10.9,0,0,1-2.5-2.3,20.2,20.2,0,0,1-2.4-4l-.4-.9a24.2,24.2,0,0,1-1-3.6,23,23,0,0,1-.2-3.6,16.5,16.5,0,0,1,.7-3.2,9.1,9.1,0,0,0,.2-3.3,4.4,4.4,0,0,0-1.4-2.7l1.7.3a2.3,2.3,0,0,1,1.2,1.5,5.5,5.5,0,0,0-2.2-4.9,4.8,4.8,0,0,1,2.3-.7,2.6,2.6,0,0,1,2.3.9,3.2,3.2,0,0,1,1,2.6,1.8,1.8,0,0,1,1.6-.1,12,12,0,0,1,8.3,6.2,3.7,3.7,0,0,0-2.1,0c1.1,1.4.1,3-.9,3.7a6.3,6.3,0,0,1-2.3.8,1.9,1.9,0,0,0,0-1.8,2.1,2.1,0,0,0-1.2-1.4,2,2,0,0,0-1.3-.1,4.5,4.5,0,0,0-3,1.8,5.1,5.1,0,0,0-1,2.4,8.8,8.8,0,0,0,0,2.8,2,2,0,0,1,1.4-1.3,2,2,0,0,1,1.9,1,3.1,3.1,0,0,0-1.4,2.3,8.3,8.3,0,0,0,.9,4.8c.7,1.4,1.7,2.8,3.1,2.7a3.7,3.7,0,0,1-.2-2.3,2.9,2.9,0,0,1,.3-1c.1-.1.6-.5.6-.7a6.1,6.1,0,0,0,2.5,4.6,6.3,6.3,0,0,0,4.5,1.2,4.5,4.5,0,0,0,3.1-1.4,1,1,0,0,1,.7-.4,1.3,1.3,0,0,1,.9.6,1.8,1.8,0,0,1,.5.7c.2.9-1.8,1.8-2.4,2a6.5,6.5,0,0,1-3.4.6l-2.7-.3A4.4,4.4,0,0,0,40.8,183.1ZM30.7,166.4V165a2.9,2.9,0,0,1,.2-.9,5.8,5.8,0,0,1,1-1.9,7.9,7.9,0,0,1,1.7-1.4,2.1,2.1,0,0,1,1-.4l.5-.2,1.6-.2h1.2a.3.3,0,0,0,.2-.6c-.3-.3-.8-.3-1.1-.4a5.5,5.5,0,0,0-2.2.2l-.5.2-1.1.6a5.8,5.8,0,0,0-1.7,1.8l-.6,1-.3,1.1a3.8,3.8,0,0,0-.1,1v.8a3.2,3.2,0,0,1,.1.7Z"/><path class="a" d="M87.1,203.2a28.2,28.2,0,0,1,2.3,4.6,36.2,36.2,0,0,1,1.3,3.5,2.4,2.4,0,0,0,2,2,4.3,4.3,0,0,0,2.8-.4c-.8.5-1.1,1.5-1.7,2.2a5.2,5.2,0,0,1-3.1,1.3,4.1,4.1,0,0,1-3.1-1.4c-.9-1.3-.3-2.4-.3-3.6a9.9,9.9,0,0,0-1-4.1,16.9,16.9,0,0,0-1.7-2.9,10.9,10.9,0,0,0-2.5-2.3,6.9,6.9,0,0,0-3.2-1.2,5.8,5.8,0,0,0-3.2.3,13.3,13.3,0,0,1,.6-1.2,3.2,3.2,0,0,1,1-1,4.5,4.5,0,0,1,2.7-1c-.5-1.9-2.4-2.5-4.1-2.9a9.2,9.2,0,0,0-5.9.6,3.6,3.6,0,0,0-2.5,2.6,2.9,2.9,0,0,1-1.6-2.6,3.7,3.7,0,0,1,1.5-2.5,19.3,19.3,0,0,0-3.6.6,6.9,6.9,0,0,0-2.9,1.6,7.5,7.5,0,0,0-2.3,4.8,5.7,5.7,0,0,0,.4,2.2,4.1,4.1,0,0,0,2.2,1.9,2.7,2.7,0,0,0,2.5-.3,9.7,9.7,0,0,1-.4,3.8c-.6,1.7-2.5,3.6-5.1,1.8a6.4,6.4,0,0,0,.8,3.5,21.9,21.9,0,0,1-4.1-2.6,17,17,0,0,1-3.4-3.7,18.6,18.6,0,0,1-2.3-4.1,14.1,14.1,0,0,1-1-4.3,3.4,3.4,0,0,1,.3-2.7,4.8,4.8,0,0,1-3.5-2.4,6,6,0,0,1-.5-4.1,7,7,0,0,1,1.7-3.3,7.7,7.7,0,0,0,2.2,3.5,6.2,6.2,0,0,0,3.5,1.6,3.1,3.1,0,0,1-1.6-2.4,6.2,6.2,0,0,1,.2-2.7,4.2,4.2,0,0,0,1.1,1.8,4.9,4.9,0,0,0,1.8,1.1c2.8,1,5.5-.5,8.2-.7h4.2a28.3,28.3,0,0,1,4.2.7l1.1.3a19.6,19.6,0,0,1,4.7,2,23.5,23.5,0,0,1,3.2,2.3,15.9,15.9,0,0,1,1.3,1.3c.3.4.7,1.2,1.3.9a2.1,2.1,0,0,0,.8-1.2,3.3,3.3,0,0,1,1.7-1.6,4.9,4.9,0,0,1,2.4-.4h1c.1,0-.3.5-.4.5a1.8,1.8,0,0,0-.5.7,5.6,5.6,0,0,0-.9,1.7,6.7,6.7,0,0,0-.5,3.4C85.3,200.5,86.3,201.8,87.1,203.2ZM63.1,191H61.3l-1.3.2-1.3.4a6.7,6.7,0,0,0-1.4.9,11.3,11.3,0,0,0-2.5,2.4l-.8,1.6a3.6,3.6,0,0,0-.4.9,8.2,8.2,0,0,0-.2,3.5,4.7,4.7,0,0,0,.6,1.9c.3.5.8.2.8-.3a2.8,2.8,0,0,0-.1-.9v-1.1a21.3,21.3,0,0,1,.3-2.5l.2-.8a9.4,9.4,0,0,1,.6-1.5,8.6,8.6,0,0,1,2-2.6,7.9,7.9,0,0,1,2.4-1.5l1.2-.3h1.7Z"/><path class="a" d="M117.6,217.4c.5.7,1.2,1.3,1.8,2a7.6,7.6,0,0,1,1.4,8.9,8.7,8.7,0,0,1-4,3.5l-2.9,1a11.3,11.3,0,0,1-3.2.2l-3.6-.3a12.3,12.3,0,0,0-3.4.3,2,2,0,0,1,1.7-2.5,10,10,0,0,1-2.4-4.2,3.8,3.8,0,0,1,1.7-3.9,4.5,4.5,0,0,1,4.1-.1,2.5,2.5,0,0,1,1.6,2.9,2.9,2.9,0,0,1-3.6,1.1c-.3-.1-.5-.3-.8-.3s-.5.6-.4,1a5.5,5.5,0,0,0,.8,1.5,5.3,5.3,0,0,0,3,2.2,7.9,7.9,0,0,0,7.4-.9,4.5,4.5,0,0,1-3-.7,2.1,2.1,0,0,1-.8-2.3,4.3,4.3,0,0,0,4.1.3,3.3,3.3,0,0,0,2-2.7,4.6,4.6,0,0,0-.9-3.2,7.6,7.6,0,0,0-3.5-3.1,7,7,0,0,0-2.5-.5,4.6,4.6,0,0,0-2.3.6,2.4,2.4,0,0,0,.2-.9l.7-.8a3.8,3.8,0,0,1,1.9-.9c-.6-1.2-2.1-1.4-3.4-1.4a7.5,7.5,0,0,0-4.2,1,2.7,2.7,0,0,0-1.5,2.1,1.9,1.9,0,0,1-1.4-1.5,2.1,2.1,0,0,1,.7-1.8,13.5,13.5,0,0,0-2.4.8,5.8,5.8,0,0,0-1.9,1.5,4.4,4.4,0,0,0-1.1,3.3A3.9,3.9,0,0,0,98,221a2.4,2.4,0,0,0,1.7.9,2.2,2.2,0,0,0,1.8-.6,7,7,0,0,1,0,2.5,2.6,2.6,0,0,1-3.6,1.8,3.3,3.3,0,0,0,.7,2.1,11.1,11.1,0,0,1-3-1.2,10,10,0,0,1-2.6-1.8,9.4,9.4,0,0,1-3-4.7,1.7,1.7,0,0,1-.1-1.7,3.5,3.5,0,0,1-2.7-1,3.8,3.8,0,0,1-.9-2.4,6.3,6.3,0,0,1,.8-2.3,4.7,4.7,0,0,0,4.6,2.2,1.7,1.7,0,0,1-1.4-1.2,3.2,3.2,0,0,1-.3-1.7,3,3,0,0,0,2.5,1.3c2.1.2,3.7-1.1,5.5-1.7a16.3,16.3,0,0,1,3-.7h3.9a15.9,15.9,0,0,1,3.8.7l1.3.5,1.3.7,1.2.7c.3.2.7.7,1.1.5s.3-.6.4-.9a2.8,2.8,0,0,1,1.1-1.3,3.3,3.3,0,0,1,1.7-.4h.9l-.3.4-.3.5a6.1,6.1,0,0,0-.5,1.2,4.9,4.9,0,0,0,.1,2.4A3.2,3.2,0,0,0,117.6,217.4Zm-18.1-4.3H98.3l-.9.3-.9.6-.9.7a6.4,6.4,0,0,0-1.3,1.9,5.4,5.4,0,0,0-.5,1.1c0,.2-.1.4-.1.6a6,6,0,0,0,.1,2.3,2.1,2.1,0,0,0,.6,1,.3.3,0,0,0,.6-.3,4.3,4.3,0,0,1-.1-.5,1.7,1.7,0,0,1-.1-.7,8.1,8.1,0,0,1-.1-1.6.7.7,0,0,1,.1-.5,4.3,4.3,0,0,1,.2-1.1,11.8,11.8,0,0,1,1.1-1.9,8.7,8.7,0,0,1,1.5-1.3l.8-.4.6-.2h.5Z"/><path class="a" d="M70.1,180.9a2,2,0,0,0-1.5-.8,3.3,3.3,0,0,0-.5-1.6,3.8,3.8,0,0,0-.9-1.3,4.5,4.5,0,0,0-1.3-1.1l-1.5-.6a4.5,4.5,0,0,0-2.8.3,2.6,2.6,0,0,0-1.7,2.1,2.8,2.8,0,0,0,.9,2.7,2.2,2.2,0,0,0,1.7.5,1.5,1.5,0,0,0,1.2-1.1,1.4,1.4,0,0,0-.6-1.6,1.1,1.1,0,0,0-1.5.3,1,1,0,0,1,.4-1.4,1.6,1.6,0,0,1,1.5.1,4.1,4.1,0,0,1,2.3,3.3,5.7,5.7,0,0,1-.7,3.6,5.1,5.1,0,0,1-2.9,2.1,1.9,1.9,0,0,0,.7-2.5,2.2,2.2,0,0,0-2.5-1.1,1.9,1.9,0,0,0-.9,2.5l.4.8a1.1,1.1,0,0,1,0,.8,1.1,1.1,0,0,1-.8.2,12.5,12.5,0,0,1-4.1-1.4,12.2,12.2,0,0,1-3.3-3.1c-.4-.9-.5-1.3,0-2a4.1,4.1,0,0,1,2.2-1.7.8.8,0,0,1,.7-.1.4.4,0,0,1,.4.4c.1.2,0,.4,0,.5s.7.3.9.1a1.4,1.4,0,0,0,.3-1.3,1.8,1.8,0,0,0-.8-1.1,4,4,0,0,0,1.9-.7,1.9,1.9,0,0,0,.9-1.8.5.5,0,0,1,.5.5,1.3,1.3,0,0,0,.7-1.5,1.4,1.4,0,0,0-1.5-.9,1.9,1.9,0,0,0-2.3-1.3,1.8,1.8,0,0,0-1.1,2.3,1.4,1.4,0,0,1,1.4,0,1.1,1.1,0,0,1-.2,1.6,5.9,5.9,0,0,1-1.6.6,3.9,3.9,0,0,0-2.2,2l-.3.7c-.2.2-.4.4-.7.3s-.8-.8-.8-1.3a4.5,4.5,0,0,1,1.2-2.5c.5-.7,1.2-1.4,1.6-2.1a3.7,3.7,0,0,0,.5-2.7,1.9,1.9,0,0,0-2.2-1.4,1.6,1.6,0,0,0,.1-1.5,2.2,2.2,0,0,0-.8-1.3c-.8-.5-2.1-.5-2.7-1.3s-.3-.9-.5-1.3a.8.8,0,0,0-.9-.6c-.4.1-.5.6-.5,1.1a31.4,31.4,0,0,0,.2,6.1l.6,3,.4,1.6.5,1.5.9,2.6c.4.9.9,1.8,1.3,2.6l.8,1.2a8.3,8.3,0,0,0,.8,1.2,13.4,13.4,0,0,0,2,2.1l1.6,1.2.8.4a9.4,9.4,0,0,0,4.6.8,10.3,10.3,0,0,0,2.4-.5,10.4,10.4,0,0,0,5.6-4.3,3.6,3.6,0,0,1,1-1.1l.5-.2A1.2,1.2,0,0,0,70.1,180.9Z"/><path class="a" d="M200.9,157.6l-2.4.7a8.8,8.8,0,0,1-8.5-3.1,10,10,0,0,1-1.2-1.9,14.3,14.3,0,0,1-.8-2.2,7.5,7.5,0,0,1-.2-2.1,7.6,7.6,0,0,1,.3-2.1l.7-2.2a3.6,3.6,0,0,0,0-2.3,2.3,2.3,0,0,1,2.3,1.6,12.6,12.6,0,0,1,4.3-.8,4.2,4.2,0,0,1,3.7,1.9,3.2,3.2,0,0,1-.4,3.4,2.5,2.5,0,0,1-3.1.5,2.4,2.4,0,0,1-.9-1.4,1.8,1.8,0,0,1,.4-1.6c.1-.2.3-.4.3-.6s-.5-.5-.9-.5a4.5,4.5,0,0,0-1.6.3,4.7,4.7,0,0,0-3,6.8,2.5,2.5,0,0,1,1.4-1.8,2.7,2.7,0,0,1,2.3.2,2.7,2.7,0,0,0-1.4,2.8,4.2,4.2,0,0,0,1.9,2.6,5.1,5.1,0,0,0,3.2.7,5.8,5.8,0,0,0,4-1.7,4.6,4.6,0,0,0,1.1-4.3l.8.5.6.8a4.5,4.5,0,0,1,.4,2c1.3-.1,1.9-1.5,2.2-2.8a6.3,6.3,0,0,0-.4-4.3,2.6,2.6,0,0,0-1.8-1.7,1.7,1.7,0,0,1,1.5-1.2,2,2,0,0,1,1.7.9,7.2,7.2,0,0,0-.7-2.5,5.2,5.2,0,0,0-1.5-1.8,5.2,5.2,0,0,0-3.3-1.1,2.8,2.8,0,0,0-1.3.4,2,2,0,0,0-.9,1.3,2.2,2.2,0,0,0,.5,1.6l-2.4-.3c-1.2-.5-2.5-1.6-1.8-3a4.5,4.5,0,0,0-2,.4,10.3,10.3,0,0,1,6.5-6.7,2.6,2.6,0,0,1,1.7-.2,2.3,2.3,0,0,1,.2-2.4,3,3,0,0,1,2.1-1.2,9.7,9.7,0,0,1,2.4.1,4.5,4.5,0,0,0-1,4.7,1.7,1.7,0,0,1,.9-1.5,3.9,3.9,0,0,1,1.5-.6,3.2,3.2,0,0,0-.7,2.6c.1,2,1.7,3.5,2.4,5.4a14.3,14.3,0,0,1-2.2,12.9A13.6,13.6,0,0,1,200.9,157.6Zm7.5-16.2a2.8,2.8,0,0,0-.1-.6,2.5,2.5,0,0,0-.2-.7c0-.3-.2-.5-.3-.8l-.6-.9a6,6,0,0,0-.8-.8,7.2,7.2,0,0,0-2.1-1.2l-1.1-.3h-.6a8.2,8.2,0,0,0-2.2.2l-1,.5c-.2.3.1.5.4.5h3.3l1.1.2a5.7,5.7,0,0,1,1.9,1,4.7,4.7,0,0,1,1.4,1.4,2.5,2.5,0,0,1,.4.7c.2.2.2.5.3.6a2.8,2.8,0,0,1,.1.6Z"/><path class="a" d="M191,155.4l2.4.6a8.1,8.1,0,0,1,5.7,5.5,7.8,7.8,0,0,1,.2,4,3,3,0,0,1-2.8,2.3,26,26,0,0,0,.5-3.9,7.3,7.3,0,0,0-.8-3.6,4.9,4.9,0,0,0-2.5-2.2,5.8,5.8,0,0,0-4.1-.6,3.6,3.6,0,0,0-2.9,2.5c0-.1-.4-.7-.4-.8a2.8,2.8,0,0,1-.1-.9,2.5,2.5,0,0,1,.6-1.7,2.9,2.9,0,0,0-3.1.6,5.2,5.2,0,0,0-1.8,3,2.9,2.9,0,0,0,.4,2.2,1.7,1.7,0,0,1-1.8-.4,2.6,2.6,0,0,1-.7-1.6,5,5,0,0,0-1,3.8,5.5,5.5,0,0,0,1.4,3.1,3.9,3.9,0,0,0,1,.8,2.2,2.2,0,0,0,1.6-.1,1.7,1.7,0,0,0,.7-1.3,4.8,4.8,0,0,1,1.4,2c.4,1.1.5,2.9-1.1,3.2a3.4,3.4,0,0,0,1.5,1.4,6.9,6.9,0,0,1-2.4.5,7.1,7.1,0,0,1-2.5-.2,10.2,10.2,0,0,1-4.2-2.3,2.9,2.9,0,0,1-1-1.3,1.9,1.9,0,0,1-1.9.6,3.4,3.4,0,0,1-1.9-1.4,6.7,6.7,0,0,1-1-2.1,3.7,3.7,0,0,0,2.1.3,2.4,2.4,0,0,0,1.6-.9,2.1,2.1,0,0,1-1.5-.2l-1.2-1.2a2,2,0,0,0,2.1-.2c1.3-.9,1.2-2.7,1.9-4a9.7,9.7,0,0,1,2.9-3.5l.5-.3a10.5,10.5,0,0,1,2.8-1.4l2.4-.6h1.3c.3,0,.8.2.9-.2a.9.9,0,0,0-.3-.9,2,2,0,0,1-.1-1.5,2.3,2.3,0,0,1,.8-1.2,1.2,1.2,0,0,1,.5-.5v.4a.9.9,0,0,0,.1.5,6.1,6.1,0,0,0,.5,1.2,8,8,0,0,0,1.5,1.7Zm-13.7,6-.3.3-.3.4a1.4,1.4,0,0,0-.2.7,1.9,1.9,0,0,0-.2.8,1.7,1.7,0,0,0,0,1,8.6,8.6,0,0,0,.4,2.1c.1.3.3.7.4,1.1l.3.5a7.5,7.5,0,0,0,1.4,1.7c.2.1.6.5.9.5s.4-.3.2-.5-.3-.2-.4-.4l-.5-.4-.9-1.3-.3-.4a3.1,3.1,0,0,1-.5-1,7,7,0,0,1-.6-1.9,4.8,4.8,0,0,1,0-1.7,6.4,6.4,0,0,1,.2-.7l.2-.4.3-.4Z"/><path class="a" d="M156.6,227.8l-3.1-.4a9.6,9.6,0,0,1-3.8-1.4c-.6-.4-2.6-1.7-2-2.5l.7-.5a1.8,1.8,0,0,1,1.2-.3c.4,0,.5.3.7.5a5.3,5.3,0,0,0,3,2.2,9,9,0,0,0,5.4,0c1.9-.6,3.6-1.9,4-3.4l.5.7a3,3,0,0,1,.2,1,3.6,3.6,0,0,1-.9,2c1.6.4,3.1-.7,4.2-1.7a6.5,6.5,0,0,0,2.2-4.1,2.3,2.3,0,0,0-.9-2.3,2.6,2.6,0,0,1,2.4-.4,2,2,0,0,1,1.3,1.4c.7-1.7,1-3.4.3-4.8a4.9,4.9,0,0,0-2.7-2.4,3.4,3.4,0,0,0-1.5-.2,2.8,2.8,0,0,0-1.7.9,2,2,0,0,0-.5,1.6,6.1,6.1,0,0,1-2.2-1.3c-.8-.9-1.4-2.7.2-3.6a3.7,3.7,0,0,0-2.1-.6,14,14,0,0,1,10.6-3.2,2.5,2.5,0,0,1,1.6.5,3.5,3.5,0,0,1,1.8-2,4.2,4.2,0,0,1,2.7-.2,6.5,6.5,0,0,1,2.2,1.1,5.5,5.5,0,0,0-2.4,1.5,4.6,4.6,0,0,0-1.4,2.3,2.5,2.5,0,0,1,1.8-1,4.3,4.3,0,0,1,1.9.2,3.5,3.5,0,0,0-2.3,2c-1,1.9-.5,3.8-.9,5.8a13.3,13.3,0,0,1-3.1,6l-.6.7a15.7,15.7,0,0,1-3.8,3,12.6,12.6,0,0,1-3.3,1.6l-1.7.5c-.5.1-1.2,0-1.4.5a.9.9,0,0,0,.3.9,1.7,1.7,0,0,1,0,1.7,5.2,5.2,0,0,1-1.4,1.6l-.8.7c-.1,0-.1-.4-.1-.5v-.6a6.1,6.1,0,0,0-.5-1.2,5.1,5.1,0,0,0-1.9-1.6A7.1,7.1,0,0,0,156.6,227.8Zm18-11.8.3-.6a1.4,1.4,0,0,0,.2-.7,6.4,6.4,0,0,0,.2-.9,3.8,3.8,0,0,0-.1-1l-.3-1a8.6,8.6,0,0,0-1.3-2l-1-.8-.5-.3a7.2,7.2,0,0,0-2.2-.8h-1.3a.3.3,0,0,0,0,.6l.6.2.7.2a7.6,7.6,0,0,1,1.6.6l.5.3a4.7,4.7,0,0,1,.9.6,5.5,5.5,0,0,1,1.4,1.7,3.2,3.2,0,0,1,.6,1.8v.9a1.4,1.4,0,0,1-.2.6,3.2,3.2,0,0,1-.2.6Z"/><path class="a" d="M202.6,182.9l-2.7.3a6.5,6.5,0,0,1-3.4-.6c-.6-.2-2.6-1.1-2.4-2a1.8,1.8,0,0,1,.5-.7,1.1,1.1,0,0,1,.9-.6,1,1,0,0,1,.7.4,4.3,4.3,0,0,0,3.1,1.4,6.3,6.3,0,0,0,4.5-1.2,6,6,0,0,0,2.4-4.6c0,.2.6.6.6.7a3,3,0,0,1,.4,1,4.5,4.5,0,0,1-.2,2.3c1.4.1,2.4-1.3,3.1-2.7a8.3,8.3,0,0,0,.9-4.8,3.1,3.1,0,0,0-1.4-2.3,2,2,0,0,1,1.9-1,2,2,0,0,1,1.4,1.3,13.1,13.1,0,0,0,0-2.8,6.4,6.4,0,0,0-1-2.4,4.5,4.5,0,0,0-3-1.8,2,2,0,0,0-1.3.1,2.1,2.1,0,0,0-1.2,1.4,1.9,1.9,0,0,0,0,1.8,6.3,6.3,0,0,1-2.3-.8c-1-.7-2-2.3-1-3.7a3.4,3.4,0,0,0-2,0,11.8,11.8,0,0,1,8.3-6.2,1.8,1.8,0,0,1,1.6.1,3.5,3.5,0,0,1,.9-2.6,2.9,2.9,0,0,1,2.4-.9,5.1,5.1,0,0,1,2.3.7,5.5,5.5,0,0,0-2.2,4.9,2.3,2.3,0,0,1,1.2-1.5l1.7-.3a4.4,4.4,0,0,0-1.4,2.7,9.1,9.1,0,0,0,.2,3.3,16.5,16.5,0,0,1,.7,3.2,23,23,0,0,1-.2,3.6,24.2,24.2,0,0,1-1,3.6l-.4.9a20.2,20.2,0,0,1-2.4,4,10.9,10.9,0,0,1-2.5,2.3,10.1,10.1,0,0,1-1.3.9c-.4.2-1,.3-1,.8s.2.7.4,1a2.1,2.1,0,0,1,.4,1.8,5.6,5.6,0,0,1-.8,2c-.2.3-.3.7-.6.9v-.5a1.4,1.4,0,0,0-.2-.6,3.4,3.4,0,0,0-.6-1.2,5.2,5.2,0,0,0-1.9-1.4A4.4,4.4,0,0,0,202.6,182.9Zm12.2-16.5a3.2,3.2,0,0,1,.1-.7v-.8c0-.3-.1-.6-.1-1l-.3-1.1-.6-1a9.8,9.8,0,0,0-1.7-1.8l-1.1-.6-.5-.2a5.5,5.5,0,0,0-2.2-.2c-.3.1-.9.1-1.1.4a.3.3,0,0,0,.2.6h1.2l1.6.2.5.2a2.1,2.1,0,0,1,1,.4l1.7,1.4a5.8,5.8,0,0,1,1,1.9c.1.3.1.6.2.9v1.4Z"/><path class="a" d="M160.2,198.8a8,8,0,0,0-.5-3.4,5.6,5.6,0,0,0-.9-1.7l-.5-.7c-.1,0-.5-.5-.5-.5h1.1a4.9,4.9,0,0,1,2.4.4,3.3,3.3,0,0,1,1.7,1.6c.2.5.3,1,.8,1.2s1-.5,1.3-.9l1.3-1.3a18.6,18.6,0,0,1,3.2-2.3,19.6,19.6,0,0,1,4.7-2l1.1-.3a29.3,29.3,0,0,1,4.1-.7h4.3c2.6.2,5.3,1.7,8.2.7a4.9,4.9,0,0,0,1.8-1.1,4.2,4.2,0,0,0,1.1-1.8,6.2,6.2,0,0,1,.2,2.7,3.4,3.4,0,0,1-1.6,2.4,6.2,6.2,0,0,0,3.5-1.6,7.7,7.7,0,0,0,2.2-3.5,8,8,0,0,1,1.7,3.3,6,6,0,0,1-.5,4.1,4.9,4.9,0,0,1-3.5,2.4,3.4,3.4,0,0,1,.3,2.7,17.8,17.8,0,0,1-1,4.3,23.8,23.8,0,0,1-2.3,4.1,19.9,19.9,0,0,1-3.4,3.7,21.9,21.9,0,0,1-4.1,2.6,6.4,6.4,0,0,0,.8-3.5c-2.6,1.8-4.5-.1-5.1-1.8a9.7,9.7,0,0,1-.4-3.8,2.7,2.7,0,0,0,2.5.3,4.5,4.5,0,0,0,2.2-1.9,4.2,4.2,0,0,0,.3-2.2,7,7,0,0,0-2.2-4.8,7.3,7.3,0,0,0-3-1.6,18.2,18.2,0,0,0-3.5-.6,3.7,3.7,0,0,1,1.5,2.5,2.9,2.9,0,0,1-1.6,2.6,3.8,3.8,0,0,0-2.5-2.6,9.2,9.2,0,0,0-5.9-.6c-1.7.4-3.6,1-4.1,2.9a4.5,4.5,0,0,1,2.7,1,3.2,3.2,0,0,1,1,1c.2.2.4,1.1.6,1.2a6.1,6.1,0,0,0-3.3-.3,6.9,6.9,0,0,0-3.1,1.2,9.2,9.2,0,0,0-2.5,2.3,16.9,16.9,0,0,0-1.7,2.9,9.9,9.9,0,0,0-1,4.1c0,1.2.6,2.3-.3,3.6a4.1,4.1,0,0,1-3.1,1.4,5.2,5.2,0,0,1-3.1-1.3c-.6-.7-.9-1.7-1.7-2.2a4.3,4.3,0,0,0,2.8.4,2.4,2.4,0,0,0,2-2,36.2,36.2,0,0,1,1.3-3.5,28.2,28.2,0,0,1,2.3-4.6A11.6,11.6,0,0,0,160.2,198.8Zm22.1-7.7H184l1.2.3a9.3,9.3,0,0,1,2.4,1.5,13.7,13.7,0,0,1,2,2.6,9.4,9.4,0,0,1,.6,1.5c.1.3.1.5.2.8l.3,2.5a3.7,3.7,0,0,1-.1,1.1c0,.3-.1.6-.1.9s.5.8.9.3a4.7,4.7,0,0,0,.6-1.9,8.2,8.2,0,0,0-.2-3.5,3.6,3.6,0,0,0-.4-.9,8.9,8.9,0,0,0-.9-1.6,9.1,9.1,0,0,0-2.4-2.4,6.7,6.7,0,0,0-1.4-.9l-1.4-.4-1.2-.2h-1.8Z"/><path class="a" d="M128.7,215.7a6.5,6.5,0,0,0,.1-2.4,6.1,6.1,0,0,0-.5-1.2l-.3-.5-.3-.4h.9a3.3,3.3,0,0,1,1.7.4,2.8,2.8,0,0,1,1.1,1.3,1.1,1.1,0,0,0,.4.9c.4.2.8-.3,1.1-.5l1.2-.7,1.3-.7,1.3-.5a15.9,15.9,0,0,1,3.8-.7h3.9a13.7,13.7,0,0,1,2.9.7c1.9.6,3.5,1.9,5.6,1.7a3,3,0,0,0,2.5-1.3,4.7,4.7,0,0,1-.3,1.7,1.9,1.9,0,0,1-1.4,1.2,4.7,4.7,0,0,0,4.6-2.2,6.3,6.3,0,0,1,.8,2.3,3.8,3.8,0,0,1-.9,2.4,3.5,3.5,0,0,1-2.7,1,2.1,2.1,0,0,1-.1,1.7,10.2,10.2,0,0,1-3,4.7,10,10,0,0,1-2.6,1.8,10.5,10.5,0,0,1-3.1,1.2,3.4,3.4,0,0,0,.8-2.1,2.6,2.6,0,0,1-3.6-1.8,7,7,0,0,1,0-2.5,2.2,2.2,0,0,0,1.8.6,2.6,2.6,0,0,0,1.7-.9,3.9,3.9,0,0,0,.5-1.4,4.4,4.4,0,0,0-1.1-3.3,5.8,5.8,0,0,0-1.9-1.5,13.5,13.5,0,0,0-2.4-.8,2.1,2.1,0,0,1,.7,1.8,1.9,1.9,0,0,1-1.4,1.5,2.9,2.9,0,0,0-1.5-2.1,7.5,7.5,0,0,0-4.2-1c-1.3,0-2.8.2-3.4,1.4a4.2,4.2,0,0,1,1.9.9,3.3,3.3,0,0,1,.6.8,9.4,9.4,0,0,0,.3.9,4.6,4.6,0,0,0-2.3-.6,7,7,0,0,0-2.5.5,7.6,7.6,0,0,0-3.5,3.1,4.7,4.7,0,0,0-1,3.2,3.6,3.6,0,0,0,2.1,2.7,4.3,4.3,0,0,0,4.1-.3,2.2,2.2,0,0,1-.9,2.3,4.1,4.1,0,0,1-2.9.7,7.9,7.9,0,0,0,7.4.9,5.7,5.7,0,0,0,3-2.2,5.5,5.5,0,0,0,.8-1.5c.1-.4.5-1.2-.4-1s-.5.2-.8.3-3.2,0-3.6-1.1a2.5,2.5,0,0,1,1.6-2.9,4.5,4.5,0,0,1,4.1.1,3.6,3.6,0,0,1,1.6,3.9,8.8,8.8,0,0,1-2.3,4.2,2,2,0,0,1,1.7,2.5,12.7,12.7,0,0,0-3.4-.3l-3.6.3a11.3,11.3,0,0,1-3.2-.2l-2.9-1a8.7,8.7,0,0,1-4-3.5,7.6,7.6,0,0,1,1.4-8.9c.6-.7,1.3-1.3,1.8-2A4,4,0,0,0,128.7,215.7Zm17.1-2.5h.6l.6.2.8.4a8.7,8.7,0,0,1,1.5,1.3,11.8,11.8,0,0,1,1.1,1.9,4.3,4.3,0,0,1,.2,1.1.7.7,0,0,1,.1.5,8.1,8.1,0,0,1-.1,1.6,1.7,1.7,0,0,1-.1.7,4.3,4.3,0,0,1-.1.5c-.1.3.2.6.6.3s.4-.7.5-1a4.6,4.6,0,0,0,.2-2.3c0-.2-.1-.4-.1-.6a5.4,5.4,0,0,0-.5-1.1,5.2,5.2,0,0,0-1.4-1.9,2.7,2.7,0,0,0-.8-.7l-.9-.6-.9-.3h-1.3Z"/><path class="a" d="M175.3,180.9a2,2,0,0,1,1.5-.8,4.7,4.7,0,0,1,.4-1.6,6.4,6.4,0,0,1,1-1.3,3.5,3.5,0,0,1,1.3-1.1,3.4,3.4,0,0,1,1.5-.6,4.5,4.5,0,0,1,2.8.3,3,3,0,0,1,1.7,2.1,2.8,2.8,0,0,1-.9,2.7,2.2,2.2,0,0,1-1.7.5,1.8,1.8,0,0,1-1.3-1.1,1.5,1.5,0,0,1,.7-1.6,1.1,1.1,0,0,1,1.5.3,1,1,0,0,0-.4-1.4,1.6,1.6,0,0,0-1.5.1,4.1,4.1,0,0,0-2.3,3.3,5.7,5.7,0,0,0,.7,3.6,4.8,4.8,0,0,0,2.9,2.1,1.9,1.9,0,0,1-.7-2.5,2.2,2.2,0,0,1,2.5-1.1,1.9,1.9,0,0,1,.9,2.5l-.4.8c-.1.3-.2.6,0,.8a1.1,1.1,0,0,0,.8.2,12.5,12.5,0,0,0,4.1-1.4,13.8,13.8,0,0,0,3.3-3.1c.3-.9.5-1.3,0-2a4.6,4.6,0,0,0-2.2-1.7.9.9,0,0,0-.7-.1.4.4,0,0,0-.4.4c-.1.2,0,.4,0,.5a.6.6,0,0,1-.9.1,1.5,1.5,0,0,1-.4-1.3,1.9,1.9,0,0,1,.9-1.1,4,4,0,0,1-1.9-.7,1.9,1.9,0,0,1-.9-1.8.5.5,0,0,0-.5.5,1.2,1.2,0,0,1-.7-1.5,1.3,1.3,0,0,1,1.4-.9,1.9,1.9,0,0,1,2.3-1.3,1.8,1.8,0,0,1,1.2,2.3,1.4,1.4,0,0,0-1.4,0,1.1,1.1,0,0,0,.1,1.6,8.5,8.5,0,0,0,1.7.6,3.4,3.4,0,0,1,2.1,2c.2.2.2.5.4.7s.4.4.7.3.8-.8.8-1.3a4.5,4.5,0,0,0-1.2-2.5l-1.7-2.1a3.6,3.6,0,0,1-.4-2.7,1.9,1.9,0,0,1,2.2-1.4,1.9,1.9,0,0,1-.2-1.5,3,3,0,0,1,.9-1.3c.8-.5,2.1-.5,2.7-1.3a6.5,6.5,0,0,0,.4-1.3,1,1,0,0,1,1-.6c.4.1.5.6.5,1.1a31.4,31.4,0,0,1-.2,6.1l-.6,3-.4,1.6-.5,1.5-.9,2.6-1.3,2.6-.8,1.2-.8,1.2a13.4,13.4,0,0,1-2,2.1l-1.6,1.2-.8.4a9.4,9.4,0,0,1-4.6.8,10.3,10.3,0,0,1-2.4-.5,10.4,10.4,0,0,1-5.6-4.3,3.6,3.6,0,0,0-1-1.1l-.5-.2A1.1,1.1,0,0,1,175.3,180.9Z"/><path class="a" d="M122,4.4a1.7,1.7,0,0,1,1.4.8,2.1,2.1,0,0,0,.8,1.1c.6.3,1.5.4,2.2.7s1.3,1.5.4,2a2,2,0,0,1,2.1,1.2,2.1,2.1,0,0,1-1.4,1.7A11.2,11.2,0,0,1,125,13a7.8,7.8,0,0,0-2.8,2.2Z"/><path class="a" d="M122.2,18.5a10.8,10.8,0,0,0,2.7,3,12.2,12.2,0,0,0,3.9,1.5,8.6,8.6,0,0,0,2.3.5,19.7,19.7,0,0,0,7.3-.3,2.6,2.6,0,0,1,1.5-.2h.6c.6.1,1.1-.4,1-.8s-.4-.8-.9-1.2.2-3.5-1.8-4.6a7.4,7.4,0,0,0-3-.8,3.9,3.9,0,0,0-1.5.2,2.3,2.3,0,0,0-1.2.6,1.3,1.3,0,0,0-.2,1.9,2.8,2.8,0,0,0,1.4.9,3.6,3.6,0,0,0,1.8-.2.8.8,0,0,0,.1-1.2,1.7,1.7,0,0,0-1.7-.4c-.1-.4.5-.7,1-.7a2.8,2.8,0,0,1,1.6.6,2.1,2.1,0,0,1,.6,2.8,4.5,4.5,0,0,1-2.5,1.9,8.1,8.1,0,0,1-3.8.3,1.9,1.9,0,0,0,2-1.3c0-.7-.9-1.3-1.9-1.4s-2,.5-2,1.2.1.4,0,.6a.4.4,0,0,1-.4.4,1.1,1.1,0,0,1-.8-.1c-3.1-1.1-5.5-3.5-5.7-5.9"/><path class="a" d="M122.2,17.5l.8-.7,1.2-.6a5,5,0,0,1,2.7-.5l.8.2c.2.1.1.3,0,.4s-.3.1-.3.2.2.1.3.1a1,1,0,0,0,1.1-.2l.5-.6a.6.6,0,0,0-.1-.4.5.5,0,0,0-.5-.3h2.5c.7-.1,1.4-.5,1.4-1s.5.3.4.5,1.3-.4,1.3-.9-.6-.9-1.3-.9-.1-.8-.6-1.1a3.9,3.9,0,0,0-2.6-.1,1.5,1.5,0,0,0-.8.8c-.1,0-.1.1-.1.2H130c.4.1.9.4.7.7a1.5,1.5,0,0,1-1.3.6h-1.7a7.1,7.1,0,0,0-2.7.8l-.6.4a1.6,1.6,0,0,1-1.5,0,.9.9,0,0,1-.3-.6.7.7,0,0,0-.3-.7"/><path class="a" d="M123.1,10.7h-.9v7.8h.8Z"/><path class="a" d="M122.3,4.4a1.8,1.8,0,0,0-1.3.8,2.8,2.8,0,0,1-.8,1.1,15.5,15.5,0,0,1-2.3.7,1.1,1.1,0,0,0-.3,2.1,1.7,1.7,0,0,0-2.1,1.2c0,.7.6,1.2,1.4,1.6a19.2,19.2,0,0,0,2.5,1.2,7.6,7.6,0,0,1,2.8,2.1Z"/><path class="a" d="M122.2,18.5a9.3,9.3,0,0,1-2.6,3,15.2,15.2,0,0,1-3.9,1.6l-2.3.5a16.2,16.2,0,0,1-3.8.2,14.9,14.9,0,0,1-3.6-.5,3.2,3.2,0,0,0-1.4-.2l-.6.2c-.6,0-1.1-.4-1-.8a1.5,1.5,0,0,1,.9-1.2c-1-1.4-.3-3.5,1.8-4.7a8.9,8.9,0,0,1,2.9-.8,3.8,3.8,0,0,1,2.7.8,1.3,1.3,0,0,1,.2,1.9,2.3,2.3,0,0,1-1.4.9,2.4,2.4,0,0,1-1.7-.2.8.8,0,0,1-.2-1.2,1.8,1.8,0,0,1,1.7-.4c.1-.4-.4-.7-1-.7a2.5,2.5,0,0,0-1.5.6,2.2,2.2,0,0,0-.6,2.9,4.3,4.3,0,0,0,2.5,1.8,8,8,0,0,0,3.8.2c-1,.1-2-.5-2-1.2a1.7,1.7,0,0,1,1.9-1.4,1.8,1.8,0,0,1,2,1.2,4.3,4.3,0,0,1-.1.5.8.8,0,0,0,.5.5,1.2,1.2,0,0,0,.8-.1c3.1-1.2,5.5-3.5,5.6-6"/><path class="a" d="M122.2,17.5l-.8-.7-1.2-.6a6.2,6.2,0,0,0-2.7-.5l-.7.2a.2.2,0,0,0-.1.4c.1,0,.3.1.3.2s-.2.1-.3.2a1.1,1.1,0,0,1-1.1-.3.7.7,0,0,1-.4-.5.5.5,0,0,1,0-.5.8.8,0,0,1,.6-.2h-2.6c-.7-.1-1.4-.4-1.4-.9s-.5.3-.3.4-1.4-.3-1.4-.7a1.2,1.2,0,0,1,1.3-1c-.2-.4.1-.8.6-1.1a3.3,3.3,0,0,1,2.6-.1c.4.2.7.4.8.7v.3c0,.1,0,.1-.2.1h-.9c-.4.1-.9.4-.7.7a2.3,2.3,0,0,0,1.3.6h1.7a5.7,5.7,0,0,1,2.7.7l.6.4a1.2,1.2,0,0,0,1.5,0,.9.9,0,0,0,.3-.6.9.9,0,0,1,.4-.7"/><polygon class="a" points="121.3 10.7 122.2 10.7 122.2 18.5 121.4 18.5 121.3 10.7"/><path class="a" d="M123.1,8.9c0-.9-.4-1.7-.9-1.7s-.9.8-.9,1.8.4,3.6.9,3.6S123,9.9,123.1,8.9Z"/><path class="a" d="M137.1,60.1h-.5a2,2,0,0,0-1.1.3,10.5,10.5,0,0,1-2.9.8,3.8,3.8,0,0,1-1.5,0h-1.5l-1.8-.5a7.1,7.1,0,0,1-3-1.8,11.1,11.1,0,0,1-2.2-3.4,10.5,10.5,0,0,1-2.1,3.5,8.1,8.1,0,0,1-3,1.7,6.1,6.1,0,0,1-1.8.5h-1.5a3.8,3.8,0,0,1-1.5,0,10.5,10.5,0,0,1-2.9-.8,2,2,0,0,0-1.1-.3h-.5c-.5.1-.9-.4-.9-.9a1.7,1.7,0,0,1,.7-1.3,4.4,4.4,0,0,1,1.2-5.3,4.1,4.1,0,0,1,2.4-.8,2.7,2.7,0,0,1,2.2,1,2.1,2.1,0,0,1,.2,2.3,1.7,1.7,0,0,1-1.1.9,1.4,1.4,0,0,1-1.4-.3,1.2,1.2,0,0,1-.1-1.4,1.1,1.1,0,0,1,1.3-.4c.1-.4-.4-.8-.9-.8a2,2,0,0,0-1.2.6,3.2,3.2,0,0,0-.3,3.3,4.7,4.7,0,0,0,2.1,2.3l1.5.4h1.5a1.6,1.6,0,0,1-1.6-1.5,1.5,1.5,0,1,1,3-.2c.1.2,0,.5.1.7s.1.5.3.5a.7.7,0,0,0,.6-.1,8.8,8.8,0,0,0,4.2-4.9v-.9l-1-.7a2.9,2.9,0,0,0-2.2-.6l-.6.2a.3.3,0,0,0,0,.4c.1.1.2.2.2.3a.2.2,0,0,1-.2.2.9.9,0,0,1-.9-.3,1.6,1.6,0,0,1-.4-.7v-.5a.5.5,0,0,1,.5-.3h-2.1c-.5-.1-1.1-.6-1.1-1.1s-.5.3-.3.5a1.3,1.3,0,0,1-1.2-1,1.3,1.3,0,0,1,1.1-1.1,1,1,0,0,1,.4-1.2,2.2,2.2,0,0,1,2.2,0,2.7,2.7,0,0,1,.7.8v.3c0,.1.1.2-.1.1h-.7c-.4.1-.8.5-.6.8a1.4,1.4,0,0,0,1.1.7h1.3a3.6,3.6,0,0,1,2.3.9,1,1,0,0,0,.5.4.8.8,0,0,0,1.1.1V50.4a7.8,7.8,0,0,0-1.6-1.5l-2.1-1.3a2.7,2.7,0,0,1-1.1-2,1.4,1.4,0,0,1,1.7-1.3,1.5,1.5,0,0,1,.3-2.4c.6-.4,1.4-.4,1.9-.8a2.6,2.6,0,0,0,.6-1.3,2.6,2.6,0,0,1,.9-.9h.2a1.6,1.6,0,0,1,.9.9,3.3,3.3,0,0,0,.7,1.3c.5.4,1.3.4,1.9.8a1.5,1.5,0,0,1,.3,2.4,1.5,1.5,0,0,1,1.7,1.3,2.5,2.5,0,0,1-1.2,2,22.6,22.6,0,0,1-2,1.3,12.9,12.9,0,0,0-1.7,1.5v1.1a.8.8,0,0,0,1.1-.1l.5-.4a3.6,3.6,0,0,1,2.2-.9h1.4a1.6,1.6,0,0,0,1.1-.7c.2-.3-.2-.7-.6-.8h-.7c-.2,0-.2,0-.1-.1v-.3a1.8,1.8,0,0,1,.7-.8,2.2,2.2,0,0,1,2.2,0,1,1,0,0,1,.4,1.2,1,1,0,0,1,1,1.1,1.1,1.1,0,0,1-1.1,1,.3.3,0,0,0-.3-.5c0,.5-.6,1-1.1,1.1h-2.1c.2,0,.4.1.4.3a.7.7,0,0,1,.1.5,1.6,1.6,0,0,1-.4.7.9.9,0,0,1-.9.3.2.2,0,0,1-.2-.2c0-.1.1-.2.2-.3a.3.3,0,0,0,0-.4l-.6-.2a2.9,2.9,0,0,0-2.2.6l-1,.7v.9a8.8,8.8,0,0,0,4.2,4.9.7.7,0,0,0,.6.1.5.5,0,0,0,.3-.5c.1-.2,0-.5,0-.7a1.6,1.6,0,0,1,1.7-1.4,1.5,1.5,0,1,1-.2,3,2.6,2.6,0,0,0,1.5.1,3.8,3.8,0,0,0,1.5-.5A4.5,4.5,0,0,0,135,57a3.2,3.2,0,0,0-.3-3.3,1.6,1.6,0,0,0-1.3-.6c-.4,0-.9.4-.8.8a1.1,1.1,0,0,1,1.3.4,1.2,1.2,0,0,1-.1,1.4,1.8,1.8,0,0,1-1.4.3,2.2,2.2,0,0,1-1.2-.9,2.4,2.4,0,0,1,.3-2.3,2.7,2.7,0,0,1,2.2-1,4.1,4.1,0,0,1,2.4.8,4.4,4.4,0,0,1,1.2,5.2,1.9,1.9,0,0,1,.7,1.3C138,59.6,137.6,60.2,137.1,60.1ZM123.4,44.2c0-1.2-.4-2.1-.8-2.1s-.7.9-.7,2.1.4,4.2.7,4.2S123.4,45.3,123.4,44.2Z"/><path class="a" d="M207.8,105.4a14.5,14.5,0,0,1,2.2,13c-.7,1.8-2.3,3.4-2.4,5.4a3.1,3.1,0,0,0,.7,2.5,3.8,3.8,0,0,1-1.5-.5,1.9,1.9,0,0,1-.9-1.5,4.4,4.4,0,0,0,1,4.6,6.5,6.5,0,0,1-2.4.2,3.6,3.6,0,0,1-2.1-1.3,2.1,2.1,0,0,1-.2-2.3,2.7,2.7,0,0,1-1.7-.3,9.9,9.9,0,0,1-6.5-6.7,2.8,2.8,0,0,0,2,.4c-.7-1.4.6-2.5,1.8-2.9a5,5,0,0,1,2.4-.3,1.9,1.9,0,0,0,.4,2.9,2.8,2.8,0,0,0,1.3.3,5.1,5.1,0,0,0,3.3-1,4.7,4.7,0,0,0,1.5-1.9,6.1,6.1,0,0,0,.7-2.4,1.9,1.9,0,0,1-1.7.8,1.6,1.6,0,0,1-1.5-1.1,2.8,2.8,0,0,0,1.8-1.7,6.4,6.4,0,0,0,.4-4.3c-.3-1.3-.9-2.7-2.2-2.9a4.9,4.9,0,0,1-.4,2.1l-.6.8c-.2.1-.8.3-.8.4a4.6,4.6,0,0,0-1.1-4.3,6.3,6.3,0,0,0-4-1.7,6.8,6.8,0,0,0-3.2.7,4.4,4.4,0,0,0-1.9,2.7,2.5,2.5,0,0,0,1.4,2.7,2.4,2.4,0,0,1-3.7-1.5,4.7,4.7,0,0,0,.6,5.3,5.5,5.5,0,0,0,2.4,1.5l1.6.2c.4,0,1.2.1.9-.5s-.2-.3-.3-.5a1.9,1.9,0,0,1-.4-1.6,1.9,1.9,0,0,1,.9-1.4,2.3,2.3,0,0,1,3.1.5,3.1,3.1,0,0,1,.4,3.3,4.3,4.3,0,0,1-3.7,2,12.7,12.7,0,0,1-4.3-.9,2.4,2.4,0,0,1-2.3,1.7,3.6,3.6,0,0,0,0-2.3c-.2-.8-.5-1.5-.7-2.2a7.6,7.6,0,0,1-.3-2.1,7.8,7.8,0,0,1,.2-2.2,18,18,0,0,1,.8-2.1,7.6,7.6,0,0,1,1.2-1.9,8.8,8.8,0,0,1,8.5-3.1l2.4.7A12.9,12.9,0,0,1,207.8,105.4Zm.5,11.4a2.1,2.1,0,0,1-.1.6c-.1.2-.1.4-.3.6a3,3,0,0,1-.4.8,4.7,4.7,0,0,1-1.4,1.4,5.6,5.6,0,0,1-1.9.9l-1.1.2h-2.8l-.5-.2c-.3,0-.6.3-.4.5s.7.4,1,.5a5.5,5.5,0,0,0,2.2.2h.6l1.1-.4a7.2,7.2,0,0,0,2.1-1.2,3,3,0,0,0,.8-.8l.6-.8a3.2,3.2,0,0,0,.3-.9,1.4,1.4,0,0,0,.2-.6,2.8,2.8,0,0,0,.1-.6Z"/><path class="a" d="M189.3,103.7a8,8,0,0,0-1.5,1.7,5.4,5.4,0,0,0-.5,1.1,1.3,1.3,0,0,0-.1.6v.4c-.2-.2-.4-.3-.5-.5a2.6,2.6,0,0,1-.8-1.3,1.7,1.7,0,0,1,.1-1.4c.2-.3.4-.6.3-.9s-.6-.2-.9-.2H184l-2.4-.5a24.4,24.4,0,0,1-2.8-1.4l-.5-.4a9,9,0,0,1-2.9-3.5c-.7-1.2-.6-3.1-1.9-3.9a2,2,0,0,0-2.1-.3l1.2-1.1a1.7,1.7,0,0,1,1.5-.2,2.5,2.5,0,0,0-1.6-1,3.1,3.1,0,0,0-2.1.4,5.8,5.8,0,0,1,1-2.1,3.4,3.4,0,0,1,1.9-1.4,1.7,1.7,0,0,1,1.9.6,2.4,2.4,0,0,1,1-1.3,9.2,9.2,0,0,1,4.2-2.3,10.7,10.7,0,0,1,2.5-.3l2.4.6a3.4,3.4,0,0,0-1.5,1.4c1.6.2,1.5,2.1,1.1,3.2a5.6,5.6,0,0,1-1.4,2,1.7,1.7,0,0,0-.7-1.3,1.8,1.8,0,0,0-1.6-.1c-.4.1-.7.5-1,.8a5.5,5.5,0,0,0-1.4,3.1,5.1,5.1,0,0,0,1,3.8,2.8,2.8,0,0,1,.7-1.7,2,2,0,0,1,1.8-.4,3.1,3.1,0,0,0-.4,2.3,4.7,4.7,0,0,0,1.8,2.9,2.8,2.8,0,0,0,3.1.7,2.9,2.9,0,0,1-.6-1.7,2.8,2.8,0,0,1,.1-.9c0-.2.4-.7.4-.8a3.6,3.6,0,0,0,2.9,2.5,6.4,6.4,0,0,0,4.1-.6,5.4,5.4,0,0,0,2.5-2.2,7.6,7.6,0,0,0,.8-3.6,26,26,0,0,0-.5-3.9,2.8,2.8,0,0,1,2.8,2.3,7.4,7.4,0,0,1-.2,3.9,8.2,8.2,0,0,1-5.7,5.6l-2.4.5A7,7,0,0,0,189.3,103.7Zm-11.9-6.9-.3-.3c0-.2-.1-.3-.2-.5s-.1-.4-.2-.6a4.8,4.8,0,0,1,0-1.7,7.6,7.6,0,0,1,.6-2,4.1,4.1,0,0,1,.5-.9l.3-.5.9-1.2.5-.5c.1-.1.3-.2.4-.4a.3.3,0,0,0-.2-.5l-.9.6a7.5,7.5,0,0,0-1.4,1.7l-.3.5c-.1.3-.3.7-.4,1.1a7.8,7.8,0,0,0-.4,2.1,1.7,1.7,0,0,0,0,1,2.4,2.4,0,0,0,.2.8,1.4,1.4,0,0,0,.2.6l.3.5.3.3Z"/><path class="a" d="M158.8,29.7a4.3,4.3,0,0,0,1.9-1.6,6.1,6.1,0,0,0,.5-1.2v-.6s0-.4.1-.4l.8.6a5.5,5.5,0,0,1,1.4,1.7,1.5,1.5,0,0,1,0,1.6,1.2,1.2,0,0,0-.3,1c.2.4.9.4,1.4.5l1.7.5a12.4,12.4,0,0,1,3.3,1.5,22.8,22.8,0,0,1,3.8,3l.6.8a12.8,12.8,0,0,1,3.1,6c.4,1.9-.1,3.8.9,5.8a3.8,3.8,0,0,0,2.3,2,6.2,6.2,0,0,1-1.9.1,2.2,2.2,0,0,1-1.8-1,4.9,4.9,0,0,0,1.4,2.4,5.3,5.3,0,0,0,2.4,1.4,6.8,6.8,0,0,1-2.2,1.2,4.2,4.2,0,0,1-2.7-.2,3.4,3.4,0,0,1-1.8-2.1c-.3.4-1,.5-1.6.6a15.4,15.4,0,0,1-5.6-.5,15.1,15.1,0,0,1-5-2.7,3.7,3.7,0,0,0,2.1-.6c-1.6-1-1-2.7-.2-3.6a6.4,6.4,0,0,1,2.2-1.4,2.2,2.2,0,0,0,.5,1.7,2.8,2.8,0,0,0,1.7.9,3.3,3.3,0,0,0,1.5-.3,4.8,4.8,0,0,0,2.7-2.3c.7-1.5.4-3.1-.3-4.9a2,2,0,0,1-1.3,1.5,3,3,0,0,1-2.4-.4,2.3,2.3,0,0,0,.9-2.3,6.2,6.2,0,0,0-2.2-4.1c-1.1-1-2.6-2.1-4.2-1.7a3.3,3.3,0,0,1,.9,2,3.6,3.6,0,0,1-.2,1c0,.1-.5.6-.5.7-.4-1.5-2.1-2.8-4-3.5a9,9,0,0,0-5.4.1,5.2,5.2,0,0,0-3,2.1c-.2.3-.3.5-.7.6a1.8,1.8,0,0,1-1.2-.3l-.7-.5c-.6-.8,1.4-2.1,2-2.5a11.6,11.6,0,0,1,3.8-1.5l3.1-.3A7.2,7.2,0,0,0,158.8,29.7Zm15.7,12.6.2.5a1.4,1.4,0,0,1,.2.7v.8a3.5,3.5,0,0,1-.6,1.9,5.5,5.5,0,0,1-1.4,1.7l-.9.6-.5.2-1.6.7-.7.2h-.6c-.2.1-.3.5,0,.6a1.9,1.9,0,0,0,1.3,0,7.1,7.1,0,0,0,2.2-.7,1,1,0,0,0,.5-.4,3.9,3.9,0,0,0,1-.8,6.4,6.4,0,0,0,1.3-1.9l.3-1.1a3.4,3.4,0,0,0,.1-1c-.1-.3-.1-.6-.2-.9a1.9,1.9,0,0,0-.2-.7l-.3-.5Z"/><path class="a" d="M204.6,75.1a5,5,0,0,0,1.9-1.3,3.1,3.1,0,0,0,.6-1.3,1.4,1.4,0,0,0,.2-.6v-.5a4.7,4.7,0,0,1,.6.9,5.4,5.4,0,0,1,.8,2.1,2.2,2.2,0,0,1-.4,1.8,1,1,0,0,0-.4.9c0,.5.6.7,1,.9l1.3.8a14.2,14.2,0,0,1,2.5,2.4,17.7,17.7,0,0,1,2.4,4l.4.9a24.2,24.2,0,0,1,1,3.6,21.7,21.7,0,0,1,.2,3.6,18.3,18.3,0,0,1-.7,3.2,8.5,8.5,0,0,0-.2,3.2,3.9,3.9,0,0,0,1.4,2.7,3.4,3.4,0,0,1-1.7-.3,1.9,1.9,0,0,1-1.2-1.4,5.7,5.7,0,0,0,2.2,4.9,5.1,5.1,0,0,1-2.3.7,3.8,3.8,0,0,1-2.4-.9,3.7,3.7,0,0,1-.9-2.7,1.8,1.8,0,0,1-1.6.1,11.6,11.6,0,0,1-8.3-6.2,2.8,2.8,0,0,0,2,0c-1-1.4,0-2.9,1-3.6a6.5,6.5,0,0,1,2.3-.9,2.1,2.1,0,0,0,0,1.9,2,2,0,0,0,1.2,1.3,3,3,0,0,0,1.3.2,4.5,4.5,0,0,0,3-1.8,6.4,6.4,0,0,0,1-2.4,14,14,0,0,0,0-2.9,2,2,0,0,1-1.4,1.3,2,2,0,0,1-1.9-1,2.7,2.7,0,0,0,1.4-2.2,8.7,8.7,0,0,0-.9-4.9c-.7-1.3-1.7-2.8-3.1-2.7a4.9,4.9,0,0,1,.2,2.4,3.6,3.6,0,0,1-.4.9c0,.2-.6.6-.6.7a6.1,6.1,0,0,0-6.9-5.7,4.3,4.3,0,0,0-3.1,1.4,1,1,0,0,1-.7.4c-.4,0-.7-.4-.9-.6l-.5-.7c-.2-.9,1.8-1.8,2.4-2.1a7.6,7.6,0,0,1,3.4-.5,24.8,24.8,0,0,1,2.7.3A6.4,6.4,0,0,0,204.6,75.1Zm10.1,16.8v1.4c-.1.3-.1.6-.2.9a5.4,5.4,0,0,1-1,1.8,8,8,0,0,1-1.7,1.5l-1,.4h-.5a9,9,0,0,1-1.6.3h-1.2c-.3,0-.5.3-.2.6a2,2,0,0,0,1.1.3,3.4,3.4,0,0,0,2.2-.2l.5-.2a6,6,0,0,0,1.1-.6,13.7,13.7,0,0,0,1.7-1.7l.6-1.1.3-1.1c0-.3.1-.6.1-.9v-.8a4.2,4.2,0,0,1-.1-.7Z"/><path class="a" d="M140.4,50.2a3.7,3.7,0,0,0,1.4-.7l.7-.6c0-.1.1-.2.2-.3a1,1,0,0,1,.1-.3l.3.5a2,2,0,0,1,.2,1.1,1.2,1.2,0,0,1-.5.9.7.7,0,0,0-.4.5c0,.3.4.3.6.4l.8.4,1.3,1.2a8.2,8.2,0,0,1,1.2,2l.2.5a7.3,7.3,0,0,1,.3,3.6c-.2,1.1-.9,2.2-.7,3.4s.4,1.1.8,1.2a1.7,1.7,0,0,1-1,.1,1.1,1.1,0,0,1-.8-.7,2.3,2.3,0,0,0,1.4,2.4,3.5,3.5,0,0,1-1.4.6,1.8,1.8,0,0,1-1.4-.2,1.3,1.3,0,0,1-.6-1.2,1.3,1.3,0,0,1-.9.2,3.8,3.8,0,0,1-1.5-.1l-1.4-.4a5.6,5.6,0,0,1-2.2-2.1,1.7,1.7,0,0,0,1.2-.2c-.7-.7,0-1.7.6-2.2a3.5,3.5,0,0,1,1.4-.6,1.2,1.2,0,0,0,0,1,1.2,1.2,0,0,0,.7.7h.9a3.6,3.6,0,0,0,1.8-1.2,4.4,4.4,0,0,0,.9-2.9,1.6,1.6,0,0,1-1,.8,1.1,1.1,0,0,1-1.1-.4,2.6,2.6,0,0,0,1-1.3,3.9,3.9,0,0,0-.2-2.6c-.3-.7-.8-1.4-1.7-1.3a4.9,4.9,0,0,1-.1,1.2,2.1,2.1,0,0,1-.4.6c0,.1-.4.3-.4.4a2.8,2.8,0,0,0-1.2-2.5,4.6,4.6,0,0,0-2.8-.6,4.2,4.2,0,0,0-2.2.8.5.5,0,0,1-.5.3.7.7,0,0,1-.5-.4c-.1-.1-.3-.2-.3-.4s1.3-1,1.8-1.2a8.5,8.5,0,0,1,2.3-.3l1.8.2Zm5.2,8.6v.4a.4.4,0,0,0-.1.3.8.8,0,0,1-.2.5,3,3,0,0,1-.6,1.1,4.8,4.8,0,0,1-1.1.9l-.6.4h-.4l-.9.3H141a.3.3,0,0,0-.2.4c.2.1.5,0,.7,0a2.8,2.8,0,0,0,1.3-.3l.4-.2.6-.4,1.1-1.1.4-.6a1.4,1.4,0,0,0,.2-.6,1.1,1.1,0,0,0,.1-.5c.1-.2,0-.3,0-.4v-.4Z"/><path class="a" d="M149.8,51.6a5.7,5.7,0,0,0,1.3-.8l.5-.6c.1-.1.1-.3.2-.4s0-.2.1-.2a.8.8,0,0,1,.2.4,1.8,1.8,0,0,1,.4,1,1.2,1.2,0,0,1-.3.9c-.2.2-.4.3-.4.5s.4.3.6.4l.8.4a4.5,4.5,0,0,1,1.4,1,5.9,5.9,0,0,1,1.3,1.8l.2.4a6.7,6.7,0,0,1,.7,3.4c-.1,1-.7,2.1-.5,3.2s.5,1,1,1.1a1.8,1.8,0,0,1-1,.1.8.8,0,0,1-.8-.6,2.1,2.1,0,0,0,1.5,2.1,4.2,4.2,0,0,1-1.3.7,1.4,1.4,0,0,1-1.4-.1,1.2,1.2,0,0,1-.7-1.1,1.2,1.2,0,0,1-.9.3,6.6,6.6,0,0,1-2.8-.4,4.1,4.1,0,0,1-2.2-1.7,2.7,2.7,0,0,0,1.2-.3c-.7-.6-.2-1.6.4-2.1l1.3-.7a.9.9,0,0,0,0,1,1,1,0,0,0,.8.6l.8-.2a3.3,3.3,0,0,0,1.7-1.2,3.6,3.6,0,0,0,.6-2.7,1.6,1.6,0,0,1-.9.7c-.4.1-.9.1-1.1-.3a1.7,1.7,0,0,0,.8-1.2,3.4,3.4,0,0,0-.4-2.4c-.4-.6-.9-1.3-1.8-1.2a2.5,2.5,0,0,1,.1,1.2l-.3.5-.4.4a2.4,2.4,0,0,0-1.3-2.2,5,5,0,0,0-2.7-.4,4.7,4.7,0,0,0-2,1l-.4.3c-.2,0-.4-.2-.6-.4s-.2-.2-.2-.3,1.1-1.1,1.5-1.2a5.4,5.4,0,0,1,2.2-.5h1.6Zm5.7,7.7V60a1.1,1.1,0,0,1-.1.5,3.7,3.7,0,0,1-.6,1l-.9.9-.6.4H153l-.9.3h-.7c-.1,0-.3.2-.1.3h.7l1.2-.4.3-.2.6-.5a9.4,9.4,0,0,0,1-1l.3-.6c.1-.2.1-.4.2-.6a.9.9,0,0,1,.1-.5c0-.1-.1-.3-.1-.4v-.3Z"/><path class="a" d="M158.3,55a23.8,23.8,0,0,1-2.3-4.5c-.5-1.2-.9-2.4-1.3-3.6a2.6,2.6,0,0,0-2-2,3.8,3.8,0,0,0-2.8.5c.8-.6,1.1-1.5,1.7-2.2a4.2,4.2,0,0,1,3.1-1.3,4.1,4.1,0,0,1,3.1,1.4c.9,1.2.3,2.4.3,3.6a9.9,9.9,0,0,0,1,4.1,16.9,16.9,0,0,0,1.7,2.9,11,11,0,0,0,2.5,2.3,8.4,8.4,0,0,0,3.1,1.2,6.1,6.1,0,0,0,3.3-.3c-.2,0-.4,1-.6,1.1a3.5,3.5,0,0,1-1,1.1,6.3,6.3,0,0,1-2.7,1c.5,1.9,2.4,2.5,4.1,2.9a10.7,10.7,0,0,0,5.9-.6,4,4,0,0,0,2.5-2.6,2.9,2.9,0,0,1,1.6,2.6A3.5,3.5,0,0,1,178,65a12.9,12.9,0,0,0,3.5-.5,9,9,0,0,0,3-1.7,6.9,6.9,0,0,0,2.2-4.7,4.2,4.2,0,0,0-.3-2.2,4.3,4.3,0,0,0-2.2-2,3,3,0,0,0-2.5.4,9.7,9.7,0,0,1,.4-3.8c.6-1.8,2.5-3.7,5.1-1.9a6.6,6.6,0,0,0-.8-3.5,18.2,18.2,0,0,1,4.1,2.7,23.1,23.1,0,0,1,3.4,3.6,29.1,29.1,0,0,1,2.3,4.2,16.7,16.7,0,0,1,1,4.3,3.1,3.1,0,0,1-.3,2.6,5.1,5.1,0,0,1,3.5,2.5,5.9,5.9,0,0,1,.5,4.1,7.1,7.1,0,0,1-1.7,3.2,6.9,6.9,0,0,0-2.2-3.4,6.2,6.2,0,0,0-3.5-1.6,3.2,3.2,0,0,1,1.6,2.3,6,6,0,0,1-.2,2.7,4.2,4.2,0,0,0-1.1-1.8,6.7,6.7,0,0,0-1.8-1.1c-2.9-1-5.6.5-8.2.8h-4.3a19.8,19.8,0,0,1-4.1-.8l-1.1-.2a24.9,24.9,0,0,1-4.7-2.1,14,14,0,0,1-3.2-2.2l-1.3-1.4c-.3-.3-.7-1.2-1.3-.9s-.6.8-.8,1.2a3,3,0,0,1-1.7,1.6,4.9,4.9,0,0,1-2.4.4h-1.1l.5-.5.5-.6a5.6,5.6,0,0,0,.9-1.7,8.3,8.3,0,0,0,.5-3.5A13.1,13.1,0,0,0,158.3,55Zm24,12.3h1.8l1.2-.2,1.4-.5,1.4-.8a8.2,8.2,0,0,0,2.4-2.5,5.1,5.1,0,0,0,.9-1.6l.4-.8a8.7,8.7,0,0,0,.2-3.6,3.9,3.9,0,0,0-.6-1.8c-.4-.5-.9-.2-.9.2s.1.6.1.9a4.5,4.5,0,0,1,.1,1.1l-.3,2.5c-.1.3-.1.6-.2.8a7.6,7.6,0,0,1-.6,1.6,10.4,10.4,0,0,1-2,2.5,9.3,9.3,0,0,1-2.4,1.5l-1.2.4h-1.7Z"/><path class="a" d="M127.8,40.8c-.5-.7-1.2-1.2-1.8-1.9a7.7,7.7,0,0,1-1.4-8.9,9.4,9.4,0,0,1,4-3.6,12.3,12.3,0,0,1,2.9-.9,16.6,16.6,0,0,1,3.2-.3c1.2.1,2.4.3,3.6.3a7.8,7.8,0,0,0,3.4-.3c.4,1.1-.4,2.2-1.7,2.6a8.8,8.8,0,0,1,2.3,4.2,3.5,3.5,0,0,1-1.6,3.8,4.6,4.6,0,0,1-4.1.2,2.6,2.6,0,0,1-1.6-3,2.8,2.8,0,0,1,3.6-1l.8.3c.9.1.5-.7.4-1a4.8,4.8,0,0,0-.8-1.6,6.9,6.9,0,0,0-3-2.2,7.7,7.7,0,0,0-7.4,1,3.7,3.7,0,0,1,2.9.7,2.1,2.1,0,0,1,.9,2.2,4.9,4.9,0,0,0-4.1-.3,3.7,3.7,0,0,0-2.1,2.8,4.9,4.9,0,0,0,1,3.2,7.4,7.4,0,0,0,3.5,3,7,7,0,0,0,2.5.5,4.6,4.6,0,0,0,2.3-.5c-.1,0-.2.7-.3.8a1.6,1.6,0,0,1-.6.8,4.2,4.2,0,0,1-1.9.9c.6,1.3,2.1,1.5,3.4,1.5a6.8,6.8,0,0,0,4.2-1.1,2.9,2.9,0,0,0,1.5-2,1.8,1.8,0,0,1,1.4,1.5,2.2,2.2,0,0,1-.7,1.8,8.5,8.5,0,0,0,2.4-.9,4,4,0,0,0,1.9-1.5,4.4,4.4,0,0,0,1.1-3.3,3.5,3.5,0,0,0-.5-1.3,2.2,2.2,0,0,0-1.7-.9,2.2,2.2,0,0,0-1.8.5,7,7,0,0,1,0-2.5,2.6,2.6,0,0,1,3.6-1.8,3.2,3.2,0,0,0-.8-2,10.4,10.4,0,0,1,3.1,1.1,19.5,19.5,0,0,1,2.6,1.8,10,10,0,0,1,3,4.8,2,2,0,0,1,.1,1.7,3.4,3.4,0,0,1,2.7.9,3.8,3.8,0,0,1,.9,2.4,5.7,5.7,0,0,1-.8,2.3,5.1,5.1,0,0,0-4.6-2.2,2.1,2.1,0,0,1,1.4,1.2,5.7,5.7,0,0,1,.3,1.8,3.4,3.4,0,0,0-2.5-1.4c-2.1-.1-3.7,1.2-5.6,1.8a13.6,13.6,0,0,1-2.9.6,16.1,16.1,0,0,1-3.1.1h-.8a16.1,16.1,0,0,1-3.8-.8l-1.3-.5-1.3-.6-1.2-.8c-.3-.2-.7-.7-1.1-.4a.9.9,0,0,0-.4.8,2.4,2.4,0,0,1-1.1,1.3,4.8,4.8,0,0,1-1.7.5,2.7,2.7,0,0,1-.9,0l.3-.3.3-.5a5,5,0,0,0,.5-1.3,6,6,0,0,0-.1-2.3A5.1,5.1,0,0,0,127.8,40.8Zm18,4.3h.6l.7-.2a1.6,1.6,0,0,0,.9-.3l.9-.5.8-.7a6.2,6.2,0,0,0,1.4-1.9,6.1,6.1,0,0,0,.5-1.2,4.3,4.3,0,0,1,.1-.5,4.5,4.5,0,0,0-.2-2.3,2.7,2.7,0,0,0-.5-1.1c-.4-.2-.7,0-.6.3s.1.4.1.6a1.3,1.3,0,0,1,.1.6,9.2,9.2,0,0,1,.1,1.6,1.3,1.3,0,0,1-.1.6,3.6,3.6,0,0,1-.2,1,8.6,8.6,0,0,1-1.1,1.9,6.4,6.4,0,0,1-1.5,1.4c-.3.1-.5.3-.8.3a.7.7,0,0,1-.6.2l-.6.2Z"/><path class="a" d="M175.3,77.3a2,2,0,0,0,1.5.8,4.2,4.2,0,0,0,.4,1.6,7.1,7.1,0,0,0,1,1.4,3.2,3.2,0,0,0,1.3,1,3.4,3.4,0,0,0,1.5.6,4.5,4.5,0,0,0,2.8-.2,3.3,3.3,0,0,0,1.7-2.1,2.7,2.7,0,0,0-.9-2.7,2.2,2.2,0,0,0-1.7-.5,1.6,1.6,0,0,0-1.3,1.1,1.3,1.3,0,0,0,.7,1.5,1,1,0,0,0,1.5-.2,1,1,0,0,1-.4,1.4,1.9,1.9,0,0,1-1.5-.1,4.2,4.2,0,0,1-2.3-3.3,5.6,5.6,0,0,1,.7-3.6,4.6,4.6,0,0,1,2.9-2.2,1.9,1.9,0,0,0-.7,2.5,2,2,0,0,0,2.5,1.1,1.9,1.9,0,0,0,.9-2.5,5.9,5.9,0,0,1-.4-.8c-.1-.2-.2-.6,0-.8a.8.8,0,0,1,.8-.1,9.1,9.1,0,0,1,4.1,1.4,10.7,10.7,0,0,1,3.3,3.1c.3.9.5,1.2,0,1.9a4.2,4.2,0,0,1-2.2,1.8h-.7c-.2-.1-.4-.2-.4-.5s0-.3,0-.5a.6.6,0,0,0-.9,0,1.3,1.3,0,0,0-.4,1.2,1.7,1.7,0,0,0,.9,1.1,5.4,5.4,0,0,0-1.9.7,2.1,2.1,0,0,0-.9,1.9.5.5,0,0,1-.5-.5,1.2,1.2,0,0,0-.7,1.5,1.3,1.3,0,0,0,1.4.9,2.2,2.2,0,0,0,2.3,1.3,1.9,1.9,0,0,0,1.2-2.4,1.4,1.4,0,0,1-1.4.1,1.1,1.1,0,0,1,.1-1.6,3.5,3.5,0,0,1,1.7-.6,4.1,4.1,0,0,0,2.1-2c.2-.3.2-.5.4-.8a.9.9,0,0,1,.7-.3c.5.1.8.8.8,1.4a4.5,4.5,0,0,1-1.2,2.5c-.5.7-1.2,1.3-1.7,2.1a3.6,3.6,0,0,0-.4,2.7,2,2,0,0,0,2.2,1.4,1.7,1.7,0,0,0-.2,1.4,2.5,2.5,0,0,0,.9,1.3c.8.6,2.1.5,2.7,1.4a5.6,5.6,0,0,1,.4,1.2c.2.4.6.8,1,.7s.5-.7.5-1.1a31.1,31.1,0,0,0-.2-6.1l-.6-3.1-.4-1.5-.5-1.5-.9-2.7-1.3-2.5-.8-1.3-.8-1.2L192,72a9.1,9.1,0,0,0-1.6-1.1l-.8-.5a9.3,9.3,0,0,0-4.6-.7,10,10,0,0,0-2.4.4,10.6,10.6,0,0,0-5.6,4.4,5.2,5.2,0,0,1-1,1.1l-.5.2A1,1,0,0,0,175.3,77.3Z"/><path class="a" d="M44.4,100.7l2.5-.7a8.7,8.7,0,0,1,8.4,3.1,8,8,0,0,1,1.3,1.9,18,18,0,0,1,.8,2.1,15,15,0,0,1,.2,2.2,7.6,7.6,0,0,1-.3,2.1c-.2.7-.5,1.4-.7,2.2a3.6,3.6,0,0,0,0,2.3,2.4,2.4,0,0,1-2.3-1.7,12.7,12.7,0,0,1-4.3.9,4.3,4.3,0,0,1-3.7-2,3.1,3.1,0,0,1,.4-3.3,2.2,2.2,0,0,1,3.1-.5,1.9,1.9,0,0,1,.9,1.4,1.9,1.9,0,0,1-.4,1.6l-.4.5c-.2.6.6.5,1,.5l1.5-.2a5.3,5.3,0,0,0,2.5-1.5,4.7,4.7,0,0,0,.6-5.3,2.4,2.4,0,0,1-3.7,1.5,2.7,2.7,0,0,0,1.4-2.7,4.4,4.4,0,0,0-1.9-2.7,7.1,7.1,0,0,0-3.2-.7,6,6,0,0,0-4,1.7,4.6,4.6,0,0,0-1.1,4.3l-.8-.4-.6-.8a4.9,4.9,0,0,1-.4-2.1c-1.3.2-1.9,1.6-2.3,2.9a7.9,7.9,0,0,0,.4,4.3,3.2,3.2,0,0,0,1.9,1.7,1.6,1.6,0,0,1-1.5,1.1,1.9,1.9,0,0,1-1.7-.8,6.1,6.1,0,0,0,.7,2.4,4,4,0,0,0,1.5,1.9,5.1,5.1,0,0,0,3.3,1,2.8,2.8,0,0,0,1.3-.3,1.6,1.6,0,0,0,.8-1.4,1.9,1.9,0,0,0-.4-1.5,5,5,0,0,1,2.4.3c1.2.4,2.5,1.5,1.8,2.9a2.8,2.8,0,0,0,2-.4,10.1,10.1,0,0,1-6.6,6.7,2.3,2.3,0,0,1-1.6.3,2.2,2.2,0,0,1-.3,2.3,3.4,3.4,0,0,1-2,1.3,6.5,6.5,0,0,1-2.4-.2,4.4,4.4,0,0,0,1-4.6,1.9,1.9,0,0,1-.9,1.5,4.3,4.3,0,0,1-1.6.5,2.9,2.9,0,0,0,.8-2.5c-.2-2-1.8-3.6-2.4-5.4a14.2,14.2,0,0,1,2.2-13A13,13,0,0,1,44.4,100.7ZM37,116.9a2.8,2.8,0,0,0,.1.6,1.4,1.4,0,0,0,.2.6,3.2,3.2,0,0,0,.3.9,2.4,2.4,0,0,0,.6.8,2,2,0,0,0,.8.8,8.2,8.2,0,0,0,2,1.2l1.2.4h.6A5.5,5.5,0,0,0,45,122a1.6,1.6,0,0,0,.9-.5c.3-.2,0-.5-.3-.5l-.5.2H42.3l-1.1-.2a7.2,7.2,0,0,1-2-.9l-1.4-1.4c-.1-.3-.3-.5-.4-.8s-.1-.4-.2-.6a2.1,2.1,0,0,1-.1-.6Z"/><path class="a" d="M54.4,102.8l-2.4-.5a8.6,8.6,0,0,1-5.8-5.6,7.4,7.4,0,0,1-.1-3.9,2.8,2.8,0,0,1,2.8-2.3,26,26,0,0,0-.5,3.9,7.6,7.6,0,0,0,.8,3.6,5.4,5.4,0,0,0,2.5,2.2,6.4,6.4,0,0,0,4.1.6,3.7,3.7,0,0,0,2.9-2.5,5.9,5.9,0,0,0,.4.8,2.8,2.8,0,0,1,.1.9,3.9,3.9,0,0,1-.6,1.7,2.8,2.8,0,0,0,3.1-.7,4.7,4.7,0,0,0,1.8-2.9,3.1,3.1,0,0,0-.4-2.3,2,2,0,0,1,1.8.4,2.8,2.8,0,0,1,.7,1.7,5.1,5.1,0,0,0,1-3.8A7.3,7.3,0,0,0,65.2,91a2.3,2.3,0,0,0-1.1-.8,1.6,1.6,0,0,0-1.5.1,1.7,1.7,0,0,0-.7,1.3,5.6,5.6,0,0,1-1.4-2c-.5-1.1-.5-3,1.1-3.2A3.4,3.4,0,0,0,60.1,85a10.5,10.5,0,0,1,2.4-.6,9.9,9.9,0,0,1,2.4.3A9,9,0,0,1,69.2,87a2.4,2.4,0,0,1,1,1.3,1.7,1.7,0,0,1,1.9-.6A3.8,3.8,0,0,1,74,89.1a5.8,5.8,0,0,1,1,2.1,3.1,3.1,0,0,0-2.1-.4,2.3,2.3,0,0,0-1.6,1,1.4,1.4,0,0,1,1.4.2A6.9,6.9,0,0,1,74,93.1a1.9,1.9,0,0,0-2.1.3c-1.3.8-1.3,2.7-1.9,3.9a8.4,8.4,0,0,1-3,3.5l-.5.4a17.1,17.1,0,0,1-2.7,1.4l-2.4.5H60.1c-.3,0-.8-.2-.9.2s.1.6.3.9a1.7,1.7,0,0,1,.1,1.4,2.6,2.6,0,0,1-.8,1.3c-.1.2-.3.3-.5.5v-.4c0-.2-.1-.4-.1-.6a5.4,5.4,0,0,0-.5-1.1,6.4,6.4,0,0,0-1.6-1.7A5.1,5.1,0,0,0,54.4,102.8Zm13.7-5.9.3-.3c0-.2.2-.3.3-.5s.1-.4.2-.6a2.4,2.4,0,0,0,.2-.8v-1a15.5,15.5,0,0,0-.4-2.1c-.1-.4-.3-.8-.4-1.1L68,90a7.5,7.5,0,0,0-1.4-1.7,2.8,2.8,0,0,0-.9-.6.3.3,0,0,0-.2.5c.1.2.3.3.4.4l.4.5,1,1.2.3.5.5.9a15.2,15.2,0,0,1,.6,2,4.8,4.8,0,0,1,0,1.7,1.4,1.4,0,0,0-.2.6c-.1.2-.2.3-.2.5l-.3.3Z"/><path class="a" d="M88.8,30.5l3.1.3a11.6,11.6,0,0,1,3.8,1.5c.6.4,2.6,1.7,2,2.5l-.7.5a2.1,2.1,0,0,1-1.3.3.9.9,0,0,1-.6-.6A5.1,5.1,0,0,0,92,32.9a9,9,0,0,0-5.4-.1c-1.8.7-3.5,2-3.9,3.5,0-.1-.5-.6-.5-.7a3.6,3.6,0,0,1-.2-1,3.9,3.9,0,0,1,.8-2c-1.5-.4-3,.7-4.1,1.7a6.9,6.9,0,0,0-2.3,4.1,2.7,2.7,0,0,0,.9,2.3,2.7,2.7,0,0,1-2.3.4,2,2,0,0,1-1.3-1.5c-.7,1.8-1,3.4-.3,4.9a4.8,4.8,0,0,0,2.7,2.3,3.2,3.2,0,0,0,1.4.3,2.8,2.8,0,0,0,1.8-.9,2.2,2.2,0,0,0,.5-1.7A6.4,6.4,0,0,1,82,45.9c.8.9,1.4,2.6-.3,3.6a4.3,4.3,0,0,0,2.2.6,16.2,16.2,0,0,1-5,2.7,15.4,15.4,0,0,1-5.6.5,2.9,2.9,0,0,1-1.7-.6,3,3,0,0,1-1.7,2.1,4.2,4.2,0,0,1-2.7.2A6.8,6.8,0,0,1,65,53.8a5.8,5.8,0,0,0,2.4-1.4A4.9,4.9,0,0,0,68.8,50,2.2,2.2,0,0,1,67,51a6.1,6.1,0,0,1-1.9-.1,3.8,3.8,0,0,0,2.3-2c1-2,.4-3.9.8-5.8a14.1,14.1,0,0,1,3.2-6l.6-.8a22.8,22.8,0,0,1,3.8-3,12.4,12.4,0,0,1,3.3-1.5l1.7-.5c.5-.1,1.2-.1,1.4-.5a1.2,1.2,0,0,0-.3-1,1.5,1.5,0,0,1,0-1.6c.2-.7.8-1.1,1.4-1.7l.8-.6c.1,0,.1.4.1.4v.6a6.1,6.1,0,0,0,.5,1.2,4.3,4.3,0,0,0,1.9,1.6A7.2,7.2,0,0,0,88.8,30.5Zm-18,11.8-.3.5a1.9,1.9,0,0,0-.2.7,2.9,2.9,0,0,0-.2.9,3.4,3.4,0,0,0,.1,1,2.3,2.3,0,0,0,.3,1.1,5,5,0,0,0,1.3,1.9l.9.8.5.4a8.8,8.8,0,0,0,2.3.7,1.7,1.7,0,0,0,1.2,0c.4-.1.3-.5,0-.6h-.5l-.7-.2-1.6-.7-.5-.2-1-.6a7,7,0,0,1-1.3-1.7,3.5,3.5,0,0,1-.6-1.9v-.8a1.4,1.4,0,0,1,.2-.7l.2-.5Z"/><path class="a" d="M42.8,75.4a22.3,22.3,0,0,1,2.7-.3,7.6,7.6,0,0,1,3.4.5c.6.3,2.6,1.2,2.4,2.1l-.5.7c-.2.2-.6.6-.9.6a1,1,0,0,1-.7-.4,4.5,4.5,0,0,0-3.1-1.4,5.9,5.9,0,0,0-4.5,1.2,5.9,5.9,0,0,0-2.5,4.5c0-.1-.5-.5-.6-.7a3.2,3.2,0,0,1-.3-.9,4,4,0,0,1,.2-2.4c-1.4-.1-2.4,1.4-3.1,2.7a8.7,8.7,0,0,0-.9,4.9,2.7,2.7,0,0,0,1.4,2.2,2,2,0,0,1-1.9,1,2,2,0,0,1-1.4-1.3,9.4,9.4,0,0,0,0,2.9,5.1,5.1,0,0,0,1,2.4,4.5,4.5,0,0,0,3,1.8,3,3,0,0,0,1.3-.2A2,2,0,0,0,39,94a2.1,2.1,0,0,0,0-1.9,6.5,6.5,0,0,1,2.3.9c1,.7,2,2.2.9,3.6a3,3,0,0,0,2.1,0,11.8,11.8,0,0,1-8.3,6.2,1.8,1.8,0,0,1-1.6-.1,3.4,3.4,0,0,1-1,2.7,3.3,3.3,0,0,1-2.3.9,4.8,4.8,0,0,1-2.3-.7,5.7,5.7,0,0,0,2.2-4.9,1.9,1.9,0,0,1-1.2,1.4,3.6,3.6,0,0,1-1.7.3,3.9,3.9,0,0,0,1.4-2.7,8.5,8.5,0,0,0-.2-3.2,18.3,18.3,0,0,1-.7-3.2,21.7,21.7,0,0,1,.2-3.6,24.2,24.2,0,0,1,1-3.6l.4-.9a17.7,17.7,0,0,1,2.4-4,14.2,14.2,0,0,1,2.5-2.4,5.7,5.7,0,0,1,1.3-.8c.3-.2,1-.4,1-.9a1.3,1.3,0,0,0-.4-.9,2.2,2.2,0,0,1-.4-1.8,5.4,5.4,0,0,1,.8-2.1,4.7,4.7,0,0,1,.6-.9v.5c0,.2.1.4.1.6a5.4,5.4,0,0,0,.7,1.3,5,5,0,0,0,1.9,1.3A6.4,6.4,0,0,0,42.8,75.4ZM30.6,91.9a4.2,4.2,0,0,1-.1.7v.8a2.8,2.8,0,0,0,.1.9l.3,1.1.6,1.1a6.9,6.9,0,0,0,1.7,1.7,3.9,3.9,0,0,0,1.1.6l.5.2a3.4,3.4,0,0,0,2.2.2,2.3,2.3,0,0,0,1.1-.3c.3-.3.1-.6-.2-.6H36.7a9,9,0,0,1-1.6-.3h-.5l-1-.4A6.1,6.1,0,0,1,31.9,96a5.4,5.4,0,0,1-1-1.8,2.9,2.9,0,0,1-.2-.9V91.9Z"/><path class="a" d="M106.3,50.4l1.8-.2a8.5,8.5,0,0,1,2.3.3c.4.2,1.9.7,1.8,1.2l-.3.4a.7.7,0,0,1-.5.4.9.9,0,0,1-.5-.3,4.2,4.2,0,0,0-2.2-.8,4.5,4.5,0,0,0-2.8.6,2.6,2.6,0,0,0-1.2,2.5c0-.1-.4-.3-.4-.4a2.1,2.1,0,0,1-.4-.6,2.5,2.5,0,0,1-.1-1.2c-.9-.1-1.4.6-1.7,1.3a3.4,3.4,0,0,0-.2,2.6,2,2,0,0,0,1,1.2,1,1,0,0,1-1.1.5,1.6,1.6,0,0,1-1-.8,4.9,4.9,0,0,0,.8,2.9,3.9,3.9,0,0,0,1.9,1.2h.9a.9.9,0,0,0,.7-.6,1.2,1.2,0,0,0,0-1,3.5,3.5,0,0,1,1.4.6c.6.5,1.2,1.5.6,2.2a1.7,1.7,0,0,0,1.2.2,4.7,4.7,0,0,1-2.2,2,3.9,3.9,0,0,1-1.4.5,3.8,3.8,0,0,1-1.5.1,1.3,1.3,0,0,1-.9-.2,1.2,1.2,0,0,1-.7,1.2,1.7,1.7,0,0,1-1.4.2l-1.3-.6a2.6,2.6,0,0,0,1.4-2.4,1.1,1.1,0,0,1-.8.7h-1a1.7,1.7,0,0,0,.8-1.2c.2-1.2-.5-2.3-.7-3.4a7.3,7.3,0,0,1,.3-3.6l.2-.5a8.2,8.2,0,0,1,1.2-2l1.3-1.2.8-.4c.2-.1.6-.1.6-.4s-.3-.4-.4-.5a1.2,1.2,0,0,1-.5-.9,2,2,0,0,1,.2-1.1l.3-.5a1,1,0,0,1,.1.3c.1.1.2.2.2.3l.6.6a5.1,5.1,0,0,0,1.5.7Zm-6.5,8.4v.4a.8.8,0,0,0,.1.4,1.1,1.1,0,0,0,.1.5,1.4,1.4,0,0,0,.2.6,2.1,2.1,0,0,0,.4.6,5.7,5.7,0,0,0,1.1,1.1l.6.4.4.2a2.8,2.8,0,0,0,1.3.3h.6a.2.2,0,0,0-.1-.4h-.7l-1-.3h-.3l-.6-.4a4.8,4.8,0,0,1-1.1-.9,3,3,0,0,1-.6-1.1.8.8,0,0,1-.2-.5.4.4,0,0,0-.1-.3v-.4Z"/><path class="a" d="M96.8,51.8a8.6,8.6,0,0,0,1.6,0,5.4,5.4,0,0,1,2.2.5c.4.1,1.6.7,1.5,1.2s-.2.3-.3.4a.9.9,0,0,1-.5.3c-.2,0-.3-.2-.4-.3a4.7,4.7,0,0,0-2-1,4.2,4.2,0,0,0-2.7.5,2.4,2.4,0,0,0-1.4,2.1l-.4-.3a1.4,1.4,0,0,1-.2-.6,2.4,2.4,0,0,1,0-1.2c-.8-.1-1.4.6-1.8,1.2A3.4,3.4,0,0,0,92,57a2,2,0,0,0,.9,1.3,1.3,1.3,0,0,1-1.2.3,1.3,1.3,0,0,1-.8-.8,3.6,3.6,0,0,0,.6,2.7,3.1,3.1,0,0,0,1.7,1.3H94a1,1,0,0,0,.8-.5,1.7,1.7,0,0,0,0-1,4.2,4.2,0,0,1,1.3.7c.6.5,1.1,1.5.4,2.1a1.7,1.7,0,0,0,1.2.2,5.8,5.8,0,0,1-2.3,1.8,6.4,6.4,0,0,1-2.8.4c-.3-.1-.7-.1-.9-.4a1.4,1.4,0,0,1-.7,1.2,2.2,2.2,0,0,1-1.4.1,3.7,3.7,0,0,1-1.2-.7,2,2,0,0,0,1.4-2.1,1.1,1.1,0,0,1-.7.6H88a1.6,1.6,0,0,0,1-1.1c.2-1.1-.4-2.2-.5-3.3a8.3,8.3,0,0,1,.7-3.4l.2-.4a5.9,5.9,0,0,1,1.4-1.8,5,5,0,0,1,1.4-1l.7-.4c.2,0,.6-.1.6-.3s-.2-.4-.3-.6a1,1,0,0,1-.4-.9c0-.4.2-.6.4-1l.3-.4v.2c0,.1.1.3.1.4l.5.6a3.5,3.5,0,0,0,1.3.8A2.7,2.7,0,0,0,96.8,51.8Zm-7,7.5v1.3c.1.1.1.3.2.5l.3.6a5.2,5.2,0,0,0,1,1.1l.6.5h.3a2.8,2.8,0,0,0,1.3.4.6.6,0,0,0,.6,0c.2-.1.1-.3-.1-.4h-.7l-.9-.3-.3-.2-.5-.3a4.7,4.7,0,0,1-1-1,2.7,2.7,0,0,1-.6-1c0-.2-.1-.3-.1-.5v-.6Z"/><path class="a" d="M138,199a1.9,1.9,0,0,1-.7,1.3,4.4,4.4,0,0,1-1.2,5.2,4.1,4.1,0,0,1-2.4.8,2.7,2.7,0,0,1-2.2-1,2.4,2.4,0,0,1-.3-2.3,2.2,2.2,0,0,1,1.2-.9,1.8,1.8,0,0,1,1.4.3,1.2,1.2,0,0,1,.1,1.4,1.1,1.1,0,0,1-1.3.4c-.1.4.4.8.8.8a1.6,1.6,0,0,0,1.3-.6,3.2,3.2,0,0,0,.3-3.3,4.5,4.5,0,0,0-2.1-2.2,3.8,3.8,0,0,0-1.5-.5,2.6,2.6,0,0,0-1.5.1,1.5,1.5,0,1,1,.2,3,1.6,1.6,0,0,1-1.7-1.4c0-.2.1-.5,0-.7a.5.5,0,0,0-.3-.5.7.7,0,0,0-.6.1,8.8,8.8,0,0,0-4.2,4.9v.9l1,.7a2.9,2.9,0,0,0,2.2.6l.6-.2a.3.3,0,0,0,0-.4c-.1-.1-.2-.2-.2-.3l.2-.2a.9.9,0,0,1,.9.3,1.6,1.6,0,0,1,.4.7.7.7,0,0,1-.1.5c0,.2-.2.3-.4.3H130c.5.1,1.1.6,1.1,1.1a.3.3,0,0,0,.3-.5,1.1,1.1,0,0,1,1.1,1,1,1,0,0,1-1,1.1,1,1,0,0,1-.4,1.2,2.2,2.2,0,0,1-2.2,0,1.8,1.8,0,0,1-.7-.8v-.3c-.1-.1-.1-.1.1-.1h.7c.4-.1.8-.5.6-.8a1.6,1.6,0,0,0-1.1-.7h-1.4a4.4,4.4,0,0,1-2.2-1l-.5-.4a.8.8,0,0,0-1.1-.1v1.1a12.9,12.9,0,0,0,1.7,1.5,22.6,22.6,0,0,1,2,1.3,2.5,2.5,0,0,1,1.2,2,1.5,1.5,0,0,1-1.7,1.3,1.5,1.5,0,0,1-.3,2.4c-.6.4-1.4.4-1.9.8a3.3,3.3,0,0,0-.7,1.3,1.6,1.6,0,0,1-.9.9h-.2a2.6,2.6,0,0,1-.9-.9,2.6,2.6,0,0,0-.6-1.3c-.5-.4-1.3-.4-1.9-.8a1.5,1.5,0,0,1-.3-2.4,1.4,1.4,0,0,1-1.7-1.3,2.7,2.7,0,0,1,1.1-2l2.1-1.3a7.8,7.8,0,0,0,1.6-1.5v-1.1a.8.8,0,0,0-1.1.1,1,1,0,0,0-.5.4,3.6,3.6,0,0,1-2.3.9h-1.3a1.4,1.4,0,0,0-1.1.7c-.2.3.2.7.6.8h.7c.2-.1.1,0,.1.1v.3a2.7,2.7,0,0,1-.7.8,2.2,2.2,0,0,1-2.2,0,1,1,0,0,1-.4-1.2,1.3,1.3,0,0,1-1.1-1.1,1.3,1.3,0,0,1,1.2-1c-.2.2,0,.5.3.5s.6-1,1.1-1.1h2.1a.5.5,0,0,1-.5-.3V206a1.6,1.6,0,0,1,.4-.7.9.9,0,0,1,.9-.3l.2.2c0,.1-.1.2-.2.3a.3.3,0,0,0,0,.4l.6.2a2.9,2.9,0,0,0,2.2-.6l1-.7v-.9a8.8,8.8,0,0,0-4.2-4.9.7.7,0,0,0-.6-.1.5.5,0,0,0-.3.5c-.1.2,0,.5-.1.7a1.5,1.5,0,1,1-3-.2,1.6,1.6,0,0,1,1.6-1.5h-1.5l-1.5.4a4.7,4.7,0,0,0-2.1,2.3,3.2,3.2,0,0,0,.3,3.3,2,2,0,0,0,1.2.6c.5,0,1-.4.9-.8a1.1,1.1,0,0,1-1.3-.4,1.2,1.2,0,0,1,.1-1.4,1.4,1.4,0,0,1,1.4-.3,1.7,1.7,0,0,1,1.1.9,2.1,2.1,0,0,1-.2,2.3,2.7,2.7,0,0,1-2.2,1,4.1,4.1,0,0,1-2.4-.8,4.3,4.3,0,0,1-1.2-5.3,1.7,1.7,0,0,1-.7-1.3c0-.5.4-1,.9-.9h.5a2,2,0,0,0,1.1-.3,10.5,10.5,0,0,1,2.9-.8h3l1.8.5a8.1,8.1,0,0,1,3,1.7,10.5,10.5,0,0,1,2.1,3.5,11.1,11.1,0,0,1,2.2-3.4,7.1,7.1,0,0,1,3-1.8l1.8-.5h3a10.5,10.5,0,0,1,2.9.8,2,2,0,0,0,1.1.3h.5C137.6,197.9,138,198.5,138,199Zm-15.4,10.7c-.3,0-.7,3.1-.7,4.2s.3,2.1.7,2.1.8-.9.8-2.1S123,209.7,122.6,209.7Z"/><path class="a" d="M139.1,207.7l-1.8.2a8.5,8.5,0,0,1-2.3-.3c-.5-.2-1.9-.7-1.8-1.2s.2-.3.3-.4a.7.7,0,0,1,.5-.4.5.5,0,0,1,.5.3,4.2,4.2,0,0,0,2.2.8,4.6,4.6,0,0,0,2.8-.6,2.8,2.8,0,0,0,1.2-2.5l.4.4a2.1,2.1,0,0,1,.4.6,4.9,4.9,0,0,1,.1,1.2c.9.1,1.4-.6,1.7-1.3a3.9,3.9,0,0,0,.2-2.6,2,2,0,0,0-1-1.2,1,1,0,0,1,1.1-.5,1.6,1.6,0,0,1,1,.8,4.4,4.4,0,0,0-.9-2.9,3.6,3.6,0,0,0-1.8-1.2H141a1.2,1.2,0,0,0-.7.7,1.2,1.2,0,0,0,0,1,3.5,3.5,0,0,1-1.4-.6c-.6-.5-1.3-1.5-.6-2.2a1.7,1.7,0,0,0-1.2-.2,5.6,5.6,0,0,1,2.2-2.1l1.4-.4a3.8,3.8,0,0,1,1.5-.1,1.3,1.3,0,0,1,.9.2,1.3,1.3,0,0,1,.6-1.2,1.8,1.8,0,0,1,1.4-.2,3.5,3.5,0,0,1,1.4.6,2.4,2.4,0,0,0-1.4,2.4,1.1,1.1,0,0,1,.8-.7,1.7,1.7,0,0,1,1,.1c-.4.1-.7.7-.8,1.2s.5,2.3.7,3.4a7.3,7.3,0,0,1-.3,3.6l-.2.5a8.2,8.2,0,0,1-1.2,2l-1.3,1.2-.8.4c-.2.1-.6.1-.6.4a.7.7,0,0,0,.4.5,1.2,1.2,0,0,1,.5.9,2,2,0,0,1-.2,1.1l-.3.5v-.3c-.1-.1-.2-.2-.2-.3l-.7-.6a3.7,3.7,0,0,0-1.4-.7Zm6.5-8.4v-.4c0-.1.1-.2,0-.4a1.1,1.1,0,0,0-.1-.5,1.4,1.4,0,0,0-.2-.6l-.4-.6-1.1-1.1-.6-.4-.4-.2a2.8,2.8,0,0,0-1.3-.3h-.7a.3.3,0,0,0,.2.4h.7l.9.3h.4l.6.4a4.8,4.8,0,0,1,1.1.9,3,3,0,0,1,.6,1.1.8.8,0,0,1,.2.5.4.4,0,0,0,.1.3v.4Z"/><path class="a" d="M148.6,206.3H147a5.4,5.4,0,0,1-2.2-.5c-.4-.1-1.7-.7-1.5-1.2l.2-.3c.2-.2.4-.4.6-.4l.4.3a4.7,4.7,0,0,0,2,1,5,5,0,0,0,2.7-.4,2.4,2.4,0,0,0,1.3-2.2l.4.4.3.5a2.5,2.5,0,0,1-.1,1.2c.9.1,1.4-.6,1.8-1.2a3.4,3.4,0,0,0,.4-2.4,1.7,1.7,0,0,0-.8-1.2c.2-.4.7-.4,1.1-.3a1.6,1.6,0,0,1,.9.7,3.6,3.6,0,0,0-.6-2.7,3.3,3.3,0,0,0-1.7-1.2,1.2,1.2,0,0,0-.8-.1.8.8,0,0,0-.8.5.9.9,0,0,0,0,1l-1.3-.7c-.6-.5-1.1-1.5-.4-2.1l-1.2-.3a4.1,4.1,0,0,1,2.2-1.7,6.6,6.6,0,0,1,2.8-.4,1.2,1.2,0,0,1,.9.3,1.2,1.2,0,0,1,.7-1.1,1.4,1.4,0,0,1,1.4-.1,4.2,4.2,0,0,1,1.3.7,2.1,2.1,0,0,0-1.5,2.1.8.8,0,0,1,.8-.6,1.8,1.8,0,0,1,1,.1c-.5.1-.8.6-1,1.1s.4,2.2.5,3.2a6.7,6.7,0,0,1-.7,3.4l-.2.4a5.9,5.9,0,0,1-1.3,1.8,4.5,4.5,0,0,1-1.4,1l-.8.4c-.2.1-.6.1-.6.4s.2.3.4.5a1.2,1.2,0,0,1,.3.9,1.8,1.8,0,0,1-.4,1l-.2.4c-.1,0-.1-.2-.1-.2s-.1-.3-.2-.4l-.5-.6a5.7,5.7,0,0,0-1.3-.8Zm7-7.5v-.7a.9.9,0,0,1-.1-.5c-.1-.2-.1-.4-.2-.6l-.3-.6a9.4,9.4,0,0,0-1-1l-.6-.5-.3-.2-1.2-.4h-.7c-.2.1,0,.3.1.3h.7l.9.3h.3l.6.4.9.9a3.7,3.7,0,0,1,.6,1,1.1,1.1,0,0,1,.1.5v.7Z"/><path class="a" d="M105,207.9a5.1,5.1,0,0,0-1.5.7l-.6.6c0,.1-.1.2-.2.3v.3l-.3-.5a2,2,0,0,1-.2-1.1,1.2,1.2,0,0,1,.5-.9c.1-.1.4-.3.4-.5s-.4-.3-.6-.4l-.8-.4-1.3-1.2a8.2,8.2,0,0,1-1.2-2l-.2-.5a7.3,7.3,0,0,1-.3-3.6c.2-1.1.9-2.2.7-3.4a1.7,1.7,0,0,0-.8-1.2h1a1.1,1.1,0,0,1,.8.7,2.6,2.6,0,0,0-1.4-2.4l1.3-.6a1.7,1.7,0,0,1,1.4.2,1.2,1.2,0,0,1,.7,1.2,1.3,1.3,0,0,1,.9-.2,3.8,3.8,0,0,1,1.5.1,3.9,3.9,0,0,1,1.4.5,4.7,4.7,0,0,1,2.2,2,1.7,1.7,0,0,0-1.2.2c.6.7,0,1.7-.6,2.2a3.5,3.5,0,0,1-1.4.6,1.2,1.2,0,0,0,0-1,.9.9,0,0,0-.7-.6h-.9a3.9,3.9,0,0,0-1.9,1.2,4.9,4.9,0,0,0-.8,2.9,1.6,1.6,0,0,1,1-.8,1,1,0,0,1,1.1.5,2,2,0,0,0-1,1.2,3.4,3.4,0,0,0,.2,2.6c.3.7.8,1.4,1.7,1.3a2.5,2.5,0,0,1,.1-1.2,2.1,2.1,0,0,1,.4-.6l.4-.4a2.6,2.6,0,0,0,1.2,2.5,4.5,4.5,0,0,0,2.8.6,4.2,4.2,0,0,0,2.2-.8.9.9,0,0,1,.5-.3.7.7,0,0,1,.5.4l.3.4c.1.5-1.4,1-1.8,1.2a8.5,8.5,0,0,1-2.3.3l-1.8-.2Zm-5.2-8.6v-.4a.4.4,0,0,0,.1-.3c0-.2.1-.3.2-.5a3,3,0,0,1,.6-1.1,4.8,4.8,0,0,1,1.1-.9l.6-.4h.3l1-.3h.7a.2.2,0,0,0,.1-.4h-.6a2.8,2.8,0,0,0-1.3.3l-.4.2-.6.4-1.1,1.1a2.1,2.1,0,0,0-.4.6,1.4,1.4,0,0,0-.2.6,1.1,1.1,0,0,0-.1.5.9.9,0,0,0-.1.5v.3Z"/><path class="a" d="M95.5,206.5a3.5,3.5,0,0,0-1.3.8l-.5.6c0,.1-.1.3-.1.4v.2l-.3-.4a1.8,1.8,0,0,1-.4-1,1,1,0,0,1,.4-.9c.1-.2.3-.3.3-.5s-.4-.4-.6-.4l-.7-.4a5,5,0,0,1-1.4-1,5.9,5.9,0,0,1-1.4-1.8l-.2-.4a8.3,8.3,0,0,1-.7-3.4c.1-1.1.7-2.2.5-3.3a1.6,1.6,0,0,0-1-1.1h1.1a1.1,1.1,0,0,1,.7.6,2,2,0,0,0-1.4-2.1,3.7,3.7,0,0,1,1.2-.7,2.2,2.2,0,0,1,1.4.1,1.4,1.4,0,0,1,.7,1.2c.2-.3.6-.3.9-.4a6.4,6.4,0,0,1,2.8.4,5.8,5.8,0,0,1,2.3,1.8,1.7,1.7,0,0,0-1.2.2c.7.7.2,1.6-.4,2.1a4.2,4.2,0,0,1-1.3.7,1.7,1.7,0,0,0,0-1c-.2-.2-.5-.5-.8-.5h-.8a3.1,3.1,0,0,0-1.7,1.3,3.6,3.6,0,0,0-.6,2.7,1.3,1.3,0,0,1,.8-.8,1.3,1.3,0,0,1,1.2.3,2,2,0,0,0-.9,1.3,3.4,3.4,0,0,0,.4,2.4c.4.6,1,1.3,1.8,1.2a2.4,2.4,0,0,1,0-1.2,1.4,1.4,0,0,1,.2-.6l.4-.3a2.4,2.4,0,0,0,1.4,2.1,4.2,4.2,0,0,0,2.7.5,4.7,4.7,0,0,0,2-1c.1-.1.2-.3.4-.3a.9.9,0,0,1,.5.3c.1.1.3.2.3.4s-1.1,1.1-1.5,1.2a5.4,5.4,0,0,1-2.2.5,8.6,8.6,0,0,0-1.6,0Zm-5.7-7.8v-.6c0-.2.1-.3.1-.5a2.7,2.7,0,0,1,.6-1,4.7,4.7,0,0,1,1-1l.5-.3.3-.2.9-.3h.7c.2-.1.3-.3.1-.4s-.4,0-.6,0a2.8,2.8,0,0,0-1.3.4l-.3.2-.6.4a5.2,5.2,0,0,0-1,1.1l-.3.6c-.1.2-.1.4-.2.5v1.3Z"/><path class="a" d="M85.3,67.2a5.1,5.1,0,0,0,1.7.7,2.1,2.1,0,0,0,1.1.1h.8l-.3.6a3.9,3.9,0,0,1-.8,1,1.9,1.9,0,0,1-1.3.2,1.1,1.1,0,0,0-.8,0c-.3.2,0,.6.1.8s.1.7.2,1a7.4,7.4,0,0,1,0,2.1,10.2,10.2,0,0,1-.6,2.5l-.3.5a8.1,8.1,0,0,1-2.5,3.3c-.9.8-2.5,1.2-3.1,2.4a1.9,1.9,0,0,0,0,1.8,5.9,5.9,0,0,1-1.1-.8,1.3,1.3,0,0,1-.3-1.2,2.7,2.7,0,0,0-.1,3.3L76.1,85a3.5,3.5,0,0,1-1.4-1.3,1.9,1.9,0,0,1,.3-1.8,1.7,1.7,0,0,1-1.2-.6,7,7,0,0,1-2.8-7,3.6,3.6,0,0,0,1.4,1c0-1.3,1.4-1.7,2.4-1.5a6.7,6.7,0,0,1,1.8.7,1.4,1.4,0,0,0-.9.9,1.3,1.3,0,0,0,.1,1.2,1.6,1.6,0,0,0,.9.7,4.2,4.2,0,0,0,2.7.5,4.9,4.9,0,0,0,3.1-1.6A2.5,2.5,0,0,1,81,76a1.4,1.4,0,0,1-.7-1.4,2.1,2.1,0,0,0,1.9-.2,4.3,4.3,0,0,0,2.1-2.1,2.3,2.3,0,0,0-.1-2.6,2.7,2.7,0,0,1-1.2.9H81.5a3.1,3.1,0,0,0,1.4-2.9,5,5,0,0,0-1.4-3.1,4.4,4.4,0,0,0-2.3-1.5.7.7,0,0,1-.6-.3,1.1,1.1,0,0,1,0-.8l.3-.5c.6-.5,2,.6,2.4.9a6.1,6.1,0,0,1,1.9,2c.4.5.6,1.1,1,1.7A5.7,5.7,0,0,0,85.3,67.2ZM81.9,78.4l-.2.2-.4.3-.5.3-1.4.4a5.5,5.5,0,0,1-1.8-.1l-.8-.2h-.4l-1.2-.6-.4-.3c-.2,0-.3-.2-.4-.2s-.5,0-.4.2.4.5.6.7l1.6.8h.4l1,.2h1.9l.8-.2.6-.4.5-.3.3-.4.3-.3Z"/><path class="a" d="M161.1,66.1c.4-.6.6-1.2,1-1.7a6.1,6.1,0,0,1,1.9-2c.4-.3,1.8-1.4,2.4-.9l.3.5a1.1,1.1,0,0,1,0,.8.7.7,0,0,1-.6.3,4.4,4.4,0,0,0-2.3,1.5,5,5,0,0,0-1.4,3.1,3.1,3.1,0,0,0,1.4,2.9h-1.5a2.7,2.7,0,0,1-1.2-.9,2.3,2.3,0,0,0-.1,2.6,4.3,4.3,0,0,0,2.1,2.1,2.1,2.1,0,0,0,1.9.2,1.5,1.5,0,0,1-.6,1.4,3,3,0,0,1-1.6.2,4.9,4.9,0,0,0,3.1,1.6,4.7,4.7,0,0,0,2.8-.5,1.8,1.8,0,0,0,.8-.7,1.3,1.3,0,0,0,.1-1.2,1.4,1.4,0,0,0-.9-.9,6.7,6.7,0,0,1,1.8-.7c1-.2,2.4.2,2.4,1.5a3,3,0,0,0,1.4-1,7,7,0,0,1-2.8,7,1.7,1.7,0,0,1-1.2.6,1.9,1.9,0,0,1,.3,1.8,3.5,3.5,0,0,1-1.4,1.3l-1.9.4a2.7,2.7,0,0,0-.1-3.3,1.3,1.3,0,0,1-.3,1.2,2.8,2.8,0,0,1-1.1.8,1.9,1.9,0,0,0,0-1.8c-.6-1.2-2.2-1.6-3.1-2.4a8.1,8.1,0,0,1-2.5-3.3l-.3-.5a10.2,10.2,0,0,1-.6-2.5,7.4,7.4,0,0,1,0-2.1c.1-.3.1-.7.2-1s.4-.6.1-.8a1.1,1.1,0,0,0-.8,0,1.6,1.6,0,0,1-1.2-.2,4.3,4.3,0,0,1-.9-1l-.3-.6h.8a2.1,2.1,0,0,0,1.1-.1,5.1,5.1,0,0,0,1.7-.7A5.7,5.7,0,0,0,161.1,66.1Zm2.2,12.3.3.3.3.4.5.3.6.4.8.2h1.9l1-.2h.4l1.6-.8c.2-.2.5-.4.6-.7s-.2-.3-.4-.2l-.4.2-.4.3-1.2.6h-.4l-.8.2a5.5,5.5,0,0,1-1.8.1l-1.4-.4-.5-.3-.4-.3-.2-.2Z"/><path class="a" d="M84.2,192.6c-.4.5-.6,1.1-1,1.7a6.1,6.1,0,0,1-1.9,2c-.4.3-.8.7-1.4.5s-.8-.6-.6-1.1,1.7-1.1,2.2-1.6a5.5,5.5,0,0,0,1.4-3.1,3.2,3.2,0,0,0-1.4-3c.1.1.6-.1.7-.1l.8.2a2.2,2.2,0,0,1,1.2.9,2.3,2.3,0,0,0,.1-2.6,4.5,4.5,0,0,0-2.1-2.2,2.5,2.5,0,0,0-1.9-.2,1.3,1.3,0,0,1,.7-1.3,1.9,1.9,0,0,1,1.5-.2,5.6,5.6,0,0,0-3.1-1.7,5,5,0,0,0-2.7.5,2.2,2.2,0,0,0-.9.7,1.5,1.5,0,0,0-.1,1.3,1.2,1.2,0,0,0,.9.8,4.8,4.8,0,0,1-1.8.8c-1,.1-2.4-.2-2.4-1.5a2.8,2.8,0,0,0-1.4,1,7.1,7.1,0,0,1,2.8-7.1,2.3,2.3,0,0,1,1.2-.6,1.7,1.7,0,0,1-.3-1.7,2.5,2.5,0,0,1,1.4-1.3,5.9,5.9,0,0,1,1.9-.5,2.7,2.7,0,0,0,.1,3.3,1.3,1.3,0,0,1,.3-1.2l1.1-.8a1.9,1.9,0,0,0,0,1.8c.6,1.2,2.2,1.6,3.1,2.5a7.2,7.2,0,0,1,2.5,3.2l.3.5a11,11,0,0,1,.6,2.6,6.7,6.7,0,0,1,0,2c-.1.4-.1.7-.2,1s-.4.7-.1.9h.8a1.9,1.9,0,0,1,1.3.2c.4.2.5.6.8,1l.3.5H87a5,5,0,0,0-2.8,1.9ZM82,180.2l-.3-.3-.3-.3-.5-.4-.6-.3-.8-.2a4.1,4.1,0,0,0-1.9-.1H76.2a5.1,5.1,0,0,0-1.6.9,1.7,1.7,0,0,0-.6.6c-.1.3.2.4.4.3l.4-.3.4-.3,1.2-.5.4-.2.8-.2h1.8l1.4.4.5.3.4.3.2.3Z"/><path class="a" d="M160,191.5a3.8,3.8,0,0,0-1.7-.8h-1.9l.3-.5c.3-.4.5-.8.9-1a1.6,1.6,0,0,1,1.2-.2h.8c.3-.2,0-.6-.1-.9s-.1-.6-.2-1a6.7,6.7,0,0,1,0-2,11,11,0,0,1,.6-2.6l.3-.5a7.2,7.2,0,0,1,2.5-3.2c.9-.9,2.5-1.3,3.1-2.5a1.9,1.9,0,0,0,0-1.8l1.1.8a1.3,1.3,0,0,1,.3,1.2,2.7,2.7,0,0,0,.1-3.3,5.9,5.9,0,0,1,1.9.5,2.5,2.5,0,0,1,1.4,1.3,1.7,1.7,0,0,1-.3,1.7,2.3,2.3,0,0,1,1.2.6,7.1,7.1,0,0,1,2.8,7.1,2.4,2.4,0,0,0-1.4-1c0,1.3-1.4,1.6-2.4,1.5a4.8,4.8,0,0,1-1.8-.8,1.2,1.2,0,0,0,.9-.8,1.5,1.5,0,0,0-.1-1.3,2.7,2.7,0,0,0-.8-.7,5.6,5.6,0,0,0-2.8-.5,5.6,5.6,0,0,0-3.1,1.7,2.3,2.3,0,0,1,1.6.2,1.4,1.4,0,0,1,.6,1.3,2.5,2.5,0,0,0-1.9.2,4.5,4.5,0,0,0-2.1,2.2,2.3,2.3,0,0,0,.1,2.6,2.2,2.2,0,0,1,1.2-.9l.8-.2c.1,0,.6.2.7.1a3.2,3.2,0,0,0-1.4,3,5.5,5.5,0,0,0,1.4,3.1c.5.6,2.4,1.2,2.1,2.2s-1.2.5-2-.1a5.4,5.4,0,0,1-1.8-1.9c-.4-.6-.6-1.2-1-1.7A3.8,3.8,0,0,0,160,191.5Zm3.4-11.2.2-.3.4-.3.5-.3,1.4-.4h1.8l.8.2.4.2,1.2.5.4.3.4.3c.2.1.5,0,.4-.3l-.6-.6a5.1,5.1,0,0,0-1.6-.9h-1.4a4.1,4.1,0,0,0-1.9.1l-.8.2-.6.3-.5.4-.3.3-.3.3Z"/><path class="a" d="M85.2,59.4a7,7,0,0,0,.5,3.5,5.6,5.6,0,0,0,.9,1.7l.5.6c.1.1.5.5.4.5h-1a4.9,4.9,0,0,1-2.4-.4,3,3,0,0,1-1.7-1.6c-.2-.4-.4-1-.8-1.2s-1,.6-1.3.9L79,64.9a16.6,16.6,0,0,1-3.2,2.2,24.9,24.9,0,0,1-4.7,2.1l-1.1.2a19.5,19.5,0,0,1-4.2.8H61.6c-2.7-.3-5.4-1.8-8.2-.8a6.7,6.7,0,0,0-1.8,1.1,4.2,4.2,0,0,0-1.1,1.8,6,6,0,0,1-.2-2.7,3,3,0,0,1,1.6-2.3,6.2,6.2,0,0,0-3.5,1.6,6.9,6.9,0,0,0-2.2,3.4,6.2,6.2,0,0,1-1.7-3.2A5.9,5.9,0,0,1,45,65a4.9,4.9,0,0,1,3.5-2.5,3.1,3.1,0,0,1-.3-2.6,13.4,13.4,0,0,1,1-4.3,21.8,21.8,0,0,1,2.3-4.2,19.2,19.2,0,0,1,3.4-3.6A18.2,18.2,0,0,1,59,45.1a6.6,6.6,0,0,0-.8,3.5c2.6-1.8,4.5.1,5.1,1.9a9.7,9.7,0,0,1,.4,3.8,3,3,0,0,0-2.5-.4,3.9,3.9,0,0,0-2.2,2,5.7,5.7,0,0,0-.4,2.2,7.5,7.5,0,0,0,2.3,4.7,8.5,8.5,0,0,0,2.9,1.7,13.6,13.6,0,0,0,3.6.5,3.5,3.5,0,0,1-1.5-2.4A2.9,2.9,0,0,1,67.5,60,3.8,3.8,0,0,0,70,62.6a10.7,10.7,0,0,0,5.9.6c1.7-.4,3.6-1,4.1-2.9a6.3,6.3,0,0,1-2.7-1,3.5,3.5,0,0,1-1-1.1c-.2-.1-.5-1.1-.6-1.1a5.8,5.8,0,0,0,3.2.3,8.2,8.2,0,0,0,3.2-1.2,13.7,13.7,0,0,0,2.5-2.3A16.9,16.9,0,0,0,86.3,51a9.9,9.9,0,0,0,1-4.1c0-1.2-.6-2.4.3-3.6a4.1,4.1,0,0,1,3.1-1.4,4.2,4.2,0,0,1,3.1,1.3c.6.7.9,1.6,1.7,2.2a3.8,3.8,0,0,0-2.8-.5,2.6,2.6,0,0,0-2,2c-.4,1.2-.8,2.4-1.3,3.6A23.8,23.8,0,0,1,87.1,55C86.3,56.5,85.3,57.8,85.2,59.4ZM63.1,67.2H61.4l-1.2-.4a7.9,7.9,0,0,1-2.4-1.5,7.1,7.1,0,0,1-2-2.5,7.6,7.6,0,0,1-.6-1.6c-.1-.2-.1-.5-.2-.8a19,19,0,0,1-.3-2.5V56.7a2.8,2.8,0,0,0,.1-.9.4.4,0,0,0-.8-.2,3.9,3.9,0,0,0-.6,1.8,8.7,8.7,0,0,0,.2,3.6,5.9,5.9,0,0,0,.4.8,8,8,0,0,0,.8,1.6,9.9,9.9,0,0,0,2.5,2.5l1.4.8,1.3.5,1.3.2h1.8Z"/><path class="a" d="M116.7,42.6a4.5,4.5,0,0,0-.1,2.3,5,5,0,0,0,.5,1.3l.3.5.3.3a2.7,2.7,0,0,1-.9,0,4.8,4.8,0,0,1-1.7-.5,2.4,2.4,0,0,1-1.1-1.3c-.1-.3-.1-.6-.4-.8s-.8.2-1.1.4l-1.2.8-1.3.6-1.3.5a16.1,16.1,0,0,1-3.8.8h-.8a18.7,18.7,0,0,1-6.1-.7c-1.8-.6-3.4-1.9-5.5-1.8A3.4,3.4,0,0,0,90,46.4a3.8,3.8,0,0,1,.3-1.8,1.9,1.9,0,0,1,1.4-1.2,5.1,5.1,0,0,0-4.6,2.2,5.7,5.7,0,0,1-.8-2.3,3.8,3.8,0,0,1,.9-2.4,3.4,3.4,0,0,1,2.7-.9,1.7,1.7,0,0,1,.1-1.7,9.3,9.3,0,0,1,3-4.8,19.5,19.5,0,0,1,2.6-1.8,10.8,10.8,0,0,1,3-1.1,3.1,3.1,0,0,0-.7,2,2.6,2.6,0,0,1,3.6,1.8,7,7,0,0,1,0,2.5,2.2,2.2,0,0,0-1.8-.5,2.1,2.1,0,0,0-1.7.9,3.5,3.5,0,0,0-.5,1.3,4.4,4.4,0,0,0,1.1,3.3,4,4,0,0,0,1.9,1.5,8.5,8.5,0,0,0,2.4.9,2.2,2.2,0,0,1-.7-1.8,1.8,1.8,0,0,1,1.4-1.5,2.7,2.7,0,0,0,1.5,2,6.8,6.8,0,0,0,4.2,1.1c1.3,0,2.8-.2,3.4-1.5a3.8,3.8,0,0,1-1.9-.9,2.7,2.7,0,0,1-.7-.8c0-.1-.1-.8-.2-.8a4.6,4.6,0,0,0,2.3.5,7,7,0,0,0,2.5-.5,7.4,7.4,0,0,0,3.5-3,4.8,4.8,0,0,0,.9-3.2,3.4,3.4,0,0,0-2-2.8,4.9,4.9,0,0,0-4.1.3,2,2,0,0,1,.8-2.2,4,4,0,0,1,3-.7,7.7,7.7,0,0,0-7.4-1,6.4,6.4,0,0,0-3,2.2,4.8,4.8,0,0,0-.8,1.6c-.1.3-.5,1.1.4,1l.8-.3a2.9,2.9,0,0,1,3.6,1,2.6,2.6,0,0,1-1.6,3,4.5,4.5,0,0,1-4.1-.2A3.7,3.7,0,0,1,103,32a10,10,0,0,1,2.4-4.2c-1.3-.4-2.1-1.5-1.7-2.6a7.6,7.6,0,0,0,3.4.3c1.2,0,2.4-.2,3.6-.3a16.6,16.6,0,0,1,3.2.3,14,14,0,0,1,2.9.9,9.4,9.4,0,0,1,4,3.6,7.7,7.7,0,0,1-1.4,8.9c-.6.7-1.3,1.2-1.8,1.9A3.8,3.8,0,0,0,116.7,42.6ZM99.6,45.1l-.6-.2a.7.7,0,0,1-.6-.2c-.3,0-.5-.2-.8-.3A6.4,6.4,0,0,1,96.1,43,8.6,8.6,0,0,1,95,41.1a3.6,3.6,0,0,1-.2-1,1.3,1.3,0,0,1-.1-.6,9.2,9.2,0,0,1,.1-1.6,1.3,1.3,0,0,1,.1-.6c0-.2.1-.4.1-.6s-.3-.5-.6-.3a3,3,0,0,0-.6,1.1,6,6,0,0,0-.1,2.3,4.3,4.3,0,0,1,.1.5,6.1,6.1,0,0,0,.5,1.2,8,8,0,0,0,1.3,1.9l.9.7.9.5a1.6,1.6,0,0,0,.9.3l.6.2h.7Z"/><path class="a" d="M70.1,77.3a2,2,0,0,1-1.5.8,3,3,0,0,1-.5,1.6,4.2,4.2,0,0,1-.9,1.4,4.1,4.1,0,0,1-1.3,1,4.7,4.7,0,0,1-1.5.6,4.5,4.5,0,0,1-2.8-.2,2.8,2.8,0,0,1-1.7-2.1,2.7,2.7,0,0,1,.9-2.7,2.2,2.2,0,0,1,1.7-.5,1.4,1.4,0,0,1,1.2,1.1,1.3,1.3,0,0,1-.6,1.5,1,1,0,0,1-1.5-.2A1,1,0,0,0,62,81a2,2,0,0,0,1.5-.1,4.2,4.2,0,0,0,2.3-3.3,5.6,5.6,0,0,0-.7-3.6,4.9,4.9,0,0,0-2.9-2.2,1.9,1.9,0,0,1,.7,2.5,2,2,0,0,1-2.5,1.1,1.9,1.9,0,0,1-.9-2.5,5.9,5.9,0,0,0,.4-.8,1.1,1.1,0,0,0,0-.8.8.8,0,0,0-.8-.1A9.1,9.1,0,0,0,55,72.6a9.7,9.7,0,0,0-3.3,3.1c-.4.9-.5,1.2,0,1.9a3.9,3.9,0,0,0,2.2,1.8h.7c.2-.1.4-.2.4-.5s0-.3,0-.5.7-.3.9,0a1.2,1.2,0,0,1,.3,1.2,1.5,1.5,0,0,1-.8,1.1,5.4,5.4,0,0,1,1.9.7,2.1,2.1,0,0,1,.9,1.9.6.6,0,0,0,.5-.5,1.3,1.3,0,0,1,.7,1.5,1.4,1.4,0,0,1-1.5.9,2,2,0,0,1-2.3,1.3,1.9,1.9,0,0,1-1.1-2.4,1.4,1.4,0,0,0,1.4.1,1.1,1.1,0,0,0-.2-1.6,2.8,2.8,0,0,0-1.6-.6,4.7,4.7,0,0,1-2.2-2l-.3-.8a.9.9,0,0,0-.7-.3c-.5.1-.8.8-.8,1.4a4.5,4.5,0,0,0,1.2,2.5A16.6,16.6,0,0,1,52.9,85a3.6,3.6,0,0,1,.5,2.7,2,2,0,0,1-2.2,1.4,1.4,1.4,0,0,1,.1,1.4,2,2,0,0,1-.8,1.3c-.8.6-2.1.5-2.7,1.4l-.5,1.2c-.1.4-.5.8-.9.7s-.5-.7-.5-1.1a31.1,31.1,0,0,1,.2-6.1l.6-3.1.4-1.5.5-1.5.9-2.7,1.3-2.5.8-1.3.8-1.2,2-2.1A9.1,9.1,0,0,1,55,70.9l.8-.5a9.3,9.3,0,0,1,4.6-.7,10,10,0,0,1,2.4.4,10.6,10.6,0,0,1,5.6,4.4,5.2,5.2,0,0,0,1,1.1l.5.2A1.1,1.1,0,0,1,70.1,77.3Z"/><ellipse class="b" cx="122.7" cy="128.9" rx="56.5" ry="66.5"/><ellipse class="b" cx="122.7" cy="128.9" rx="52.6" ry="62"/><ellipse class="c" cx="122.7" cy="128.9" rx="54.6" ry="64.3"/><path class="a" d="M214.1,110.1v.6a2.8,2.8,0,0,1-.6,1.5,12.3,12.3,0,0,0-1.8,7.5,20.5,20.5,0,0,0,.5,2.4,10.5,10.5,0,0,0,2,4.1,13,13,0,0,0,4.3,2.7,12.3,12.3,0,0,0-4.3,2.8,9.6,9.6,0,0,0-2.1,4,20.5,20.5,0,0,0-.5,2.4,13,13,0,0,0,1.7,7.5,3.2,3.2,0,0,1,.6,1.5v.6c0,.6.8,1,1.4.9a2.7,2.7,0,0,0,1.5-1.1,5.7,5.7,0,0,0,6.3-2.4,4.3,4.3,0,0,0,.6-2.9,3.4,3.4,0,0,0-1.5-2.6,2.8,2.8,0,0,0-2.9,0,2.1,2.1,0,0,0-1,1.5,1.4,1.4,0,0,0,.6,1.6,1.5,1.5,0,0,0,1.7.1,1.3,1.3,0,0,0,.3-1.7,1,1,0,0,1,1.2.9,1.7,1.7,0,0,1-.6,1.5,4.1,4.1,0,0,1-4.1,1,5.6,5.6,0,0,1-3.1-2.3,5.2,5.2,0,0,1-.9-3.8,2.1,2.1,0,0,0,2,1.9,2.1,2.1,0,0,0,1.9-2,2,2,0,0,0-2-2h-.8a.8.8,0,0,1-.7-.4,1.1,1.1,0,0,1,.1-.8,9.9,9.9,0,0,1,6.1-5.4h1.1c.4.3.6.8.9,1.1a4.4,4.4,0,0,1,.9,2.7l-.3.7a.4.4,0,0,1-.6,0c-.1-.1-.2-.3-.3-.2l-.3.2c-.1.5.2.8.5,1.1a1.8,1.8,0,0,0,.9.4h.6c.2-.2.4-.4.4-.6a1.5,1.5,0,0,0,.1.7,4.7,4.7,0,0,0,.2,1.7,1.7,1.7,0,0,0,1.5,1.3.4.4,0,0,1-.6.4,1.4,1.4,0,0,0,1.4,1.2,1.3,1.3,0,0,0,1.2-1.3,1.6,1.6,0,0,0,1.5-.6,2.3,2.3,0,0,0-.1-2.5,2.4,2.4,0,0,0-1.2-.7h-.3c-.2-.1-.2-.1-.2.1s.1.6.1.9-.5.9-1,.6a1.8,1.8,0,0,1-1-1.1c-.1-.6,0-1.1-.1-1.7a4.6,4.6,0,0,0-1.3-2.6,1.2,1.2,0,0,1-.5-.5,1,1,0,0,1-.2-1.3h1.4a11.9,11.9,0,0,1,2,1.9c.6.7,1,1.6,1.7,2.3a3.4,3.4,0,0,0,2.6,1.2,1.8,1.8,0,0,0,1.6-2,2.1,2.1,0,0,0,3.1-.3,7.8,7.8,0,0,1,.9-2.1,4.1,4.1,0,0,1,1.5-.7c.5-.2,1-.5,1.1-.9h.1v-.2h-.1c-.1-.4-.6-.7-1-.9a3,3,0,0,1-1.6-.8c-.5-.5-.5-1.4-.9-2a2,2,0,0,0-3-.4,1.8,1.8,0,0,0-1.7-2,3.2,3.2,0,0,0-2.5,1.2,20.3,20.3,0,0,0-1.8,2.3,12.1,12.1,0,0,1-2,1.9h-1.4c-.3-.3-.2-.8.2-1.2l.6-.6a5,5,0,0,0,1.3-2.6,8.6,8.6,0,0,1,.1-1.6,2,2,0,0,1,1-1.2c.5-.2.9.3.9.7a2.7,2.7,0,0,1,0,.9c-.1.2-.1.1.1.1h.4a2.6,2.6,0,0,0,1.1-.7,2.1,2.1,0,0,0,.2-2.5,1.3,1.3,0,0,0-1.5-.6,1.2,1.2,0,0,0-1.2-1.3,1.3,1.3,0,0,0-1.4,1.1.5.5,0,0,1,.6.5,1.5,1.5,0,0,0-1.5,1.2,11.3,11.3,0,0,0-.3,1.8,1.3,1.3,0,0,1-.1.6.5.5,0,0,0-.3-.5h-.6a1.3,1.3,0,0,0-.9.4c-.4.3-.7.6-.5,1.1s.1.2.3.3.2-.2.3-.3h.5a1.3,1.3,0,0,1,.3.8,3.6,3.6,0,0,1-.9,2.6,4.8,4.8,0,0,1-.9,1.1H220a10.3,10.3,0,0,1-6-5.4.9.9,0,0,1-.2-.8.9.9,0,0,1,.8-.4h.8a2.1,2.1,0,0,0,2-1.9,2,2,0,0,0-3.9-.1,6,6,0,0,1,.9-3.9,5.5,5.5,0,0,1,3.2-2.2,4.1,4.1,0,0,1,4.1,1,1.7,1.7,0,0,1,.5,1.5.9.9,0,0,1-1.2.9,1.1,1.1,0,0,0-.2-1.6,1.5,1.5,0,0,0-1.8,0,1.6,1.6,0,0,0-.6,1.6,2.3,2.3,0,0,0,1,1.5,2.8,2.8,0,0,0,2.9,0,3.6,3.6,0,0,0,1.6-2.5,4.8,4.8,0,0,0-.6-2.9,5.7,5.7,0,0,0-6.3-2.5,2.9,2.9,0,0,0-1.5-1.2A1.2,1.2,0,0,0,214.1,110.1Zm18.6,18.1c1.4,0,2.5.4,2.5.8s-1.1.8-2.5.8-5.4-.4-5.4-.8S231.2,128.2,232.7,128.2Z"/><path class="a" d="M30.7,109.2a2.4,2.4,0,0,0-1.4,1.2,5.6,5.6,0,0,0-6.3,2.5,4.2,4.2,0,0,0-.6,2.9,3.5,3.5,0,0,0,1.5,2.5,2.8,2.8,0,0,0,2.9,0,2.1,2.1,0,0,0,1.1-1.5,1.6,1.6,0,0,0-.7-1.6,1.4,1.4,0,0,0-1.7,0,1.1,1.1,0,0,0-.3,1.6c-.5.2-1.1-.3-1.2-.9a1.8,1.8,0,0,1,.6-1.5,4.1,4.1,0,0,1,4.1-1,5.3,5.3,0,0,1,3.1,2.2,6,6,0,0,1,1,3.9,2.1,2.1,0,0,0-2.1-1.9,2.1,2.1,0,0,0-1.9,2,2.1,2.1,0,0,0,2,1.9h.9a.7.7,0,0,1,.7.4,1.2,1.2,0,0,1-.1.8,10.3,10.3,0,0,1-6,5.4H25.1a10.5,10.5,0,0,1-.8-1.1,3.7,3.7,0,0,1-1-2.6l.3-.8h.6c.1.1.2.3.3.3l.3-.3c.1-.5-.2-.8-.5-1.1a1.8,1.8,0,0,0-.9-.4h-.7a.9.9,0,0,0-.3.5c0-.2-.1-.4-.1-.6a5.5,5.5,0,0,0-.2-1.8,1.7,1.7,0,0,0-1.6-1.2c0-.3.4-.6.6-.5a1.2,1.2,0,0,0-1.3-1.1,1.3,1.3,0,0,0-1.3,1.3,1.2,1.2,0,0,0-1.4.6,2.3,2.3,0,0,0,.1,2.5,2.4,2.4,0,0,0,1.2.7h.3c.2,0,.2.1.2-.1s-.1-.6-.1-.9.5-.9,1-.7a1.6,1.6,0,0,1,.9,1.2,8.8,8.8,0,0,1,.2,1.6,4.3,4.3,0,0,0,1.3,2.6l.6.6c.3.4.5.9.1,1.2H21.5a11.4,11.4,0,0,1-1.9-1.9,20.3,20.3,0,0,0-1.8-2.3,3.4,3.4,0,0,0-2.6-1.2,1.8,1.8,0,0,0-1.6,2,2,2,0,0,0-3,.4c-.4.6-.4,1.5-1,2a3.1,3.1,0,0,1-1.5.8,2,2,0,0,0-1.1.9H6.9v.2H7a2,2,0,0,0,1.1.9,5.6,5.6,0,0,1,1.6.7c.5.6.5,1.4.9,2.1a1.9,1.9,0,0,0,3,.3,1.8,1.8,0,0,0,1.7,2,3.4,3.4,0,0,0,2.6-1.2c.6-.7,1.1-1.6,1.7-2.3a8.6,8.6,0,0,1,1.9-1.9h1.4c.4.4.2.9-.1,1.3l-.6.5a4.5,4.5,0,0,0-1.2,2.6c-.1.6-.1,1.1-.2,1.7a1.6,1.6,0,0,1-1,1.1c-.4.3-.8-.2-.9-.6a1.4,1.4,0,0,1,.1-.9c0-.2,0-.2-.2-.1h-.4a2.6,2.6,0,0,0-1.1.7,2.1,2.1,0,0,0-.1,2.5,1.5,1.5,0,0,0,1.4.6,1.3,1.3,0,0,0,1.3,1.3,1.4,1.4,0,0,0,1.4-1.2c-.3.1-.7-.1-.7-.4a1.9,1.9,0,0,0,1.6-1.3,8.8,8.8,0,0,0,.2-1.7c0-.2.1-.4.1-.7a.9.9,0,0,0,.3.6h.7a1.8,1.8,0,0,0,.9-.4c.3-.3.6-.6.4-1.1a.2.2,0,0,0-.2-.2c-.2-.1-.3.1-.4.2a.3.3,0,0,1-.5,0,1.1,1.1,0,0,1-.3-.7,3.4,3.4,0,0,1,.9-2.7c.3-.3.5-.8.9-1.1h1.1a10.1,10.1,0,0,1,6.1,5.4,1.1,1.1,0,0,1,.1.8.8.8,0,0,1-.7.4h-.9a2,2,0,1,0,2,2.1,6.3,6.3,0,0,1-.9,3.8,5.8,5.8,0,0,1-3.2,2.3,4.1,4.1,0,0,1-4.1-1,2,2,0,0,1-.5-1.5.9.9,0,0,1,1.2-.9,1.2,1.2,0,0,0,.2,1.7,1.7,1.7,0,0,0,1.8-.1,1.6,1.6,0,0,0,.6-1.6,2.1,2.1,0,0,0-1-1.5,2.8,2.8,0,0,0-2.9,0,3.5,3.5,0,0,0-1.6,2.6,5,5,0,0,0,.7,2.9,5.6,5.6,0,0,0,6.3,2.4,2.2,2.2,0,0,0,1.4,1.1,1.3,1.3,0,0,0,1.5-.9c0-.2-.1-.4-.1-.6a4.7,4.7,0,0,1,.6-1.5,11.6,11.6,0,0,0,1.7-7.5,10.3,10.3,0,0,0-.5-2.4,9.6,9.6,0,0,0-2.1-4,12.3,12.3,0,0,0-4.3-2.8,12.1,12.1,0,0,0,4.3-2.7,10.7,10.7,0,0,0,2.1-4.1,10,10,0,0,0,.4-2.4,12.3,12.3,0,0,0-1.8-7.5c-.2-.5-.6-.9-.6-1.5s.1-.4.1-.6A1.3,1.3,0,0,0,30.7,109.2ZM19,129c0,.4-4,.8-5.4.8s-2.6-.3-2.6-.8,1.2-.8,2.6-.8S19,128.6,19,129Z"/><path class="a" d="M177.9,113.5h.4a3.9,3.9,0,0,1,4,1,1.8,1.8,0,0,1,.6,1.5c-.1.6-.7,1.1-1.2.9a1.1,1.1,0,0,0-.3-1.6,1.4,1.4,0,0,0-1.7,0,1.6,1.6,0,0,0-.7,1.6,2.1,2.1,0,0,0,1.1,1.5,2.8,2.8,0,0,0,2.9,0,3.5,3.5,0,0,0,1.5-2.5,4.2,4.2,0,0,0-.6-2.9,5.6,5.6,0,0,0-6.3-2.5,2.4,2.4,0,0,0-1-1C177.1,110.8,177.5,112.1,177.9,113.5Z"/><path class="a" d="M200,128.9h-.1a2,2,0,0,0-1.1-.9,3.1,3.1,0,0,1-1.5-.8c-.5-.5-.6-1.4-1-2a2,2,0,0,0-3-.4,1.8,1.8,0,0,0-1.6-2,3.4,3.4,0,0,0-2.6,1.2,20.3,20.3,0,0,0-1.8,2.3,11.4,11.4,0,0,1-1.9,1.9H184c-.4-.3-.2-.8.1-1.2l.6-.6a4.3,4.3,0,0,0,1.3-2.6,8.8,8.8,0,0,1,.2-1.6,1.5,1.5,0,0,1,1-1.2c.4-.2.8.3.9.7s-.1.6-.1.9,0,.1.2.1h.3a2.4,2.4,0,0,0,1.2-.7,2.3,2.3,0,0,0,.1-2.5,1.2,1.2,0,0,0-1.4-.6,1.3,1.3,0,0,0-1.3-1.3,1.2,1.2,0,0,0-1.3,1.1c.2-.1.6.2.6.5a1.7,1.7,0,0,0-1.6,1.2,11,11,0,0,0-.2,1.8c0,.2-.1.4-.1.6a.5.5,0,0,0-.3-.5h-.7a1.8,1.8,0,0,0-.9.4c-.3.3-.6.6-.4,1.1s.1.2.2.3.2-.2.3-.3h.6l.3.8a3.7,3.7,0,0,1-1,2.6,4.4,4.4,0,0,1-.8,1.1h-1.1l-1.3-.3V130l1.2-.2h1.1c.4.3.6.8.9,1.1a3.4,3.4,0,0,1,.9,2.7,1.1,1.1,0,0,1-.3.7.3.3,0,0,1-.5,0c-.1-.1-.2-.3-.4-.2a.2.2,0,0,0-.2.2c-.2.5.1.8.5,1.1a1.2,1.2,0,0,0,.8.4h.7a.9.9,0,0,0,.3-.6c0,.3.1.5.1.7a8.8,8.8,0,0,0,.2,1.7,1.9,1.9,0,0,0,1.6,1.3.5.5,0,0,1-.6.4,1.2,1.2,0,0,0,1.3,1.2,1.3,1.3,0,0,0,1.3-1.3,1.5,1.5,0,0,0,1.4-.6,2.1,2.1,0,0,0-.1-2.5,2.6,2.6,0,0,0-1.1-.7h-.4c-.2-.1-.2-.1-.2.1a1.4,1.4,0,0,1,.1.9c-.1.4-.5.9-.9.6a1.6,1.6,0,0,1-1-1.1c-.1-.6-.1-1.1-.2-1.7a4.5,4.5,0,0,0-1.2-2.6l-.6-.5c-.3-.4-.5-.9-.1-1.3h1.4a8.6,8.6,0,0,1,1.9,1.9c.6.7,1.1,1.6,1.8,2.3a3,3,0,0,0,2.5,1.2,1.8,1.8,0,0,0,1.7-2,1.9,1.9,0,0,0,3-.3c.4-.7.4-1.5,1-2.1a4.1,4.1,0,0,1,1.5-.7,2,2,0,0,0,1.1-.9h0Zm-6.7.9c-1.4,0-5.4-.4-5.4-.8s4-.8,5.4-.8,2.6.4,2.6.8S194.7,129.8,193.3,129.8Z"/><path class="a" d="M182.8,139.6a2.6,2.6,0,0,0-2.8,0,1.9,1.9,0,0,0-1.1,1.5,1.6,1.6,0,0,0,.6,1.6,1.7,1.7,0,0,0,1.8.1,1.4,1.4,0,0,0,.3-1.7c.5-.2,1.1.3,1.2.9a2,2,0,0,1-.6,1.5,4.1,4.1,0,0,1-4.1,1H178c-.3,1.3-.7,2.5-1.1,3.7l.5-.6a5.6,5.6,0,0,0,6.3-2.4,4.3,4.3,0,0,0,.7-2.9A3.5,3.5,0,0,0,182.8,139.6Z"/><path class="a" d="M67.9,113.5h-.4a4.1,4.1,0,0,0-4.1,1,2.1,2.1,0,0,0-.5,1.5,1,1,0,0,0,1.2.9,1.1,1.1,0,0,1,.2-1.6,1.5,1.5,0,0,1,1.8,0,1.6,1.6,0,0,1,.6,1.6,2.3,2.3,0,0,1-1,1.5,2.8,2.8,0,0,1-2.9,0,3.6,3.6,0,0,1-1.6-2.5,4.2,4.2,0,0,1,.7-2.9,5.5,5.5,0,0,1,6.2-2.5,3.2,3.2,0,0,1,1-1C68.7,110.8,68.2,112.1,67.9,113.5Z"/><path class="a" d="M45.8,129.1h.1c.1.4.6.7,1.1.9a4.1,4.1,0,0,1,1.5.7,13.6,13.6,0,0,1,1,2.1,1.9,1.9,0,0,0,3,.3,1.8,1.8,0,0,0,1.7,2,3.3,3.3,0,0,0,2.5-1.2,17,17,0,0,0,1.7-2.3,11.9,11.9,0,0,1,2-1.9h1.4a1,1,0,0,1-.2,1.3,1.2,1.2,0,0,1-.5.5,4.6,4.6,0,0,0-1.3,2.6,9.7,9.7,0,0,1-.1,1.7,1.8,1.8,0,0,1-1,1.1c-.5.3-.9-.2-.9-.6a2.7,2.7,0,0,1,0-.9c0-.2,0-.2-.2-.1h-.3a2.4,2.4,0,0,0-1.2.7,2.3,2.3,0,0,0-.1,2.5,1.7,1.7,0,0,0,1.5.6,1.3,1.3,0,0,0,1.2,1.3,1.3,1.3,0,0,0,1.4-1.2.4.4,0,0,1-.6-.4,1.7,1.7,0,0,0,1.5-1.3,4.7,4.7,0,0,0,.2-1.7,6.4,6.4,0,0,0,.2-.7c-.1.2.1.4.3.6h.6a1.5,1.5,0,0,0,.9-.4,1,1,0,0,0,.5-1.1l-.3-.2c-.1-.1-.2.1-.3.2s-.4.2-.5,0a2.5,2.5,0,0,1-.4-.7,4.4,4.4,0,0,1,.9-2.7l.9-1.1h1.1l1.3.2v-2.2l-1.3.3H64a4.8,4.8,0,0,1-.9-1.1,3.6,3.6,0,0,1-.9-2.6,1.3,1.3,0,0,1,.3-.8H63c.1.1.2.3.4.3s.2-.2.2-.3-.1-.8-.5-1.1a1.3,1.3,0,0,0-.9-.4h-.6a.5.5,0,0,0-.3.5c0-.2-.1-.4-.1-.6a11.3,11.3,0,0,0-.3-1.8,1.5,1.5,0,0,0-1.5-1.2.5.5,0,0,1,.6-.5,1.3,1.3,0,0,0-2.6.2,1.3,1.3,0,0,0-1.5.6,2.1,2.1,0,0,0,.2,2.5,2.6,2.6,0,0,0,1.1.7h.4c.2,0,.2.1.2-.1a1.4,1.4,0,0,1-.1-.9c0-.4.4-.9.9-.7a2,2,0,0,1,1,1.2c.1.5.1,1.1.2,1.6a4.2,4.2,0,0,0,1.2,2.6l.6.6c.4.4.5.9.2,1.2H60.4a18,18,0,0,1-2-1.9c-.6-.8-1.1-1.6-1.7-2.3a3.4,3.4,0,0,0-2.6-1.2,1.8,1.8,0,0,0-1.7,2,2,2,0,0,0-3,.4c-.4.6-.4,1.5-.9,2a3,3,0,0,1-1.6.8c-.4.2-.9.5-1,.9h-.1Zm4.1-.1c0-.4,1.1-.8,2.5-.8s5.4.4,5.4.8-3.9.8-5.3.8S49.9,129.5,49.9,129Z"/><path class="a" d="M62.9,139.6a2.8,2.8,0,0,1,2.9,0,2.2,2.2,0,0,1,1.1,1.5,1.6,1.6,0,0,1-.7,1.6,1.5,1.5,0,0,1-1.7.1,1.3,1.3,0,0,1-.3-1.7c-.5-.2-1.1.3-1.2.9a1.7,1.7,0,0,0,.6,1.5,4.1,4.1,0,0,0,4.1,1h.1c.3,1.3.7,2.5,1.1,3.7l-.6-.6a5.7,5.7,0,0,1-6.3-2.4,4.3,4.3,0,0,1-.6-2.9A3.4,3.4,0,0,1,62.9,139.6Z"/><path class="a" d="M108.4,161.4a25.3,25.3,0,0,0-.1-2.8c-.1-.8-.3-.9-1-.5a21.1,21.1,0,0,1-10.1,2.6,15.4,15.4,0,0,1-13-7.2c-2.1-3.2-1.3-8,1.3-10.1s2.8-2.8,5.2-1.9c.7.3,1.6.1,2.1.8s.3.4.3.5.5,1.7,1,2.4a7.6,7.6,0,0,1,.6,2.5c1.5-.8,2.3-9.2,2-12.1-.4-.1-.4.2-.6.4-1.6,1.8-4,2.8-6.6,1.2a8.5,8.5,0,0,1-3.5-3.8l-.3-.7a8.4,8.4,0,0,1,5.1-9.8l.6-.2c.5-.3.6-.6.2-1a13.8,13.8,0,0,1-1.7-2.5,4.4,4.4,0,0,1,1-4.7,3.5,3.5,0,0,1,3.9-.4,2.9,2.9,0,0,1,.1,4.9c-.3.2-.6.3-.8.7s1.1,1.1,1.8,1.4.7-.4.7-.8v-5.6a82.5,82.5,0,0,0-.4-8.6,13.6,13.6,0,0,0-1.6-4.8,3.3,3.3,0,0,0-2.2-1.4,2.3,2.3,0,0,1-1.5-2.1.7.7,0,0,1,.6-.7,16.1,16.1,0,0,0,2.8-1.7.9.9,0,0,1,1.1.2,46.3,46.3,0,0,0,10.9,6.5c1.3.6,1.3.7,1.1,2.7h1.1c1.4,0,1.6-.1,1.3-1.6a19.5,19.5,0,0,0-3.1-8.1,6.2,6.2,0,0,0-1.7-2.2c-.4.4-.2.8-.2,1.1a2.7,2.7,0,0,1-2.3,2.8,3.4,3.4,0,0,1-3.6-2.1c-.8-2.6.7-4.7,3.4-5.2s5.7,1,8,3.1l2,2.2a1.6,1.6,0,0,0,.9.6,2.9,2.9,0,0,0,.1-2.7c-.8-1.7,0-3,.8-4.3a2.5,2.5,0,0,1,2.4-1,2.8,2.8,0,0,1,2.4,2.1c.3,1.4.4,1.4,2,1.3s1.9,0,2.6-.5-.3-.4-.5-.4-1.3-.6-1-1.5a1.9,1.9,0,0,1,2.2-1.3,3.3,3.3,0,0,1,2.1,4.6,5.1,5.1,0,0,0-.6,2,1.8,1.8,0,0,1-.7,1.5c-.2.4-.4.6-.2,1.1a1.8,1.8,0,0,1-1,2.6c-.5.3-1,.3-1.4.7a1.1,1.1,0,0,0,.7,1,.9.9,0,0,1,.5,1.4,3.7,3.7,0,0,0-.1,1.8,2.9,2.9,0,0,1-1.3,2.8,1.1,1.1,0,0,0-.5,1.4c1.6,4.1,3.3,8,5.1,12,.1.2.2.5.6.5s.4-.4.4-.6a102,102,0,0,0-.6-12.4c-.3-1.2-.6-2.4-1.9-3a1,1,0,0,1-.4-.9,16.7,16.7,0,0,0-.2-3.1c-.1-.5.1-.7.5-.9a4.7,4.7,0,0,0,2.5-2.3,40.2,40.2,0,0,1,4.4-5.6,10.1,10.1,0,0,1,5.6-2.9c2.3-.4,5.3,1.7,5.7,3.9a.9.9,0,0,1,0,.7,3.2,3.2,0,0,1-2.7,2.4,2.5,2.5,0,0,1-2.9-1.1c-.7-.9-.8-.9-1.5,0a12.5,12.5,0,0,0-2.4,6.1c-1.1,6.3-.7,12.6-.7,18.9-.1,1.8,0,1.8,1.9,1.8H138c.8,0,1.1-.4,1.1-1.2,0-3.7.1-7.4,0-11.1s-1-3.3-3-3.6-1.1-.4-1-1.4a2.8,2.8,0,0,1,2.2-2.6,28.1,28.1,0,0,0,8.3-5.1l2.2-1.9a.8.8,0,0,1,1.3.2,8,8,0,0,0,2.2,2.3c.6.4.4.9-.1,1.1a4,4,0,0,0-2.6,2.6,13.1,13.1,0,0,0-1.3,5.5c.1,2.9.1,5.8.1,8.6,0,.3-.1.6.2.9h.2c1.4-1.6,2.3-1.9,4-1.2a4,4,0,0,1,2.5,3.8,4.8,4.8,0,0,1-.9,2.6c-.6.8-.5.9.4,1.3,2.6,1.3,4.6,3.2,5.2,6.2a6.7,6.7,0,0,1-4.1,8,5.6,5.6,0,0,1-5.6-.4,2.4,2.4,0,0,1-.4-3.9c.7-.5.7-.9.2-1.5a2,2,0,0,1-.3-2.6c.3-.4.6-.7,1-.2a.5.5,0,1,0,.8-.7,2.9,2.9,0,0,0-2.2-1.5c-.6-.2-.8.3-.8.8s-.1,2.1,0,3.2c0,3.4-.1,6.8.2,10.1a33.3,33.3,0,0,0,1.8,9.4,8.5,8.5,0,0,0,3.5,4.4.9.9,0,0,1,.2,1.4c1,.1,3-1,3.3-1.9s-.1-.6-.5-.6-3.3-.8-4.8-1.6a2.6,2.6,0,0,1-1.4-2.8l.3-2.7a3.2,3.2,0,0,1,1.2-2.1,1.6,1.6,0,0,0,.8-1,2,2,0,0,1,1.7-1.4,6.9,6.9,0,0,1,7.4,5.2,9,9,0,0,1,.2,4.6,9.3,9.3,0,0,1-2.8,4.9,16.9,16.9,0,0,1-7.2,3.9c-3.4.9-6.8.3-10.1-.8l-1.6-.6c-.9-.3-1.3,0-1.1.9a14.5,14.5,0,0,1,.2,3.6,8.4,8.4,0,0,1-4.5,7.4,10.6,10.6,0,0,1-9,1.5,5.3,5.3,0,0,1-3.5-2.9,3,3,0,0,1,.3-3.3,3.3,3.3,0,0,1,3.3-1.2,4.3,4.3,0,0,1,2,1.1,2.2,2.2,0,0,0,3.7-.5,10.2,10.2,0,0,0,1.1-6.9c-1-4.5-2.9-8.7-4.7-13s-5-11.4-7.5-17.1l-.6-1.8a1.2,1.2,0,0,0-1.4-.6c-.5,0-.8.3-.8.9a10.9,10.9,0,0,0-.1,1.8,147.7,147.7,0,0,1-1.9,23c-.4,2.8-1,5.6-1.3,8.4a20.1,20.1,0,0,0,.1,6c.3,1.5.7,1.7,2.1,1.2a2.6,2.6,0,0,1,3.8,2.8,1.4,1.4,0,0,1-.5,1.1,4.8,4.8,0,0,1-6.1.6,9.9,9.9,0,0,1-4.8-7.5c-.1-.6-.1-1.3-.2-2.1m22.4-67a6.1,6.1,0,0,0,1.7-1.5,10.7,10.7,0,0,1,3.5-2.5c.8-.4.8-.4,1.4.3s.8-.3,1.1-.7c-1.4-1.4-6.2,1.3-7.9,4.5a2.7,2.7,0,0,0-.8,1.4,1.6,1.6,0,0,0,1-1.5m-23.5,15.3c-.9-1.3-.6-2.8-.6-4.2h-.4c-1.2.4-1.3,1.5-1.3,2.5a112.7,112.7,0,0,0-.2,11.6c0,.4.1.8.1,1.1a.7.7,0,0,0,.7.6l4.9.2c.4,0,.6-.3.6-.7-.1-2.4-.1-4.9-.4-7.3a.9.9,0,0,0-.8-1c-1.4,0-1.9-.8-2.2-2l-.4-.8m11-11.3c.8-.5,1.4-1.3,2.4-1.3s1.6-.7,2.5-.8-.6-1.7-.3-2.7-.1-.9-.8-.9a9.2,9.2,0,0,0-2.8.5c-.2.1-.5.3-.8,0s.9-.7,1.3-1.2c-1.5,0-2,1.2-2.8,2a1.6,1.6,0,0,1-.7-1.5c-.3-.1-.5.1-.7-.3s.4-1-.3-1.5-.7,0-1.1-.1-.8.2-.5.7a4.5,4.5,0,0,1,.5,3,6.5,6.5,0,0,0-.2,2.5,17.1,17.1,0,0,1,1.7-3.3,2.4,2.4,0,0,0,1.2,1.4c.1.7-.8,1.1-.7,1.9s.8-.1,1.1-.4a8.3,8.3,0,0,1,2.1-1.6c.4-.1.7-.3,1,.1s-.3.5-.6.7a8,8,0,0,0-3.4,2.9c-1.4,1.9-2.5,3.9-2.2,6.4a75.4,75.4,0,0,0,1.2,8.1,3.5,3.5,0,0,0,.6,1.7v-.2c0-.2-.1-.4-.1-.7a17.9,17.9,0,0,1-.9-7.3,3.6,3.6,0,0,1,.6-2,2,2,0,0,1,2.9-.6c.8.5.8,1.2,0,2.4a.6.6,0,0,0-.1.6.8.8,0,0,0,.7.2.9.9,0,0,0,.7-1c.1-.6.3-1.1,1-.7s.9,0,1.2-.4.3-1.5-.5-2.2a5.2,5.2,0,0,1-1.4-1.9c-.8.3-1.5-.2-2.3-.2s-1.6,1.1-2.6,1.7c.3-2,1.5-3,3-4m17.6,33.7h.1a2.4,2.4,0,0,1,2.1,1.7c.2,1-.4,1.4-1,1.8a2.3,2.3,0,0,0-1.1,1.6,7.2,7.2,0,0,0,.5,4.6c.4,1,1,1,1.7.2a5.5,5.5,0,0,0,1.3-3.4c.1-4.1-.2-8.2-.2-12.3A1.2,1.2,0,0,0,138,125l-3.3-.2c-.9,0-1.2.4-1.2,1.3a27.2,27.2,0,0,0,.5,4.9c.2,1.2.5,1.3,1.9,1.1M107,125h-.5c-1.3,0-1.3.1-1.4,1.4a19.3,19.3,0,0,0,0,3.4,51.4,51.4,0,0,0,.4,9.6,6.9,6.9,0,0,0,1.4,3,1.2,1.2,0,0,0,1.2.4,1.1,1.1,0,0,0,.7-1.1,10.4,10.4,0,0,0-.6-4.3,1.6,1.6,0,0,0-1.5-1.1.9.9,0,0,1-.8-.5,1.8,1.8,0,0,1,.7-2.7c.3-.3.8-.3.9-.8s1.1-1,2-.8,1.1.2,1.3-.9.1-3,.2-4.5a1,1,0,0,0-1.1-1.1H107m39.7,17.4c-.3-4.2-.5-8.3-.5-12.5-.1-6.8-.2-13.7-.2-20.6v-3.7a1,1,0,0,0-1-1.1c-.6-.1-.4.6-.4.9,0,2.6.1,5.2.1,7.7.2,5,.1,10,.2,14.9s.1,8.6.2,12.9a18.9,18.9,0,0,0,.5,2.3c.1.2.2.5.5.5s.4-.2.5-.5a2.8,2.8,0,0,1,.1-.8M98.2,111.9c-.1-2.2-.1-4.3-.2-6.5a5.8,5.8,0,0,0-.4-1.9c-.1-.4-.3-.7-.7-.5s-.3.4-.3.7.3,1.9.5,2.8c.4,3.3.1,6.6.2,9.9q.3,10.5.3,21a31.8,31.8,0,0,1-1.8,10.5,2.9,2.9,0,0,0-.2.9.5.5,0,0,0,.5.4c.2.1.4-.1.4-.3s1.1-2.3,1.4-3.6a41.7,41.7,0,0,0,.5-7.1c.1-3.5-.2-7,.2-10.5,0-.4,0-.8.4-.9s.4.2.7.4.5.3.7,0,.2-.7.2-1.1-.5-.2-.7-.1-.7.5-1.3.5a6.5,6.5,0,0,1-.4-2c-.1-1.2.3-2.5.2-3.7-.2-2.9-.2-5.8-.2-8.9m6.3,39.7a14.4,14.4,0,0,0,1.8-2.5c.2-.3.6-.7.2-1s-.7-.1-1.1.1a39.6,39.6,0,0,0-8.9,6.8,4.4,4.4,0,0,0-1.2,1.9c4-.4,6.8-2.5,9.2-5.3m48.7-22.4a10.3,10.3,0,0,1,1.5-2.7c-1.1.5-1.3,2-2.5,2.5s.9-1.4.7-2.2-.6.1-.8-.3a5.3,5.3,0,0,0-.2-2.5c-.2-.6.3-.7.8-.5a7.1,7.1,0,0,1,4,5.2c.3,1.9-.4,3.7-.4,5.6a2.7,2.7,0,0,0,1.2-1.6c1.1-4.2.5-6.9-2.8-9.2a6.7,6.7,0,0,0-2.8-1c-.8-.1-1,.6-1.4.9h-.2c-1.1.6-1.1.8-.1,1.5a3.2,3.2,0,0,1,1.5,3.1c-.1,1.2-.7,1.5-1.8,1.2a.4.4,0,0,0-.6,0,1,1,0,0,0,.8,1.2,2.5,2.5,0,0,0,3.1-1.3m-49.5,7.3v-6.6l-1.1-.4c0,1.8-.1,3.6,0,5.3a26.9,26.9,0,0,0,.5,5.7c.5,1.7,1.1,3.3,3.1,3.7l.3.2c-.2.5-.6.5-1,.7a29.6,29.6,0,0,0-6.6,4.5c-.3.2-.8.5-.7,1s1.2-.2,1.7-.6a32.9,32.9,0,0,1,6-3.6l1.8-.7a1.4,1.4,0,0,0,.7-1.3c-.1-.6-.6-.6-1.1-.7a4.3,4.3,0,0,1-3.2-3.3,23.4,23.4,0,0,1-.4-3.9m9.6-20.7c.3-.1.2-.3.1-.5a12.1,12.1,0,0,0-3.8-7.5c-.1-.2-.3-.2-.2-.7s2.1,2.4,3.7,3.1a.7.7,0,0,0,.3-1c-.2-.6-.5-1.1-.7-1.7s-.3-.5-.1-.8,0-.9-.3-1.1-.6.2-.8.6-.4.6-.9.3a3.7,3.7,0,0,0-1.7-1,.7.7,0,0,0-.9.4,3.2,3.2,0,0,0,1.1,3.9c.4.2.7.4.4.9s0,.7.5.7a3.4,3.4,0,0,1,2.3,1.9,18.6,18.6,0,0,1,1,2.5m-12.4-14.2,3.3,1.9a.6.6,0,0,1,.5.6c0,.4-.3.4-.6.5a1.9,1.9,0,0,0-1.5,2.1c0,.7-.1,1.4-.1,2.1v7.6c.3-.1.5.1.9-.1v-7.5c0-1.7.2-3.3,1.8-4.3a1.1,1.1,0,0,0,0-1.9l-3.9-2.1a.8.8,0,0,0-1.1.2c-.2.5.4.6.7.9m39.8,38.3c0-4.7.1-9.3-.3-14a1.5,1.5,0,0,0-.4,1.5c0,3.9,0,7.7.1,11.6a3.4,3.4,0,0,1-1.2,3l-.9.9c-.6.4-.6.8-.3,1.4a7,7,0,0,0,2.6,2.8.8.8,0,0,0,.8.2c.3,0,.7,0,.8-.3s-.1-.6-.4-.8a26.1,26.1,0,0,0-2.7-1.9c-.6-.3-.6-.7,0-1a3.5,3.5,0,0,0,1.9-3.4m-1.6-35.7c-.3-.4-1.1-.5-1.2-1.2,1.5-.8,3.3-1.2,4.4-2.6a.5.5,0,0,0-.6-.1,46.7,46.7,0,0,1-5.1,2.3.9.9,0,0,0-.6.9,1,1,0,0,0,.7.7c2.3.7,3.1,2.3,3.1,4.5s.1,7.2.1,10.8c0,.4-.1.8.4.9s.2-.7.2-1c0-3.6,0-7.2-.2-10.9,0-1.4.2-3-1.2-4.3m-3,61.1c0-.1-.1-.3,0-.4a3,3,0,0,0,0-3.3v-.3a2.8,2.8,0,0,1,.6-1.6c.6-1.2.2-1.8-1-2.6s-.9-.3-1.1-.9a2.1,2.1,0,0,0,1.3-1.3c-.7-.6-1.7-.7-2-.1s-.5,2.6,1.1,3.3a.5.5,0,0,0,.4.2c.3.2.7.5.5.9s-.6.1-.9,0-.5-.2-.7.1a.5.5,0,0,0,.1.7l.3.4a4.1,4.1,0,0,1,1.3,3.3,6.9,6.9,0,0,1-1.8,3.6l-2.4,2.4a3.6,3.6,0,0,0,3-1.9c.4-.8,1.3-1.3,1.3-2.5m-12.9-44.8c0-.4-.2-.8-.8-.7a.9.9,0,0,0-.9.6c-.1.4.4.5.7.7s.8.4.8.8-.6.3-.6.7.5.5.8.7.6.5.4.7,0,1.2.6,1.5.8.4.5.9-.1,1.2.5,1.6,1,.6.6,1.1-.2.9.3,1.2,1.1.8.2,1.7,1,1,1.7.8.2-.7.2-1.1-.3-.4-.5-.6a.9.9,0,0,1-.4-.8,2.7,2.7,0,0,0-.8-1.9,1.1,1.1,0,0,1-.4-.9c-.1-1.2-1.5-1.9-1.1-3.3h-.1c-1-.9-1.1-2.3-1.7-3.6M94,149.1a5.8,5.8,0,0,1-4.3,1.8.9.9,0,0,0-1.1.9c-.4,2.1,1.9,4.7,4.1,4.6-.2-.8-1-1-1.5-1.3s-1.4-1.1-.1-1.9l.3-.2a6.2,6.2,0,0,0,2.6-3.9m-2.4,9.1c.4.2.7-.2,1.1-.3v.2c.2.2.3.6.7.5s.2-.2.2-.3a.7.7,0,0,0-.6-.7l-2-.8c-2.2-1-4.1-2.3-4-5.1,0-.7-.4-.6-.8-.3a2.5,2.5,0,0,1-1.9.9,13.1,13.1,0,0,0,7.2,5.9m32-28.2,2.5,5.7c.2.4.3.8.8.6s.2-.6.1-.9L120.7,121c-.1-.3-.2-.6-.9-.6,1,3.3,2.5,6.4,3.8,9.6m-14.9-7a31.1,31.1,0,0,1-3.3.3,1.3,1.3,0,0,0,1.2.4h6.1a32,32,0,0,0,4.4-.1c.4-.1.7-.1.7-.5s-.2-.7-.7-.7h-9.6a5.3,5.3,0,0,0,1.2.3c.2,0,.5.2,0,.4m-12.8,2.5a4.1,4.1,0,0,0-1.9,1.3c-.2.4-.4.9.3,1a1,1,0,0,1,.8.8,2.4,2.4,0,0,1-.6,2.4c-.1.2-.4.3-.3.7l2.3.9c.1-.2.2-.3.2-.5q.1-3,0-6c0-.4-.2-.6-.8-.6m40.7,21.8c-2.5-2.6-4.7-5.4-8-7.2.8,0,1.3-.4,2-.4a10.9,10.9,0,0,0-2.7-2.2c-.3-.1-.7-.2-.7,0s-.6,1-.4,1.6,1.6,1.6,2.1,2.6a15.9,15.9,0,0,1,6.3,4.5,7,7,0,0,0,2,1.8l-.6-.7m-2.2-23.8h2.2a.9.9,0,0,0,1-.9c0-.5-.6-.4-1-.4h-7.7a.7.7,0,0,0-.8.6c0,.4.4.6.8.7h5.5m-24.3,9.4c-.3-.4-.7-.6-1.1-.1a1.9,1.9,0,0,0,.4,2c.3.1.2-.4.6-.4a2.1,2.1,0,0,1,.3,1.3c0,.4,0,.9.3,1s.6,1.3.4,2-.3,1.5-.5,2.3-.2.6.2.8,1.7-14,1.2-15.1c-.3,2.6-.4,5-.8,7.4-.7-.3-.7-.8-1-1.2m21.1-29.7a1.7,1.7,0,0,1,0-1.2,2.1,2.1,0,0,0-.8-2.3c-.7-.6-1.3-.3-1.4.6a1,1,0,0,1-.7,1.1c-.7.2-.7.7-.1,1.1a4.7,4.7,0,0,1,1.7,2,6,6,0,0,0,.6,1.1c.2-.3.7-.4.5-.8s0-1,.2-1.6m-18.7,54.6v-4.3c-1.2,4.4-1.5,11.2.4,13.2a37.5,37.5,0,0,1-.4-8.9m42.9-1.4c1.5-1.2,1.5-1.2,1.5-1.9l-.4.2a8.7,8.7,0,0,1-5.8,2c-1.2,0-1.4,1.2-2.2,1.7,2.6.3,4.7-.8,6.9-2m-22.5-2.1a65.6,65.6,0,0,0-4-10.4c-.1-.2-.3-.5-.6-.3s4.4,11.8,4.6,12,0-.8,0-1.3m.2-60.5a11.8,11.8,0,0,0-1.3,5.2c0,.3.1.7.5.7s.5-.2.5-.5a22.3,22.3,0,0,1,1.8-4.5c.3-.6-.1-1-.4-1.3s-.8,0-1.1.4m-17.5,35.7v-2.4h-.2c-.3,6.2-.9,12.4-1.2,18.5,1.1-5.2,1.2-10.6,1.4-16.1M99.5,141.1c-.4.3-.3.7-.3,1s.2.7.6.7.5-.4.6-.7-.1-.6.3-.8-.1.9.3,1.2a3.9,3.9,0,0,0,.7-3.1c-.1-.2-.2-.4-.4-.3s-.8-.4-1.1-.8-.4-.8-.9-1.2a5.7,5.7,0,0,0,.4,2.7c.2.5.4.9-.2,1.3m2-37.6a3.3,3.3,0,0,0-1.3-1.3c-.6-.4-1-.3-1,.5a26.2,26.2,0,0,0,.1,2.8,3.9,3.9,0,0,0,.9,2.3c1.3-.9,1.5-1.4.7-2.1s-.8,1.1-1,.1a3.4,3.4,0,0,1,.4-2.2c.4,0,.5.3.7.5s.6.7,1,.3-.2-.6-.5-.9m-7.1,18.8.2.7c.1-1.4.1-1.4-.5-1.9a6,6,0,0,1-2.7-3.7.6.6,0,0,0-.6-.5c-.4.1-.4.4-.4.7a4.1,4.1,0,0,0,3.5,4.2c.2,0,.4.1.5.5m64.9,23.1c.3.6.1,1.4,1,1.7a2,2,0,0,0,.1-1.3c-.4-1.6-1.5-2.5-2.6-3.5a4.8,4.8,0,0,0-3.7-.8.5.5,0,0,0-.5.6c0,.3.3.3.6.3h.6c2.4-.1,3.6.6,4.5,3m-5.2,5.5a1.5,1.5,0,0,0,1.4-1c.1-.3.2-.6-.1-.8a.6.6,0,0,0-.8-.2c-.4.3-.7,0-1-.2l-.9-.6c-.2-.2-.4-.3-.6-.2a.8.8,0,0,0-.3.8,2.5,2.5,0,0,0,2.3,2.2m-47,4.5c.4-.2.3.5.6.4s.7-1.1.9-1.7-.3-1.4-1.2-1.1a3.5,3.5,0,0,0-2.1,2.8c.2.1.5-.2.8,0s.6-.2,1-.4m17.2-21.6c-1.3-3.4-3-6.6-4.6-9.9h-.2l5.2,11.9c.3-.8-.2-1.4-.4-2.1M146.8,154c.3.1.5.3,1,.1a30.1,30.1,0,0,0-6.3-5,16.6,16.6,0,0,0,5.3,4.9M92.3,132.1c-.3-.5-1-.5-1.5-.8a3.3,3.3,0,0,1-1.1,1.9.8.8,0,0,0-.3.8,2.4,2.4,0,0,0,2.3,1.3,2.6,2.6,0,0,1,.6-3.2m65.6,16.2c0-.4.2-1-.3-1.2s-.9.3-1.4.6a2.6,2.6,0,0,1-.3,3.1c-.2.3-.4.7.1.8s1.9-.8,1.7-1.4a6.5,6.5,0,0,1,.2-1.9m-71.2-2.9c.4,0,.4-.3.3-.6a14.6,14.6,0,0,0-2.5,1.3c-.9.4-1.1,3.2-.4,4.3-.1-2.2,1.9-3.2,2.4-5h.2m44.5-7c.4-.2.6.5,1.1.5s-1.4-2.1-2.3-3a.8.8,0,0,0-1.1-.2c-.4.3-.3.7-.1,1.1a4.7,4.7,0,0,0,2.4,2.4c.2-.3-.1-.5,0-.8M111.8,95.3a16.7,16.7,0,0,0-5.8-4.7,2.1,2.1,0,0,0-1.4-.1,19.2,19.2,0,0,1,7.9,6.4,2.6,2.6,0,0,0-.7-1.6m-24.1,31c-1.4,1.6-1.9,4.6-1,6,0-.5.7-.9-.1-1.3s-.2-.4-.1-.6c1.3-1.7,1-4.3,3-5.7a4,4,0,0,0-1.8,1.6m19.9-32.5c-1.4-1.6-2.3-2.3-3.4-2.3,2.2,1.2,3.3,3.3,4.4,5.3.8-.6.7-1.1.2-1.6l-1.2-1.4m27.7,39.4c-.3.2-.2.8-.7,1l-.5-.2c-.3-.2-.6-.3-.9,0s-.2.3-.1.6a.6.6,0,0,0,.8.4c.6-.1,1.3.2,1.8-.5s.3,0,.5,0,.5-.2.7-.4a.8.8,0,0,0-.3-.8c-.3-.3-.7-.3-1.3-.1m-6.1-5.3-4.1-9.5h-.3a5.6,5.6,0,0,1,.4,1.2c1,2.5,2.3,4.9,3.2,7.4a2.4,2.4,0,0,0,.6,1.1c.2.3.3.1.2-.2m-3.3-4.9-1.9-3.8a91.6,91.6,0,0,0,4.6,10.6c-.6-2.3-1.8-4.4-2.7-6.8m22.2-5.2c-.3-.2-.5-.4-.6.1a5.4,5.4,0,0,0,0,1.8.8.8,0,0,0,1.1.5l.9-.5c.4-.4.5-.7-.1-1a2.8,2.8,0,0,1-1.3-.9m-16.4,30.3a17.5,17.5,0,0,0,1.3,2.8c.4-.2.6-.4.5-.6a26,26,0,0,0-2.4-4.7c-.2.9.3,1.6.6,2.5m-18.5,19.2c-.4.2.1.7-.3.9s-1.2-2-2-3a1.6,1.6,0,0,0,.3,1.2c.1.4.5.8.5,1.2s.7,1.4,1.3,2a.7.7,0,0,0,.6.1.8.8,0,0,0,.2-.7l-.6-1.7m17.2-36.6a11.5,11.5,0,0,0,1,3.3,14.5,14.5,0,0,0,.1-3.6c0-.5-.5-.6-.9-.6a1.3,1.3,0,0,0-.2.9m-18,13.8a.7.7,0,0,0-.3-1,.8.8,0,0,0-1.2-.1c-.4.2-.6,1.4-.3,2a1,1,0,0,0,1.2.6c.1-.8-.7-1.3-.6-2.1s.6.4.8.7.2.4.4-.1M101.5,93.4c.2.6.6.4.9.3s.6-.4.8-.1.1.6,0,1-.7.5-1,.8,1.7-.3,1.9-1.3a1.1,1.1,0,0,0-.8-1.3c-.7-.3-1.4-.4-1.8.6M93.1,126c.2-.2.4-.5.6-.6s.6-.9.1-1.5a1.3,1.3,0,0,1-1,.6c-.3.1-.6.2-.6.6s-.4,1-.9,1.3-.6.3-.7.7.8-.5,1.1-.7,1,.1,1.4-.4m48.7-20.8c.1-.3.4-.6,0-.8a2.1,2.1,0,0,0-.3,2.6,1.4,1.4,0,0,0,1.6.1.9.9,0,0,0,.3-1.4c-.3.3-.4.9-1,.7s-.6-.6-.6-1.2M101,91.7c.5-.3,1.2-.3,1.7-.6s-.1-1-.8-.8a3,3,0,0,0-2.1,3.9,2.4,2.4,0,0,1,1.2-2.5m49.6,28.4c-1.6.6-2,1.7-1.4,3-.1-1.9,1.8-1.4,2.4-2.4s-.5-.5-1-.6m-8.9,5.2c-.3,1.1-.1,1.8.6,2s.7.2.7-.3a3.4,3.4,0,0,0-.1-1.4c-.1-.8-.4-.9-1.2-.3m-11-7.9-.4-6.4c0,2.9-.2,5.8,0,8.7h.4v-2.3m2.6,45.6a4.3,4.3,0,0,0,0-3.5c-.2,2.4-.4,4.7-2,6.5a5.7,5.7,0,0,0,2-3m6.3-59.7.2.3a3.1,3.1,0,0,0,2.7-1.1.5.5,0,0,0-.6-.6c-.7.6-1.6.7-2.3,1.4m13.8,28.9c.3-.2.5,0,.8,0a.6.6,0,0,0,.8-.4.4.4,0,0,0,0-.5.8.8,0,0,0-.9-.2l-1.2.6c-.3.1-.6.2-.5.6s.1.3.2.3.5-.2.8-.4m-10.7-13.5c-.7-.2-1.1.1-1.1.8a1.8,1.8,0,0,0,.8,1.6,1,1,0,0,0,.5-1,5.2,5.2,0,0,1-.2-1.4m-32.6,32c-.4.6-1.3,1-.7,2l1-.6a1.3,1.3,0,0,0,.5-1.4c-.1-.3-.4-.3-.8,0m19.1-37a5.1,5.1,0,0,0-.3-2,5.8,5.8,0,0,0-.5,3.1c0,.4.4.3.8.2v-1.3M112.6,151a10.3,10.3,0,0,0-.5-2.4c-.4-1.2-.8-1.3-2-.6a3.2,3.2,0,0,1,1.7,1.1,15.4,15.4,0,0,1,.8,1.9m30.5-21.8c-.1-.3-.2-.7-.6-.5a1.2,1.2,0,0,0-.7,1.4c0,.3.1.7.5.6s.7-.5.8-1.1v-.4m-4,26.3a7.4,7.4,0,0,0-1.7-1.2,3.9,3.9,0,0,0,3.6,2.5l-1.9-1.3m3.8-16.1c-.4.5-.5,1.2,0,1.5s.8-.4,1-.8a.8.8,0,0,0,.1-.9c-.4-.4-.7,0-1.1.2m-43.1-31c-.6-.3-.5.2-.6.5s.6,1.4,1.3,1.8.4-.7,0-1.1a4.7,4.7,0,0,1-.7-1.2m9.4,53.4c.1,2.1.2,2.9.9,3.6a24.3,24.3,0,0,1-.9-7.1,10.3,10.3,0,0,0,0,3.5m-8.8-27.9c.4-.6-.3-1.1-.1-1.7a.4.4,0,0,0-.3-.6q-.4,0-.6.6a1.5,1.5,0,0,0,1,1.7m6.3.1a.8.8,0,0,0,.1,1.1c.4.4.6-.1.8-.2h.3c.3-.1.4-.2.4-.5a.7.7,0,0,0-.4-.5,1.4,1.4,0,0,0-1.2.2m-7.1-16.4c-.7.5-.7,1-.2,1.7s1.1-.5,1.1-1.2-.4-.6-.9-.5m42.6-2.3c-.3-.4-.6-.1-.8.2s-.4,1,.1,1.4,1.3-.5.7-1.6m.1,19.8.9,1.4c.1.1.3.3.5.2a.4.4,0,0,0,.2-.6c-.1-.8-.6-1.1-1.6-1m-.2-26.3c-.4-.2-.7-.1-.8.2a1.3,1.3,0,0,0,.3,1.3c.1.2.3.2.5,0s.5-.6.3-1a1.1,1.1,0,0,1-.3-.5M121,118.6c.2.2.5.5.8.4s.3-.9-.1-1.6-.9.4-.7,1.2m21.4-6.1c-.1-.3.2-.5-.1-.7s-1.4.7-.7,1.5a.9.9,0,0,0,.8-.8m-24.9,6.7c.1.1.1.4.6.5l-1.7-4.3h-.2l1.3,3.7m-17.8,11c.8,0,.8-.5.8-1s-.2-.5-.5-.4a.9.9,0,0,0-.5,1.1l.2.3m-3.6-29.9c-.6,0-.5.4-.5.7s.4.9,1.1.8a1.8,1.8,0,0,0-.6-1.5M121,116c0-.4-.2-.6-.8-.6s-.8.7,0,1.2.7.1.8-.6m-21.8-3.9c.1.4.4.5.7.3s.3-.9.1-1.4a1.2,1.2,0,0,0-.8,1.1M134.5,149c0,.5-.1,1,.7,1.1a1.2,1.2,0,0,0,0-1.3c-.1-.2-.4-.1-.7.2m8.1-16.8c-.7-.1-.7.4-.7.8s.2.6.5.4.6-.5.4-1-.1-.1-.2-.2m-5.9,19.5c.1-.2.3-.4,0-.6h-.5a.9.9,0,0,0-.4,1.3c.4-.1.6-.4.9-.7M142,140c.2-.5.6-.9.5-1.5s-.7-.1-.8.3-.3,1,.3,1.2M99.9,114.3c-.5,0-.6.4-.6.7a.4.4,0,0,0,.2.5.6.6,0,0,0,.6-.1c.5-.4.1-.7-.2-1.1M99,147.5c.2-.3.4-.5.1-.8s-.5.3-.7.5-.4.5-.1.7.4-.1.7-.4m3.4-2.8a4.3,4.3,0,0,1-.1.5c-.1.3-.1.5.2.6a.4.4,0,0,0,.5-.1.5.5,0,0,0,.1-.6c-.1-.2-.2-.5-.7-.4m1-.6c.2.1.5.3.7-.1a1.4,1.4,0,0,0-1.6-.7l.9.8m24.8-9.7a.7.7,0,0,0,1.1-.2.6.6,0,0,0-.8-.5c-.3,0-.3.3-.3.7M92.8,123.5c-.3-.5-.7-.4-1.8.4.7-.2,1.3.1,1.8-.4m35.1,44.2c-.2.2-.5.4-.5.7s.5.1.8,0,.5-.1.4-.4-.3-.4-.7-.3M89.8,130.8h.6a1,1,0,0,0-.7-.8c-.2,0-.4,0-.4.3s.1.3.5.5m53.4-28.9c.3.1.5.3.8.1s.1-.3,0-.4a.5.5,0,0,0-.6-.4c-.3.1-.4.3-.2.7M115.8,88.5c-.7-.3-1,.1-1.1.8s1-.1,1.1-.8m42.9,62.8c.1.1.3.4.5.1s.3-.6-.1-.9-.5.3-.4.8M100.2,146a1.8,1.8,0,0,0-.4,1.1c.7-.2.8-.4.4-1.1m40.8-2.7c.1-.3,0-.5-.3-.5a.5.5,0,0,0-.6.6.6.6,0,0,0,.9-.1m-10.8,25.4c-.6-.2-.8,0-1,.6s.9.1,1-.6M87.4,133.8h-.1c-.1.6.2.9.8,1.2s-.3-.8-.7-1.2m22.7-35.6a1.7,1.7,0,0,0-.4-1.2,2.9,2.9,0,0,1-.2.9c0,.6.2.6.6.3m32.3,49.3a.4.4,0,0,0-.3.6.5.5,0,0,0,.8-.3c.2-.3-.1-.4-.5-.3m10.4-12.6c.6-.1.6-.4.2-.8S152.4,134.4,152.8,134.9Z"/></svg>