<svg xmlns="http://www.w3.org/2000/svg" xmlns:xlink="http://www.w3.org/1999/xlink" viewBox="0 0 216 95"><defs><filter id="a" x="-17.37" y="10.12" width="251" height="75" filterUnits="userSpaceOnUse"><feOffset input="SourceAlpha"/><feGaussianBlur stdDeviation="5.65" result="b"/><feFlood flood-color="#240b35"/><feComposite operator="in" in2="b"/><feComposite in="SourceGraphic"/></filter></defs><rect y="27.8" width="216" height="39.49" style="fill:#b89d7a;filter:url(#a)"/><path d="M165.7,47.5c0-9.7-5.9-18.4-15.5-25-1.8-4.4-5.4-11.8-15.3-12.7S117,11.5,113.6,7.9A74.4,74.4,0,0,1,108,1.7a74.4,74.4,0,0,1-5.6,6.2c-3.4,3.6-10.1.8-21.3,1.9S67.6,18.1,65.8,22.5c-9.6,6.6-15.5,15.3-15.5,25s5.9,18.4,15.5,25c1.8,4.4,5.4,11.8,15.3,12.7s17.9-1.7,21.3,1.9a74.4,74.4,0,0,1,5.6,6.2,74.4,74.4,0,0,1,5.6-6.2c3.4-3.6,10.1-.8,21.3-1.9s13.5-8.3,15.3-12.7C159.8,65.9,165.7,57.2,165.7,47.5Z" style="fill:#fcfbf4"/><path d="M108,91.6l-.3-.3a53.9,53.9,0,0,0-5.3-5.9c-1.4-1.4-3.3-1.7-5.8-1.7H93l-5.4.2a46.3,46.3,0,0,1-5.4-.3c-10.1-.9-13.6-8.8-15.1-12.2-9.6-6.5-14.9-15.1-14.9-24s5.3-17.5,14.9-24c1.5-3.4,5-11.3,15.1-12.2a46.3,46.3,0,0,1,5.4-.3l5.4.2h3.6c2.5,0,4.4-.3,5.8-1.7a53.9,53.9,0,0,0,5.3-5.9l.3-.3.3.3a53.9,53.9,0,0,0,5.3,5.9c1.4,1.4,3.3,1.7,5.8,1.7H123l5.4-.2a46.3,46.3,0,0,1,5.4.3c10.1.9,13.6,8.8,15.1,12.2,9.6,6.5,14.9,15.1,14.9,24s-5.3,17.5-14.9,24c-1.5,3.4-5,11.3-15.1,12.2a46.3,46.3,0,0,1-5.4.3h0l-5.4-.2h-3.6c-2.5,0-4.4.3-5.8,1.7a53.9,53.9,0,0,0-5.3,5.9ZM96.6,83c2.3,0,4.7.2,6.3,1.9s4.4,4.8,5.1,5.6c.7-.8,2.5-2.9,5.1-5.6s4-1.9,6.3-1.9h3.7l5.3.2h0a47.5,47.5,0,0,0,5.4-.3c9.8-.9,13.1-8.6,14.5-11.9h.1c9.5-6.4,14.7-14.8,14.7-23.5S157.9,30.4,148.4,24h-.1c-1.4-3.3-4.7-11-14.5-11.9a47.5,47.5,0,0,0-5.4-.3l-5.3.2h-3.7c-2.3,0-4.7-.2-6.3-1.9s-4.4-4.8-5.1-5.6c-.7.8-2.5,2.9-5.1,5.6s-4,1.9-6.3,1.9H92.9l-5.3-.2a47.5,47.5,0,0,0-5.4.3c-9.8.9-13.1,8.6-14.5,11.9h-.1c-9.5,6.4-14.7,14.8-14.7,23.5S58.1,64.6,67.6,71h.1c1.4,3.3,4.7,11,14.5,11.9a47.5,47.5,0,0,0,5.4.3l5.3-.2Z" style="fill:#baa4a4"/><path d="M108,89.4h-.3l-.6-.7.5-.4c.2.1.3.3.4.4h0l.5.5-.2.3H108Zm1.4-1.4-.5-.5.9-1,.5.4Zm-3.2-.4a4.1,4.1,0,0,0-.9-1l.5-.5.9,1Zm5.1-1.7-.5-.4.9-1,.5.4Zm-6.9-.3-.9-1,.4-.5,1,1Zm8.7-1.6-.5-.5.3-.3.8-.7.4.6-.7.6Zm-10.6-.4-1-.7.3-.6,1.2.8Zm12.8-1.1-.3-.6a7,7,0,0,1,1.4-.3v.6Zm-15-.1L99,82.2v-.7l1.4.2Zm-12,0h-.2v-.7h1.3v.6Zm39.1,0H126v-.6h1.3Zm1.4-.1v-.6h1.3v.7Zm-42.1,0H85.3v-.7h1.4Zm4.1,0v-.7h1.4v.7Zm33.9,0h-1.4v-.6h1.4Zm6.8-.1v-.7h1.3v.7Zm-37.9,0v-.7h1.4v.6Zm-9.7,0H82.6v-.7H84Zm38,0h-1.3v-.7H122Zm-4-.1v-.7h1.4v.7h-1.3Zm-20.3,0H96.3v-.7h1.4Zm36.7-.2v-.6l1.3-.3.2.7Zm-53.1,0-1.4-.4.2-.6,1.3.3Zm55.8-.6-.2-.7,1.2-.5.3.7Zm-58.5-.2-1.3-.6.3-.6,1.2.6Zm61.1-1-.4-.6,1.2-.7.3.6A4.1,4.1,0,0,1,139.6,80.1ZM76,79.9l-1.2-.8.4-.6,1.1.8Zm65.9-1.3-.5-.6,1-.9.5.5Zm-68.2-.4-1-1,.5-.4,1,.9Zm70.1-1.6-.5-.5.8-1,.6.4Zm-72-.4L71,75l.6-.3.8,1Zm73.7-1.9-.6-.3.6-1.2.7.3A7.5,7.5,0,0,0,145.5,74.3Zm-75.2-.4a5.4,5.4,0,0,1-.7-1.3l.6-.3a7.5,7.5,0,0,0,.7,1.2Zm76.5-2-.6-.3a6.9,6.9,0,0,0,.5-1.3l.7.3ZM69,71.4a3.6,3.6,0,0,1-.4-.9h-.2l.4-.6.3.2h.1l.4,1Zm79.3-1.5-.4-.6,1.1-.8.4.6Zm-81-.3-1.1-.8.4-.6,1.1.8Zm83.2-1.4-.5-.5,1.1-.9.4.6Zm-85.4-.3-1-.9.4-.5,1.1.9Zm87.5-1.5-.5-.5,1-.9.5.5Zm-89.5-.3a9.4,9.4,0,0,1-1-1l.5-.5.9,1Zm91.4-1.6L154,64l.9-1,.5.5Zm-93.4-.4-.9-1,.5-.5.9,1.1Zm95.2-1.7-.5-.4.8-1.1.5.4A7.6,7.6,0,0,1,156.3,62.4ZM59.4,62l-.9-1.1.6-.4a10.5,10.5,0,0,1,.8,1.1Zm98.5-1.9-.5-.3a7.5,7.5,0,0,1,.7-1.2l.5.4A4.1,4.1,0,0,1,157.9,60.1ZM57.8,59.7a7.5,7.5,0,0,1-.7-1.2l.6-.3a4.1,4.1,0,0,0,.7,1.1Zm101.5-2-.6-.3.6-1.2.6.3ZM56.5,57.3,55.9,56l.6-.3.6,1.3Zm103.9-2.1-.6-.2c.1-.5.3-.9.4-1.3l.7.2C160.7,54.3,160.6,54.8,160.4,55.2Zm-105-.5L55,53.4l.7-.2a6.5,6.5,0,0,0,.4,1.3Zm105.8-2.2h-.6c.1-.5.1-.9.2-1.3h.7ZM54.7,52l-.3-1.3h.7c.1.4.1.8.2,1.3Zm107-2.2H161c0-.4.1-.9.1-1.3h.7C161.8,48.9,161.7,49.3,161.7,49.8ZM54.3,49.3a7.1,7.1,0,0,1-.1-1.4h.7a5.7,5.7,0,0,0,.1,1.3Zm107.5-1.7h-.7V46.3h.7ZM54.9,46.5h-.7a6.6,6.6,0,0,0,.1-1.4H55C55,45.6,54.9,46.1,54.9,46.5Zm106-1.6a5.9,5.9,0,0,0-.2-1.3h.7a5.9,5.9,0,0,1,.2,1.3Zm-105.7-1-.6-.2a5.9,5.9,0,0,1,.2-1.3h.7Zm105.2-1.6A5,5,0,0,0,160,41l.7-.2.4,1.3ZM55.9,41.2l-.7-.2c.2-.4.3-.8.5-1.3l.6.3C56.2,40.4,56,40.8,55.9,41.2Zm103.7-1.5-.6-1.2.7-.3c.2.4.3.8.5,1.3Zm-102.8-1-.6-.3.6-1.2.6.3Zm101.6-1.4-.6-1.2.6-.4.6,1.2Zm-100.3-1-.6-.3.7-1.2.6.4ZM157,35l-.7-1.1.5-.5a8.3,8.3,0,0,1,.8,1.2Zm-97.4-.9-.6-.4.9-1.1.5.4A7.6,7.6,0,0,0,59.6,34.1Zm95.8-1.3-.8-1,.5-.5.9,1.1ZM61.3,32l-.6-.5,1-1,.5.5Zm92.3-1.2-.9-1,.4-.5a9.4,9.4,0,0,1,1,1ZM63.1,30l-.5-.5,1.1-.9.4.5Zm88.6-1.1-1-.9.4-.5,1,.9Zm-86.6-.7-.4-.6,1.1-.8.4.5Zm84.5-1.1-1.1-.8.4-.5,1.1.8Zm-82.3-.6-.4-.6,1.1-.8.4.6Zm80.1-1-.5-.3h-.1l-.3-.8.6-.2.3.6.4.3Zm-78-.9-.6-.3a6.1,6.1,0,0,1,.5-1.2l.7.3Zm76.5-1.5-.6-1.2.6-.3.6,1.2Zm-75.3-.9-.6-.4.7-1.2.6.4A7.5,7.5,0,0,0,70.6,22.2Zm74-1.4a10.5,10.5,0,0,0-.8-1.1l.5-.4a4.4,4.4,0,0,1,.8,1.1ZM72,19.9l-.5-.4.9-1.1.5.5Zm70.9-1.3-.9-.9.5-.5.9,1Zm-69.1-.7-.5-.5a8.7,8.7,0,0,1,1.1-.9l.4.5ZM141,16.8l-1.1-.7.4-.6,1.1.8Zm-65.1-.6-.4-.6,1.2-.7.3.6Zm62.8-.8-1.2-.6.3-.6,1.2.6Zm-60.5-.5-.2-.6,1.3-.5.2.7Zm58.1-.5-1.3-.3v-.7l1.3.4Zm-55.5-.3-.2-.6,1.4-.3v.7Zm52.8-.3h-1.3V13h1.4Zm-14.6,0h-.4v-.7H120v.7Zm-21.9,0v-.7h1.3v.7Zm-1.4,0H94.3V13h1.3Zm25.7-.1v-.6h1.3v.7Zm-38,0v-.6l1.3-.2v.7Zm33.8,0-1.4-.2.2-.6h1.3ZM93,13.7H91.6v-.7H93Zm37.9-.1h-1.3v-.7H131Zm-6.8,0v-.7h1.4v.7Zm-24.2,0-.2-.7,1.3-.3.2.6Zm-13.8,0v-.7h1.4v.7Zm4.1,0H88.9v-.7h1.3Zm36.7-.1v-.7h1.4v.7Zm-12.4-.4a5.7,5.7,0,0,1-1.3-.8l.5-.5,1.1.7Zm-12-.6-.4-.6.5-.4.5-.5.4.5-.4.5Zm9.8-1.2-1-1,.5-.5.9,1Zm-7.8-.8-.5-.4.9-1,.5.4Zm5.9-1.2-1-1,.6-.5.9,1.1Zm-4-.8-.5-.5.9-1,.5.5Zm2.1-1.2-.8-1h.2l-.3-.2.4-.4.3.3.8.9Z" style="fill:#b89d7a"/><text transform="translate(84.8 63.3)" style="font-size:15.423259735107422px;fill:#414c5e;stroke:#414c5e;stroke-miterlimit:10;stroke-width:0.5px;font-family:KhmerPen-Surin, Khmer Pen-Surin">សុលីណ</text><text transform="translate(70.1 43.6) scale(1.17 1)" style="font-size:16.068580627441406px;fill:#414c5e;stroke:#414c5e;stroke-miterlimit:10;stroke-width:0.5px;font-family:KhmerPen-Surin, Khmer Pen-Surin">សុផរា</text><path d="M140.1,42.9a2.7,2.7,0,0,1,3.6-2.9,3.2,3.2,0,0,1,1.3,5.1c-1.7,2.4-4.8,2.6-7.3,1.6l-2.4-.8a23,23,0,0,1,3.7.2,5.1,5.1,0,0,0,4.8-1.9c2.3-3-3-5-3.7-1.3Z" style="fill:#3c2a1c"/><path d="M138.6,41.2c3.7-.5,2-5.8-1.2-3.7a5.2,5.2,0,0,0-2.1,4.7,22.9,22.9,0,0,1,0,3.7l-.6-2.4c-.9-2.6-.6-5.7,1.9-7.2s6.8,1.3,4.4,4.2a2.2,2.2,0,0,1-2.4.7Z" style="fill:#3c2a1c"/></svg>