<svg xmlns="http://www.w3.org/2000/svg" viewBox="0 0 428 312.2"><defs><style>.a{fill:#c7a754;}</style></defs><path class="a" d="M70.4,87.7a4.7,4.7,0,0,0,4.8-4.6V42.5a4.8,4.8,0,0,0-9.6,0h0V82.9a4.7,4.7,0,0,0,4.6,4.8Z"/><path class="a" d="M56.7,87.7a4.7,4.7,0,0,0,4.8-4.8V42.5a4.9,4.9,0,0,0-9.7-1.4,3.3,3.3,0,0,0,0,1.4V82.9a4.7,4.7,0,0,0,4.8,4.8Z"/><path class="a" d="M88.8,42.5a4.9,4.9,0,0,0-9.7-1.4,3.3,3.3,0,0,0,0,1.4V83h0c.5,11.1-7.7,26.7-13.4,34.5a4.7,4.7,0,0,0-.9,2.8l1.5,149.5c-1.8,2-4.2,2.1-5.9.1l1.7-149.5a5,5,0,0,0-.9-2.9C55.6,109.8,47.5,94.2,48,83a8.8,8.8,0,0,0-.2-1.6v-39A4.9,4.9,0,0,0,38.1,41a3.3,3.3,0,0,0,0,1.4V82.8a5.9,5.9,0,0,0,.2,1.3c0,13.6,8.7,29.8,14.1,37.7L50.7,271.5a4.8,4.8,0,0,0,.7,2.6A14,14,0,0,0,63.2,281a14.2,14.2,0,0,0,12-7.1,5,5,0,0,0,.8-2.6L74.5,121.8c6-8.7,14.8-25.3,14.3-39.1Z"/><path class="a" d="M368.1,281.1h0c-4.6,0-8.9-2.5-11.7-6.9a5,5,0,0,1-.8-2.6l1.8-151.3V32.8a4.9,4.9,0,0,1,1.9-3.9,4.5,4.5,0,0,1,4.2-.7c8.3,2.3,14.9,8.2,19.3,16.9,9,17.8,7.7,46.2-3.4,76.1l1.5,150.2a4.1,4.1,0,0,1-.7,2.6C377.3,278.5,372.9,281.1,368.1,281.1ZM365.3,270c1.8,2,4.2,1.9,6-.1l-1.6-149.5a4.7,4.7,0,0,1,.3-1.7c10.3-27.3,11.9-53.9,4.2-69.3a23.1,23.1,0,0,0-7.2-8.9v79.9Z"/><path class="a" d="M218.5,23.1C150,23.1,94.2,78.8,94.2,147.3S150,271.4,218.5,271.4s124.2-55.7,124.2-124.1A124.3,124.3,0,0,0,218.5,23.1Zm0,238.7c-63.2,0-114.7-51.4-114.7-114.5S155.3,32.8,218.5,32.8a114.5,114.5,0,0,1,0,229Z"/><path class="a" d="M218.5,72.4a74.9,74.9,0,1,0,74.8,75h0A75,75,0,0,0,218.5,72.4Zm0,140a65.2,65.2,0,1,1,65.2-65.2h0A65.4,65.4,0,0,1,218.5,212.4Z"/></svg>