<svg xmlns="http://www.w3.org/2000/svg" viewBox="0 0 173.1 175"><defs><style>.a{fill:#cead4a;}.b{fill:#e1ce8f;}.c{fill:#efead9;}.d{fill:#eee8d3;}.e{fill:#dcc47a;}.f{fill:#e7d9af;}.g{fill:#decb8f;}.h{fill:#f3edd6;}.i{fill:#d9c174;}.j{fill:#d2bf85;}.k{fill:#ddc884;}.l{fill:#e9dcb3;}.m{fill:#dfca88;}.n{fill:#d5b85d;}.o{fill:#f8f5eb;}.p{fill:#ebe2c5;}.q{fill:#fff;}.r{fill:#d3b55b;}.s{fill:#d0b052;}.t{fill:#fefefd;}.u{fill:#fefdfb;}.v{fill:#fcfaf7;}</style></defs><path class="a" d="M124,163.4H68.2a18.5,18.5,0,0,1-2.7-.3l-2.7-.6H60.3l-.3-.3a2.2,2.2,0,0,0-.9-1h-.8l-.6-.2a4.4,4.4,0,0,0-.8-1c-3.8-3.3-6.7-7-6.3-12.4.2-2.6,0-5.1,0-7.6V116.5c0-1.3-.2-2.4-1.6-3a44.9,44.9,0,0,1-6.1-2.3,27.1,27.1,0,0,1-9.5-8,44.6,44.6,0,0,1-6.2-10.8,43.3,43.3,0,0,1-3.4-11.8,28.5,28.5,0,0,0-1.4-4.1,10.3,10.3,0,0,0-.1-1.8,40.4,40.4,0,0,0-.8-4c0-3.1,0-6.2.1-9.5a8.1,8.1,0,0,1,.6-1.3,2.6,2.6,0,0,0,.5-.9c0-1.4-.1-2.5-.1-3.8a13.6,13.6,0,0,1,.2-2.1c.8-3,1.4-5.9,2.1-9a1.1,1.1,0,0,1,.1-.6,5.7,5.7,0,0,0,1-1.3c1.1-2.5,2.1-5.1,3.3-7.6s2.3-4,3.4-6h.2l3.3-4h.1l4-3.1a18.6,18.6,0,0,1,1.9-1.1l6.5-1.9c2-.7,4.1-.3,4.9,1v80.8a7.3,7.3,0,0,0,.4,2.5c.2.5.9.9,1.3,1.3l.9-1.6c0-.8-.1-1.5-.1-2.2s0-.4.2-.6l1.1-1.5c1.1-2.2,2.1-4.5,3.3-6.6s2.2-3.8,3.4-5.7l.8-.7,1.7-2a15.9,15.9,0,0,1,1.3-1.3L70,80.4h.1L72,78.8a3.1,3.1,0,0,1,1.5-.8c1.3-.5,2.9-.5,3.6-2.1h.4l1.8-1.2.4-.3.5-.2h0c.1-.4.1-.6.3-.8A8.6,8.6,0,0,0,79.1,72l-.8-.5a1.5,1.5,0,0,1-.1-.6,37.6,37.6,0,0,0-3.4-3.5v-.2a5.8,5.8,0,0,0-1.2-1,28.4,28.4,0,0,1-2.4-2.6c.2-1.1.2-2,.4-3l3.8-4.4,1.5-1.4,2.2-2.3L80.4,51l1.3-.4a26.6,26.6,0,0,1,3.7-.7l15.2.3c.5,0,1-.6,1.6-1l1.7.4,1.9.7.9.2a10.7,10.7,0,0,1,1.6,1.4l1.2,1.1c.7.8,1.5,1.4,2.2,2.2a5.2,5.2,0,0,0,1.1,1v.2c1,1.4,2.1,2.6,3.2,3.9s1.3,2.8-.1,4.2-5.2,5.1-7.7,7.7a2.7,2.7,0,0,0-.2,2.3,6.9,6.9,0,0,0,2.4,1.4A34,34,0,0,1,125,87c2.6,3.3,5,6.8,6.1,11.1a84.8,84.8,0,0,1,2.1,8.7c.2,1.8.8,2.8,2.5,2.8s2.4,1.2,2.4,2.9V148a13.8,13.8,0,0,1-2.2,7.8,17,17,0,0,1-9.1,6.4l-2.8,1.2M87.3,69.8l-1-1.5v-.8c0-2.4-1.9-3.9-4.5-3.4-.6.1-1.2.9-1.7,1.3l1.7,2.1a10.6,10.6,0,0,1,1.6,1.9,12.6,12.6,0,0,0,1.7,1.3.9.9,0,0,1,.5.4,5.2,5.2,0,0,1,.7,1.1l1.7.6a22.3,22.3,0,0,1-.8-2.4,1.8,1.8,0,0,1,.1-.6m20.4-3.3.5-.3c1.1-1.2.2-1.9-.8-2.1a5.6,5.6,0,0,0-3.4.1c-.9.4-1.3,1.6-1.9,2.7a2.8,2.8,0,0,1-.4,1.2c-.5,1.3-1.1,2.5-1.5,3.8s.4.9.6,1.3l1.3-1.2a4.4,4.4,0,0,1,1.2-.6l4.4-4.9m-2.8-11v-.2c-.7-2.3-2.6-1.7-4.2-1.7s-2,.7-1.5,2.1a6.9,6.9,0,0,0,8.1,4.9c1-.2,1.9-1,1.2-1.9a28.3,28.3,0,0,0-3.6-3.2M54,134.2c0,3.7-.1,7.5.1,11.3s-.2,5.3,1.8,7.4,3.4,4.3,5.6,5.1c5.8,1.9,12,1,18.1.9h33.6c4.3.1,8.4.5,12.6-.6s8.9-5.9,8.9-10.9V116.9c0-2.9-.4-3.4-3.3-3.4h-74c-2.8,0-3.4.6-3.4,3.4v17.3M29.1,86.5c.5,1.5.8,3.1,1.4,4.5,2.1,4.3,4.3,8.6,7.7,12.1s5.9,5.3,9.9,6.2a2.8,2.8,0,0,0,2.1-1.1,4.9,4.9,0,0,0,.4-2.5V26a6.2,6.2,0,0,0-.5-2.7,2.2,2.2,0,0,0-1.8-.8,24.4,24.4,0,0,0-12.2,8.8,56.7,56.7,0,0,0-8.3,18,67.6,67.6,0,0,0-2,14.8,62.2,62.2,0,0,0,3.3,22.4m66,22.9h22.7c1.7,0,2.4-.6,2-2.2a45.6,45.6,0,0,0-2.8-8.1,25.2,25.2,0,0,0-8.4-9.1,27.2,27.2,0,0,0-14.3-4.3,24.6,24.6,0,0,0-15.8,5.4A28,28,0,0,0,69,106.7c-.6,2.2,0,2.7,2.3,2.7H95.1M122.8,91c-2.8-2.7-5.5-5.7-8.6-8s-5.4-3-8.2-4.4-2.8-1.1-4.6.8-1.2,1.8.4,2.5,5.7,2.1,8.1,3.7a32.4,32.4,0,0,1,10.2,10.3,32.9,32.9,0,0,1,3.8,10.3c.6,3.1.8,3.6,3.9,3.1.5,0,1.3-.9,1.2-1.3a29.9,29.9,0,0,0-1.5-7.9,87.8,87.8,0,0,0-4.7-9.1m-58,1.5c-2.9,4.2-4.4,9-5.5,13.8-.1.6,0,1.2-.1,1.7s1.3,1.7,2.2,1.7,2.6-.6,2.9-1.3a61.8,61.8,0,0,0,2.3-7.3c1.3-5,4.3-8.8,8.1-12.1A27.8,27.8,0,0,1,86,82.8c.8-.2,2-1.3,2-2.1s-3-3.3-4.4-2.8a35.1,35.1,0,0,0-6,2.6,36.6,36.6,0,0,0-12.8,12M82.2,56.6A8.3,8.3,0,0,0,80.9,58c-.3.4-.8,1.1-.6,1.5s1,.6,1.5.7a5.4,5.4,0,0,0,6-2.9,14.7,14.7,0,0,0,.8-3c-1.2-.1-2.4-.5-3.4-.1s-1.9,1.4-3,2.4m15.1,8.6c-1.4-1.5-3.3-.6-4.9-.7s-2,.8-1.5,2.3,1.3,4.2,2,6.3c.2.5.8,1.3,1,1.2a3.3,3.3,0,0,0,1.6-1.2,11.5,11.5,0,0,0,.9-2.8,35.9,35.9,0,0,0,.9-5.1M95.4,60a1.6,1.6,0,0,0-.4-2.9c-.5-.2-1.4-.3-1.7,0a4.3,4.3,0,0,0-1.1,2.1c-.1.3,1,.8,1.5,1A5.6,5.6,0,0,0,95.4,60Z"/><path class="b" d="M126.9,162.3a17.9,17.9,0,0,0,9-6.5,13.8,13.8,0,0,0,2.2-7.8V112.5c0-1.7-.2-2.9-2.4-2.9s-2.3-1-2.5-2.8a84.8,84.8,0,0,0-2.1-8.7c-1.1-4.3-3.5-7.8-6.1-11.1a34,34,0,0,0-14.6-11.1,6.9,6.9,0,0,1-2.4-1.4,2.7,2.7,0,0,1,.2-2.3c2.5-2.6,5.1-5.1,7.7-7.7s1.4-2.7.1-4.2a37.9,37.9,0,0,1-3.1-3.9,39.2,39.2,0,0,1,3.7,3.4c1.7,1.8,1.8,3.4.2,5.3a12.4,12.4,0,0,0-1.4,1.8h-.2a5.2,5.2,0,0,0-1,1.1h-.1l-1,1.1H113l-1,1.1h-.1l-1,1.1h-.2c-.6.5-1.3.8-1.6,1.4a1.8,1.8,0,0,0,.3,1.6c3,1.7,6,3.2,9,5l3.7,2.9h.2l1.2,1h.1l1,1v.2l1.2,1.3h0c1.2,2,2.4,3.7,3.7,5.5h0a4.6,4.6,0,0,0,.7.7,2.6,2.6,0,0,0,.1.7,24.9,24.9,0,0,0,1.3,3.6c.6,1.7,1.3,3.3,2,4.9s.1.5.1,1.1a32.5,32.5,0,0,0,.7,3.8c.4,2.5.5,2.6,3,2.5a1.8,1.8,0,0,1,.9.2l1.2,1.4V136c0,4.8,0,9.5-.1,14.5a22.2,22.2,0,0,0-.9,2.8,4.2,4.2,0,0,0-.2.6l-1,1.3a1.8,1.8,0,0,1-.1.6l-3.7,4.5h-.3c-1.5.7-2.8,1.5-4,2.2h-.8l-2.2.3Z"/><path class="c" d="M64.7,85.1a1.7,1.7,0,0,1-.7.8,31.4,31.4,0,0,0-4,5.2c-1.5,2.8-2.6,5.7-3.9,8.6a1.5,1.5,0,0,1-.1.6c-1.6.1-.8-1-.8-1.5q-.2-38.2-.1-76.5V20.5c-.1-1.8-1.1-3-2.9-2.9a17.3,17.3,0,0,0-5.1.5A46.1,46.1,0,0,0,42,20.3a7.1,7.1,0,0,1-1.7,1.1,44.7,44.7,0,0,0-4.1,3.2H36c-1.2,1.3-2.2,2.7-3.3,4h-.1l-1.2.5h-.1A30.1,30.1,0,0,1,34,24.8,27.1,27.1,0,0,1,43.7,18c2.7-1.2,6-2.2,9.3-1.6,1.7.3,3.2,2.6,3.2,4.6V94.6l.4.2,1.1-1.6c2.7-4.4,5.2-8.9,9.6-12,.2,0,.3.1.3.2s.1.3.2.5l-1.3,1.3Z"/><path class="d" d="M115.5,66.9a7.5,7.5,0,0,1,1.3-1.8c1.6-1.9,1.5-3.5-.2-5.3l-3.7-3.6c-.1,0-.1,0-.1-.1l-1.1-1a22.8,22.8,0,0,1-2.2-2.2,5.7,5.7,0,0,0-1.2-1.1l-1.6-1.4-1.5-1h-1.3l-1.9-.2L95.7,49c.1-.7.3-1.2.4-1.8a1.6,1.6,0,0,1,.4-.7,5.4,5.4,0,0,0,1-1.8A7.7,7.7,0,0,0,96,38.8c.6.5,1.7,1,1.8,1.6a27.4,27.4,0,0,1,.3,5,18.3,18.3,0,0,1-.2,2.1h7.3c-.3-3.2.3-6.3,2.6-8.4s3-.8,4.3-.3,1.8,2.6,1.5,4.2a9.4,9.4,0,0,1-3,5.1,24,24,0,0,1-2.6,1.8l4.8,4.4a2.3,2.3,0,0,0,1.5-.4,20.9,20.9,0,0,1,1.4-1.7c.1,0,.2,0,.1.1s-.6,1.1-.6,1.5-.2,2.3.4,2.9a3.1,3.1,0,0,0,2.8.7c1-.4,1.7-1.5,2.6-2.3h.1l.8-.8a4.2,4.2,0,0,1,.6-.8,6.9,6.9,0,0,0,.4-1h.2a9.9,9.9,0,0,0-.2-1.7v-.3l-1.7-1.3h-1l-2.1.8H118c1.2-2.4,2.5-2.7,4.6-1.3s2.6,5-.3,6.8c-.8.5-1.3,1.5-2,2.2s-1.4.6-1.9,1.1a1.5,1.5,0,0,0-.5,1.2c2,3.8.5,5.1-2.4,7M110.4,47a39.9,39.9,0,0,0,1.9-5.5c.2-.7-.7-1.9-1.4-2.2a2.6,2.6,0,0,0-2.4.6,24.2,24.2,0,0,0-2.4,4.5,2.2,2.2,0,0,0,.9,3.2A2.3,2.3,0,0,0,110.4,47Z"/><path class="e" d="M22.5,76.6a37,37,0,0,1,1.3,4,43.3,43.3,0,0,0,3.4,11.8,44.6,44.6,0,0,0,6.2,10.8,27.1,27.1,0,0,0,9.5,8,44.9,44.9,0,0,0,6.1,2.3c1.4.6,1.6,1.7,1.6,3V140c0,2.5.2,5,0,7.6-.4,5.4,2.5,9.1,6.3,12.4a2.6,2.6,0,0,1,.7,1,2.9,2.9,0,0,1-1.4-.5l-4-3.5h0c-2.6-4.2-2.8-8.8-2.7-13.4.1-8.8,0-17.7,0-26.5,0-1.5-.2-2.7-1.8-3-5.3-1.1-9.4-4.1-13-7.8s-8-11.3-10.1-18.1c-.8-2.6-1.5-5.4-2.2-8.1v-.8A20.9,20.9,0,0,1,22.5,76.6Z"/><path class="c" d="M22.2,80.1c.9,2.6,1.6,5.4,2.4,8,2.1,6.8,5.2,13,10.1,18.1s7.7,6.7,13,7.8c1.6.3,1.8,1.5,1.8,3,0,8.8.1,17.7,0,26.5-.1,4.6.1,9.2,2.7,13.3a5.5,5.5,0,0,1-1.7-1.7,7.7,7.7,0,0,1-1.7-5.1V118.4c0-2.7-.9-3.5-3.4-4.2s-5.3-1.6-7.3-3.7-4.7-4.4-6.7-6.9-4.7-6.2-5.8-10.1c-.5-1.7-1.5-3.2-2-4.9S21.3,83.2,22.2,80.1Z"/><path class="d" d="M81.5,50.6l-1.3.4h-.5l.3-1.2a8.6,8.6,0,0,1-4.7-8.6c.1-.9.9-2.4,1.8-2.6a4.3,4.3,0,0,1,3.5.4,4.9,4.9,0,0,1,2.5,4.8,16.5,16.5,0,0,0,.4,3.6h7c0-1.8-.1-3.7,0-5.6s.7-3.3,2.8-3.7c.2.3.2.5,0,.7l-1,1.4s0-.1-.2,0a16.4,16.4,0,0,0-.5,3.7,12.5,12.5,0,0,0,.7,3.1,3,3,0,0,1,.4.8l-2.4,1.3H84.1l-1.2.4a8.7,8.7,0,0,0-1.4,1.2M79,39.1c-2,.1-3.4,1.6-2.9,3.1A37.1,37.1,0,0,0,78,46.8a2.1,2.1,0,0,0,3,1.1,3.3,3.3,0,0,0,1.5-2.4C82.1,43.1,81.6,40.6,79,39.1Z"/><path class="f" d="M71.1,63.6l2.5,2.7,1.2,1.1h0L78.2,71v.4a5.4,5.4,0,0,1-1.9-.8c-1.7-1.6-3.3-3.3-4.9-5s-2.5-3.8-.1-6.3l.7-.8c-3.5.3-4.6-2.8-6.7-4.3s-.8-4,.1-5,3.1-1.5,4.8,0A7,7,0,0,1,71.5,51a1.5,1.5,0,0,1,.2.8,20.9,20.9,0,0,1-2.2-1.6c-1-.8-1.9-1.1-2.9,0a2.4,2.4,0,0,0-.2,3.3L67.7,55c1.4,1.7,3.3,2.5,4.5,1.7s.9-2.7.5-4.2h.6c.2,0,.3.1.4.4s.2,2.6.3,3.7l1.3-.3c-1.2,1.4-2.4,2.8-3.9,4.3S70,62.6,71.1,63.6Z"/><path class="c" d="M24.9,43.5a.8.8,0,0,1-.2.6,14.7,14.7,0,0,0-.9,1.7l-1.5,5.9c-.4-1.9-.7-3.7.5-5.5A13.8,13.8,0,0,0,24,42.8c1-2.5,1.7-5.1,2.9-7.5A41.4,41.4,0,0,1,31.2,29c.1,0,.1.1.1.2-1.6,3.3-3.3,6.4-4.8,9.6A29,29,0,0,0,24.9,43.5Z"/><path class="d" d="M118.4,79.3l-9-4.9a1.8,1.8,0,0,1-.3-1.6c.3-.6,1-.9,1.6-1.4a11.2,11.2,0,0,1-1,2.4c3.5.7,6.1,2.6,8.6,5.1A.8.8,0,0,1,118.4,79.3Z"/><path class="c" d="M73.4,77.9l-1.6.9L70,80.4h-.1l-2.3.9h-.2a8,8,0,0,1,1.5-2c1.9-1.4,3.8-2.6,5.7-3.8.2-.2.5,0,.9.2a.6.6,0,0,1-.1.7Z"/><path class="c" d="M52.2,157.1l4,3.4a4.5,4.5,0,0,0,1.4.6c.3,0,.4.1.7.3l1,.8.3.2c-.3.2-.8.6-1,.5C56,161.6,53.2,160.5,52.2,157.1Z"/><path class="g" d="M93.5,38.7v-.6l2.4.6a7.7,7.7,0,0,1,1.6,6,4.2,4.2,0,0,1-1,1.7.8.8,0,0,1,0-.7c.1-1.6,1-3.1-.4-4.5a20.9,20.9,0,0,0-2-2.2C93.9,38.8,93.7,38.8,93.5,38.7Z"/><path class="c" d="M22.7,53.2a20.6,20.6,0,0,1-.2,2.1l-1.3,3.9c-.5-2.3-.6-4.6,1-6.6A1.3,1.3,0,0,1,22.7,53.2Z"/><path class="g" d="M22.8,53.1l-.5-.5v-.7l1.5-6.1a8.9,8.9,0,0,1,.9-1.6C24.2,47.2,23.6,50.1,22.8,53.1Z"/><path class="c" d="M22.4,76.5a22.6,22.6,0,0,1-.1,2.6c-1.7-.3-1-1.8-1.3-2.9a7.9,7.9,0,0,1,.2-3.4,7.8,7.8,0,0,1,1.1,2A8.6,8.6,0,0,1,22.4,76.5Z"/><path class="h" d="M133.7,101.5a34.8,34.8,0,0,1-2.1-4.8,28.4,28.4,0,0,1-1.3-3.5,6.2,6.2,0,0,1,1.7,2.2A42.4,42.4,0,0,1,133.7,101.5Z"/><path class="h" d="M137.4,108.8c-2.5.3-2.6.2-3-2.3a34.9,34.9,0,0,1-.7-3.7,9.5,9.5,0,0,1,1.4,2.4,8.1,8.1,0,0,1,0,2.2Z"/><path class="h" d="M75.4,56.2l-1.4.4q-.1-1.6-.3-3.6l1.6,1.9,1.3-.5.2.4A18.5,18.5,0,0,1,75.4,56.2Z"/><path class="h" d="M129.5,91.5c-1.3-1.7-2.5-3.4-3.7-5.3C127.9,87.2,128.9,89.1,129.5,91.5Z"/><path class="g" d="M21.2,59.3c.4-1.4.8-2.6,1.3-3.9a20.7,20.7,0,0,1,.1,3.6c-.3.4-.4.7-.6.9a2.5,2.5,0,0,1-.4,1.1A7.1,7.1,0,0,1,21.2,59.3Z"/><path class="h" d="M133.7,160.3c1-1.5,2.2-2.9,3.4-4.4C136.9,158,135.5,159.3,133.7,160.3Z"/><path class="h" d="M118.4,79.4V79c1.2.9,2.4,2,3.7,3.1Z"/><path class="h" d="M129.2,162.7a36.4,36.4,0,0,1,3.9-2.3C132.6,162.2,131.1,162.8,129.2,162.7Z"/><path class="c" d="M60.3,162.6a3.6,3.6,0,0,1,1.7.2l1.3.9C62,164.3,60.9,164.3,60.3,162.6Z"/><path class="g" d="M22.3,74.7l-1-2a12.1,12.1,0,0,1,.1-1.9A20.4,20.4,0,0,1,22.3,74.7Z"/><path class="c" d="M65.6,163.3l2.4.2a21.7,21.7,0,0,1-3.8.3c-.1-.2-.1-.4,0-.4Z"/><path class="h" d="M126.2,163l2.1-.3c-.4,1.4-1.5,1.6-2.8.8Z"/><path class="c" d="M80.2,74.2l-.5.2a3.2,3.2,0,0,1-.6-1.8l1.3.7a4.5,4.5,0,0,0-.2.8Z"/><path class="c" d="M77.4,75.9H76.3v-.3c.3-.9.6-1.7,1.8-1A9.1,9.1,0,0,1,77.4,75.9Z"/><path class="h" d="M138.6,153.3a8.7,8.7,0,0,1,.8-2.6A15.3,15.3,0,0,1,138.6,153.3Z"/><path class="f" d="M76.9,54.8a.5.5,0,0,1-.2-.4,10.7,10.7,0,0,1,1.8-1.9H79A21.9,21.9,0,0,1,76.9,54.8Z"/><path class="e" d="M126.2,162.9l-.7.5h-1.4l2.7-1.2Z"/><path class="i" d="M77.5,75.9a3.7,3.7,0,0,1,.7-1.2,1.7,1.7,0,0,1,1,0Z"/><path class="h" d="M79.1,52.5h-.5a4.4,4.4,0,0,1,1-1.5h.5A4.4,4.4,0,0,1,79.1,52.5Z"/><path class="h" d="M73.3,52.4c-.1.1-.3.1-.7,0a2.8,2.8,0,0,1-.8-.6,3.6,3.6,0,0,0-.3-.7A6.8,6.8,0,0,1,73.3,52.4Z"/><path class="h" d="M125.8,85.9l-1.2-1.2A3.4,3.4,0,0,1,125.8,85.9Z"/><path class="i" d="M80.5,73.3l-1.3-.7a.9.9,0,0,1-.1-.5A5.3,5.3,0,0,1,80.5,73.3Z"/><path class="b" d="M64.1,163.4v.3h-.7l-1.2-.9c.1-.2.3-.2.7-.1Z"/><path class="h" d="M139.5,110.5a5,5,0,0,1-1.1-1.3A3.6,3.6,0,0,1,139.5,110.5Z"/><path class="h" d="M137.5,155.2a2.8,2.8,0,0,1,.8-1.2A4.2,4.2,0,0,1,137.5,155.2Z"/><path class="d" d="M116.9,51l1-1.1c.1,0,.2,0,.1.2a9.4,9.4,0,0,1-1,1Z"/><path class="d" d="M114.4,68.1a2.1,2.1,0,0,1,.8-1.1A3.3,3.3,0,0,1,114.4,68.1Z"/><path class="d" d="M111,71.4a4.4,4.4,0,0,1,.9-1.1A4.4,4.4,0,0,1,111,71.4Z"/><path class="d" d="M112.1,70.3a4.4,4.4,0,0,1,.9-1.1A2.9,2.9,0,0,1,112.1,70.3Z"/><path class="d" d="M113.3,69.2a2.6,2.6,0,0,1,.8-1.1A3.3,3.3,0,0,1,113.3,69.2Z"/><path class="h" d="M123.5,83.3a5.9,5.9,0,0,1-1.1-.8A2.1,2.1,0,0,1,123.5,83.3Z"/><path class="d" d="M115.8,52.1a5,5,0,0,1,1-1.1c.1,0,.1,0,.1.2l-1,1Z"/><path class="h" d="M124.6,84.4a4.1,4.1,0,0,1-1-.9A4.1,4.1,0,0,1,124.6,84.4Z"/><path class="e" d="M59.7,162.4c-.2,0-.2-.1-.4-.3a3.4,3.4,0,0,1-.1-.9,3.6,3.6,0,0,1,.8.9C59.9,162.3,59.8,162.3,59.7,162.4Z"/><path class="f" d="M76.2,75.5c.1,0,.1.1.1.4l-.7.4v-.6C75.7,75.5,75.9,75.5,76.2,75.5Z"/><path class="h" d="M130.2,92.3a1.9,1.9,0,0,1-.7-.6A1.9,1.9,0,0,1,130.2,92.3Z"/><path class="j" d="M54,134V116.9c0-2.8.6-3.4,3.4-3.4h74c2.9,0,3.3.5,3.3,3.4v30.5c0,5-4.1,9.6-8.9,10.9s-8.3.7-12.6.6H79.6c-6.1.1-12.3,1-18.1-.9-2.2-.8-3.9-3.3-5.6-5.1s-1.7-4.9-1.8-7.4S54,137.9,54,134m60.1-18.8H58.3c-2.6,0-2.9.3-2.9,2.9v13.3c.1,3.1.3,6.3.3,9.5,0,1.4-.1,2.8-.2,4.2-.8,6.5,3.5,12.4,10.4,12.4h55.7a23.4,23.4,0,0,0,5.2-.8c3.3-.9,6.5-5.1,6.5-8.6,0-10.3,0-20.7.1-31.1,0-1.5-.6-1.8-2-1.8Z"/><path class="k" d="M29.1,86.3a60.5,60.5,0,0,1-3.3-22.2,67.6,67.6,0,0,1,2-14.8,56.7,56.7,0,0,1,8.3-18,24.4,24.4,0,0,1,12.2-8.8,2.2,2.2,0,0,1,1.8.8,6.2,6.2,0,0,1,.5,2.7v79.7a4.9,4.9,0,0,1-.4,2.5,2.8,2.8,0,0,1-2.1,1.1c-4-.9-7.1-3.3-9.9-6.2S32.6,95.3,30.5,91a44.1,44.1,0,0,1-1.4-4.7M48.9,42.6V25.9c0-1.9-.4-2.1-2.2-1.4-6.6,2.7-10.5,8-13.5,13.9s-4.4,9.2-4.8,14.5c-.2,3.4-.9,6.8-1.2,10.2-.4,5.4.6,10.6,1.4,15.8a11.2,11.2,0,0,0,.3,3.2c.8,2.6,1.9,5.1,2.8,7.7a33.2,33.2,0,0,0,9,13.9,14.7,14.7,0,0,0,8.2,4.2Z"/><path class="l" d="M94.9,109.4H71.3c-2.3,0-2.9-.5-2.3-2.7a28,28,0,0,1,9.5-15.6,24.6,24.6,0,0,1,15.8-5.4A27.2,27.2,0,0,1,108.6,90a25.2,25.2,0,0,1,8.4,9.1,45.6,45.6,0,0,1,2.8,8.1c.4,1.6-.3,2.2-2,2.2H94.9m-11.7-1.1H107c3.2,0,6.4.1,9.7,0,.5,0,1.6-.6,1.6-1a7.8,7.8,0,0,0-.5-3.4c-2.2-4.8-4.8-9.3-9.5-12.3a24.3,24.3,0,0,0-11.2-4.2C92,87,87,87.4,82.6,90.1A33.7,33.7,0,0,0,74.9,97a17.8,17.8,0,0,0-4.1,8.9c-.3,2.1-.4,2.4,1.8,2.4Z"/><path class="l" d="M122.9,91.1a95.7,95.7,0,0,1,4.6,9A29.9,29.9,0,0,1,129,108c.1.4-.7,1.3-1.2,1.3-3.1.5-3.3,0-3.9-3.1a32.9,32.9,0,0,0-3.8-10.3,32.4,32.4,0,0,0-10.2-10.3c-2.4-1.6-5.4-2.4-8.1-3.7s-1.7-1.2-.4-2.5,2.2-2,4.6-.8,5.8,2.5,8.2,4.4,5.8,5.3,8.7,8.1m-9-4.2c1.6,1.7,3.4,3.3,4.8,5.1a30.9,30.9,0,0,1,6.7,14.7c.1.6.9,1.1,1.3,1.6s1-1.5.9-2.1-.9-3.5-1.3-5.2a23.8,23.8,0,0,0-5.5-10.4,35.6,35.6,0,0,0-14.3-10.8c-2.2-.9-3.4-.7-4,.8Z"/><path class="m" d="M64.8,92.4A37.3,37.3,0,0,1,77.6,80.5a35.1,35.1,0,0,1,6-2.6c1.4-.5,4.5,1.4,4.4,2.8s-1.2,1.9-2,2.1A27.8,27.8,0,0,0,74.7,89c-3.8,3.3-6.8,7.1-8.1,12.1a61.8,61.8,0,0,1-2.3,7.3c-.3.7-1.9,1.2-2.9,1.3s-2.2-.1-2.2-1.7,0-1.1.1-1.7a40.4,40.4,0,0,1,5.5-13.9m-3,8.7c-.5,2.1-1,4.1-1.4,6.3s.4,1.6,1.4,1.6,2-1.1,2.2-2.3a28.4,28.4,0,0,1,3.6-10.6c3.5-6,8.1-10.5,14.7-12.9l4.6-2c-1.4-2.3-2.1-2.7-4.2-1.8A26.9,26.9,0,0,0,77,82C69.9,86.6,64.5,92.6,61.8,101.1Z"/><path class="g" d="M42.2,20.4a24.5,24.5,0,0,1,4.9-2.3,17.3,17.3,0,0,1,5.1-.5c1.8-.1,2.8,1.1,2.9,2.9v1.8q0,38.3.1,76.5c0,.5-.8,1.6.8,1.6a4.9,4.9,0,0,1,0,2.1c-2,.3-1.6-1.1-1.6-2.1V21.8a9,9,0,0,0-.8-2.5c-.8-1.1-2.9-1.5-4.9-.8Z"/><path class="n" d="M53.6,19.5a6.3,6.3,0,0,1,.8,2.3v78.6c0,1-.4,2.4,1.6,2.3a6.1,6.1,0,0,1-.7,1.4c-.4-.4-1.1-.8-1.3-1.3a7.3,7.3,0,0,1-.4-2.5Z"/><path class="h" d="M82.3,56.5c1-.9,1.8-2,2.9-2.3s2.2,0,3.4.1a14.7,14.7,0,0,1-.8,3,5.4,5.4,0,0,1-6,2.9c-.5-.1-1.3-.3-1.5-.7s.3-1.1.6-1.5A9.2,9.2,0,0,1,82.3,56.5Z"/><path class="l" d="M97.4,65.4c-.3,1.7-.6,3.3-1,4.9a11.5,11.5,0,0,1-.9,2.8,3.3,3.3,0,0,1-1.6,1.2c-.2.1-.8-.7-1-1.2-.7-2.1-1.3-4.2-2-6.3s0-2.4,1.5-2.3,3.5-.8,5,.9m-1.3,1.7A2.3,2.3,0,0,0,92.9,66c-.4.2-.5,1.3-.4,2a14.2,14.2,0,0,0,1,2.9,2.8,2.8,0,0,0,.7.9c.2-.3.6-.6.7-1S95.7,68.5,96.1,67.1Z"/><path class="e" d="M104.9,55.6a21.7,21.7,0,0,1,3.6,3.1c.7.9-.2,1.7-1.2,1.9a6.9,6.9,0,0,1-8.1-4.9q-.7-2.1,1.5-2.1c1.6,0,3.5-.6,4.1,1.8l-3.7-.6c-.2,0-.9.9-.8,1.1,1.1,3.2,3.9,4.4,7.4,3.2Z"/><path class="i" d="M81.7,50.6A2.5,2.5,0,0,1,83,49.5l1.1-.4h6.3a46,46,0,0,0,5.3-.1h6.2c-.3.4-.8,1-1.3,1l-15.2-.3A26.6,26.6,0,0,0,81.7,50.6Z"/><path class="o" d="M86.2,67.8a1.3,1.3,0,0,1,.1.7,4.1,4.1,0,0,1-.1,1.2,6.7,6.7,0,0,0-.6,1.2l-.6-.3-1.5-1.5a15.3,15.3,0,0,1-1.8-1.8,2.2,2.2,0,0,1-.1-1.1c.2-.3.2-.5.5-.7h1.4l1,.2c0,.1.1,0,.1.2a4.9,4.9,0,0,0,1.1,1.4Z"/><path class="g" d="M25,43.5a21.4,21.4,0,0,1,1.5-4.7c1.5-3.2,3.2-6.3,4.9-9.5l1.2-.7c-1,2-2.3,4-3.3,6s-2.2,5.1-3.3,7.6A5.7,5.7,0,0,1,25,43.5Z"/><path class="g" d="M56.3,99.7A71.9,71.9,0,0,1,60,91.1,31.4,31.4,0,0,1,63.9,86c-1,1.8-2.2,3.7-3.2,5.6s-2.2,4.4-3.3,6.6Z"/><path class="f" d="M95.3,60a4.7,4.7,0,0,1-1.6.2c-.5-.2-1.6-.7-1.5-1a4.3,4.3,0,0,1,1.1-2.1c.3-.3,1.2-.2,1.7,0A1.6,1.6,0,0,1,95.3,60Z"/><path class="l" d="M102,68.1a3.2,3.2,0,0,1,.2-1.3l1-1.1c1.1-1.1,4-.8,4.8.6l-.5.3-1,.3c-.6-.5-1.4-1.1-1.6-1a5.8,5.8,0,0,0-2.1,2.3c-.3.6-1.1,1.7.4,2.4a2.5,2.5,0,0,0-.1.8l-1.2.7C100.5,70.7,101.7,69.4,102,68.1Z"/><path class="k" d="M83.4,65.5H82a2.9,2.9,0,0,0-1.1.3l.6.6c0,.2.1.5.1.9l-1.5-1.8c.5-.4,1.1-1.2,1.7-1.3,2.6-.5,4.5,1,4.5,3.6a.7.7,0,0,1-.6-.4l-1.1-1.5s-.1.1-.1-.1Z"/><path class="i" d="M108.1,66.2c-.9-1.3-3.8-1.6-4.9-.5l-1,1c.5-.9.9-2.1,1.8-2.5a5.6,5.6,0,0,1,3.4-.1C108.4,64.3,109.3,65,108.1,66.2Z"/><path class="i" d="M103.2,71.4a1.4,1.4,0,0,1,0-.9h.1l2.9-3c.2-.2.3-.2.3-.4l1-.3Z"/><path class="i" d="M101.8,68.1c-.1,1.3-1.3,2.6.1,4.1l-1.1,1c-.2-.4-.7-1-.6-1.3A30.8,30.8,0,0,1,101.8,68.1Z"/><path class="g" d="M32.9,28.6a36,36,0,0,1,3.1-4C35.1,25.9,34,27.2,32.9,28.6Z"/><path class="g" d="M36.3,24.6l3.8-3.2A42.6,42.6,0,0,1,36.3,24.6Z"/><path class="i" d="M75.4,76.3l.9-.3h.6c-.5,1.6-2.1,1.6-3.4,2.1A10.5,10.5,0,0,1,75.4,76.3Z"/><path class="i" d="M78.2,70.9c-1.1-1-2.2-2.1-3.4-3.4A27.3,27.3,0,0,1,78.2,70.9Z"/><path class="k" d="M87.2,70.7l.8,2.1a3.6,3.6,0,0,1-1.5-.8Z"/><path class="p" d="M87.2,70.5a6.1,6.1,0,0,1-.7,1.4,2,2,0,0,1-.9-.9,3.3,3.3,0,0,1,.7-1.3l.9.3Z"/><path class="i" d="M70.1,80.4a8.6,8.6,0,0,1,1.7-1.5A8.6,8.6,0,0,1,70.1,80.4Z"/><path class="i" d="M67.6,81.4l2.3-1a11.5,11.5,0,0,1-2,1.5C67.7,81.7,67.6,81.6,67.6,81.4Z"/><path class="i" d="M71.2,63.6c-1.2-1-.8-1.9.2-2.9A15.2,15.2,0,0,1,71.2,63.6Z"/><path class="e" d="M64.2,163.4l-1.2-.7a12.3,12.3,0,0,1,2.5.5A2.4,2.4,0,0,1,64.2,163.4Z"/><path class="g" d="M64.9,85.2a9,9,0,0,1,1.5-1.9Z"/><path class="k" d="M87.2,69.9a1.3,1.3,0,0,1-.8-.3,2.5,2.5,0,0,1-.1-.9A2.3,2.3,0,0,1,87.2,69.9Z"/><path class="k" d="M83.5,69.3a5.5,5.5,0,0,1,1.4,1.3A5.7,5.7,0,0,1,83.5,69.3Z"/><path class="i" d="M103.9,49.6a1.7,1.7,0,0,1,1.4,0l.4.6A6.4,6.4,0,0,1,103.9,49.6Z"/><path class="i" d="M74.8,67.2a3.3,3.3,0,0,1-1.1-.8A2.6,2.6,0,0,1,74.8,67.2Z"/><path class="b" d="M105.8,50.3a2.5,2.5,0,0,1-.4-.7,5.2,5.2,0,0,1,1.2.7A1.1,1.1,0,0,1,105.8,50.3Z"/><path class="b" d="M108.3,51.9a2.9,2.9,0,0,1,1.1.9A4.4,4.4,0,0,1,108.3,51.9Z"/><path class="b" d="M111.7,55.2l1.1.9A3.1,3.1,0,0,1,111.7,55.2Z"/><path class="b" d="M59.1,161.2a2.2,2.2,0,0,1,.1.9l-.8-.7C58.6,161.2,58.7,161.2,59.1,161.2Z"/><path class="n" d="M22.2,59.9a1.2,1.2,0,0,1,.4-.8C22.6,59.4,22.4,59.6,22.2,59.9Z"/><path class="q" d="M80.2,74.2Z"/><path class="r" d="M110.3,47.1a2.5,2.5,0,0,1-4.2-2.7,24.2,24.2,0,0,1,2.4-4.5,2.6,2.6,0,0,1,2.4-.6c.7.3,1.6,1.5,1.4,2.2A34.4,34.4,0,0,1,110.3,47.1Z"/><path class="a" d="M96.4,45.8v.6a3,3,0,0,1-.4.8,13.5,13.5,0,0,1-3.3.4l-.4-.7V40.1a.1.1,0,0,0,.1.1l1.8-1.1a14.4,14.4,0,0,1,1.9,2.2C96.2,43,96.3,44.4,96.4,45.8Z"/><path class="a" d="M122.9,50.6v1.9h-.1a2.5,2.5,0,0,0-.4,1.1l-.7.7a1.7,1.7,0,0,0-.7.8h-.2a11.2,11.2,0,0,1-1.5,1.1,6.2,6.2,0,0,1-2.7.1c-.3,0-.8-.9-.8-1.4s3-4.3,4.6-4.7h1.1Z"/><path class="b" d="M120.2,50.2c-1.4.4-4.4,3.4-4.4,4.7s.5,1.4.8,1.4a6.2,6.2,0,0,0,2.7-.1,11.2,11.2,0,0,0,1.5-1.1c-.7.8-1.4,1.9-2.4,2.3a3.1,3.1,0,0,1-2.8-.7c-.6-.6-.4-1.9-.4-2.9s.4-.9.6-1.5l1.2-1.1a11.4,11.4,0,0,1,1.1-1.1,8.4,8.4,0,0,1,2-.8A3.4,3.4,0,0,1,120.2,50.2Z"/><path class="f" d="M92.7,47.8l3.3-.5a15.5,15.5,0,0,1-.3,1.7,29,29,0,0,1-5.1.2Z"/><path class="b" d="M122.9,50.5a2.5,2.5,0,0,1-1.4-.4,1.6,1.6,0,0,1-.2-.9Z"/><path class="n" d="M121.2,49.2c.1.3.1.5.2.9h-1c-.2-.2-.2-.5-.1-.9Z"/><path class="b" d="M123.1,52.5a3,3,0,0,1-.2-1.4A4.6,4.6,0,0,1,123.1,52.5Z"/><path class="n" d="M122.5,53.5a2,2,0,0,1,.2-1A1.3,1.3,0,0,1,122.5,53.5Z"/><path class="b" d="M121.1,55.1c0-.3.2-.5.5-.7S121.4,54.8,121.1,55.1Z"/><path class="r" d="M79.1,39.1c2.5,1.5,3,4,3.4,6.4A3.3,3.3,0,0,1,81,47.9a2.1,2.1,0,0,1-3-1.1,37.1,37.1,0,0,1-1.9-4.6C75.6,40.7,77,39.2,79.1,39.1Z"/><path class="i" d="M92.1,40.2c.2,2.1.2,4.2.2,6.6a9.5,9.5,0,0,1-.7-2.9A16.4,16.4,0,0,1,92.1,40.2Z"/><path class="i" d="M94.1,39a7.1,7.1,0,0,1-1.7,1.1,7.7,7.7,0,0,1,.9-1.3C93.7,38.8,93.9,38.8,94.1,39Z"/><path class="f" d="M84.1,49l-1,.4A2.3,2.3,0,0,1,84.1,49Z"/><path class="s" d="M71.7,51.8l.8.6c.6,1.6,1.7,3.1-.3,4.3s-3.1,0-4.5-1.7l-1.3-1.5a2.4,2.4,0,0,1,.2-3.3c1-1.1,1.9-.8,2.9,0A20.9,20.9,0,0,0,71.7,51.8Z"/><path class="j" d="M96.5,45.7c-.2-1.3-.3-2.7-.4-4.2C97.5,42.6,96.6,44.1,96.5,45.7Z"/><path class="t" d="M114.3,115.2h17.1c1.4,0,2,.3,2,1.8-.1,10.4-.1,20.8-.1,31.1,0,3.5-3.2,7.7-6.5,8.6a23.4,23.4,0,0,1-5.2.8H65.9c-6.9,0-11.2-5.9-10.4-12.4.1-1.4.2-2.8.2-4.2,0-3.2-.2-6.4-.3-9.5V118.1c0-2.6.3-2.9,2.9-2.9h56m10.9,7.6h-56a3.6,3.6,0,0,0-2.9,3.1c-.5,2.1,2.6,4.3,5.1,4.3h49.5a29.4,29.4,0,0,0,4.2,0c2.5-.5,4.4-1.6,4.1-4.5s-1.1-2.9-4-2.9m-60.1,2.9c-.3-.5-.5-1.3-1-1.5a4.8,4.8,0,0,0-2.9-.8,3.3,3.3,0,0,0-1.8,2.2,2.9,2.9,0,0,0,2.2,3.7C63.3,129.6,64.7,128.3,65.1,125.7Z"/><path class="u" d="M48.9,42.8v65.1a14.7,14.7,0,0,1-8.2-4.2,33.2,33.2,0,0,1-9-13.9c-.9-2.6-2-5.1-2.8-7.7a11.2,11.2,0,0,1-.3-3.2c-.8-5.2-1.8-10.4-1.4-15.8.3-3.4,1-6.8,1.2-10.2.4-5.3,2.6-10,4.8-14.5s6.9-11.2,13.5-13.9c1.8-.7,2.2-.5,2.2,1.4Z"/><path class="t" d="M83,108.3H72.6c-2.2,0-2.1-.3-1.8-2.4A17.8,17.8,0,0,1,74.9,97a33.7,33.7,0,0,1,7.7-6.9C87,87.4,92,87,97.1,87.4a24.3,24.3,0,0,1,11.2,4.2c4.7,3,7.3,7.5,9.5,12.3a7.8,7.8,0,0,1,.5,3.4c0,.4-1.1,1-1.6,1-3.3.1-6.5,0-9.7,0Z"/><path class="v" d="M113.7,86.9l-11.2-6.3c.6-1.5,1.8-1.7,4-.8a35.6,35.6,0,0,1,14.3,10.8,23.8,23.8,0,0,1,5.5,10.4c.4,1.7,1,3.4,1.3,5.2s-.6,1.4-.9,2.1-1.2-1-1.3-1.6A30.9,30.9,0,0,0,118.7,92,47.9,47.9,0,0,0,113.7,86.9Z"/><path class="o" d="M61.8,100.9C64.5,92.6,69.9,86.6,77,82a26.9,26.9,0,0,1,5.7-2.6c2.1-.9,2.8-.5,4.2,1.8l-4.6,2c-6.6,2.4-11.2,6.9-14.7,12.9A28.4,28.4,0,0,0,64,106.7c-.2,1.2-.7,2.3-2.2,2.3s-1.7-.5-1.4-1.6S61.3,103.2,61.8,100.9Z"/><path class="v" d="M96,67.2a30.7,30.7,0,0,1-1.1,3.6c-.1.4-.5.7-.7,1a2.8,2.8,0,0,1-.7-.9,14.2,14.2,0,0,1-1-2.9c-.1-.7,0-1.8.4-2A2.1,2.1,0,0,1,96,67.2Z"/><path class="o" d="M104.9,55.5l2.8,3.6c-3.5,1.2-6.3,0-7.4-3.2-.1-.2.6-1.1.8-1.1a25.3,25.3,0,0,1,3.6.7Z"/><path class="p" d="M81.6,66.2a1.8,1.8,0,0,1-.7-.5l.9-.3A1.2,1.2,0,0,1,81.6,66.2Z"/><path class="p" d="M84.6,66a4.9,4.9,0,0,1,1,1.3A4.5,4.5,0,0,1,84.6,66Z"/><path class="p" d="M83.5,65.6a1.8,1.8,0,0,1,1,.1A1.8,1.8,0,0,1,83.5,65.6Z"/><path class="o" d="M106.5,66.9c0,.3-.1.3-.4.5a40.4,40.4,0,0,0-2.9,3h0c-1.5-.5-.7-1.6-.4-2.2a5.8,5.8,0,0,1,2.1-2.3C105.1,65.8,105.9,66.4,106.5,66.9Z"/><path class="l" d="M103.3,70.4a36.5,36.5,0,0,1,2.7-3A24.4,24.4,0,0,1,103.3,70.4Z"/><path class="p" d="M125.4,122.8c2.7,0,3.6.9,3.8,2.9s-1.6,4-4.1,4.5a29.4,29.4,0,0,1-4.2,0H71.4c-2.5,0-5.6-2.2-5.1-4.3a3.6,3.6,0,0,1,2.9-3.1h56.2m-23.2,1.1H70.6c-2.2,0-3.1.7-3.2,2.3s1.3,2.6,3.2,2.6h54.5c2,0,3.1-.9,3-2.6s-1.1-2.3-3.1-2.3Z"/><path class="n" d="M65.1,125.9c-.4,2.4-1.8,3.7-3.5,3.4a2.9,2.9,0,0,1-2.2-3.7,3.3,3.3,0,0,1,1.8-2.2,4.8,4.8,0,0,1,2.9.8C64.6,124.4,64.8,125.2,65.1,125.9Z"/><path class="s" d="M102.4,123.9H125c2,0,3,.7,3.1,2.3s-1,2.6-3,2.6H70.6c-1.9,0-3.2-1.2-3.2-2.6s1-2.3,3.2-2.3Z"/></svg>