<svg xmlns="http://www.w3.org/2000/svg" viewBox="0 0 169.5 220.5"><defs><style>.a{fill:#d19e3b;}.b{fill:#d39e3b;}</style></defs><path class="a" d="M61.5,112c2.4,1.5,3.1,2.2,4.1-.4,1.7-4.4,2.4-9.3,4.2-13.8,3.2-7.4,6.8-14.5,14.9-17.1,4.5-1.4,9.4-1.7,13.9-3.1,9.6-3,14-12,14.7-21.5.2-2.3-.9-6.1-1.8-6.8s-9.8-3.1-13.1-2.4a61.2,61.2,0,0,1-13.4.3c-2.3-.4-3.8-2.3-5.2-2.5s-4.5.7-4.9,2.5.1,2.3,1.4,3.6,5.1,3.7,5.3,7.8-.3,11.8-1.8,15.3S73.1,85.1,71,88.3a40,40,0,0,0-2.7,5.5,47.8,47.8,0,0,1-4.1,5.9c-2.3,3.1-5,6.4-8.8,7A23.8,23.8,0,0,0,61.5,112Zm48.8-61.5a22.6,22.6,0,0,1,1.1,4.3v-.5l.2,2c-.1-.5-.1-1-.2-1.5.2,2.2.2,4.3.2,6.5a27.3,27.3,0,0,0-.6-5,9.7,9.7,0,0,0-2.1-4.6A3.2,3.2,0,0,0,110.3,50.5ZM96.7,49a11.9,11.9,0,0,1,10.8,3c7.2,7.7-.1,21.2-10,21.5-6.7.1-10.9-2.9-12-5.2s-.7-8.7.7-10.9S92.6,49.7,96.7,49Zm-19.5.5c-.5-1,1.6-1.2,1.6-1.2a42,42,0,0,1,3.5,2.5c1.6,1.2,5.8-.1,5.9-.1-2,.6-2.9,3.9-3.5,5.5h0a45.5,45.5,0,0,0-1.9,8.9c.1-1.7.2-3.5.4-5.2s.2-4.6-1.2-6.3S78.1,51.3,77.2,49.5ZM82.8,69c0,4.2,7.7,6.9,10.8,7.1a41.3,41.3,0,0,0-14.5,4.8C81.1,77.5,82.8,73,82.8,69Z"/><path class="a" d="M14,49a26.9,26.9,0,0,0,1.1,12.8c1.1,3,1.3,4.3,6.4,4.9,2.1.3,4.1.8,6.1,1s5.7,1.8,7.5,5.2a20.4,20.4,0,0,1,2.5,11c-.2,3-.2,7.7,1.3,9.8s4.1,3,5.8,10.2,2.9,17.3,5.3,23.8a106.9,106.9,0,0,0,5.7,13c.3.4,9.2-2.3,9.9-2.8a3.8,3.8,0,0,0,1.1-1.1c1.5-2.6.1-6.4-.7-9s-1.5-6.8-3.5-9.4-8-5.3-10.6-8.1S44.5,99,42.8,95s-4.1-16.4-4.9-21.7a34.8,34.8,0,0,1-.3-9.6s-1.2,3.4-4.2,4.1a14.7,14.7,0,0,1-5.7-.1c2.9.2,6.1-.5,9.9-4,0,0,1.1-2.4,1.9-4.7a28.6,28.6,0,0,0-.6,3.7c-.1,1.7-.3,3.5-.3,5.6s.2,4.4.4,6.7.6,4.8,1,7.4a73.8,73.8,0,0,0,1.9,7.8A72.5,72.5,0,0,0,44.7,98c.6,1.3,1.2,2.6,1.9,3.8s1.5,2.4,2.3,3.5a32,32,0,0,0,5.5,6.1,23,23,0,0,0,3.3,2.1l3.1,1.8a11.4,11.4,0,0,1,2.3,2l.4.6.2.4v.2h0l.6,1.4,1.7,5.3,1.3,4.2,1.1,3.6-.2-1a23.3,23.3,0,0,0-.5-2.7c-.2-1.2-.5-2.7-.8-4.3s-.8-3.5-1.3-5.5c-.2-.5-.3-1-.5-1.5H65v-.4a5.6,5.6,0,0,0-.5-.8,9.2,9.2,0,0,0-2.6-2.6,21.4,21.4,0,0,0-3.2-2,30.6,30.6,0,0,1-2.9-2.1,28.3,28.3,0,0,1-5-5.8l-2.1-3.3-1.8-3.6A67.7,67.7,0,0,1,44,89.6c-.7-2.6-1.4-5.1-1.9-7.6s-1-4.9-1.4-7.2-.6-4.5-.8-6.5-.1-3.9-.1-5.6a25.8,25.8,0,0,1,.3-4.2,24.3,24.3,0,0,1,.5-2.6v-.3a.1.1,0,0,1,.1-.1,4.2,4.2,0,0,0,.1-.7.3.3,0,0,1-.1.2,76.7,76.7,0,0,0,.6-11.1,7.1,7.1,0,0,0-3.4-5.3c-2.6-1.5-6.4-3.8-8.5-8.1s-3-7.6-6.2-10.8-6.2-6.4-6.8-5.5-.7,1.4,1.9,5.1,7.4,7,7.9,10a9.2,9.2,0,0,1-2.8,7.6C21.5,38.8,14.9,44.1,14,49Zm45.3,78.1a4.5,4.5,0,1,1-4.4,4.5A4.5,4.5,0,0,1,59.3,127.1ZM17,64.6c-1.3-1.3-1.5-5.6-1.5-5.6a6.7,6.7,0,0,0,1.7,3,20.3,20.3,0,0,0,4.9,3.4C21.7,66.3,18.3,65.8,17,64.6ZM38.7,52.8c-.6,6.3-5.2,11.9-12.8,10.3-11.8-2.5-10.6-16-2.3-21.7S39.7,44.4,38.7,52.8Z"/><path class="a" d="M59.3,134.2a2.7,2.7,0,1,0-2.6-2.6A2.7,2.7,0,0,0,59.3,134.2Z"/><path class="a" d="M74.2,164.6c-1.5-4.6-2.9-9.3-4.3-13.9s-3.7-8.2-3.3-11.5c-2.3,1.2-4.9,2.6-7.5,2.8l-2.3.2s6.6,25.1,13.4,39.4,11.7,24.9,11.7,24.9,1.9,1.9,2.3.4c-1.4-10-2.9-19.4-5.9-29.1C76.9,173.4,75.6,169,74.2,164.6Zm-9.5-3.5,4,9.9,10.8,26C72.8,186.4,64.7,161.1,64.7,161.1Z"/><path class="a" d="M50.8,134.8l-.9-2.2-4.7,7-5.6,8.8-3.1,5c-1,1.7-2,3.5-2.9,5.3s-1.9,3.6-2.7,5.4-1.8,3.5-2.6,5.3L24,178.8l-4.1,9.3,3.8-9.4,4.1-9.6,2.4-5.3c.9-1.8,1.7-3.7,2.6-5.5a46.3,46.3,0,0,1,2.9-5.4c.9-1.8,1.9-3.5,2.9-5.1,1.9-3.3,3.8-6.3,5.4-8.9,2.5-4.2,4.4-7.2,5.1-8.3l-1.5-3.4c.9,2-4.2,8-5.2,9.8-2.5,4.3-4.8,8.6-7.1,13-4.4,8.7-8.4,17.6-12.2,26.5-1,2.2-9.5,24.9-5.8,24.9,1.6,0,2.2-3.1,2.7-4.1a99.7,99.7,0,0,1,5.5-9.6c4-6.5,8-13.1,11.9-19.8s7.8-13,11.6-19.6c1.9-3.4,4.5-6.2,3.2-9.9C51.8,137.2,51.3,136,50.8,134.8Z"/><path class="b" d="M134.3,208.2v-1.6l12.6.5h.1l5.8-.6c.5,0,.5-.6,0-.6l-18.6-.6v-1.6l12.8.4h.1l5.8-.5c.5-.1.5-.6,0-.6l-18.8-.6v-1.7l13,.5h.1l5.8-.6c.5,0,.5-.5,0-.6l-18.9-.6c0-.5-.1-1-.1-1.6l13.2.4h.1l5.8-.5c.5-.1.5-.6,0-.6l-19.1-.6v-1.7l13.3.5h.1l5.8-.6c.5,0,.5-.5,0-.5l-19.3-.7v-1.6l13.5.5h.1l5.8-.5c.5-.1.5-.6,0-.6l-19.4-.6a9.2,9.2,0,0,1-.1-1.6l13.7.4h.1l5.8-.6c.5,0,.5-.5,0-.5l-19.6-.7V186l13.8.5h.1l5.8-.6c.5,0,.5-.6,0-.6l-19.8-.6v-1.6l14,.4h.1l5.8-.5c.5-.1.5-.6,0-.6l-19.9-.7v-1.6l14.1.5h.1l5.8-.6c.5,0,.5-.6,0-.6l-20.1-.6v-1.6l14.3.4h.1l5.8-.5c.5-.1.5-.6,0-.6l-20.2-.7v-1.6l14.4.5h.1l5.8-.6c.5,0,.5-.5,0-.6l-20.4-.6v-1.6l14.6.4c0,.1.1,0,.1,0l5.8-.5c.5-.1.5-.6,0-.6l-20.5-.7v-1.6l14.7.5h.1l5.8-.6c.5,0,.5-.5,0-.5l-20.6-.7v-1.6l14.8.5h.1l5.8-.6c.5,0,.5-.6,0-.6l-20.7-.7v-1.6l14.9.5h.1l5.8-.5c.5-.1.5-.6,0-.6l-20.9-.7a8.1,8.1,0,0,1,.1-1.6l15,.5h.1l5.8-.6c.5,0,.5-.6,0-.6l-20.9-.7v-1.6l15.1.5h.1l5.8-.5c.5-.1.5-.6,0-.6l-21-.7v-1.6l15.2.5h.1l5.8-.6c.5,0,.5-.5,0-.6l-21-.7v-1.6l15.2.5h.1l5.8-.5c.5-.1.5-.6,0-.6l-21-.7c0-.5.1-1.1.1-1.6l15.1.5h.1l5.8-.6c.5,0,.4-.5,0-.5l-20.9-.7a10,10,0,0,0,.2-1.6l14.9.5h.1l5.8-.6c.5-.1.4-.6,0-.6l-20.6-.7a8.8,8.8,0,0,0,.2-1.6l14.6.5h.1l5.8-.5c.5-.1.4-.6,0-.6l-20.2-.7.3-1.6,14.1.5h.1l5.8-.6c.5,0,.4-.6,0-.6l-19.8-.6a12.4,12.4,0,0,0,.4-1.6l13.6.4h.1l5.8-.5c.5-.1.4-.6,0-.6l-19.1-.7a15.5,15.5,0,0,1,.4-1.5l12.9.4h.1l5.8-.6c.5,0,.4-.5,0-.6l-18.2-.6a7.1,7.1,0,0,0,.7-1.5l11.7.3h.1l5.8-.5c.5-.1.4-.6,0-.6l-17.3-.6a5,5,0,0,0-.2-1.2l-.2-.4,12.1.4h.1l5.8-.6c.5,0,.4-.5,0-.5l-18.8-.7c-.2-.4-.5-.8-.7-1.3l13.4.4h.2l5.8-.5c.5-.1.4-.6-.1-.6l-19.9-.7-.6-1.3,14.5.4h.1l5.9-.5c.4-.1.4-.6-.1-.6l-20.9-.7-.3-1.3,15.2.5h.1l5.8-.6c.5,0,.5-.6,0-.6l-21.5-.7c-.1-.4-.1-.9-.2-1.3l15.7.5h.1l5.8-.6c.5,0,.5-.5,0-.6l-21.8-.7a5.7,5.7,0,0,1-.1-1.3l15.9.5h.1l5.8-.6c.5,0,.4-.5,0-.5l-21.9-.8V111l15.8.5h.2l5.8-.5c.5-.1.4-.6-.1-.6l-21.7-.7v-1.4l15.7.6h.2l5.8-.6c.4-.1.4-.6-.1-.6l-21.5-.7a5.7,5.7,0,0,1,.1-1.3l15.4.5h.1l5.8-.6c.5,0,.5-.5,0-.6l-21.3-.7a5.3,5.3,0,0,0,.1-1.3l15.2.5h.1l5.8-.6c.5,0,.5-.5,0-.5l-21-.7a6.6,6.6,0,0,1,.1-1.4l14.9.5h.1l5.8-.5c.5-.1.4-.6,0-.6L133.8,99V97.7l14.6.4h.2l5.8-.5c.5-.1.4-.6-.1-.6l-20.4-.7A5.7,5.7,0,0,0,134,95l14.3.5h.2l5.8-.6c.4,0,.4-.6-.1-.6l-20.1-.6c0-.5.1-.9.1-1.4l14,.5h.1l5.8-.6c.5,0,.5-.5,0-.6L134.3,91c0-.5.1-.9.1-1.3l13.7.4h.1l5.8-.6c.5,0,.5-.5,0-.5l-19.5-.7c0-.4.1-.9.1-1.3l13.4.4h.1l5.8-.5c.5-.1.4-.6,0-.6l-19.2-.7c0-.4.1-.8.1-1.3l13.1.5h.1l5.8-.6c.5-.1.4-.6-.1-.6L134.9,83c0-.5.1-.9.1-1.3l12.7.4h.2l5.8-.6c.4,0,.4-.6-.1-.6l-18.5-.6c0-.4.1-.9.1-1.3l12.4.4h.1l5.8-.6c.5,0,.5-.5,0-.5l-18.2-.7a5.3,5.3,0,0,0,.1-1.3l12.1.4h.1l5.8-.5c.5-.1.5-.6,0-.6L135.5,75a6.2,6.2,0,0,0,.1-1.3l11.8.3h.1l5.8-.5c.5-.1.4-.6,0-.6l-17.5-.6a5.7,5.7,0,0,1,.1-1.3l11.4.4h.1l5.8-.6c.5,0,.4-.6-.1-.6L136,69.6a6.2,6.2,0,0,1,.1-1.3l11,.4h.2l5.8-.6c.4,0,.4-.5-.1-.6L136.2,67c0-.5.1-.9.1-1.3L147,66h.1l5.8-.6c.5,0,.5-.5,0-.5l-16.5-.6a5.7,5.7,0,0,0,.1-1.3l10.4.3h.1l5.8-.5c.5-.1.5-.6,0-.6l-16.2-.6a5.3,5.3,0,0,0,.1-1.3l10.1.4a.1.1,0,0,0,.1-.1l5.8-.5c.5-.1.4-.6,0-.6L136.9,59a5.3,5.3,0,0,1,.1-1.3l9.7.3h.1l5.8-.6c.5,0,.4-.6-.1-.6l-15.4-.5c0-.4.1-.9.1-1.3l9.3.3h.2l5.8-.6c.4,0,.4-.5-.1-.5l-15.1-.6a5.7,5.7,0,0,0,.1-1.3l9,.3h.1l5.9-.5c.4-.1.4-.6-.1-.6L137.5,51c.1-.5.1-.9.2-1.3l8.6.2h.1l5.8-.5c.5-.1.5-.6,0-.6l-14.4-.5c0-.5.1-1,.1-1.3l8.3.3h.1l5.8-.6c.5-.1.4-.6,0-.6L138,45.6a7.9,7.9,0,0,1,.5-1.3l7.6.3h.1L152,44c.5,0,.4-.5-.1-.6L139.7,43l1.3-.7c2.9-1,11.6-.7,11.6-.7l-1.3-1c-1.9-1.1-4.7-1-6.8-1s-5-.2-7.8,0-8.1,1.5-9.1,5.7-4.2,41.4-4.8,57.6-1.2,54.4-1,73.5,1.1,28.3,1.1,28.3.4,4.9,3.2,7,17.3.3,20.8-.2a51.6,51.6,0,0,0,8.7-2.3Zm-9.6-24.5V141s1.9,55.4,2,60.6S124.8,199.2,124.7,183.7Zm2.5,24.7a.9.9,0,0,1-.5-.3c-.3-.4-.6-1.4,0-1.8s0-.1.1-.1S128.2,208.3,127.2,208.4Zm3.7-89.8a15,15,0,0,1-1.9-5.5c-.6-7.3.5-14.6,1.4-21.8,1.6-11.5,4.8-47.4,4.8-47.4s-2.9,42.6-3.8,52.3-2,18.7,2.3,28.3C132.8,122.5,131.8,120.6,130.9,118.6Z"/></svg>